<svg width="24" height="24" viewBox="0 0 24 24" fill="none" xmlns="http://www.w3.org/2000/svg">
<path d="M9.78133 3.89076C10.3452 3.41023 10.6271 3.16997 10.9219 3.02907C11.6037 2.7032 12.3963 2.7032 13.0781 3.02907C13.3729 3.16997 13.6548 3.41023 14.2187 3.89076C14.4431 4.08201 14.5553 4.17764 14.6752 4.25796C14.9499 4.44209 15.2584 4.56988 15.5828 4.63393C15.7244 4.66188 15.8713 4.6736 16.1653 4.69706C16.9038 4.75599 17.273 4.78546 17.5811 4.89427C18.2936 5.14594 18.8541 5.7064 19.1058 6.41893C19.2146 6.72699 19.244 7.09625 19.303 7.83475C19.3264 8.12868 19.3382 8.27564 19.3661 8.41718C19.4301 8.74163 19.5579 9.05014 19.7421 9.32485C19.8224 9.44469 19.918 9.55691 20.1093 9.78133C20.5898 10.3452 20.8301 10.6271 20.971 10.9219C21.2968 11.6037 21.2968 12.3963 20.971 13.0781C20.8301 13.3729 20.5898 13.6548 20.1093 14.2187C19.918 14.4431 19.8224 14.5553 19.7421 14.6752C19.5579 14.9499 19.4301 15.2584 19.3661 15.5828C19.3382 15.7244 19.3264 15.8713 19.303 16.1653C19.244 16.9038 19.2146 17.273 19.1058 17.5811C18.8541 18.2936 18.2936 18.8541 17.5811 19.1058C17.273 19.2146 16.9038 19.244 16.1653 19.303C15.8713 19.3264 15.7244 19.3382 15.5828 19.3661C15.2584 19.4301 14.9499 19.5579 14.6752 19.7421C14.5553 19.8224 14.4431 19.918 14.2187 20.1093C13.6548 20.5898 13.3729 20.8301 13.0781 20.971C12.3963 21.2968 11.6037 21.2968 10.9219 20.971C10.6271 20.8301 10.3452 20.5898 9.78133 20.1093C9.55691 19.918 9.44469 19.8224 9.32485 19.7421C9.05014 19.5579 8.74163 19.4301 8.41718 19.3661C8.27564 19.3382 8.12868 19.3264 7.83475 19.303C7.09625 19.244 6.72699 19.2146 6.41893 19.1058C5.7064 18.8541 5.14594 18.2936 4.89427 17.5811C4.78546 17.273 4.75599 16.9038 4.69706 16.1653C4.6736 15.8713 4.66188 15.7244 4.63393 15.5828C4.56988 15.2584 4.44209 14.9499 4.25796 14.6752C4.17764 14.5553 4.08201 14.4431 3.89076 14.2187C3.41023 13.6548 3.16997 13.3729 3.02907 13.0781C2.7032 12.3963 2.7032 11.6037 3.02907 10.9219C3.16997 10.6271 3.41023 10.3452 3.89076 9.78133C4.08201 9.55691 4.17764 9.4447 4.25796 9.32485C4.44209 9.05014 4.56988 8.74163 4.63393 8.41718C4.66188 8.27564 4.6736 8.12868 4.69706 7.83475C4.75599 7.09625 4.78546 6.72699 4.89427 6.41893C5.14594 5.7064 5.7064 5.14594 6.41893 4.89427C6.72699 4.78546 7.09625 4.75599 7.83475 4.69706C8.12868 4.6736 8.27564 4.66188 8.41718 4.63393C8.74163 4.56988 9.05014 4.44209 9.32485 4.25796C9.4447 4.17764 9.55691 4.08201 9.78133 3.89076Z" fill="#3EAF3F"/>
<path d="M7.83475 4.69706L7.79498 4.19864L7.83475 4.69706ZM8.41718 4.63393L8.51402 5.12446L8.41718 4.63393ZM9.78133 3.89076L10.1056 4.27132V4.27132L9.78133 3.89076ZM9.32485 4.25796L9.04647 3.84262L9.32485 4.25796ZM4.69706 7.83475L4.19864 7.79498L4.69706 7.83475ZM4.89427 6.41893L4.42282 6.25241L4.89427 6.41893ZM6.41893 4.89427L6.25241 4.42282L6.41893 4.89427ZM3.89076 9.78133L4.27132 10.1056L3.89076 9.78133ZM4.25796 9.32485L3.84262 9.04647L4.25796 9.32485ZM4.63393 8.41718L5.12446 8.51402L4.63393 8.41718ZM3.89076 14.2187L4.27132 13.8944H4.27132L3.89076 14.2187ZM3.02907 13.0781L3.48019 12.8625L3.02907 13.0781ZM3.02907 10.9219L3.48019 11.1375L3.02907 10.9219ZM4.69706 16.1653L4.19864 16.205L4.69706 16.1653ZM4.63393 15.5828L5.12446 15.486L4.63393 15.5828ZM4.25796 14.6752L3.84262 14.9535L4.25796 14.6752ZM7.83475 19.303L7.87452 18.8046L7.83475 19.303ZM6.41893 19.1058L6.25241 19.5772L6.41893 19.1058ZM4.89427 17.5811L4.42282 17.7476L4.89427 17.5811ZM9.78133 20.1093L10.1056 19.7287L9.78133 20.1093ZM9.32485 19.7421L9.04647 20.1574L9.32485 19.7421ZM8.41718 19.3661L8.32033 19.8566L8.41718 19.3661ZM14.2187 20.1093L13.8944 19.7287L14.2187 20.1093ZM13.0781 20.971L12.8625 20.5198L13.0781 20.971ZM10.9219 20.971L11.1375 20.5198L10.9219 20.971ZM16.1653 19.303L16.1255 18.8046L16.1653 19.303ZM15.5828 19.3661L15.6797 19.8566L15.5828 19.3661ZM14.6752 19.7421L14.9536 20.1574L14.6752 19.7421ZM19.303 16.1653L18.8046 16.1255L19.303 16.1653ZM19.1058 17.5811L19.5772 17.7476L19.1058 17.5811ZM17.5811 19.1058L17.7476 19.5772L17.5811 19.1058ZM20.1093 14.2187L19.7287 13.8944L20.1093 14.2187ZM19.7421 14.6752L20.1574 14.9536L19.7421 14.6752ZM19.3661 15.5828L19.8566 15.6797L19.3661 15.5828ZM20.1093 9.78133L19.7287 10.1056L20.1093 9.78133ZM20.971 10.9219L20.5198 11.1375L20.971 10.9219ZM20.971 13.0781L20.5198 12.8625L20.971 13.0781ZM19.303 7.83475L19.8014 7.79498L19.303 7.83475ZM19.3661 8.41718L19.8566 8.32033L19.3661 8.41718ZM19.7421 9.32485L20.1574 9.04647L19.7421 9.32485ZM16.1653 4.69706L16.1255 5.19547L16.1653 4.69706ZM17.5811 4.89427L17.7476 4.42282L17.5811 4.89427ZM19.1058 6.41893L19.5772 6.25241L19.1058 6.41893ZM14.2187 3.89076L13.8944 4.27132L14.2187 3.89076ZM14.6752 4.25796L14.9535 3.84262L14.6752 4.25796ZM15.5828 4.63393L15.486 5.12446L15.5828 4.63393ZM13.0781 3.02907L12.8625 3.48019L13.0781 3.02907ZM10.9219 3.02907L11.1375 3.48019L10.9219 3.02907ZM8.85355 12.1464C8.65829 11.9512 8.34171 11.9512 8.14645 12.1464C7.95118 12.3417 7.95118 12.6583 8.14645 12.8536L8.5 12.5L8.85355 12.1464ZM10.5 14.5L10.1464 14.8536C10.3417 15.0488 10.6583 15.0488 10.8536 14.8536L10.5 14.5ZM15.8536 9.85355C16.0488 9.65829 16.0488 9.34171 15.8536 9.14645C15.6583 8.95118 15.3417 8.95118 15.1464 9.14645L15.5 9.5L15.8536 9.85355ZM7.83475 4.69706L7.87452 5.19547C8.15724 5.17291 8.33765 5.15928 8.51402 5.12446L8.41718 4.63393L8.32033 4.1434C8.21363 4.16447 8.10011 4.17429 7.79498 4.19864L7.83475 4.69706ZM9.78133 3.89076L9.45702 3.5102C9.22404 3.70875 9.13683 3.78207 9.04647 3.84262L9.32485 4.25796L9.60323 4.6733C9.75257 4.57321 9.88977 4.45528 10.1056 4.27132L9.78133 3.89076ZM8.41718 4.63393L8.51402 5.12446C8.90336 5.0476 9.27358 4.89425 9.60323 4.6733L9.32485 4.25796L9.04647 3.84262C8.8267 3.98992 8.57989 4.09216 8.32033 4.1434L8.41718 4.63393ZM4.69706 7.83475L5.19547 7.87452C5.25682 7.10574 5.28405 6.8167 5.36573 6.58545L4.89427 6.41893L4.42282 6.25241C4.28687 6.63729 4.25516 7.08675 4.19864 7.79498L4.69706 7.83475ZM7.83475 4.69706L7.79498 4.19864C7.08675 4.25516 6.63729 4.28687 6.25241 4.42282L6.41893 4.89427L6.58545 5.36573C6.8167 5.28405 7.10574 5.25682 7.87452 5.19547L7.83475 4.69706ZM4.89427 6.41893L5.36573 6.58545C5.56706 6.01543 6.01543 5.56706 6.58545 5.36573L6.41893 4.89427L6.25241 4.42282C5.39737 4.72482 4.72482 5.39737 4.42282 6.25241L4.89427 6.41893ZM3.89076 9.78133L4.27132 10.1056C4.45528 9.88977 4.57321 9.75257 4.6733 9.60323L4.25796 9.32485L3.84262 9.04647C3.78207 9.13683 3.70875 9.22404 3.5102 9.45702L3.89076 9.78133ZM4.69706 7.83475L4.19864 7.79498C4.17429 8.10011 4.16447 8.21363 4.1434 8.32033L4.63393 8.41718L5.12446 8.51402C5.15928 8.33765 5.17291 8.15724 5.19547 7.87452L4.69706 7.83475ZM4.25796 9.32485L4.6733 9.60323C4.89425 9.27358 5.0476 8.90336 5.12446 8.51402L4.63393 8.41718L4.1434 8.32033C4.09216 8.57989 3.98992 8.8267 3.84262 9.04647L4.25796 9.32485ZM3.89076 14.2187L4.27132 13.8944C3.77109 13.3074 3.58595 13.0838 3.48019 12.8625L3.02907 13.0781L2.57795 13.2937C2.75398 13.662 3.04937 14.0022 3.5102 14.543L3.89076 14.2187ZM3.89076 9.78133L3.5102 9.45702C3.04937 9.99778 2.75398 10.338 2.57795 10.7063L3.02907 10.9219L3.48019 11.1375C3.58595 10.9163 3.77109 10.6926 4.27132 10.1056L3.89076 9.78133ZM3.02907 13.0781L3.48019 12.8625C3.21949 12.3171 3.21949 11.683 3.48019 11.1375L3.02907 10.9219L2.57795 10.7063C2.18691 11.5244 2.18691 12.4756 2.57795 13.2937L3.02907 13.0781ZM4.69706 16.1653L5.19547 16.1255C5.17291 15.8428 5.15928 15.6624 5.12446 15.486L4.63393 15.5828L4.1434 15.6797C4.16447 15.7864 4.17429 15.8999 4.19864 16.205L4.69706 16.1653ZM3.89076 14.2187L3.5102 14.543C3.70875 14.776 3.78207 14.8632 3.84262 14.9535L4.25796 14.6752L4.6733 14.3968C4.57321 14.2475 4.45528 14.1103 4.27132 13.8944L3.89076 14.2187ZM4.63393 15.5828L5.12446 15.486C5.0476 15.0967 4.89425 14.7264 4.6733 14.3968L4.25796 14.6752L3.84262 14.9535C3.98992 15.1733 4.09216 15.4201 4.1434 15.6797L4.63393 15.5828ZM7.83475 19.303L7.87452 18.8046C7.10574 18.7432 6.8167 18.716 6.58545 18.6343L6.41893 19.1058L6.25241 19.5772C6.63729 19.7132 7.08675 19.7449 7.79498 19.8014L7.83475 19.303ZM4.69706 16.1653L4.19864 16.205C4.25516 16.9133 4.28687 17.3627 4.42282 17.7476L4.89427 17.5811L5.36573 17.4146C5.28405 17.1833 5.25682 16.8943 5.19547 16.1255L4.69706 16.1653ZM6.41893 19.1058L6.58545 18.6343C6.01543 18.433 5.56706 17.9846 5.36573 17.4146L4.89427 17.5811L4.42282 17.7476C4.72482 18.6027 5.39737 19.2752 6.25241 19.5772L6.41893 19.1058ZM9.78133 20.1093L10.1056 19.7287C9.88977 19.5447 9.75256 19.4268 9.60323 19.3267L9.32485 19.7421L9.04647 20.1574C9.13682 20.218 9.22404 20.2913 9.45702 20.4898L9.78133 20.1093ZM7.83475 19.303L7.79498 19.8014C8.10011 19.8257 8.21363 19.8356 8.32033 19.8566L8.41718 19.3661L8.51402 18.8756C8.33766 18.8407 8.15725 18.8271 7.87452 18.8046L7.83475 19.303ZM9.32485 19.7421L9.60323 19.3267C9.27358 19.1058 8.90336 18.9524 8.51402 18.8756L8.41718 19.3661L8.32033 19.8566C8.57989 19.9079 8.8267 20.0101 9.04647 20.1574L9.32485 19.7421ZM14.2187 20.1093L13.8944 19.7287C13.3074 20.2289 13.0838 20.4141 12.8625 20.5198L13.0781 20.971L13.2937 21.4221C13.662 21.246 14.0022 20.9507 14.543 20.4898L14.2187 20.1093ZM9.78133 20.1093L9.45702 20.4898C9.99778 20.9507 10.338 21.246 10.7063 21.4221L10.9219 20.971L11.1375 20.5198C10.9163 20.4141 10.6926 20.2289 10.1056 19.7287L9.78133 20.1093ZM13.0781 20.971L12.8625 20.5198C12.3171 20.7805 11.683 20.7805 11.1375 20.5198L10.9219 20.971L10.7063 21.4221C11.5244 21.8131 12.4756 21.8131 13.2937 21.4221L13.0781 20.971ZM16.1653 19.303L16.1255 18.8046C15.8428 18.8271 15.6624 18.8407 15.486 18.8756L15.5828 19.3661L15.6797 19.8566C15.7864 19.8356 15.8999 19.8257 16.205 19.8014L16.1653 19.303ZM14.2187 20.1093L14.543 20.4898C14.776 20.2913 14.8632 20.218 14.9536 20.1574L14.6752 19.7421L14.3968 19.3267C14.2475 19.4268 14.1103 19.5447 13.8944 19.7287L14.2187 20.1093ZM15.5828 19.3661L15.486 18.8756C15.0967 18.9524 14.7264 19.1058 14.3968 19.3267L14.6752 19.7421L14.9536 20.1574C15.1733 20.0101 15.4201 19.9079 15.6797 19.8566L15.5828 19.3661ZM19.303 16.1653L18.8046 16.1255C18.7432 16.8943 18.716 17.1833 18.6343 17.4146L19.1058 17.5811L19.5772 17.7476C19.7132 17.3627 19.7449 16.9133 19.8014 16.205L19.303 16.1653ZM16.1653 19.303L16.205 19.8014C16.9133 19.7449 17.3627 19.7132 17.7476 19.5772L17.5811 19.1058L17.4146 18.6343C17.1833 18.716 16.8943 18.7432 16.1255 18.8046L16.1653 19.303ZM19.1058 17.5811L18.6343 17.4146C18.433 17.9846 17.9846 18.433 17.4146 18.6343L17.5811 19.1058L17.7476 19.5772C18.6027 19.2752 19.2752 18.6027 19.5772 17.7476L19.1058 17.5811ZM20.1093 14.2187L19.7287 13.8944C19.5447 14.1103 19.4268 14.2475 19.3267 14.3968L19.7421 14.6752L20.1574 14.9536C20.218 14.8632 20.2913 14.776 20.4898 14.543L20.1093 14.2187ZM19.303 16.1653L19.8014 16.205C19.8257 15.8999 19.8356 15.7864 19.8566 15.6797L19.3661 15.5828L18.8756 15.486C18.8407 15.6624 18.8271 15.8428 18.8046 16.1255L19.303 16.1653ZM19.7421 14.6752L19.3267 14.3968C19.1058 14.7264 18.9524 15.0967 18.8756 15.486L19.3661 15.5828L19.8566 15.6797C19.9079 15.4201 20.0101 15.1733 20.1574 14.9536L19.7421 14.6752ZM20.1093 9.78133L19.7287 10.1056C20.2289 10.6926 20.4141 10.9163 20.5198 11.1375L20.971 10.9219L21.4221 10.7063C21.246 10.338 20.9507 9.99778 20.4898 9.45702L20.1093 9.78133ZM20.1093 14.2187L20.4898 14.543C20.9507 14.0022 21.246 13.662 21.4221 13.2937L20.971 13.0781L20.5198 12.8625C20.4141 13.0838 20.2289 13.3074 19.7287 13.8944L20.1093 14.2187ZM20.971 10.9219L20.5198 11.1375C20.7805 11.683 20.7805 12.3171 20.5198 12.8625L20.971 13.0781L21.4221 13.2937C21.8131 12.4756 21.8131 11.5244 21.4221 10.7063L20.971 10.9219ZM19.303 7.83475L18.8046 7.87452C18.8271 8.15725 18.8407 8.33766 18.8756 8.51402L19.3661 8.41718L19.8566 8.32033C19.8356 8.21363 19.8257 8.10011 19.8014 7.79498L19.303 7.83475ZM20.1093 9.78133L20.4898 9.45702C20.2913 9.22404 20.218 9.13683 20.1574 9.04647L19.7421 9.32485L19.3267 9.60323C19.4268 9.75256 19.5447 9.88977 19.7287 10.1056L20.1093 9.78133ZM19.3661 8.41718L18.8756 8.51402C18.9524 8.90336 19.1058 9.27358 19.3267 9.60323L19.7421 9.32485L20.1574 9.04647C20.0101 8.8267 19.9079 8.57989 19.8566 8.32033L19.3661 8.41718ZM16.1653 4.69706L16.1255 5.19547C16.8943 5.25682 17.1833 5.28405 17.4146 5.36573L17.5811 4.89427L17.7476 4.42282C17.3627 4.28687 16.9133 4.25516 16.205 4.19864L16.1653 4.69706ZM19.303 7.83475L19.8014 7.79498C19.7449 7.08675 19.7132 6.63729 19.5772 6.25241L19.1058 6.41893L18.6343 6.58545C18.716 6.8167 18.7432 7.10574 18.8046 7.87452L19.303 7.83475ZM17.5811 4.89427L17.4146 5.36573C17.9846 5.56706 18.433 6.01543 18.6343 6.58545L19.1058 6.41893L19.5772 6.25241C19.2752 5.39737 18.6027 4.72482 17.7476 4.42282L17.5811 4.89427ZM14.2187 3.89076L13.8944 4.27132C14.1103 4.45528 14.2475 4.57321 14.3968 4.6733L14.6752 4.25796L14.9535 3.84262C14.8632 3.78207 14.776 3.70875 14.543 3.5102L14.2187 3.89076ZM16.1653 4.69706L16.205 4.19864C15.8999 4.17429 15.7864 4.16447 15.6797 4.1434L15.5828 4.63393L15.486 5.12446C15.6624 5.15928 15.8428 5.17291 16.1255 5.19547L16.1653 4.69706ZM14.6752 4.25796L14.3968 4.6733C14.7264 4.89425 15.0967 5.0476 15.486 5.12446L15.5828 4.63393L15.6797 4.1434C15.4201 4.09216 15.1733 3.98992 14.9535 3.84262L14.6752 4.25796ZM14.2187 3.89076L14.543 3.5102C14.0022 3.04937 13.662 2.75398 13.2937 2.57795L13.0781 3.02907L12.8625 3.48019C13.0838 3.58595 13.3074 3.77109 13.8944 4.27132L14.2187 3.89076ZM9.78133 3.89076L10.1056 4.27132C10.6926 3.77109 10.9163 3.58595 11.1375 3.48019L10.9219 3.02907L10.7063 2.57795C10.338 2.75398 9.99778 3.04937 9.45702 3.5102L9.78133 3.89076ZM13.0781 3.02907L13.2937 2.57795C12.4756 2.18691 11.5244 2.18691 10.7063 2.57795L10.9219 3.02907L11.1375 3.48019C11.683 3.21949 12.3171 3.21949 12.8625 3.48019L13.0781 3.02907ZM8.5 12.5L8.14645 12.8536L10.1464 14.8536L10.5 14.5L10.8536 14.1464L8.85355 12.1464L8.5 12.5ZM10.5 14.5L10.8536 14.8536L15.8536 9.85355L15.5 9.5L15.1464 9.14645L10.1464 14.1464L10.5 14.5Z" fill="#F2FFF3"/>
</svg>
