<svg width="40" height="43" viewBox="0 0 40 43" fill="none" xmlns="http://www.w3.org/2000/svg">
<g opacity="0.3" filter="url(#filter0_f_3177_27854)">
<ellipse cx="19.7384" cy="37.2614" rx="9.2063" ry="1.60275" fill="url(#paint0_linear_3177_27854)"/>
</g>
<g opacity="0.3" filter="url(#filter1_f_3177_27854)">
<ellipse cx="20.6294" cy="37.9953" rx="11.6786" ry="0.360018" fill="url(#paint1_linear_3177_27854)"/>
</g>
<path d="M19.6795 4.7334C26.2602 4.7334 31.5953 10.0679 31.5956 16.6484C31.5956 23.2292 26.2603 28.5645 19.6795 28.5645C13.099 28.5642 7.76451 23.2291 7.76451 16.6484C7.76474 10.068 13.0991 4.73363 19.6795 4.7334Z" stroke="url(#paint2_linear_3177_27854)" stroke-width="0.409962"/>
<circle cx="19.6238" cy="16.6042" r="14.3479" fill="#FEC424" stroke="url(#paint3_linear_3177_27854)" stroke-width="4.50958"/>
<path fill-rule="evenodd" clip-rule="evenodd" d="M21.7942 21.2931C23.7342 20.3011 25.0611 18.293 25.0611 15.9774C25.0611 12.677 22.3659 10.0015 19.0411 10.0015C15.7163 10.0015 13.021 12.677 13.021 15.9774C13.021 19.2777 15.7163 21.9532 19.0411 21.9532C19.285 21.9532 19.375 21.9547 19.6137 21.9263C20.3843 23.9677 22.2997 24.5843 24.0729 23.4224C23.935 23.2812 23.8255 23.1126 23.7534 22.9256C20.9576 24.6652 20.1265 21.1708 19.9513 21.1864C19.6525 21.213 19.3514 21.2633 19.0411 21.2633C16.1002 21.2633 13.716 18.8967 13.716 15.9774C13.716 13.058 16.1001 10.6914 19.0411 10.6914C21.982 10.6914 24.3661 13.058 24.3661 15.9774C24.3661 18.0844 23.1241 19.9036 21.3273 20.7527C21.1034 20.8585 20.9696 21.0828 21.0978 21.3033C21.1968 21.4734 21.364 21.5131 21.7942 21.2931L21.7942 21.2931Z" fill="white" style="mix-blend-mode:soft-light"/>
<path fill-rule="evenodd" clip-rule="evenodd" d="M21.7942 21.2931C23.7342 20.3011 25.0611 18.293 25.0611 15.9774C25.0611 12.677 22.3659 10.0015 19.0411 10.0015C15.7163 10.0015 13.021 12.677 13.021 15.9774C13.021 19.2777 15.7163 21.9532 19.0411 21.9532C19.285 21.9532 19.375 21.9547 19.6137 21.9263C20.3843 23.9677 22.2997 24.5843 24.0729 23.4224C23.935 23.2812 23.8255 23.1126 23.7534 22.9256C20.9576 24.6652 20.1265 21.1708 19.9513 21.1864C19.6525 21.213 19.3514 21.2633 19.0411 21.2633C16.1002 21.2633 13.716 18.8967 13.716 15.9774C13.716 13.058 16.1001 10.6914 19.0411 10.6914C21.982 10.6914 24.3661 13.058 24.3661 15.9774C24.3661 18.0844 23.1241 19.9036 21.3273 20.7527C21.1034 20.8585 20.9696 21.0828 21.0978 21.3033C21.1968 21.4734 21.364 21.5131 21.7942 21.2931L21.7942 21.2931Z" stroke="#FFE168" stroke-width="0.168398" stroke-miterlimit="22.9256"/>
<path fill-rule="evenodd" clip-rule="evenodd" d="M19.0489 14.7988H19.0489C19.2037 14.7988 19.3303 14.9245 19.3303 15.0782V15.6509H19.9073C20.0621 15.6509 20.1887 15.7766 20.1887 15.9303V15.9303C20.1887 16.0839 20.0621 16.2096 19.9073 16.2096H19.3303V16.7824C19.3303 16.9361 19.2037 17.0618 19.0489 17.0618H19.0489C18.8941 17.0618 18.7675 16.936 18.7675 16.7824V16.2096H18.1905C18.0357 16.2096 17.9091 16.0839 17.9091 15.9303V15.9303C17.9091 15.7766 18.0357 15.6509 18.1905 15.6509H18.7675V15.0782C18.7675 14.9245 18.8942 14.7988 19.0489 14.7988Z" fill="white" style="mix-blend-mode:soft-light"/>
<path fill-rule="evenodd" clip-rule="evenodd" d="M25.4165 20.6147C26.3042 20.6147 27.0238 21.3291 27.0238 22.2102C27.0238 23.0913 26.3042 23.8057 25.4165 23.8057C24.5289 23.8057 23.8093 23.0913 23.8093 22.2102C23.8093 21.3291 24.5289 20.6147 25.4165 20.6147ZM25.4165 21.1043C26.0319 21.1043 26.5307 21.5994 26.5307 22.2103C26.5307 22.821 26.0319 23.3162 25.4165 23.3162C24.8012 23.3162 24.3024 22.821 24.3024 22.2103C24.3024 21.5994 24.8012 21.1043 25.4165 21.1043Z" fill="white" style="mix-blend-mode:soft-light"/>
<path d="M25.4166 22.9447C25.8253 22.9447 26.1566 22.6158 26.1566 22.2101C26.1566 21.8045 25.8253 21.4756 25.4166 21.4756C25.0079 21.4756 24.6766 21.8045 24.6766 22.2101C24.6766 22.6158 25.0079 22.9447 25.4166 22.9447Z" fill="white" style="mix-blend-mode:soft-light"/>
<path fill-rule="evenodd" clip-rule="evenodd" d="M16.2 12.6377H17.1339C17.0927 12.7115 17.0692 12.7921 17.0692 12.8867C17.0692 12.9813 17.0972 13.1153 17.146 13.1937H16.7707C16.6623 13.1937 16.5731 13.2823 16.5731 13.3898V16.7003C16.5731 18.3547 17.8397 19.1233 19.1067 19.105C20.3368 19.0872 21.5303 18.3306 21.5295 16.7003L21.5278 13.391C21.5278 13.2831 21.4385 13.1949 21.3302 13.1949H20.9879C21.0275 13.1221 21.0501 13.0075 21.0501 12.9129C21.0501 12.8182 21.0209 12.7182 20.9705 12.6389H21.8962C22.0762 12.6389 22.2234 12.7853 22.2235 12.9637L22.2252 16.7593C22.227 20.8787 15.8727 20.8072 15.8727 16.7593V12.9626C15.8727 12.7839 16.02 12.6377 16.2 12.6377Z" fill="white" style="mix-blend-mode:soft-light"/>
<path d="M17.5738 13.5815C17.9516 13.5815 18.2578 13.2775 18.2578 12.9026C18.2578 12.5276 17.9516 12.2236 17.5738 12.2236C17.1961 12.2236 16.8899 12.5276 16.8899 12.9026C16.8899 13.2775 17.1961 13.5815 17.5738 13.5815Z" fill="white" style="mix-blend-mode:soft-light"/>
<path d="M17.5738 13.5815C17.9516 13.5815 18.2578 13.2775 18.2578 12.9026C18.2578 12.5276 17.9516 12.2236 17.5738 12.2236C17.1961 12.2236 16.8899 12.5276 16.8899 12.9026C16.8899 13.2775 17.1961 13.5815 17.5738 13.5815Z" stroke="#FEC424" stroke-width="0.22453" stroke-miterlimit="22.9256"/>
<path d="M20.5234 13.5815C20.9012 13.5815 21.2074 13.2775 21.2074 12.9026C21.2074 12.5276 20.9012 12.2236 20.5234 12.2236C20.1457 12.2236 19.8395 12.5276 19.8395 12.9026C19.8395 13.2775 20.1457 13.5815 20.5234 13.5815Z" fill="white" style="mix-blend-mode:soft-light"/>
<path d="M20.5234 13.5815C20.9012 13.5815 21.2074 13.2775 21.2074 12.9026C21.2074 12.5276 20.9012 12.2236 20.5234 12.2236C20.1457 12.2236 19.8395 12.5276 19.8395 12.9026C19.8395 13.2775 20.1457 13.5815 20.5234 13.5815Z" stroke="#FEC424" stroke-width="0.22453" stroke-miterlimit="22.9256"/>
<circle cx="19.6238" cy="16.6027" r="16.3294" stroke="url(#paint4_linear_3177_27854)" stroke-width="0.546616"/>
<g opacity="0.3" filter="url(#filter2_f_3177_27854)">
<ellipse cx="19.7469" cy="37.4658" rx="16.3305" ry="1.80709" fill="url(#paint5_linear_3177_27854)"/>
</g>
<g opacity="0.3" filter="url(#filter3_f_3177_27854)">
<ellipse cx="19.7081" cy="37.7403" rx="13.5245" ry="0.89604" fill="url(#paint6_linear_3177_27854)"/>
</g>
<defs>
<filter id="filter0_f_3177_27854" x="8.4823" y="33.6089" width="22.5122" height="7.30518" filterUnits="userSpaceOnUse" color-interpolation-filters="sRGB">
<feFlood flood-opacity="0" result="BackgroundImageFix"/>
<feBlend mode="normal" in="SourceGraphic" in2="BackgroundImageFix" result="shape"/>
<feGaussianBlur stdDeviation="1.0249" result="effect1_foregroundBlur_3177_27854"/>
</filter>
<filter id="filter1_f_3177_27854" x="8.54087" y="37.2253" width="24.1771" height="1.54014" filterUnits="userSpaceOnUse" color-interpolation-filters="sRGB">
<feFlood flood-opacity="0" result="BackgroundImageFix"/>
<feBlend mode="normal" in="SourceGraphic" in2="BackgroundImageFix" result="shape"/>
<feGaussianBlur stdDeviation="0.204981" result="effect1_foregroundBlur_3177_27854"/>
</filter>
<filter id="filter2_f_3177_27854" x="4.76837e-07" y="32.2423" width="39.4938" height="10.447" filterUnits="userSpaceOnUse" color-interpolation-filters="sRGB">
<feFlood flood-opacity="0" result="BackgroundImageFix"/>
<feBlend mode="normal" in="SourceGraphic" in2="BackgroundImageFix" result="shape"/>
<feGaussianBlur stdDeviation="1.70817" result="effect1_foregroundBlur_3177_27854"/>
</filter>
<filter id="filter3_f_3177_27854" x="5.50032" y="36.161" width="28.4155" height="3.15853" filterUnits="userSpaceOnUse" color-interpolation-filters="sRGB">
<feFlood flood-opacity="0" result="BackgroundImageFix"/>
<feBlend mode="normal" in="SourceGraphic" in2="BackgroundImageFix" result="shape"/>
<feGaussianBlur stdDeviation="0.341635" result="effect1_foregroundBlur_3177_27854"/>
</filter>
<linearGradient id="paint0_linear_3177_27854" x1="19.7384" y1="35.265" x2="19.7384" y2="38.8642" gradientUnits="userSpaceOnUse">
<stop stop-color="#81674C" stop-opacity="0"/>
<stop offset="1" stop-color="#AC7D4B"/>
</linearGradient>
<linearGradient id="paint1_linear_3177_27854" x1="31.337" y1="38.3553" x2="8.95083" y2="38.355" gradientUnits="userSpaceOnUse">
<stop stop-color="#95693A" stop-opacity="0"/>
<stop offset="0.50698" stop-color="#533B20"/>
<stop offset="1" stop-color="#856139" stop-opacity="0"/>
</linearGradient>
<linearGradient id="paint2_linear_3177_27854" x1="16.6549" y1="4.52832" x2="27.5982" y2="26.1265" gradientUnits="userSpaceOnUse">
<stop stop-color="#C8892B"/>
<stop offset="0.979601" stop-color="#FFEDA3"/>
</linearGradient>
<linearGradient id="paint3_linear_3177_27854" x1="31.5288" y1="4.34246" x2="9.56343" y2="29.6727" gradientUnits="userSpaceOnUse">
<stop stop-color="#FED64A"/>
<stop offset="0.123016" stop-color="#FEF14E"/>
<stop offset="0.248796" stop-color="#FFDF6C"/>
<stop offset="0.482583" stop-color="#FCFF67"/>
<stop offset="0.743348" stop-color="#FED545"/>
<stop offset="0.82597" stop-color="#FECA45"/>
<stop offset="1" stop-color="#FEED44"/>
</linearGradient>
<linearGradient id="paint4_linear_3177_27854" x1="16.3568" y1="-5.64165e-08" x2="20.3942" y2="33.2055" gradientUnits="userSpaceOnUse">
<stop stop-color="#FFF3C4"/>
<stop offset="0.483894" stop-color="#EDC071"/>
<stop offset="0.961122" stop-color="#BF8147"/>
</linearGradient>
<linearGradient id="paint5_linear_3177_27854" x1="19.7469" y1="35.2148" x2="19.7469" y2="39.2729" gradientUnits="userSpaceOnUse">
<stop stop-color="#CB9355" stop-opacity="0"/>
<stop offset="1" stop-color="#AC7D4B"/>
</linearGradient>
<linearGradient id="paint6_linear_3177_27854" x1="32.108" y1="38.6363" x2="6.18359" y2="38.6362" gradientUnits="userSpaceOnUse">
<stop stop-color="#CB9355" stop-opacity="0"/>
<stop offset="0.50698" stop-color="#755531"/>
<stop offset="1" stop-color="#856139" stop-opacity="0"/>
</linearGradient>
</defs>
</svg>
