<svg width="132" height="143" viewBox="0 0 132 143" fill="none" xmlns="http://www.w3.org/2000/svg">
<g opacity="0.3" filter="url(#filter0_f_3177_27764)">
<ellipse cx="65.8562" cy="124.32" rx="30.7164" ry="5.34748" fill="url(#paint0_linear_3177_27764)"/>
</g>
<g opacity="0.3" filter="url(#filter1_f_3177_27764)">
<ellipse cx="68.8289" cy="126.769" rx="38.965" ry="1.20118" fill="url(#paint1_linear_3177_27764)"/>
</g>
<path d="M65.6611 15.7925C87.6175 15.7925 105.417 33.5919 105.417 55.5483C105.417 77.5048 87.6176 95.3042 65.6611 95.3042C43.7047 95.3041 25.9053 77.5047 25.9053 55.5483C25.9053 33.592 43.7048 15.7925 65.6611 15.7925Z" stroke="url(#paint2_linear_3177_27764)" stroke-width="1.36782"/>
<circle cx="65.4737" cy="55.399" r="47.8712" fill="#FEC424" stroke="url(#paint3_linear_3177_27764)" stroke-width="15.046"/>
<path fill-rule="evenodd" clip-rule="evenodd" d="M71.0507 70.4218C77.7009 67.0211 82.2497 60.1372 82.2497 52.1994C82.2497 40.8856 73.0103 31.7139 61.613 31.7139C50.2155 31.7139 40.9761 40.8856 40.9761 52.1994C40.9761 63.513 50.2155 72.6848 61.613 72.6848C62.4491 72.6848 62.7575 72.6897 63.5758 72.5924C66.2174 79.5903 72.7836 81.7041 78.8622 77.721C78.3893 77.237 78.0139 76.6591 77.7668 76.018C68.1827 81.9815 65.3337 70.0024 64.7333 70.0559C63.7088 70.1471 62.6768 70.3197 61.613 70.3197C51.5314 70.3197 43.3585 62.2069 43.3585 52.1994C43.3585 42.1917 51.5313 34.0789 61.613 34.0789C71.6944 34.0789 79.8673 42.1917 79.8673 52.1994C79.8673 59.4224 75.6096 65.6585 69.45 68.5694C68.6825 68.9321 68.2239 69.701 68.6634 70.4567C69.0028 71.0399 69.5759 71.1758 71.0507 70.4217L71.0507 70.4218Z" fill="white" style="mix-blend-mode:soft-light"/>
<path fill-rule="evenodd" clip-rule="evenodd" d="M71.0507 70.4218C77.7009 67.0211 82.2497 60.1372 82.2497 52.1994C82.2497 40.8856 73.0103 31.7139 61.613 31.7139C50.2155 31.7139 40.9761 40.8856 40.9761 52.1994C40.9761 63.513 50.2155 72.6848 61.613 72.6848C62.4491 72.6848 62.7575 72.6897 63.5758 72.5924C66.2174 79.5903 72.7836 81.7041 78.8622 77.721C78.3893 77.237 78.0139 76.6591 77.7668 76.018C68.1827 81.9815 65.3337 70.0024 64.7333 70.0559C63.7088 70.1471 62.6768 70.3197 61.613 70.3197C51.5314 70.3197 43.3585 62.2069 43.3585 52.1994C43.3585 42.1917 51.5313 34.0789 61.613 34.0789C71.6944 34.0789 79.8673 42.1917 79.8673 52.1994C79.8673 59.4224 75.6096 65.6585 69.45 68.5694C68.6825 68.9321 68.2239 69.701 68.6634 70.4567C69.0028 71.0399 69.5759 71.1758 71.0507 70.4217L71.0507 70.4218Z" stroke="#FFE168" stroke-width="0.57727" stroke-miterlimit="22.9256"/>
<path fill-rule="evenodd" clip-rule="evenodd" d="M61.6397 48.1592H61.6398C62.1705 48.1592 62.6045 48.5901 62.6045 49.1167V51.0802H64.5825C65.1131 51.0802 65.5471 51.5111 65.5471 52.0377V52.0378C65.5471 52.5646 65.113 52.9955 64.5825 52.9955H62.6045V54.9589C62.6045 55.4856 62.1704 55.9165 61.6398 55.9165H61.6397C61.1092 55.9165 60.6751 55.4856 60.6751 54.9589V52.9955H58.6971C58.1664 52.9955 57.7325 52.5645 57.7325 52.0378V52.0377C57.7325 51.511 58.1665 51.0802 58.6971 51.0802H60.6751V49.1167C60.6751 48.59 61.1092 48.1592 61.6397 48.1592Z" fill="white" style="mix-blend-mode:soft-light"/>
<path fill-rule="evenodd" clip-rule="evenodd" d="M83.4681 68.0962C86.511 68.0962 88.9777 70.5449 88.9777 73.5655C88.9777 76.586 86.511 79.0348 83.4681 79.0348C80.4252 79.0348 77.9584 76.586 77.9584 73.5655C77.9584 70.5449 80.4252 68.0962 83.4681 68.0962ZM83.4681 69.7743C85.5774 69.7743 87.2873 71.4717 87.2873 73.5656C87.2873 75.6594 85.5774 77.3568 83.4681 77.3568C81.3588 77.3568 79.6488 75.6594 79.6488 73.5656C79.6488 71.4717 81.3588 69.7743 83.4681 69.7743Z" fill="white" style="mix-blend-mode:soft-light"/>
<path d="M83.4682 76.0835C84.8692 76.0835 86.0049 74.9561 86.0049 73.5654C86.0049 72.1747 84.8692 71.0474 83.4682 71.0474C82.0672 71.0474 80.9315 72.1747 80.9315 73.5654C80.9315 74.9561 82.0672 76.0835 83.4682 76.0835Z" fill="white" style="mix-blend-mode:soft-light"/>
<path fill-rule="evenodd" clip-rule="evenodd" d="M51.8735 40.7505H55.075C54.9337 41.0035 54.8531 41.2799 54.8531 41.6041C54.8531 41.9284 54.9494 42.3877 55.1164 42.6563H53.8301C53.4586 42.6563 53.1527 42.9601 53.1527 43.3288V54.6773C53.1527 60.3485 57.4945 62.9831 61.8377 62.9204C66.0545 62.8595 70.1461 60.2657 70.1434 54.6773L70.1376 43.3328C70.1374 42.9631 69.8312 42.6605 69.4601 42.6605H68.2866C68.4225 42.411 68.4998 42.0182 68.4998 41.6938C68.4998 41.3694 68.3998 41.0265 68.2269 40.7547H71.4005C72.0174 40.7547 72.522 41.2566 72.5224 41.8681L72.5281 54.8795C72.5343 69.0009 50.7517 68.7555 50.7517 54.8795V41.8641C50.7517 41.2517 51.2566 40.7505 51.8735 40.7505Z" fill="white" style="mix-blend-mode:soft-light"/>
<path d="M56.5832 43.9859C57.8781 43.9859 58.9278 42.9438 58.9278 41.6585C58.9278 40.3731 57.8781 39.3311 56.5832 39.3311C55.2883 39.3311 54.2386 40.3731 54.2386 41.6585C54.2386 42.9438 55.2883 43.9859 56.5832 43.9859Z" fill="white" style="mix-blend-mode:soft-light"/>
<path d="M56.5832 43.9859C57.8781 43.9859 58.9278 42.9438 58.9278 41.6585C58.9278 40.3731 57.8781 39.3311 56.5832 39.3311C55.2883 39.3311 54.2386 40.3731 54.2386 41.6585C54.2386 42.9438 55.2883 43.9859 56.5832 43.9859Z" stroke="#FEC424" stroke-width="0.769693" stroke-miterlimit="22.9256"/>
<path d="M66.6944 43.9859C67.9893 43.9859 69.039 42.9438 69.039 41.6585C69.039 40.3731 67.9893 39.3311 66.6944 39.3311C65.3995 39.3311 64.3498 40.3731 64.3498 41.6585C64.3498 42.9438 65.3995 43.9859 66.6944 43.9859Z" fill="white" style="mix-blend-mode:soft-light"/>
<path d="M66.6944 43.9859C67.9893 43.9859 69.039 42.9438 69.039 41.6585C69.039 40.3731 67.9893 39.3311 66.6944 39.3311C65.3995 39.3311 64.3498 40.3731 64.3498 41.6585C64.3498 42.9438 65.3995 43.9859 66.6944 43.9859Z" stroke="#FEC424" stroke-width="0.769693" stroke-miterlimit="22.9256"/>
<circle cx="65.4737" cy="55.3942" r="54.4823" stroke="url(#paint4_linear_3177_27764)" stroke-width="1.82375"/>
<g opacity="0.3" filter="url(#filter2_f_3177_27764)">
<ellipse cx="65.8845" cy="125.002" rx="54.486" ry="6.02925" fill="url(#paint5_linear_3177_27764)"/>
</g>
<g opacity="0.3" filter="url(#filter3_f_3177_27764)">
<ellipse cx="65.7549" cy="125.918" rx="45.1237" ry="2.98959" fill="url(#paint6_linear_3177_27764)"/>
</g>
<defs>
<filter id="filter0_f_3177_27764" x="28.3008" y="112.134" width="75.1109" height="24.373" filterUnits="userSpaceOnUse" color-interpolation-filters="sRGB">
<feFlood flood-opacity="0" result="BackgroundImageFix"/>
<feBlend mode="normal" in="SourceGraphic" in2="BackgroundImageFix" result="shape"/>
<feGaussianBlur stdDeviation="3.41954" result="effect1_foregroundBlur_3177_27764"/>
</filter>
<filter id="filter1_f_3177_27764" x="28.4962" y="124.2" width="80.6655" height="5.13798" filterUnits="userSpaceOnUse" color-interpolation-filters="sRGB">
<feFlood flood-opacity="0" result="BackgroundImageFix"/>
<feBlend mode="normal" in="SourceGraphic" in2="BackgroundImageFix" result="shape"/>
<feGaussianBlur stdDeviation="0.683908" result="effect1_foregroundBlur_3177_27764"/>
</filter>
<filter id="filter2_f_3177_27764" x="9.53674e-07" y="107.574" width="131.769" height="34.8555" filterUnits="userSpaceOnUse" color-interpolation-filters="sRGB">
<feFlood flood-opacity="0" result="BackgroundImageFix"/>
<feBlend mode="normal" in="SourceGraphic" in2="BackgroundImageFix" result="shape"/>
<feGaussianBlur stdDeviation="5.69923" result="effect1_foregroundBlur_3177_27764"/>
</filter>
<filter id="filter3_f_3177_27764" x="18.3515" y="120.649" width="94.8068" height="10.5384" filterUnits="userSpaceOnUse" color-interpolation-filters="sRGB">
<feFlood flood-opacity="0" result="BackgroundImageFix"/>
<feBlend mode="normal" in="SourceGraphic" in2="BackgroundImageFix" result="shape"/>
<feGaussianBlur stdDeviation="1.13985" result="effect1_foregroundBlur_3177_27764"/>
</filter>
<linearGradient id="paint0_linear_3177_27764" x1="65.8562" y1="117.659" x2="65.8562" y2="129.668" gradientUnits="userSpaceOnUse">
<stop stop-color="#81674C" stop-opacity="0"/>
<stop offset="1" stop-color="#AC7D4B"/>
</linearGradient>
<linearGradient id="paint1_linear_3177_27764" x1="104.554" y1="127.97" x2="29.864" y2="127.969" gradientUnits="userSpaceOnUse">
<stop stop-color="#95693A" stop-opacity="0"/>
<stop offset="0.50698" stop-color="#533B20"/>
<stop offset="1" stop-color="#856139" stop-opacity="0"/>
</linearGradient>
<linearGradient id="paint2_linear_3177_27764" x1="55.5681" y1="15.1089" x2="92.0801" y2="87.1702" gradientUnits="userSpaceOnUse">
<stop stop-color="#C8892B"/>
<stop offset="0.979601" stop-color="#FFEDA3"/>
</linearGradient>
<linearGradient id="paint3_linear_3177_27764" x1="105.194" y1="14.4884" x2="31.9079" y2="99.0014" gradientUnits="userSpaceOnUse">
<stop stop-color="#FED64A"/>
<stop offset="0.123016" stop-color="#FEF14E"/>
<stop offset="0.248796" stop-color="#FFDF6C"/>
<stop offset="0.482583" stop-color="#FCFF67"/>
<stop offset="0.743348" stop-color="#FED545"/>
<stop offset="0.82597" stop-color="#FECA45"/>
<stop offset="1" stop-color="#FEED44"/>
</linearGradient>
<linearGradient id="paint4_linear_3177_27764" x1="54.5735" y1="-1.88231e-07" x2="68.0442" y2="110.788" gradientUnits="userSpaceOnUse">
<stop stop-color="#FFF3C4"/>
<stop offset="0.483894" stop-color="#EDC071"/>
<stop offset="0.961122" stop-color="#BF8147"/>
</linearGradient>
<linearGradient id="paint5_linear_3177_27764" x1="65.8844" y1="117.492" x2="65.8844" y2="131.031" gradientUnits="userSpaceOnUse">
<stop stop-color="#CB9355" stop-opacity="0"/>
<stop offset="1" stop-color="#AC7D4B"/>
</linearGradient>
<linearGradient id="paint6_linear_3177_27764" x1="107.127" y1="128.908" x2="20.6312" y2="128.907" gradientUnits="userSpaceOnUse">
<stop stop-color="#CB9355" stop-opacity="0"/>
<stop offset="0.50698" stop-color="#755531"/>
<stop offset="1" stop-color="#856139" stop-opacity="0"/>
</linearGradient>
</defs>
</svg>
