<svg width="22" height="26" viewBox="0 0 22 26" fill="none" xmlns="http://www.w3.org/2000/svg">
<g opacity="0.2" filter="url(#filter0_f_4813_40269)">
<ellipse cx="11.2402" cy="22.6876" rx="8.72117" ry="1.04992" fill="url(#paint0_linear_4813_40269)"/>
</g>
<g opacity="0.5" filter="url(#filter1_f_4813_40269)">
<path d="M17.4126 23.1165C17.4126 23.2183 14.5814 23.5786 10.9099 23.5786C7.23837 23.5786 4.26202 23.496 4.26202 23.3943C-0.195625 23.1528 7.56467 22.1614 11.2362 22.1614C14.9077 22.1614 17.4126 23.0147 17.4126 23.1165Z" fill="url(#paint1_linear_4813_40269)"/>
</g>
<g opacity="0.3" filter="url(#filter2_f_4813_40269)">
<ellipse cx="9.9383" cy="23.2169" rx="7.85774" ry="0.520601" fill="url(#paint2_linear_4813_40269)"/>
</g>
<g opacity="0.3" filter="url(#filter3_f_4813_40269)">
<ellipse cx="10.3885" cy="23.3986" rx="6.78527" ry="0.209171" fill="url(#paint3_linear_4813_40269)"/>
</g>
<path d="M6.74933 4.80941C10.9614 1.76242 16.503 2.32916 18.931 5.68545C21.3395 9.01547 19.8203 14.0674 15.5759 17.1377C11.3429 20.1998 6.20302 19.926 3.78756 16.587C1.3596 13.2307 2.53759 7.85632 6.74933 4.80941Z" stroke="url(#paint4_linear_4813_40269)" stroke-width="0.762174"/>
<path d="M18.2236 3.95555C21.7383 8.12062 20.8305 13.1568 15.9412 17.1248C10.907 20.8367 5.44615 19.9413 2.5758 16.2903C-0.294548 12.6394 0.758191 6.57064 5.21584 3.34601C9.67349 0.121382 15.5792 0.299992 18.2236 3.95555Z" fill="url(#paint5_linear_4813_40269)"/>
<path d="M5.3122 3.13956C9.65152 0.000532309 15.287 0.510124 17.7098 3.85935C18.9171 5.52848 19.1171 7.62821 18.4645 9.72441C17.811 11.8235 16.3051 13.9007 14.1372 15.469C9.77689 18.6232 4.54583 18.4051 2.13522 15.0729C-0.287653 11.7236 0.973132 6.2785 5.3122 3.13956Z" stroke="url(#paint6_linear_4813_40269)" stroke-width="0.762174"/>
<path d="M5.69548 3.70555C9.87588 0.681665 14.7392 1.10365 16.7362 3.86415C18.7331 6.62467 17.612 11.3758 13.4317 14.3999C9.25124 17.4241 4.38721 17.0025 2.39023 14.2419C0.39325 11.4813 1.51501 6.72967 5.69548 3.70555Z" fill="#FFD93B" stroke="url(#paint7_linear_4813_40269)" stroke-width="2.11715"/>
<path fill-rule="evenodd" clip-rule="evenodd" d="M8.49854 11.0517C9.46831 11.1773 10.6478 10.7057 11.5467 9.735C12.8279 8.35141 13.0542 6.47758 12.0522 5.54971C11.0501 4.62183 9.19917 4.99126 7.91797 6.37485C6.6368 7.75842 6.41048 9.63225 7.41253 10.5601C7.48604 10.6282 7.5126 10.6539 7.59555 10.7086C7.03534 11.7795 7.37326 12.5725 8.35873 12.5803C8.37196 12.4826 8.4044 12.3814 8.45528 12.2829C6.93735 12.2319 8.0434 10.535 7.98456 10.4927C7.88416 10.4204 7.77388 10.3575 7.68035 10.2709C6.794 9.45016 6.99416 7.79265 8.12744 6.56881C9.26073 5.34495 10.898 5.01817 11.7843 5.83894C12.6707 6.65967 12.4705 8.31718 11.3372 9.54104C10.5193 10.4244 9.43875 10.8404 8.56758 10.6949C8.45903 10.6767 8.33163 10.7334 8.2847 10.8616C8.24849 10.9606 8.28348 11.0239 8.49855 11.0517L8.49854 11.0517Z" fill="white" style="mix-blend-mode:soft-light"/>
<path fill-rule="evenodd" clip-rule="evenodd" d="M8.49854 11.0517C9.46831 11.1773 10.6478 10.7057 11.5467 9.735C12.8279 8.35141 13.0542 6.47758 12.0522 5.54971C11.0501 4.62183 9.19917 4.99126 7.91797 6.37485C6.6368 7.75842 6.41048 9.63225 7.41253 10.5601C7.48604 10.6282 7.5126 10.6539 7.59555 10.7086C7.03534 11.7795 7.37326 12.5725 8.35873 12.5803C8.37196 12.4826 8.4044 12.3814 8.45528 12.2829C6.93735 12.2319 8.0434 10.535 7.98456 10.4927C7.88416 10.4204 7.77388 10.3575 7.68035 10.2709C6.794 9.45016 6.99416 7.79265 8.12744 6.56881C9.26073 5.34495 10.898 5.01817 11.7843 5.83894C12.6707 6.65967 12.4705 8.31718 11.3372 9.54104C10.5193 10.4244 9.43875 10.8404 8.56758 10.6949C8.45903 10.6767 8.33163 10.7334 8.2847 10.8616C8.24849 10.9606 8.28348 11.0239 8.49855 11.0517L8.49854 11.0517Z" stroke="#FFE168" stroke-width="0.0411892" stroke-miterlimit="22.9256"/>
<path fill-rule="evenodd" clip-rule="evenodd" d="M10.1924 7.56297L10.1924 7.56298C10.2391 7.60618 10.2284 7.69421 10.1688 7.75861L9.94644 7.99873L10.1203 8.15976C10.167 8.20296 10.1563 8.29099 10.0967 8.35539L10.0967 8.3554C10.0371 8.41982 9.9501 8.43718 9.90345 8.39398L9.72955 8.23295L9.5072 8.47307C9.44755 8.53748 9.3606 8.55484 9.31395 8.51164L9.31394 8.51164C9.26729 8.46844 9.27793 8.3804 9.33757 8.31599L9.55992 8.07588L9.38602 7.91485C9.33936 7.87164 9.35001 7.78361 9.40965 7.7192L9.40966 7.71919C9.46931 7.65478 9.55626 7.63743 9.60291 7.68062L9.77681 7.84165L9.99915 7.60154C10.0588 7.53712 10.1458 7.51978 10.1924 7.56297Z" fill="white" style="mix-blend-mode:soft-light"/>
<path fill-rule="evenodd" clip-rule="evenodd" d="M9.85305 11.7791C10.1206 12.0268 10.0601 12.5271 9.71809 12.8965C9.37604 13.2659 8.88187 13.3646 8.61434 13.1168C8.34682 12.8691 8.40725 12.3688 8.74929 11.9994C9.09135 11.63 9.58553 11.5314 9.85305 11.7791ZM9.66302 11.9843C9.84846 12.1561 9.80658 12.5028 9.56946 12.7589C9.33236 13.015 8.98981 13.0833 8.80437 12.9116C8.61892 12.7399 8.66079 12.3931 8.8979 12.1371C9.13502 11.881 9.47758 11.8126 9.66302 11.9843Z" fill="white" style="mix-blend-mode:soft-light"/>
<path d="M8.94886 12.7553C9.07203 12.8693 9.29955 12.8239 9.45703 12.6538C9.61451 12.4838 9.64233 12.2534 9.51916 12.1394C9.39599 12.0253 9.16848 12.0707 9.01099 12.2408C8.85351 12.4109 8.82569 12.6412 8.94886 12.7553Z" fill="white" style="mix-blend-mode:soft-light"/>
<path fill-rule="evenodd" clip-rule="evenodd" d="M10.1724 5.86208L10.4538 6.12272C10.4128 6.14215 10.3744 6.1694 10.3377 6.20905C10.3009 6.2487 10.2574 6.31271 10.2416 6.35916L10.1286 6.25444C10.0959 6.22419 10.0346 6.23644 9.99285 6.28153L8.70772 7.66936C8.06551 8.3629 8.14888 9.03857 8.53783 9.38449C8.91546 9.72033 9.56891 9.73624 10.2015 9.0526L11.4857 7.66478C11.5275 7.61955 11.5349 7.55762 11.5022 7.52741L11.3991 7.43187C11.4393 7.41243 11.4906 7.37068 11.5273 7.33102C11.564 7.29135 11.5941 7.24126 11.6096 7.19395L11.8887 7.45231C11.9429 7.50253 11.9304 7.605 11.8612 7.67981L10.3883 9.27146C8.78969 10.9989 6.90239 9.19555 8.47374 7.49862L9.94762 5.90694C10.017 5.83204 10.1181 5.81185 10.1724 5.86208Z" fill="white" style="mix-blend-mode:soft-light"/>
<path d="M10.2203 6.6405C10.3341 6.74592 10.5444 6.70395 10.69 6.54675C10.8355 6.38956 10.8612 6.17667 10.7474 6.07125C10.6335 5.96583 10.4233 6.0078 10.2777 6.16499C10.1321 6.32219 10.1064 6.53508 10.2203 6.6405Z" fill="white" style="mix-blend-mode:soft-light"/>
<path d="M10.2203 6.6405C10.3341 6.74592 10.5444 6.70395 10.69 6.54675C10.8355 6.38956 10.8612 6.17667 10.7474 6.07125C10.6335 5.96583 10.4233 6.0078 10.2777 6.16499C10.1321 6.32219 10.1064 6.53508 10.2203 6.6405Z" stroke="#FEC424" stroke-width="0.0549189" stroke-miterlimit="22.9256"/>
<path d="M11.1089 7.46472C11.2228 7.57013 11.4331 7.52816 11.5786 7.37097C11.7242 7.21378 11.7499 7.00089 11.6361 6.89547C11.5222 6.79005 11.3119 6.83202 11.1664 6.98921C11.0208 7.14641 10.9951 7.3593 11.1089 7.46472Z" fill="white" style="mix-blend-mode:soft-light"/>
<path d="M11.1089 7.46472C11.2228 7.57013 11.4331 7.52816 11.5786 7.37097C11.7242 7.21378 11.7499 7.00089 11.6361 6.89547C11.5222 6.79005 11.3119 6.83202 11.1664 6.98921C11.0208 7.14641 10.9951 7.3593 11.1089 7.46472Z" stroke="#FEC424" stroke-width="0.0549189" stroke-miterlimit="22.9256"/>
<path d="M6.37704 4.70605C8.09464 3.46355 10.0041 2.8403 11.6969 2.82955C13.3903 2.81888 14.8529 3.42006 15.7125 4.60844C16.572 5.79678 16.6849 7.37346 16.1449 8.97827C15.6049 10.5828 14.4154 12.2012 12.6978 13.4437C10.9801 14.6862 9.07077 15.3095 7.37793 15.3202C5.68485 15.3308 4.22252 14.7302 3.36288 13.5421C2.50324 12.3538 2.39001 10.7764 2.92999 9.17148C3.46987 7.567 4.65947 5.94861 6.37704 4.70605Z" stroke="url(#paint8_linear_4813_40269)" stroke-width="0.338744"/>
<g filter="url(#filter4_f_4813_40269)">
<path d="M19.1186 8.53835L20.3635 10.5223C20.7492 8.25537 19.9058 6.44092 19.5744 5.93756C19.312 5.44584 18.8254 4.75513 18.2522 3.99726C16.731 1.61902 13.5243 -0.502119 8.53948 1.08178C2.61079 3.12073 0.645629 7.92541 0.434814 10.047L18.6118 8.30606L19.1186 8.53835Z" fill="url(#paint9_linear_4813_40269)" fill-opacity="0.3"/>
</g>
<defs>
<filter id="filter0_f_4813_40269" x="0.53414" y="19.6528" width="21.4122" height="6.06966" filterUnits="userSpaceOnUse" color-interpolation-filters="sRGB">
<feFlood flood-opacity="0" result="BackgroundImageFix"/>
<feBlend mode="normal" in="SourceGraphic" in2="BackgroundImageFix" result="shape"/>
<feGaussianBlur stdDeviation="0.992452" result="effect1_foregroundBlur_4813_40269"/>
</filter>
<filter id="filter1_f_4813_40269" x="1.728" y="20.9704" width="16.8755" height="3.79912" filterUnits="userSpaceOnUse" color-interpolation-filters="sRGB">
<feFlood flood-opacity="0" result="BackgroundImageFix"/>
<feBlend mode="normal" in="SourceGraphic" in2="BackgroundImageFix" result="shape"/>
<feGaussianBlur stdDeviation="0.595471" result="effect1_foregroundBlur_4813_40269"/>
</filter>
<filter id="filter2_f_4813_40269" x="1.68359" y="22.2993" width="16.5095" height="1.83522" filterUnits="userSpaceOnUse" color-interpolation-filters="sRGB">
<feFlood flood-opacity="0" result="BackgroundImageFix"/>
<feBlend mode="normal" in="SourceGraphic" in2="BackgroundImageFix" result="shape"/>
<feGaussianBlur stdDeviation="0.19849" result="effect1_foregroundBlur_4813_40269"/>
</filter>
<filter id="filter3_f_4813_40269" x="3.36508" y="22.9513" width="14.0469" height="0.894834" filterUnits="userSpaceOnUse" color-interpolation-filters="sRGB">
<feFlood flood-opacity="0" result="BackgroundImageFix"/>
<feBlend mode="normal" in="SourceGraphic" in2="BackgroundImageFix" result="shape"/>
<feGaussianBlur stdDeviation="0.119094" result="effect1_foregroundBlur_4813_40269"/>
</filter>
<filter id="filter4_f_4813_40269" x="0.0960703" y="0.195191" width="20.7051" height="10.6658" filterUnits="userSpaceOnUse" color-interpolation-filters="sRGB">
<feFlood flood-opacity="0" result="BackgroundImageFix"/>
<feBlend mode="normal" in="SourceGraphic" in2="BackgroundImageFix" result="shape"/>
<feGaussianBlur stdDeviation="0.169372" result="effect1_foregroundBlur_4813_40269"/>
</filter>
<linearGradient id="paint0_linear_4813_40269" x1="11.2402" y1="21.3798" x2="11.2402" y2="23.7375" gradientUnits="userSpaceOnUse">
<stop stop-color="#CB9355" stop-opacity="0"/>
<stop offset="1" stop-color="#AC7D4B"/>
</linearGradient>
<linearGradient id="paint1_linear_4813_40269" x1="11.1963" y1="21.8654" x2="11.1851" y2="23.5804" gradientUnits="userSpaceOnUse">
<stop stop-color="#AC7D4B" stop-opacity="0.27"/>
<stop offset="0.919275" stop-color="#81674C" stop-opacity="0"/>
</linearGradient>
<linearGradient id="paint2_linear_4813_40269" x1="17.1427" y1="23.7375" x2="2.08057" y2="23.7374" gradientUnits="userSpaceOnUse">
<stop stop-color="#CB9355" stop-opacity="0"/>
<stop offset="0.50698" stop-color="#9E8137"/>
<stop offset="1" stop-color="#856139" stop-opacity="0"/>
</linearGradient>
<linearGradient id="paint3_linear_4813_40269" x1="16.6097" y1="23.6078" x2="3.60327" y2="23.6076" gradientUnits="userSpaceOnUse">
<stop stop-color="#95813A" stop-opacity="0"/>
<stop offset="0.50698" stop-color="#7D6922"/>
<stop offset="1" stop-color="#856139" stop-opacity="0"/>
</linearGradient>
<linearGradient id="paint4_linear_4813_40269" x1="18.7489" y1="4.77453" x2="5.72934" y2="19.4106" gradientUnits="userSpaceOnUse">
<stop stop-color="#FDF8CE"/>
<stop offset="0.0550575" stop-color="#F2E158"/>
<stop offset="0.170676" stop-color="#FCF5AF"/>
<stop offset="0.309086" stop-color="#ECD42F"/>
<stop offset="0.491314" stop-color="#E9B00C"/>
<stop offset="0.704021" stop-color="#ECB600"/>
<stop offset="0.78935" stop-color="#E8CF29"/>
<stop offset="0.843399" stop-color="#EBD431"/>
<stop offset="0.909367" stop-color="#E2C317"/>
<stop offset="1" stop-color="#E9D14F"/>
</linearGradient>
<linearGradient id="paint5_linear_4813_40269" x1="18.5252" y1="4.86983" x2="4.13178" y2="19.4047" gradientUnits="userSpaceOnUse">
<stop stop-color="#EEBB5C"/>
<stop offset="0.0550575" stop-color="#FDEE48"/>
<stop offset="0.170676" stop-color="#E8BB06"/>
<stop offset="0.309086" stop-color="#D57B01"/>
<stop offset="0.491314" stop-color="#C86101"/>
<stop offset="0.660555" stop-color="#D88C2D"/>
<stop offset="0.771761" stop-color="#E8BE29"/>
<stop offset="0.815114" stop-color="#E8BE29"/>
<stop offset="0.881945" stop-color="#E8AE0E"/>
<stop offset="0.930202" stop-color="#D98317"/>
<stop offset="1" stop-color="#EBAE4E"/>
</linearGradient>
<linearGradient id="paint6_linear_4813_40269" x1="17.5281" y1="2.94822" x2="4.25573" y2="18.043" gradientUnits="userSpaceOnUse">
<stop stop-color="#FDF8CE"/>
<stop offset="0.0550575" stop-color="#F2E158"/>
<stop offset="0.170676" stop-color="#FCF5AF"/>
<stop offset="0.309086" stop-color="#ECD42F"/>
<stop offset="0.491314" stop-color="#E9B00C"/>
<stop offset="0.704021" stop-color="#ECB600"/>
<stop offset="0.78935" stop-color="#E8CF29"/>
<stop offset="0.843399" stop-color="#EBD431"/>
<stop offset="0.909367" stop-color="#E2C317"/>
<stop offset="1" stop-color="#E9D14F"/>
</linearGradient>
<linearGradient id="paint7_linear_4813_40269" x1="13.3023" y1="0.434382" x2="6.84671" y2="17.6945" gradientUnits="userSpaceOnUse">
<stop stop-color="#FFDC5E"/>
<stop offset="0.417119" stop-color="#FFED97"/>
<stop offset="1" stop-color="#FFF27B"/>
</linearGradient>
<linearGradient id="paint8_linear_4813_40269" x1="6.36358" y1="4.22149" x2="13.3133" y2="13.4269" gradientUnits="userSpaceOnUse">
<stop stop-color="#E4991A"/>
<stop offset="0.474971" stop-color="#EAAA2E" stop-opacity="0"/>
<stop offset="1" stop-color="#FFF27B" stop-opacity="0"/>
</linearGradient>
<linearGradient id="paint9_linear_4813_40269" x1="7.05855" y1="9.26576" x2="6.79298" y2="-0.20625" gradientUnits="userSpaceOnUse">
<stop stop-color="white"/>
<stop offset="0.105858" stop-color="white"/>
<stop offset="0.21696" stop-color="white" stop-opacity="0.961194"/>
<stop offset="1" stop-color="white" stop-opacity="0"/>
</linearGradient>
</defs>
</svg>
