<svg width="24" height="24" viewBox="0 0 24 24" fill="none" xmlns="http://www.w3.org/2000/svg">
<path d="M20.3417 4.52372L20.6997 4.17467V4.17467L20.3417 4.52372ZM20.9208 10.9742C20.9208 11.2504 21.1447 11.4742 21.4208 11.4742C21.697 11.4742 21.9208 11.2504 21.9208 10.9742H21.4208H20.9208ZM4.07907 4.52372L3.72107 4.17467L4.07907 4.52372ZM7.1052 3.41699C7.1052 3.69313 7.32906 3.91699 7.6052 3.91699C7.88135 3.91699 8.1052 3.69313 8.1052 3.41699H7.6052H7.1052ZM8.1052 2C8.1052 1.72386 7.88135 1.5 7.6052 1.5C7.32906 1.5 7.1052 1.72386 7.1052 2H7.6052H8.1052ZM16.3156 3.41699C16.3156 3.69313 16.5395 3.91699 16.8156 3.91699C17.0917 3.91699 17.3156 3.69313 17.3156 3.41699H16.8156H16.3156ZM17.3156 2C17.3156 1.72386 17.0917 1.5 16.8156 1.5C16.5395 1.5 16.3156 1.72386 16.3156 2H16.8156H17.3156ZM3.46052 7.64027C3.18438 7.64027 2.96052 7.86413 2.96052 8.14027C2.96052 8.41641 3.18438 8.64027 3.46052 8.64027V8.14027V7.64027ZM20.9603 8.64027C21.2364 8.64027 21.4603 8.41641 21.4603 8.14027C21.4603 7.86413 21.2364 7.64027 20.9603 7.64027V8.14027V8.64027ZM11.5 20.9208C11.7761 20.9208 12 20.697 12 20.4208C12 20.1447 11.7761 19.9208 11.5 19.9208V20.4208V20.9208ZM17 17.4999H16.5C16.5 17.6325 16.5527 17.7597 16.6464 17.8534L17 17.4999ZM17.5 15.4999C17.5 15.2237 17.2761 14.9999 17 14.9999C16.7239 14.9999 16.5 15.2237 16.5 15.4999H17H17.5ZM17.8964 19.1034C18.0917 19.2987 18.4083 19.2987 18.6036 19.1034C18.7988 18.9082 18.7988 18.5916 18.6036 18.3963L18.25 18.7499L17.8964 19.1034ZM12.485 12.8259C12.2508 12.9722 12.1796 13.2807 12.326 13.5149C12.4724 13.7491 12.7808 13.8202 13.015 13.6739L12.75 13.2499L12.485 12.8259ZM15.015 12.4239C15.2492 12.2775 15.3204 11.9691 15.174 11.7349C15.0277 11.5007 14.7192 11.4295 14.485 11.5759L14.75 11.9999L15.015 12.4239ZM20.985 13.6739C21.2192 13.8202 21.5276 13.7491 21.674 13.5149C21.8204 13.2807 21.7492 12.9722 21.515 12.8259L21.25 13.2499L20.985 13.6739ZM19.515 11.5759C19.2808 11.4295 18.9724 11.5007 18.826 11.7349C18.6796 11.9691 18.7508 12.2775 18.985 12.4239L19.25 11.9999L19.515 11.5759ZM10.3683 3.41699V3.91699H14.0525V3.41699V2.91699H10.3683V3.41699ZM3 12.8636H3.5V10.9742H3H2.5V12.8636H3ZM10.3683 20.4208V19.9208C8.6171 19.9208 7.35526 19.9197 6.3941 19.7872C5.44864 19.6568 4.86877 19.4078 4.43707 18.965L4.07907 19.3141L3.72107 19.6631C4.36843 20.3271 5.19646 20.6315 6.2575 20.7778C7.30283 20.9219 8.64608 20.9208 10.3683 20.9208V20.4208ZM3 12.8636H2.5C2.5 14.631 2.49899 16.0057 2.63912 17.0747C2.78098 18.1569 3.07542 19.0009 3.72107 19.6631L4.07907 19.3141L4.43707 18.965C4.00365 18.5205 3.75855 17.9205 3.63064 16.9447C3.50101 15.9558 3.5 14.6586 3.5 12.8636H3ZM14.0525 3.41699V3.91699C15.8037 3.91699 17.0655 3.9181 18.0267 4.05064C18.9722 4.18101 19.552 4.43 19.9837 4.87277L20.3417 4.52372L20.6997 4.17467C20.0524 3.5107 19.2244 3.20632 18.1633 3.06001C17.118 2.91587 15.7747 2.91699 14.0525 2.91699V3.41699ZM21.4208 10.9742H21.9208C21.9208 9.20677 21.9218 7.83211 21.7817 6.76307C21.6398 5.68092 21.3454 4.83687 20.6997 4.17467L20.3417 4.52372L19.9837 4.87277C20.4172 5.3173 20.6623 5.91725 20.7902 6.89305C20.9198 7.88196 20.9208 9.17919 20.9208 10.9742H21.4208ZM10.3683 3.41699V2.91699C8.64608 2.91699 7.30283 2.91587 6.2575 3.06001C5.19646 3.20632 4.36843 3.5107 3.72107 4.17467L4.07907 4.52372L4.43707 4.87277C4.86877 4.43 5.44864 4.18101 6.3941 4.05064C7.35526 3.9181 8.61711 3.91699 10.3683 3.91699V3.41699ZM3 10.9742H3.5C3.5 9.17919 3.50101 7.88196 3.63064 6.89305C3.75855 5.91725 4.00365 5.3173 4.43707 4.87277L4.07907 4.52372L3.72107 4.17467C3.07542 4.83687 2.78098 5.68092 2.63912 6.76307C2.49899 7.83211 2.5 9.20677 2.5 10.9742H3ZM7.6052 3.41699H8.1052V2H7.6052H7.1052V3.41699H7.6052ZM16.8156 3.41699H17.3156V2H16.8156H16.3156V3.41699H16.8156ZM3.46052 8.14027V8.64027H20.9603V8.14027V7.64027H3.46052V8.14027ZM10.3683 20.4208V20.9208H11.5V20.4208V19.9208H10.3683V20.4208ZM21.5 17.4999H21C21 19.709 19.2091 21.4999 17 21.4999V21.9999V22.4999C19.7614 22.4999 22 20.2613 22 17.4999H21.5ZM17 21.9999V21.4999C14.7909 21.4999 13 19.709 13 17.4999H12.5H12C12 20.2613 14.2386 22.4999 17 22.4999V21.9999ZM12.5 17.4999H13C13 15.2908 14.7909 13.4999 17 13.4999V12.9999V12.4999C14.2386 12.4999 12 14.7385 12 17.4999H12.5ZM17 12.9999V13.4999C19.2091 13.4999 21 15.2908 21 17.4999H21.5H22C22 14.7385 19.7614 12.4999 17 12.4999V12.9999ZM17 17.4999H17.5V15.4999H17H16.5V17.4999H17ZM17 17.4999L16.6464 17.8534L17.8964 19.1034L18.25 18.7499L18.6036 18.3963L17.3536 17.1463L17 17.4999ZM12.75 13.2499L13.015 13.6739L15.015 12.4239L14.75 11.9999L14.485 11.5759L12.485 12.8259L12.75 13.2499ZM21.25 13.2499L21.515 12.8259L19.515 11.5759L19.25 11.9999L18.985 12.4239L20.985 13.6739L21.25 13.2499Z" fill="#626060"/>
</svg>
