<svg width="48" height="48" viewBox="0 0 48 48" fill="none" xmlns="http://www.w3.org/2000/svg">
<path fill-rule="evenodd" clip-rule="evenodd" d="M30.8529 43.8808C30.8529 43.5489 31.2065 43.1953 31.5384 43.1953C31.8973 43.1953 32.7966 44.1305 33.3015 44.4685C34.0967 42.9656 34.1191 42.4755 35.7746 44.0522C36.0837 44.3466 36.9254 44.8888 36.9254 45.35C36.9254 46.0026 36.3159 45.9377 36.0439 45.9377C35.7889 45.9377 35.5257 45.5561 35.317 45.3914C35.0427 45.1749 34.9173 44.9518 34.5748 44.8603C33.563 46.7724 33.8149 46.5686 32.0696 45.2107C31.7223 44.9405 30.8529 44.2784 30.8529 43.8808ZM21.9398 41.5302C21.9398 37.1983 27.7385 35.2521 30.1888 39.4518C30.6612 40.2615 30.657 40.9392 30.657 41.824C30.657 43.8355 28.6527 45.8398 26.6412 45.8398H26.1515C23.873 45.8398 21.9398 43.8188 21.9398 41.5302V41.5302ZM34.3789 37.4164C34.4214 37.9271 34.9666 38.3387 34.9666 38.7877C34.9666 39.4648 34.1561 39.4949 33.5564 39.6303C33.1117 39.7307 32.0846 40.061 31.7344 40.061C31.122 40.061 30.8155 39.2071 31.4079 38.8544C31.5732 38.756 32.952 38.4168 33.2036 38.3959C33.1297 37.5082 31.7281 36.7083 33.6137 36.2595C34.8517 35.9649 36.3378 35.2451 36.3378 36.5349C36.3378 37.09 35.0521 37.2596 34.3789 37.4164ZM23.3111 35.2616C23.3111 33.8185 25.4127 35.1398 26.0542 35.1185C26.5842 35.101 28.6001 33.2986 28.6001 35.0657C28.6001 35.5713 26.3423 36.506 26.082 36.4884C25.7509 36.4661 24.9161 36.1846 24.5502 36.0793C24.0254 35.9282 23.3111 35.8786 23.3111 35.2616ZM23.1151 33.1068C23.1151 31.5015 24.93 32.8698 25.7739 32.8515C26.2218 32.8418 28.4042 31.2259 28.4042 32.6172C28.4042 33.2622 27.8693 33.3763 27.4248 33.5967C27.1692 33.7235 26.2998 34.2053 26.0275 34.2346C26.0273 34.2346 23.1151 33.7749 23.1151 33.1069L23.1151 33.1068ZM25.5638 32.0294C25.1985 32.0294 25.0178 31.9292 24.7675 31.8462C24.4625 31.7451 24.2489 31.7066 23.9181 31.6182C21.9797 31.1006 22.8249 30.1684 23.3111 30.1684C24.0942 30.1684 25.0075 30.6582 25.4658 30.6582C25.9418 30.6582 26.6044 29.8746 27.5227 29.8746C27.9736 29.8746 28.0124 30.3352 28.0124 30.6582C28.0124 31.1088 25.7445 32.0294 25.5638 32.0294H25.5638ZM25.3679 29.7767C24.8157 29.7767 24.2546 29.5391 23.7795 29.4061C22.7141 29.108 22.5275 29.1814 22.5275 28.4054C22.5275 27.3294 24.6282 28.4054 25.27 28.4054C25.8286 28.4054 26.9025 27.2184 27.5738 27.7666C28.4989 28.5221 26.8509 29.1332 26.8045 29.1563C26.4723 29.322 25.7209 29.7767 25.3679 29.7767H25.3679ZM25.27 27.5239C24.9911 27.5239 23.4759 27.0429 23.1121 26.9393C21.9247 26.601 22.3823 25.6546 22.9344 25.5858C23.3836 25.5297 24.6286 26.1184 25.0877 26.122C25.5225 26.1253 26.6537 25.2712 27.033 25.2712C27.3649 25.2712 27.7186 25.6248 27.7186 25.9568C27.7186 26.6427 25.2727 27.5239 25.2699 27.5239H25.27ZM25.27 25.1732C24.6392 25.1732 23.6715 24.8152 23.0558 24.6449C22.0124 24.3565 21.6835 22.8615 23.8874 23.5194C24.0904 23.5799 24.7604 23.802 24.9761 23.802C25.4924 23.802 27.5226 22.2009 27.5951 23.6196C27.6343 24.3879 25.2716 25.1732 25.27 25.1732ZM22.7233 20.9615C23.0814 20.9615 23.4865 21.1202 23.8349 21.2212C25.1569 21.6049 24.7438 21.6163 25.7912 21.0909C26.3214 20.8249 27.4066 20.2867 27.4979 21.2672C27.576 22.105 25.0847 22.885 25.0621 22.8871C24.8641 22.9061 23.2584 22.4232 22.9282 22.3239C21.5355 21.9049 22.3733 20.9615 22.7233 20.9615V20.9615ZM24.9761 20.5697C24.6149 20.5697 23.6865 20.2729 23.3224 20.1666C22.8337 20.024 22.0378 19.9332 22.0378 19.2964C22.0378 18.1636 23.7405 18.9134 24.234 19.062C25.4776 19.4364 25.6657 18.415 26.7392 18.415C27.308 18.415 27.8793 19.1888 26.7748 19.724C26.4824 19.8657 25.1656 20.5697 24.9761 20.5697ZM31.4405 14.791C30.4809 14.791 30.1222 14.5176 29.2438 14.1473C27.759 13.5213 28.3456 13.8807 27.1339 13.9123C26.3091 13.9339 25.5243 13.9439 24.6875 14.0126L22.3316 14.2033C22.3438 14.7487 22.5908 15.8178 22.3316 16.3581C23.3001 16.3581 24.081 16.8398 24.6296 16.8835C25.0988 16.9208 26.0854 16.0643 26.5432 16.0643C27.2862 16.0643 27.4998 16.7879 27.0132 17.2171C26.795 17.4097 25.7881 17.8631 25.4669 18.0256C24.3691 18.5813 23.2739 17.7463 21.9398 17.4355C21.7797 18.1228 20.9595 18.969 20.4157 19.3395C18.8851 20.3819 16.7787 20.4929 15.1995 19.4744C14.68 19.1394 13.8798 18.5522 13.7123 17.9252C13.0991 18.0681 10.3974 20.2895 9.6121 20.8771C6.60385 23.1278 6.95756 22.6286 8.13012 24.291C8.52613 24.8524 10.6848 27.953 11.0678 28.2095C11.6048 28.0843 14.8485 25.8044 15.6712 25.3691C15.9485 26.5591 17.7204 29.1469 18.3465 33.3699C18.6063 35.1219 17.9978 34.4484 19.7546 35.4879C21.8844 36.7481 22.2432 39.097 20.7557 40.6399L20.6072 40.7852C20.5368 40.8509 20.4663 40.9139 20.3995 40.9693C19.3169 41.8653 18.3688 41.5997 17.5322 41.5301C17.353 41.9034 17.2212 42.5618 17.0849 43.0418C16.8517 43.8628 15.8128 47.0774 15.7691 47.6028H38.1987L37.2192 32.9109C37.2192 29.4777 37.6636 26.5975 37.7051 23.2104C37.7581 18.882 41.0391 17.0465 41.0391 16.2602C41.0391 15.8931 38.6895 14.4977 38.2771 14.2228C37.789 13.8975 37.3717 13.5932 36.8587 13.2906C36.3084 12.9659 35.8965 12.6271 35.3583 12.3423C34.8617 12.6051 34.8848 12.7272 34.4913 13.0425C33.7651 13.6244 32.5611 14.791 31.4404 14.791H31.4405Z" fill="#FFC487"/>
<path fill-rule="evenodd" clip-rule="evenodd" d="M27.8166 7.93477C27.8166 9.11502 28.8004 9.89369 29.4817 9.89369C32.0176 9.89369 36.9831 9.20813 39.0804 9.20813L36.7066 11.6338L41.529 14.791C41.6562 14.601 41.7749 14.488 41.9207 14.3013C42.0768 14.1015 42.1764 13.9832 42.3549 13.7559C42.6526 13.3769 42.8915 13.0849 43.1812 12.7213C43.4687 12.3604 43.7082 12.0584 44.0084 11.6875C44.3157 11.3079 44.5656 10.9618 44.8843 10.6045L47.4207 7.4601C48.4769 6.13049 48.0106 4.32979 46.6529 3.69238C45.7508 3.26887 44.8301 3.54888 43.8659 3.7093C41.9129 4.03429 40.0342 4.32873 38.059 4.66067C35.9588 5.01361 31.3771 5.63869 29.3696 6.05976C28.5503 6.23165 27.8165 6.97908 27.8165 7.93477H27.8166Z" fill="#FFC487"/>
<path fill-rule="evenodd" clip-rule="evenodd" d="M0 30.2665C0 32.2724 1.21719 32.3863 2.71002 33.1393C3.15606 33.3643 3.47238 33.4983 3.91655 33.6958L8.68881 35.9756C9.16791 36.1801 9.47057 36.3225 9.89208 36.5354L15.8809 39.3617C16.5239 39.622 17.6861 40.3549 18.4138 40.3549C19.6866 40.3549 22.0463 38.1706 18.4792 36.2737C15.4548 34.6655 12.27 32.7316 9.23942 31.1154C8.89698 30.9328 8.57338 30.739 8.24639 30.5413C7.83753 30.2941 7.49542 30.2442 7.24796 29.8746C7.51637 29.803 9.31255 28.4306 9.40273 28.3075L6.46436 24.1937C5.93311 24.4749 1.9392 27.8126 1.23049 28.3627C0.668201 28.7991 0 29.3321 0 30.2665Z" fill="#FFC487"/>
<path fill-rule="evenodd" clip-rule="evenodd" d="M18.2179 6.26972V6.95533C18.2179 9.95483 21.0951 12.8321 24.0946 12.8321C25.6483 12.8321 27.8192 12.3816 28.6981 11.0691C27.8961 10.6447 27.4624 10.4719 26.9738 9.65904C26.5581 8.96741 26.3734 8.17393 26.5811 7.18961C26.9246 5.56182 28.5352 4.64322 30.2652 4.60466C30.1899 3.69925 28.9678 2.25713 28.1956 1.67919C25.7054 -0.184558 22.2614 -0.00115622 20.1519 2.13108C19.0785 3.21616 18.2179 4.57831 18.2179 6.26976L18.2179 6.26972Z" fill="#FFC487"/>
<path fill-rule="evenodd" clip-rule="evenodd" d="M16.357 15.3787C16.357 13.7771 19.0015 13.4859 19.0015 15.5746C19.0015 17.0425 16.357 17.324 16.357 15.3787ZM17.6302 18.9047C21.1589 18.9047 22.6511 14.0528 19.1356 12.3062C15.8252 10.6616 12.5721 15.0225 15.2025 17.8064C15.7759 18.4133 16.8546 18.9048 17.6303 18.9048L17.6302 18.9047Z" fill="#FF6859"/>
<path fill-rule="evenodd" clip-rule="evenodd" d="M24.9761 41.5302C24.9761 39.8651 27.6206 39.4393 27.6206 41.7261C27.6206 43.1144 24.9761 43.2793 24.9761 41.5302ZM26.2494 44.5665C29.6228 44.5665 30.6047 40.0738 27.5245 38.688C25.0433 37.5716 22.4456 40.1588 23.5054 42.707C23.8724 43.5894 25.0094 44.5665 26.2494 44.5665Z" fill="#FF695A"/>
<path fill-rule="evenodd" clip-rule="evenodd" d="M11.0679 6.95532C11.0679 7.02597 11.5558 10.1875 12.3412 10.1875C12.9137 10.1875 13.2759 9.64431 13.8104 9.59986C13.8189 9.98053 13.9637 10.45 14.0668 10.8125C14.2691 11.5233 14.3539 11.6567 14.8877 11.6567C16.0923 11.6567 15.3746 10.1681 15.1239 9.16781C14.4617 6.5249 13.7928 8.24654 12.8309 8.32654C12.6081 5.65 11.0679 6.31779 11.0679 6.95532H11.0679Z" fill="#FF6959"/>
<path fill-rule="evenodd" clip-rule="evenodd" d="M8.42325 14.3992C8.19055 14.2433 7.02934 13.5177 6.7582 13.5177C6.42626 13.5177 6.07263 13.8713 6.07263 14.2033C6.07263 14.9338 7.14697 15.2598 8.01244 15.7895C9.80407 16.8863 9.54339 15.3227 9.8925 14.5951C10.1395 14.7605 10.3094 14.8408 10.5732 14.9918C10.7856 15.1133 11.0605 15.3127 11.3122 15.4364C12.0396 15.7941 13.1504 14.8492 11.737 14.0238L10.2432 13.1669C8.59144 12.1635 8.79453 13.6254 8.42325 14.3992V14.3992Z" fill="#FF6859"/>
</svg>
