<svg width="40" height="40" viewBox="0 0 40 40" fill="none" xmlns="http://www.w3.org/2000/svg">
<path d="M1.22084 18.5275L0.169847 19.5785C-0.0567349 19.8051 -0.0567349 20.1726 0.169847 20.3993L1.22847 21.4579C1.42441 21.6537 1.45459 21.9608 1.30035 22.1912L0.467507 23.4351C0.289117 23.7015 0.360543 24.0619 0.626878 24.2403L1.95035 25.1263C2.17933 25.2796 2.26898 25.5725 2.16509 25.8276L1.56429 27.3027C1.44332 27.5995 1.58594 27.9381 1.8828 28.0591L3.23214 28.6087C3.48936 28.7136 3.63631 28.9859 3.58254 29.2584L3.30095 30.6879C3.23898 31.0025 3.44368 31.3076 3.75809 31.3696L5.21633 31.6569C5.48836 31.7106 5.68452 31.9491 5.68452 32.2264L5.68452 33.7126C5.68452 34.0332 5.94437 34.293 6.26481 34.293L7.76201 34.293C8.03917 34.293 8.27748 34.489 8.33137 34.7607L8.62208 36.2294C8.68439 36.5438 8.98969 36.7482 9.30409 36.686L10.8666 36.3767C11.1367 36.3231 11.4072 36.4669 11.5141 36.7207L12.1323 38.1886C12.2567 38.484 12.597 38.6227 12.8925 38.4983L14.2352 37.9328C14.4911 37.8249 14.7878 37.9136 14.9425 38.1443L15.754 39.3543C15.9326 39.6206 16.2932 39.6916 16.5593 39.513L17.7937 38.6851C18.0239 38.5307 18.3313 38.5607 18.5274 38.7567L19.5783 39.8077C19.805 40.0343 20.1725 40.0343 20.3991 39.8077L21.4577 38.7491C21.6536 38.5532 21.9607 38.5231 22.191 38.6772L23.435 39.5101C23.7014 39.6883 24.0618 39.617 24.2402 39.3507L25.1262 38.0271C25.2795 37.7984 25.5725 37.7086 25.8275 37.8126L27.3026 38.4134C27.5994 38.5343 27.938 38.3916 28.059 38.0949L28.6085 36.7454C28.7133 36.4882 28.9857 36.3413 29.2583 36.395L30.6879 36.6766C31.0024 36.7387 31.3076 36.5339 31.3695 36.2195L31.6568 34.7612C31.7105 34.4892 31.949 34.293 32.2263 34.293L33.7126 34.293C34.0331 34.293 34.293 34.0332 34.293 33.7126L34.293 32.2156C34.293 31.9385 34.4889 31.7001 34.7606 31.6463L36.2292 31.3555C36.5437 31.2933 36.7481 30.9879 36.6859 30.6735L36.3765 29.1111C36.3231 28.8409 36.4668 28.5704 36.7206 28.4635L38.1885 27.8453C38.4839 27.7209 38.6226 27.3806 38.4981 27.0852L37.9327 25.7424C37.8248 25.4863 37.9136 25.1899 38.1442 25.0351L39.3542 24.2235C39.6204 24.045 39.6914 23.6845 39.5129 23.4183L38.685 22.1839C38.5305 21.9537 38.5606 21.6462 38.7565 21.4501L39.8075 20.3993C40.0342 20.1726 40.0342 19.8051 39.8075 19.5785L38.749 18.5199C38.5531 18.3239 38.523 18.0168 38.6771 17.7866L39.51 16.5425C39.6882 16.2762 39.6169 15.9156 39.3505 15.7374L38.027 14.8513C37.7982 14.6981 37.7085 14.4051 37.8124 14.1501L38.4133 12.6751C38.5342 12.3782 38.3915 12.0395 38.0947 11.9186L36.7453 11.3689C36.4881 11.2641 36.3412 10.9919 36.3948 10.7193L36.6765 9.28972C36.7386 8.9752 36.5338 8.67013 36.2194 8.60816L34.7612 8.32064C34.4891 8.2671 34.293 8.02855 34.293 7.75128L34.293 6.2649C34.293 5.94446 34.0331 5.68462 33.7126 5.68462L32.2155 5.68462C31.9384 5.68462 31.7 5.4888 31.6461 5.21688L31.3554 3.74838C31.2932 3.43397 30.9878 3.2295 30.6734 3.29181L29.111 3.60109C28.8408 3.65452 28.5703 3.51087 28.4634 3.25695L27.8452 1.78903C27.7208 1.49376 27.3805 1.35512 27.085 1.47952L25.7423 2.045C25.4862 2.15276 25.1898 2.06413 25.035 1.83334L24.2235 0.623324C24.0448 0.357104 23.6843 0.286136 23.4181 0.464755L22.1838 1.29258C21.9536 1.44705 21.6461 1.41709 21.4501 1.22093L20.3991 0.170054C20.1725 -0.0566379 19.805 -0.0566379 19.5783 0.170054L18.5197 1.22867C18.3239 1.4245 18.0166 1.45468 17.7865 1.30044L16.5424 0.4676C16.2761 0.289324 15.9156 0.360633 15.7373 0.626967L14.8511 1.95045C14.698 2.17942 14.405 2.26907 14.15 2.16518L12.675 1.56438C12.378 1.4434 12.0394 1.58603 11.9185 1.88289L11.3688 3.23223C11.264 3.48945 10.9916 3.6364 10.7192 3.58275L9.28963 3.30104C8.97511 3.23907 8.67004 3.44377 8.60807 3.7583L8.32055 5.21642C8.267 5.48845 8.02846 5.68461 7.75119 5.68461L6.26481 5.68461C5.94437 5.68461 5.68453 5.94446 5.68453 6.2649L5.68453 7.7621C5.68453 8.03926 5.4887 8.27757 5.21679 8.33146L3.7483 8.62217C3.43389 8.68448 3.22941 8.98978 3.29172 9.30419L3.601 10.8667C3.65442 11.1368 3.51078 11.4073 3.25686 11.5143L1.78894 12.1324C1.49367 12.2568 1.35503 12.597 1.47943 12.8925L2.04479 14.2353C2.15267 14.4912 2.06393 14.7879 1.83325 14.9426L0.623231 15.7541C0.357011 15.9327 0.286043 16.2933 0.464547 16.5595L1.29249 17.7939C1.44685 18.0241 1.417 18.3314 1.22084 18.5275Z" fill="#3EAF3F"/>
<path d="M12.4753 20.4071L17.8387 25.961C18.2616 26.3989 18.0725 27.2685 17.4169 27.9017C16.7612 28.5349 15.8855 28.6935 15.4626 28.2556L10.0992 22.7016C9.67634 22.2637 9.86537 21.3941 10.5211 20.7609C11.1767 20.1277 12.0524 19.9692 12.4753 20.4071Z" fill="white"/>
<path d="M29.6227 15.7623L17.5861 27.7989C16.9907 28.3942 15.927 28.2973 15.2123 27.5826C14.4975 26.8678 14.4006 25.8041 14.996 25.2087L27.0326 13.1721C27.6279 12.5768 28.6916 12.6737 29.4064 13.3884C30.1211 14.1032 30.2181 15.1669 29.6227 15.7623Z" fill="white"/>
</svg>
