<svg width="48" height="48" viewBox="0 0 48 48" fill="none" xmlns="http://www.w3.org/2000/svg">
<path fill-rule="evenodd" clip-rule="evenodd" d="M36.1035 48C36.7193 47.9518 36.5795 47.721 36.5634 46.7861L36.4724 44.2496C36.4502 43.8372 36.388 43.8579 36.3752 43.4093C36.2966 40.6633 35.7709 35.3536 36.0714 33.1619L36.3613 22.6875C36.5274 22.8917 36.5839 23.2284 36.6402 23.4569C36.7228 23.7919 36.7734 23.927 36.8672 24.261L37.7955 27.5514C37.9631 28.1259 38.0718 28.7454 38.3469 29.1563C38.9218 29.1563 42.7004 28.0449 43.5969 27.7005C44.0533 27.6049 44.3284 27.4937 44.7271 27.3802C45.6965 27.1041 45.1119 26.0143 44.6839 24.3192L41.3681 10.6663C40.9769 9.00866 39.9675 8.48648 38.3667 8.04264C36.9286 7.64395 35.4844 7.13731 33.9802 6.71047L29.6817 5.384C28.8312 5.07304 29.0657 4.27781 29.0657 3.18753C29.0657 2.21878 29.0657 1.25004 29.0657 0.281254C28.8592 0.102368 28.7207 0.0279332 28.5239 3.05176e-05H27.529C27.4022 0.00157615 27.2613 0.00194222 27.1035 3.05176e-05H19.2219C19.0971 0.186483 19.0513 0.259778 18.9407 0.468804C18.9407 1.34379 18.9407 2.21878 18.9407 3.09382C18.9407 5.77919 19.0932 5.08313 16.467 5.96385C15.2752 6.36348 8.75883 8.26688 8.25015 8.52822C6.76512 9.29115 6.71497 10.4647 6.3406 11.9624L3.71624 22.7443C3.56209 23.3575 2.59285 26.7218 2.81571 27.0937C3.007 27.4129 7.31594 28.5779 7.83856 28.7271C8.43697 28.898 8.95878 29.1562 9.65948 29.1562C9.93538 28.7441 10.0253 28.1914 10.1893 27.6236C10.3625 27.0243 10.4809 26.5442 10.6575 25.9354C10.7556 25.597 11.4513 22.9421 11.6283 22.6875C11.6283 24.8337 11.8205 26.9109 11.8156 29.0625C11.8132 30.1547 11.915 31.0656 11.9083 32.2512C11.9045 32.9082 12.0056 33.1435 12.0065 33.7467C12.0097 36.0647 11.3174 47.689 11.5345 47.9062C11.5776 47.9493 12.3523 47.9794 13.5921 48H34.3739H36.1035V48Z" fill="#FFC487"/>
<path d="M34.8659 40.998C37.4304 40.998 39.5093 38.9191 39.5093 36.3546C39.5093 33.7901 37.4304 31.7112 34.8659 31.7112C32.3015 31.7112 30.2225 33.7901 30.2225 36.3546C30.2225 38.9191 32.3015 40.998 34.8659 40.998Z" fill="white"/>
<path fill-rule="evenodd" clip-rule="evenodd" d="M27.1487 9.45649C26.1638 9.61923 25.9172 9.9866 25.474 10.5654C25.225 10.8904 24.3333 12.0471 25.4404 12.2531C26.1612 12.3873 26.5098 11.3915 26.8904 11.0428C27.3622 10.6105 30.8719 10.882 32.0724 10.8251C33.2723 10.7682 33.1461 9.59735 32.3881 9.44282C32.0035 9.36444 27.5704 9.38681 27.1487 9.45649Z" fill="#FFBA70"/>
<path fill-rule="evenodd" clip-rule="evenodd" d="M33.4848 36.3546C33.4848 34.6896 36.1293 34.2638 36.1293 36.5505C36.1293 37.9388 33.4848 38.1038 33.4848 36.3546ZM34.7581 39.3909C38.1315 39.3909 39.1133 34.8982 36.0331 33.5124C33.552 32.3961 30.9543 34.9833 32.0141 37.5315C32.3811 38.4139 33.5181 39.3909 34.7581 39.3909Z" fill="#FF695A"/>
<path fill-rule="evenodd" clip-rule="evenodd" d="M38.2532 38.3438C38.2532 39.3064 39.4961 39.083 40.6907 39.6563C40.6682 39.9267 40.3595 40.4469 41.0372 40.9973C41.3318 41.2365 43.9224 42.0938 44.1595 42.0938C44.8358 42.0938 44.9094 41.6319 44.9094 41.25C44.9094 40.6469 42.6954 40.0551 42.1907 39.9375C42.8354 38.5938 41.2303 38.2597 40.6581 38.0951C39.846 37.8616 38.2532 37.0927 38.2532 38.3438H38.2532Z" fill="#FF6859"/>
<path fill-rule="evenodd" clip-rule="evenodd" d="M15.611 9.45649C14.7306 9.72966 14.8291 10.8031 16.029 10.8269C16.9255 10.8447 17.8528 10.8221 18.7531 10.8221C20.8773 10.8221 20.7712 10.5 21.7296 11.8368C21.9446 12.1367 22.1627 12.3769 22.6393 12.2334C23.8776 11.8607 22.2202 9.62061 20.8571 9.44481C20.4018 9.38608 15.8458 9.38364 15.611 9.45649Z" fill="#FFBA70"/>
<path d="M12.5398 15.7824C15.1042 15.7824 17.1832 13.7034 17.1832 11.1389C17.1832 8.57447 15.1042 6.49554 12.5398 6.49554C9.97528 6.49554 7.89636 8.57447 7.89636 11.1389C7.89636 13.7034 9.97528 15.7824 12.5398 15.7824Z" fill="white"/>
<path fill-rule="evenodd" clip-rule="evenodd" d="M42.8469 33.4687C42.3337 32.499 41.7116 32.554 40.8598 33.0755L39.3137 33.9669C38.2725 34.522 38.7595 35.4375 39.4718 35.4375C39.873 35.4375 41.2279 34.5243 41.6281 34.3125C42.3197 35.6196 43.1795 34.8944 43.7837 34.5931C44.2678 34.3518 45.812 33.6628 45.9639 33.2041C46.0976 32.8003 45.7435 32.25 45.2844 32.25C44.9765 32.25 43.1642 33.2562 42.8468 33.4687H42.8469Z" fill="#FF6859"/>
<path fill-rule="evenodd" clip-rule="evenodd" d="M11.2057 11.0923C11.2057 9.4907 13.8502 9.19951 13.8502 11.2882C13.8502 12.7561 11.2057 13.0376 11.2057 11.0923ZM12.479 14.6184C16.0077 14.6184 17.4999 9.76647 13.9843 8.01987C10.674 6.37523 7.42082 10.7362 10.0512 13.5201C10.6246 14.1269 11.7034 14.6184 12.479 14.6184L12.479 14.6184Z" fill="#FF6859"/>
<path fill-rule="evenodd" clip-rule="evenodd" d="M5.91667 2.66901C5.91667 2.73967 6.40456 5.90122 7.18994 5.90122C7.76248 5.90122 8.12464 5.35801 8.6591 5.31355C8.66761 5.69422 8.81249 6.16365 8.9156 6.52622C9.11783 7.23697 9.20264 7.37038 9.73649 7.37038C10.941 7.37038 10.2233 5.88177 9.97265 4.88151C9.31047 2.2386 8.64153 3.96023 7.67962 4.04023C7.45689 1.36369 5.91663 2.03148 5.91663 2.66901H5.91667Z" fill="#FF6959"/>
<path fill-rule="evenodd" clip-rule="evenodd" d="M3.27213 10.1129C3.03943 9.95699 1.87821 9.23136 1.60708 9.23136C1.27513 9.23136 0.921509 9.58498 0.921509 9.91697C0.921509 10.6474 1.99584 10.9735 2.86132 11.5032C4.65295 12.5999 4.39227 11.0363 4.74137 10.3087C4.98839 10.4742 5.15825 10.5544 5.42206 10.7054C5.63447 10.827 5.90938 11.0263 6.16104 11.1501C6.8885 11.5077 7.99924 10.5628 6.58592 9.73747L5.09211 8.88054C3.44032 7.8771 3.64341 9.33906 3.27213 10.1128V10.1129Z" fill="#FF6859"/>
</svg>
