<svg width="48" height="48" viewBox="0 0 48 48" fill="none" xmlns="http://www.w3.org/2000/svg">
<g clip-path="url(#clip0_4971_21354)">
<path fill-rule="evenodd" clip-rule="evenodd" d="M15.0286 8.54871C20.1909 9.03245 24.8804 7.10907 26.3383 11.5404C26.9983 13.5466 26.6875 22.7532 26.7028 25.497C26.7223 25.4793 26.7468 25.4547 26.7592 25.4419L27.4817 24.6832C29.3831 23.1708 31.0561 24.4738 32.3888 25.865C34.5206 28.0905 35.2077 29.0388 35.2063 32.0258C35.2054 34.0209 35.2064 36.0161 35.2061 38.0113C35.2059 39.6822 35.4474 41.5628 33.5548 42.3552C31.8497 43.0691 30.722 41.9325 29.4603 40.8694C28.4148 39.9884 26.9171 39.3744 26.727 37.6159C26.5488 35.9683 26.7224 33.5718 26.6988 31.8321C26.639 31.6315 26.402 31.565 26.2077 31.4603C25.4682 31.0612 25.5736 30.6835 25.1664 30.2574C24.728 30.7192 24.9451 31.0179 24.0622 31.4913L23.6336 31.8321C23.6158 33.4982 23.8027 36.1664 23.6125 37.6988C23.5016 38.5918 22.9777 39.2287 22.507 39.6042C21.9146 40.0767 21.4277 40.466 20.83 40.9178L19.1239 42.2106C17.5919 43.1121 15.7907 42.2343 15.2883 40.7328C14.9718 39.7866 15.1274 33.212 15.1265 31.9292C15.1248 29.3145 15.4314 29.0303 16.6003 27.4183C17.2993 26.4542 18.616 25.0657 19.6126 24.4431C20.3371 23.9904 21.0683 23.8629 21.985 24.1987C22.9123 24.5383 23.0449 24.916 23.6295 25.4964C23.652 22.4029 23.5541 19.2751 23.6271 16.2054C23.6771 14.1091 23.1445 13.9589 21.2078 13.9606C19.6952 13.9618 18.1826 13.9607 16.6699 13.9607C16.6699 14.6255 16.5466 16.0148 17.8495 16.2671C18.8995 16.4703 20.3508 16.0158 21.3043 16.3841V20.2461C20.9338 20.1219 20.6134 20.3368 20.2423 20.4397C19.8392 20.5514 19.571 20.6427 19.1244 20.7702C17.8939 21.1216 11.106 23.1236 10.4248 23.4635C8.00232 24.6725 7.6973 26.1395 7.09214 28.7239C6.37623 31.7813 5.90457 35.0993 5.26846 38.2933L3.53894 47.9567L10.8888 47.9686C11.4154 47.9436 11.3242 47.9019 11.4075 47.4252C11.6203 46.2056 11.8508 45.1624 12.0917 43.9578C12.2045 43.3938 12.5909 40.867 12.9038 40.4257C13.0014 41.0882 15.7432 47.2639 15.8009 47.9567H34.5318C34.56 47.6172 34.7277 47.3319 34.8501 47.0199L37.28 40.8639C37.4362 40.4945 37.4309 40.5451 37.6208 40.4257C37.5404 40.7562 37.5688 40.4484 37.6108 40.8189L38.9252 47.4252C39.0412 48.09 38.8508 47.9578 40.4213 47.9567H46.7937C46.7937 47.5051 46.6767 47.1647 46.6135 46.7851L45.0641 38.2933C44.428 35.0993 43.9564 31.7813 43.2404 28.7239C42.6585 26.2388 42.3415 24.6818 39.9718 23.496C38.8129 22.9161 32.3328 21.1447 30.1748 20.4518C29.816 20.3365 29.354 20.1369 29.0283 20.2461V14.0669L30.5013 12.8369C30.9767 12.3587 31.3441 11.9392 31.6697 11.3018C32.3303 10.0087 32.114 8.22945 32.118 6.43973C32.1223 4.58847 31.6495 3.47794 30.8237 2.42382C30.0883 1.48525 28.9167 0.619128 27.6596 0.277665C26.2778 -0.0976793 24.2431 0.0679066 22.5594 0.0674999C20.8864 0.0670525 19.8071 0.237275 18.489 1.3073C17.3564 2.22687 16.8377 3.28998 16.628 4.75662C16.3659 6.58929 15.9011 7.37887 15.0285 8.54871H15.0286Z" fill="#FFC487"/>
<path fill-rule="evenodd" clip-rule="evenodd" d="M32.4559 30.4985C31.7099 30.7011 30.5665 30.4898 29.7405 30.6137L31.5544 33.6497C32.2157 33.6745 33.4313 33.5938 33.9661 33.7461L34.0008 34.3606C33.0187 34.5148 32.7721 34.4522 31.7319 34.441L31.7334 36.7568C31.7334 37.6057 33.453 38.8429 33.1879 39.758C32.2439 40.0442 31.9124 38.2979 31.2492 37.8105C30.9226 38.1166 30.6251 38.4422 30.4355 38.6459L30.293 38.7973C30.2778 38.812 30.2587 38.8331 30.243 38.8473C30.1238 38.9546 30.1498 38.9592 30.0107 39.014C29.7092 39.1325 29.6429 39.0255 29.4575 38.8518C29.2167 38.3413 30.9581 37.3884 30.9581 36.6602C30.9581 33.4587 31.1577 34.4362 29.1139 31.076C28.7568 30.4889 28.8534 30.5881 29.0708 29.8037C29.8522 29.8037 31.8448 29.72 32.4214 29.8841L32.456 30.4986L32.4559 30.4985ZM17.8764 29.8826C18.5152 29.7121 20.5493 29.8037 21.3584 29.8037C21.2183 31.0473 22.0386 29.7133 20.645 32.041C20.4106 32.4326 19.5208 33.7992 19.4263 34.1024C19.36 34.3155 19.2357 36.7867 19.5521 37.1586L20.7848 38.392C20.9706 38.6395 20.9522 38.572 20.8163 38.9725C20.1586 39.2079 20.1543 38.7739 19.0838 37.8096C19.065 37.8239 19.0386 37.8259 19.0314 37.8571C19.0242 37.8882 18.9901 37.8949 18.9804 37.9057L18.6545 38.3569C18.0324 39.3058 17.83 39.9622 17.1432 39.7588C16.9731 39.1689 17.7422 38.2779 18.2397 37.552C18.6003 37.026 18.6074 36.9878 18.601 36.1787C18.5964 35.5997 18.5996 35.0199 18.5996 34.441C17.9752 34.441 16.8631 34.5022 16.3668 34.362L16.3316 33.7447C16.8977 33.5946 18.1229 33.6735 18.7968 33.6603L20.599 30.6175C19.7678 30.49 18.6216 30.7006 17.9116 30.4999L17.8764 29.8826L17.8764 29.8826ZM16.67 13.9606C18.1826 13.9606 19.6952 13.9618 21.2079 13.9606C23.1445 13.9589 23.6771 14.109 23.6272 16.2053C23.5541 19.275 23.6521 22.4029 23.6295 25.4964C23.045 24.9159 22.9124 24.5382 21.9851 24.1986C21.0684 23.8629 20.3372 23.9903 19.6126 24.4431C18.6161 25.0657 17.2994 26.4542 16.6004 27.4183C15.4315 29.0303 15.1248 29.3145 15.1265 31.9291C15.1274 33.2119 14.9718 39.7866 15.2884 40.7327C15.7908 42.2342 17.592 43.1121 19.1239 42.2106L20.83 40.9178C21.4278 40.466 21.9147 40.0767 22.5071 39.6041C22.9778 39.2286 23.5016 38.5918 23.6126 37.6987C23.8028 36.1663 23.6159 33.4982 23.6337 31.8321L24.0622 31.4913C24.9452 31.0179 24.7281 30.7192 25.1665 30.2573C25.5737 30.6834 25.4682 31.0612 26.2078 31.4602C26.4021 31.565 26.6391 31.6315 26.6989 31.8321C26.7224 33.5718 26.5489 35.9683 26.727 37.6159C26.9172 39.3744 28.4148 39.9884 29.4604 40.8694C30.722 41.9324 31.8497 43.069 33.5549 42.3552C35.4475 41.5628 35.2059 39.6821 35.2062 38.0112C35.2065 36.016 35.2055 34.0209 35.2064 32.0257C35.2078 29.0388 34.5207 28.0904 32.3889 25.865C31.0562 24.4737 29.3832 23.1707 27.4817 24.6831L26.7593 25.4419C26.7469 25.4546 26.7223 25.4793 26.7029 25.4969C26.6875 22.7531 26.9983 13.5465 26.3384 11.5404C24.8804 7.10903 20.191 9.0324 15.0287 8.54866C14.9412 8.62204 14.4877 9.1589 14.4468 9.23785C14.2936 9.53445 14.2984 10.0659 14.4817 10.3658C14.9086 11.0643 15.6278 10.8811 16.67 10.8811V13.9606L16.67 13.9606Z" fill="#FF6859"/>
<path fill-rule="evenodd" clip-rule="evenodd" d="M3.63566 22.5638C3.23087 22.3496 2.44776 21.6949 1.99424 21.6949C1.28317 21.6949 0.761558 22.6124 1.75934 23.2815C3.80609 24.6542 4.04236 25.1649 5.18076 24.3986C5.46166 24.2095 5.70347 24.0843 6.01126 23.8774C6.32616 23.6656 6.52461 23.5523 6.84219 23.3566C7.9847 22.6526 7.50299 21.6949 6.7253 21.6949C6.14837 21.6949 5.84839 22.2376 5.27696 22.3707C5.43111 20.5183 7.14811 18.5349 8.88027 17.6707C12.8004 15.715 15.1252 16.9462 15.1252 15.5156C15.1252 13.4797 8.79461 15.7477 7.12936 16.8852C5.38491 18.0768 3.68325 20.4231 3.63566 22.5638V22.5638Z" fill="#FF6859"/>
<path fill-rule="evenodd" clip-rule="evenodd" d="M5.27699 3.15709C4.09889 3.15709 4.31146 3.67789 4.31146 5.18468C4.31146 9.91805 7.85408 13.9707 12.9046 13.9707C13.9764 13.9707 14.3527 14.0086 14.3527 13.0052C14.3527 12.7999 13.5226 11.6637 13.3485 11.4026C13.0392 10.9386 12.6783 10.1088 12.0355 10.1088C10.7765 10.1088 11.3317 11.7171 12.0355 12.2328C11.8888 12.4382 12.0591 12.3231 11.5671 12.2186L10.4145 11.9229C10.0562 11.8084 9.39154 11.4694 9.05915 11.2506C5.39962 8.84282 5.994 4.29394 5.8193 3.67683C5.75467 3.44865 5.52445 3.15705 5.27699 3.15705V3.15709Z" fill="#FF6859"/>
<path fill-rule="evenodd" clip-rule="evenodd" d="M20.645 32.0411C22.0386 29.7134 21.2183 31.0474 21.3583 29.8037C20.5493 29.8037 18.5152 29.7121 17.8764 29.8827L17.9115 30.5C18.6216 30.7007 19.7677 30.4901 20.5989 30.6176L18.7967 33.6604C18.1228 33.6736 16.8976 33.5947 16.3315 33.7447L16.3667 34.3621C16.863 34.5023 17.9751 34.441 18.5995 34.441C18.5995 35.02 18.5963 35.5998 18.6009 36.1787C18.6073 36.9879 18.6002 37.0261 18.2396 37.5521C17.7421 38.278 16.973 39.169 17.1432 39.7589C17.8298 39.9623 18.0323 39.3059 18.6544 38.357L18.9803 37.9058C18.99 37.895 19.0241 37.8883 19.0313 37.8572C19.0385 37.826 19.065 37.8239 19.0837 37.8097C20.1542 38.774 20.1586 39.208 20.8162 38.9726C20.9521 38.5721 20.9706 38.6396 20.7847 38.3921L19.552 37.1587C19.2357 36.7867 19.3599 34.3156 19.4263 34.1025C19.5207 33.7993 20.4105 32.4327 20.6449 32.0411L20.645 32.0411Z" fill="#F1C3B1"/>
<path fill-rule="evenodd" clip-rule="evenodd" d="M32.4213 29.8841C31.8448 29.7199 29.8522 29.8037 29.0707 29.8037C28.8533 30.5881 28.7567 30.4888 29.1138 31.076C31.1576 34.4362 30.958 33.4586 30.958 36.6602C30.958 37.3884 29.2166 38.3413 29.4575 38.8518C29.6428 39.0254 29.7091 39.1324 30.0106 39.014C30.1498 38.9592 30.1238 38.9545 30.2429 38.8473C30.2587 38.833 30.2777 38.812 30.2929 38.7973L30.4354 38.6459C30.625 38.4422 30.9226 38.1166 31.2491 37.8105C31.9124 38.2979 32.2438 40.0442 33.1878 39.758C33.4529 38.8429 31.7333 37.6057 31.7333 36.7568L31.7319 34.441C32.772 34.4522 33.0186 34.5147 34.0007 34.3606L33.9661 33.7461C33.4312 33.5937 32.2156 33.6745 31.5544 33.6496L29.7404 30.6136C30.5665 30.4898 31.7098 30.7011 32.4559 30.4985L32.4213 29.884L32.4213 29.8841Z" fill="#F1C3B1"/>
</g>
<defs>
<clipPath id="clip0_4971_21354">
<rect width="48" height="48" fill="white"/>
</clipPath>
</defs>
</svg>
