<svg width="24" height="24" viewBox="0 0 24 24" fill="none" xmlns="http://www.w3.org/2000/svg">
<path d="M6.25 3.53846C6.25 3.95268 6.58579 4.28846 7 4.28846C7.41421 4.28846 7.75 3.95268 7.75 3.53846H7H6.25ZM7.75 2C7.75 1.58579 7.41421 1.25 7 1.25C6.58579 1.25 6.25 1.58579 6.25 2H7H7.75ZM16.25 3.53846C16.25 3.95268 16.5858 4.28846 17 4.28846C17.4142 4.28846 17.75 3.95268 17.75 3.53846H17H16.25ZM17.75 2C17.75 1.58579 17.4142 1.25 17 1.25C16.5858 1.25 16.25 1.58579 16.25 2H17H17.75ZM2.5 7.91667C2.08579 7.91667 1.75 8.25245 1.75 8.66667C1.75 9.08088 2.08579 9.41667 2.5 9.41667V8.66667V7.91667ZM21.5 9.41667C21.9142 9.41667 22.25 9.08088 22.25 8.66667C22.25 8.25245 21.9142 7.91667 21.5 7.91667V8.66667V9.41667ZM13.463 17.4834C13.7521 17.78 14.227 17.786 14.5236 17.4968C14.8201 17.2076 14.8261 16.7328 14.537 16.4362L14 16.9598L13.463 17.4834ZM10.537 12.3337C10.2478 12.0371 9.773 12.0311 9.47642 12.3203C9.17985 12.6094 9.17384 13.0843 9.463 13.3808L10 12.8573L10.537 12.3337ZM14.537 13.3808C14.8262 13.0842 14.8202 12.6094 14.5236 12.3202C14.227 12.0311 13.7522 12.0371 13.463 12.3337L14 12.8572L14.537 13.3808ZM9.46302 16.4362C9.17385 16.7328 9.17986 17.2076 9.47644 17.4968C9.77302 17.786 10.2479 17.7799 10.537 17.4834L10 16.9598L9.46302 16.4362ZM10 3.53846V4.28846H14V3.53846V2.78846H10V3.53846ZM22 11.7436H21.25V13.7949H22H22.75V11.7436H22ZM14 22V21.25H10V22V22.75H14V22ZM2 13.7949H2.75V11.7436H2H1.25V13.7949H2ZM10 22V21.25C8.09265 21.25 6.7395 21.2483 5.71336 21.1068C4.7108 20.9686 4.13261 20.7097 3.70857 20.2748L3.17157 20.7984L2.63457 21.322C3.38211 22.0887 4.33252 22.4306 5.50846 22.5928C6.66084 22.7517 8.13611 22.75 10 22.75V22ZM2 13.7949H1.25C1.25 15.7082 1.24848 17.2167 1.40281 18.394C1.55971 19.5909 1.88962 20.5579 2.63457 21.322L3.17157 20.7984L3.70857 20.2748C3.28196 19.8373 3.02608 19.2364 2.89008 18.199C2.75152 17.1419 2.75 15.7495 2.75 13.7949H2ZM22 13.7949H21.25C21.25 15.7495 21.2485 17.1419 21.1099 18.199C20.9739 19.2364 20.718 19.8373 20.2914 20.2748L20.8284 20.7984L21.3654 21.322C22.1104 20.5579 22.4403 19.5909 22.5972 18.394C22.7515 17.2167 22.75 15.7082 22.75 13.7949H22ZM14 22V22.75C15.8639 22.75 17.3392 22.7517 18.4915 22.5928C19.6675 22.4306 20.6179 22.0887 21.3654 21.322L20.8284 20.7984L20.2914 20.2748C19.8674 20.7097 19.2892 20.9686 18.2866 21.1068C17.2605 21.2483 15.9073 21.25 14 21.25V22ZM14 3.53846V4.28846C15.9073 4.28846 17.2605 4.29014 18.2866 4.43163C19.2892 4.56988 19.8674 4.82874 20.2914 5.26365L20.8284 4.74007L21.3654 4.2165C20.6179 3.4498 19.6675 3.10785 18.4915 2.94569C17.3392 2.78679 15.8639 2.78846 14 2.78846V3.53846ZM22 11.7436H22.75C22.75 9.83031 22.7515 8.32176 22.5972 7.14448C22.4403 5.94753 22.1104 4.98056 21.3654 4.2165L20.8284 4.74007L20.2914 5.26365C20.718 5.70121 20.9739 6.30202 21.1099 7.33944C21.2485 8.39653 21.25 9.78894 21.25 11.7436H22ZM10 3.53846V2.78846C8.13611 2.78846 6.66084 2.78679 5.50846 2.94569C4.33252 3.10785 3.38211 3.4498 2.63457 4.2165L3.17157 4.74007L3.70857 5.26365C4.13261 4.82874 4.71079 4.56988 5.71336 4.43163C6.7395 4.29014 8.09265 4.28846 10 4.28846V3.53846ZM2 11.7436H2.75C2.75 9.78894 2.75152 8.39653 2.89008 7.33944C3.02608 6.30202 3.28196 5.70121 3.70857 5.26365L3.17157 4.74007L2.63457 4.2165C1.88962 4.98056 1.55971 5.94753 1.40281 7.14448C1.24848 8.32176 1.25 9.83031 1.25 11.7436H2ZM7 3.53846H7.75V2H7H6.25V3.53846H7ZM17 3.53846H17.75V2H17H16.25V3.53846H17ZM2.5 8.66667V9.41667H21.5V8.66667V7.91667H2.5V8.66667ZM14 16.9598L14.537 16.4362L12.537 14.385L12 14.9085L11.463 15.4321L13.463 17.4834L14 16.9598ZM12 14.9085L12.537 14.385L10.537 12.3337L10 12.8573L9.463 13.3808L11.463 15.4321L12 14.9085ZM14 12.8572L13.463 12.3337L11.463 14.385L12 14.9085L12.537 15.4321L14.537 13.3808L14 12.8572ZM12 14.9085L11.463 14.385L9.46302 16.4362L10 16.9598L10.537 17.4834L12.537 15.4321L12 14.9085Z" fill="#D92D20"/>
</svg>
