<svg width="32" height="32" viewBox="0 0 32 32" fill="none" xmlns="http://www.w3.org/2000/svg">
<path d="M24 21.8783C24.4142 21.8783 24.75 21.5425 24.75 21.1283C24.75 20.7141 24.4142 20.3783 24 20.3783V21.1283V21.8783ZM18.6667 20.3783C18.2524 20.3783 17.9167 20.7141 17.9167 21.1283C17.9167 21.5425 18.2524 21.8783 18.6667 21.8783L18.6667 21.1283L18.6667 20.3783ZM22.0833 18.3932C22.0833 17.979 21.7475 17.6432 21.3333 17.6432C20.9191 17.6432 20.5833 17.979 20.5833 18.3932H21.3333H22.0833ZM20.5833 23.8633C20.5833 24.2775 20.9191 24.6133 21.3333 24.6133C21.7475 24.6133 22.0833 24.2775 22.0833 23.8633H21.3333H20.5833ZM8.58332 4.71803C8.58332 5.13224 8.91911 5.46803 9.33332 5.46803C9.74754 5.46803 10.0833 5.13224 10.0833 4.71803H9.33332H8.58332ZM10.0833 2.66675C10.0833 2.25253 9.74754 1.91675 9.33332 1.91675C8.91911 1.91675 8.58332 2.25253 8.58332 2.66675H9.33332H10.0833ZM21.9167 4.71803C21.9167 5.13224 22.2524 5.46803 22.6667 5.46803C23.0809 5.46803 23.4167 5.13224 23.4167 4.71803H22.6667H21.9167ZM23.4167 2.66675C23.4167 2.25253 23.0809 1.91675 22.6667 1.91675C22.2524 1.91675 21.9167 2.25253 21.9167 2.66675H22.6667H23.4167ZM3.33332 10.8056C2.91911 10.8056 2.58332 11.1414 2.58332 11.5556C2.58332 11.9698 2.91911 12.3056 3.33332 12.3056V11.5556V10.8056ZM28.6667 12.3056C29.0809 12.3056 29.4167 11.9698 29.4167 11.5556C29.4167 11.1414 29.0809 10.8056 28.6667 10.8056V11.5556V12.3056ZM13.3333 4.71803V5.46803H18.6667V4.71803V3.96803H13.3333V4.71803ZM29.3333 15.6582H28.5833V18.3932H29.3333H30.0833V15.6582H29.3333ZM18.6667 29.3334V28.5834H13.3333V29.3334V30.0834H18.6667V29.3334ZM2.66666 18.3932H3.41666V15.6582H2.66666H1.91666V18.3932H2.66666ZM13.3333 29.3334V28.5834C10.7974 28.5834 8.97287 28.5817 7.58366 28.3902C6.218 28.2019 5.38505 27.8429 4.76575 27.2077L4.22875 27.7313L3.69175 28.2548C4.63455 29.2218 5.83973 29.6639 7.37876 29.8761C8.89422 30.0851 10.8409 30.0834 13.3333 30.0834V29.3334ZM2.66666 18.3932H1.91666C1.91666 20.9512 1.91514 22.9432 2.11828 24.4929C2.324 26.0622 2.75154 27.2905 3.69175 28.2548L4.22875 27.7313L4.76575 27.2077C4.14387 26.5699 3.79036 25.7078 3.60556 24.2979C3.41817 22.8684 3.41666 20.9926 3.41666 18.3932H2.66666ZM29.3333 18.3932H28.5833C28.5833 20.9926 28.5818 22.8684 28.3944 24.2979C28.2096 25.7077 27.8561 26.5699 27.2342 27.2077L27.7712 27.7313L28.3082 28.2548C29.2484 27.2905 29.676 26.0622 29.8817 24.4929C30.0848 22.9432 30.0833 20.9512 30.0833 18.3932H29.3333ZM18.6667 29.3334V30.0834C21.1591 30.0834 23.1058 30.0851 24.6212 29.8761C26.1602 29.6639 27.3654 29.2218 28.3082 28.2548L27.7712 27.7313L27.2342 27.2077C26.6149 27.8429 25.782 28.2019 24.4163 28.3902C23.0271 28.5817 21.2025 28.5834 18.6667 28.5834V29.3334ZM18.6667 4.71803V5.46803C21.2025 5.46803 23.0271 5.4697 24.4163 5.66127C25.782 5.84958 26.6149 6.20858 27.2342 6.84376L27.7712 6.32018L28.3082 5.79661C27.3654 4.82963 26.1602 4.38755 24.6212 4.17533C23.1058 3.96636 21.1591 3.96803 18.6667 3.96803V4.71803ZM29.3333 15.6582H30.0833C30.0833 13.1003 30.0848 11.1082 29.8817 9.55855C29.676 7.98921 29.2484 6.76093 28.3082 5.79661L27.7712 6.32018L27.2342 6.84376C27.8561 7.48158 28.2096 8.34369 28.3944 9.75351C28.5818 11.183 28.5833 13.0589 28.5833 15.6582H29.3333ZM13.3333 4.71803V3.96803C10.8409 3.96803 8.89422 3.96636 7.37876 4.17533C5.83973 4.38755 4.63455 4.82963 3.69175 5.79661L4.22875 6.32018L4.76575 6.84376C5.38505 6.20858 6.218 5.84958 7.58366 5.66127C8.97287 5.4697 10.7974 5.46803 13.3333 5.46803V4.71803ZM2.66666 15.6582H3.41666C3.41666 13.0589 3.41817 11.183 3.60556 9.75351C3.79036 8.34369 4.14387 7.48158 4.76575 6.84376L4.22875 6.32018L3.69175 5.79661C2.75154 6.76093 2.324 7.98921 2.11828 9.55855C1.91514 11.1082 1.91666 13.1003 1.91666 15.6582H2.66666ZM24 21.1283V20.3783H21.3333V21.1283V21.8783H24V21.1283ZM21.3333 21.1283L21.3333 20.3783L18.6667 20.3783L18.6667 21.1283L18.6667 21.8783L21.3333 21.8783L21.3333 21.1283ZM21.3333 18.3932H20.5833V21.1283H21.3333H22.0833V18.3932H21.3333ZM21.3333 21.1283H20.5833V23.8633H21.3333H22.0833V21.1283H21.3333ZM9.33332 4.71803H10.0833V2.66675H9.33332H8.58332V4.71803H9.33332ZM22.6667 4.71803H23.4167V2.66675H22.6667H21.9167V4.71803H22.6667ZM3.33332 11.5556V12.3056H28.6667V11.5556V10.8056H3.33332V11.5556Z" fill="#424242"/>
</svg>
