<svg width="24" height="24" viewBox="0 0 24 24" fill="none" xmlns="http://www.w3.org/2000/svg">
<path d="M9.03033 11.9697C8.73744 11.6768 8.26256 11.6768 7.96967 11.9697C7.67678 12.2626 7.67678 12.7374 7.96967 13.0303L8.5 12.5L9.03033 11.9697ZM10.5 14.5L9.96967 15.0303C10.2626 15.3232 10.7374 15.3232 11.0303 15.0303L10.5 14.5ZM16.0303 10.0303C16.3232 9.73744 16.3232 9.26256 16.0303 8.96967C15.7374 8.67678 15.2626 8.67678 14.9697 8.96967L15.5 9.5L16.0303 10.0303ZM22 12H21.25C21.25 17.1086 17.1086 21.25 12 21.25V22V22.75C17.9371 22.75 22.75 17.9371 22.75 12H22ZM12 22V21.25C6.89137 21.25 2.75 17.1086 2.75 12H2H1.25C1.25 17.9371 6.06294 22.75 12 22.75V22ZM2 12H2.75C2.75 6.89137 6.89137 2.75 12 2.75V2V1.25C6.06294 1.25 1.25 6.06294 1.25 12H2ZM12 2V2.75C17.1086 2.75 21.25 6.89137 21.25 12H22H22.75C22.75 6.06294 17.9371 1.25 12 1.25V2ZM8.5 12.5L7.96967 13.0303L9.96967 15.0303L10.5 14.5L11.0303 13.9697L9.03033 11.9697L8.5 12.5ZM10.5 14.5L11.0303 15.0303L16.0303 10.0303L15.5 9.5L14.9697 8.96967L9.96967 13.9697L10.5 14.5Z" fill="white"/>
</svg>
