<svg width="32" height="32" viewBox="0 0 32 32" fill="none" xmlns="http://www.w3.org/2000/svg">
<path d="M24.5303 8.53039C24.8232 8.2375 24.8232 7.76263 24.5303 7.46973C24.2374 7.17684 23.7626 7.17684 23.4697 7.46973L24 8.00006L24.5303 8.53039ZM7.46974 23.4697C7.17684 23.7626 7.17684 24.2374 7.46974 24.5303C7.76263 24.8232 8.2375 24.8232 8.5304 24.5303L8.00007 24L7.46974 23.4697ZM8.53033 7.46967C8.23744 7.17678 7.76256 7.17678 7.46967 7.46967C7.17678 7.76256 7.17678 8.23744 7.46967 8.53033L8 8L8.53033 7.46967ZM23.4696 24.5303C23.7625 24.8232 24.2374 24.8232 24.5303 24.5303C24.8232 24.2374 24.8232 23.7625 24.5303 23.4696L23.9999 23.9999L23.4696 24.5303ZM24 8.00006L23.4697 7.46973L15.4697 15.4697L16 16L16.5304 16.5304L24.5303 8.53039L24 8.00006ZM16 16L15.4697 15.4697L7.46974 23.4697L8.00007 24L8.5304 24.5303L16.5304 16.5304L16 16ZM8 8L7.46967 8.53033L15.4697 16.5304L16 16L16.5304 15.4697L8.53033 7.46967L8 8ZM16 16L15.4697 16.5304L23.4696 24.5303L23.9999 23.9999L24.5303 23.4696L16.5304 15.4697L16 16Z" fill="white"/>
</svg>
