<svg width="48" height="48" viewBox="0 0 48 48" fill="none" xmlns="http://www.w3.org/2000/svg">
<path fill-rule="evenodd" clip-rule="evenodd" d="M12.9024 21.7717C12.9024 22.2306 12.4296 22.2967 12.0261 22.3971C11.5886 22.506 9.30047 23.1978 9.03808 23.1182C8.7645 23.0351 8.698 22.8889 8.698 22.6126C8.698 22.097 9.64246 21.9865 10.404 21.796C11.4394 21.5371 12.9024 20.861 12.9024 21.7717Z" fill="#FF5040"/>
<path fill-rule="evenodd" clip-rule="evenodd" d="M12.9025 19.8498C12.9025 20.3136 12.4983 20.4779 11.9437 20.1478C11.7914 20.0572 11.6609 19.9874 11.4865 19.8842L9.73767 18.8702C9.4654 18.7181 8.99841 18.5414 8.99841 18.168C8.99841 17.9048 9.19438 17.6875 9.53898 17.6875C9.79104 17.6875 10.2325 18.0232 10.4605 18.1474L12.2163 19.1546C12.5081 19.3271 12.9025 19.4402 12.9025 19.8498Z" fill="#FF5040"/>
<path fill-rule="evenodd" clip-rule="evenodd" d="M8.27769 22.913C8.27769 23.2318 8.26923 23.3628 7.94452 23.4807C7.39395 23.6807 6.83618 23.806 6.83618 23.0331C6.83618 22.5723 8.27769 22.2498 8.27769 22.913Z" fill="#FF5040"/>
<path fill-rule="evenodd" clip-rule="evenodd" d="M8.75811 17.4473C8.75811 18.2435 7.71176 17.8964 7.42297 17.4566C7.25897 17.2068 7.3683 16.3127 8.41185 16.9527C8.60196 17.0693 8.75811 17.158 8.75811 17.4473Z" fill="#FF5040"/>
<path fill-rule="evenodd" clip-rule="evenodd" d="M8.75811 20.3303C8.75811 21.1265 7.71176 20.7795 7.42297 20.3396C7.25897 20.0898 7.3683 19.1957 8.41185 19.8357C8.60196 19.9523 8.75811 20.041 8.75811 20.3303Z" fill="#FF5040"/>
<path fill-rule="evenodd" clip-rule="evenodd" d="M10.9703 27.7964C10.9703 29.1993 12.233 29.4162 13.0353 29.8198C14.5954 30.6045 14.3905 30.6832 15.2704 32.6603C15.6868 33.5956 12.7891 34.9891 15.3593 35.5559C16.1678 39.9675 19.4044 39.8331 23.2357 39.828C25.6602 39.8248 25.7148 40.1027 26.2644 42.7568C26.3886 43.3572 26.4899 43.9285 26.6232 44.5005H42.5097C42.377 42.9054 41.3416 40.4232 41.3416 37.4918C41.3416 31.9681 47.9999 29.0867 47.9999 19.3859C47.9999 15.9213 46.3268 11.7129 44.1734 9.31164C44.0018 9.12027 43.8812 9.03953 43.7125 8.83811C43.5107 8.5974 43.4777 8.47427 43.2413 8.25797C40.1877 5.46403 36.4579 3.49937 31.9966 3.49937C27.9016 3.49937 25.1213 3.95607 21.9723 5.97393C17.0331 9.13894 14.4729 14.0391 14.4747 20.3203C14.4751 21.6488 14.6394 21.7216 14.0887 22.621C13.5645 23.4773 10.9703 27.1116 10.9703 27.7963V27.7964Z" fill="#FFC487"/>
<path fill-rule="evenodd" clip-rule="evenodd" d="M1.92525 31.768C2.04772 31.7078 3.18896 31.5279 3.45286 31.4623C4.80569 31.1265 6.11814 30.536 7.2545 29.8507C7.8861 29.4698 9.37979 28.422 9.85759 27.9427C10.3253 27.4736 10.9711 26.7574 11.4307 26.9508C12.4629 27.3853 10.7223 28.6667 10.374 28.9825C10.0862 29.2436 9.67919 29.5392 9.36653 29.7806C7.85868 30.9452 5.29176 32.3254 3.23293 32.6603C3.36696 33.2719 3.47958 32.7745 3.70712 34.4515C3.79172 35.0751 3.81055 35.9479 3.97341 36.5159C4.38744 37.9596 5.05763 38.2337 6.86545 38.2337C7.14127 37.9378 7.89903 37.5927 8.66152 36.7445C8.93042 36.4453 9.17064 36.2005 9.41973 35.8496C9.63962 35.5398 9.85235 35.2359 10.0429 34.8935C10.4187 34.2184 10.7603 33.4815 11.0594 32.6748C11.2245 32.2297 11.6758 30.4345 11.8822 30.2639C12.2711 29.9422 12.781 30.255 12.7891 30.7107C12.7929 30.9233 12.5318 31.7649 12.4518 32.0393C12.0021 33.5808 11.2675 35.1958 10.3747 36.4296L9.62961 37.3362C9.37739 37.6353 9.03812 37.9053 8.84976 38.1585C9.30454 38.1676 9.35095 38.2911 9.69876 38.3939C9.97543 38.1574 10.4257 37.4258 10.6481 37.0766C12.3542 34.3968 13.1615 31.0064 12.88 27.7848C12.7413 26.198 12.4162 25.3211 12.055 23.9488L8.23814 25.5707C6.45468 26.2862 3.08349 27.4188 1.0972 27.9029C0.670072 28.007 0.409064 28.0319 0.251531 28.4105C0.135772 28.6887 0.0453928 29.0054 0.00012207 29.3306V30.1936C0.128206 30.9966 0.66088 31.6841 1.92537 31.7679L1.92525 31.768Z" fill="#F4F7F7"/>
<path fill-rule="evenodd" clip-rule="evenodd" d="M12.0549 23.9489C12.4161 25.3213 12.7411 26.1981 12.8798 27.7849C13.1613 31.0065 12.3541 34.3969 10.648 37.0767C10.4256 37.4259 9.97528 38.1575 9.69861 38.394C9.94636 38.7325 10.1624 38.816 10.4159 39.2457C10.5335 39.4448 10.5575 39.576 10.8312 39.5869C11.4084 39.6098 13.0935 36.9561 13.3315 36.5287C13.5312 36.17 13.672 35.8491 13.8593 35.4776C14.3941 34.4166 14.4568 33.7849 14.735 33.1964C14.7965 32.0686 15.4916 30.9137 15.1986 27.6952C15.117 26.7999 14.9655 25.9348 14.7506 25.1363C14.626 24.6732 14.2678 23.221 13.8337 23.056C13.5338 23.1081 13.1946 23.3286 12.9064 23.4727C12.6857 23.583 12.1897 23.7932 12.0548 23.9489L12.0549 23.9489Z" fill="#D9E7EC"/>
<path fill-rule="evenodd" clip-rule="evenodd" d="M1.92517 31.768C2.17581 31.8503 2.45882 31.9508 2.67635 32.0989C2.94098 32.279 3.03518 32.533 3.23286 32.6603C5.29168 32.3255 7.85865 30.9453 9.36645 29.7807C9.67908 29.5392 10.0861 29.2436 10.374 28.9825C10.7221 28.6667 12.4628 27.3853 11.4306 26.9508C10.9709 26.7574 10.3252 27.4736 9.85752 27.9427C9.37971 28.422 7.88598 29.4698 7.25443 29.8507C6.1181 30.536 4.80562 31.1265 3.45278 31.4623C3.18893 31.5279 2.04764 31.7078 1.92517 31.768Z" fill="#D9E7EC"/>
<path fill-rule="evenodd" clip-rule="evenodd" d="M6.8654 38.2338C7.56166 38.2338 8.19484 37.9813 8.84966 38.1586C9.03807 37.9054 9.37729 37.6354 9.62952 37.3363L10.3746 36.4297C11.2674 35.1959 12.002 33.5808 12.4517 32.0393C12.5317 31.765 12.7928 30.9233 12.789 30.7108C12.7809 30.2551 12.271 29.9423 11.8821 30.2639C11.6757 30.4346 11.2244 32.2297 11.0593 32.6748C10.7602 33.4816 10.4186 34.2185 10.0429 34.8936C9.85225 35.2359 9.63952 35.5399 9.41963 35.8496C9.17054 36.2006 8.93032 36.4454 8.66142 36.7446C7.89894 37.5928 7.14117 37.9378 6.86536 38.2338L6.8654 38.2338Z" fill="#D9E7EC"/>
<path fill-rule="evenodd" clip-rule="evenodd" d="M19.4703 22.0533C19.489 22.0734 19.5189 22.076 19.5282 22.112C19.5375 22.1476 19.5736 22.1579 19.5867 22.1693L19.9667 22.454C20.1865 22.5994 20.2572 22.6364 20.4925 22.797C21.8218 23.7044 20.7867 24.7931 19.9133 24.4723C19.6514 24.3761 19.055 23.9311 18.7807 23.7482C15.4377 21.5193 16.2477 21.6905 21.2104 19.1968C21.8985 18.8511 23.1911 17.9542 23.6514 18.9937C24.2736 20.3993 20.9184 20.8781 19.4703 22.0533L19.4703 22.0533Z" fill="#FA9F4D"/>
</svg>
