<svg width="16" height="16" viewBox="0 0 16 16" fill="none" xmlns="http://www.w3.org/2000/svg">
<path d="M13.8169 5.80272L13.4207 6.1077V6.1077L13.8169 5.80272ZM13.8169 10.197L13.4207 9.89197V9.89197L13.8169 10.197ZM14.6668 7.99984H14.1668H14.6668ZM2.18342 5.80272L2.57964 6.1077V6.1077L2.18342 5.80272ZM2.18342 10.197L2.57964 9.89197V9.89197L2.18342 10.197ZM2.18342 5.80272L2.57964 6.1077C3.66592 4.69645 5.43374 3.1665 8.00016 3.1665V2.6665V2.1665C4.99074 2.1665 2.96369 3.9693 1.78721 5.49775L2.18342 5.80272ZM8.00016 2.6665V3.1665C10.5666 3.1665 12.3344 4.69645 13.4207 6.1077L13.8169 5.80272L14.2131 5.49775C13.0366 3.9693 11.0096 2.1665 8.00016 2.1665V2.6665ZM13.8169 10.197L13.4207 9.89197C12.3344 11.3032 10.5666 12.8332 8.00016 12.8332V13.3332V13.8332C11.0096 13.8332 13.0366 12.0304 14.2131 10.5019L13.8169 10.197ZM8.00016 13.3332V12.8332C5.43374 12.8332 3.66592 11.3032 2.57964 9.89197L2.18342 10.197L1.78721 10.5019C2.96369 12.0304 4.99074 13.8332 8.00016 13.8332V13.3332ZM13.8169 5.80272L13.4207 6.1077C13.7131 6.48756 13.8843 6.71454 13.997 6.96954C14.1023 7.20785 14.1668 7.49913 14.1668 7.99984H14.6668H15.1668C15.1668 7.40763 15.0897 6.96842 14.9117 6.56544C14.741 6.17914 14.4873 5.85402 14.2131 5.49775L13.8169 5.80272ZM13.8169 10.197L14.2131 10.5019C14.4873 10.1457 14.741 9.82054 14.9117 9.43424C15.0897 9.03126 15.1668 8.59204 15.1668 7.99984H14.6668H14.1668C14.1668 8.50055 14.1023 8.79183 13.997 9.03014C13.8843 9.28513 13.7131 9.51211 13.4207 9.89197L13.8169 10.197ZM2.18342 5.80272L1.78721 5.49775C1.51298 5.85402 1.25928 6.17914 1.08862 6.56544C0.910592 6.96842 0.833496 7.40763 0.833496 7.99984H1.3335H1.8335C1.8335 7.49913 1.89805 7.20785 2.00334 6.96954C2.11599 6.71454 2.28725 6.48756 2.57964 6.1077L2.18342 5.80272ZM2.18342 10.197L2.57964 9.89197C2.28725 9.51211 2.11599 9.28513 2.00334 9.03014C1.89805 8.79183 1.8335 8.50055 1.8335 7.99984H1.3335H0.833496C0.833496 8.59204 0.910592 9.03126 1.08862 9.43424C1.25928 9.82054 1.51298 10.1457 1.78721 10.5019L2.18342 10.197ZM10.0002 7.99984H9.50016C9.50016 8.82826 8.82859 9.49984 8.00016 9.49984V9.99984V10.4998C9.38087 10.4998 10.5002 9.38055 10.5002 7.99984H10.0002ZM8.00016 9.99984V9.49984C7.17174 9.49984 6.50016 8.82826 6.50016 7.99984H6.00016H5.50016C5.50016 9.38055 6.61945 10.4998 8.00016 10.4998V9.99984ZM6.00016 7.99984H6.50016C6.50016 7.17141 7.17174 6.49984 8.00016 6.49984V5.99984V5.49984C6.61945 5.49984 5.50016 6.61913 5.50016 7.99984H6.00016ZM8.00016 5.99984V6.49984C8.82859 6.49984 9.50016 7.17141 9.50016 7.99984H10.0002H10.5002C10.5002 6.61913 9.38087 5.49984 8.00016 5.49984V5.99984Z" fill="#2372EC"/>
</svg>
