<svg width="24" height="24" viewBox="0 0 24 24" fill="none" xmlns="http://www.w3.org/2000/svg">
<path d="M16 10.5C16 11.3284 15.5523 12 15 12C14.4477 12 14 11.3284 14 10.5C14 9.67157 14.4477 9 15 9C15.5523 9 16 9.67157 16 10.5Z" fill="#F8FAFF"/>
<path d="M10 10.5C10 11.3284 9.55228 12 9 12C8.44772 12 8 11.3284 8 10.5C8 9.67157 8.44772 9 9 9C9.55228 9 10 9.67157 10 10.5Z" fill="#F8FAFF"/>
<path d="M9.29774 15.5983C9.0759 15.4339 8.76275 15.4804 8.59832 15.7023C8.43388 15.9241 8.48041 16.2372 8.70226 16.4017L9 16L9.29774 15.5983ZM22.5 14C22.5 13.7239 22.2761 13.5 22 13.5C21.7239 13.5 21.5 13.7239 21.5 14H22H22.5ZM14 21.5C13.7239 21.5 13.5 21.7239 13.5 22C13.5 22.2761 13.7239 22.5 14 22.5V22V21.5ZM10 22.5C10.2761 22.5 10.5 22.2761 10.5 22C10.5 21.7239 10.2761 21.5 10 21.5V22V22.5ZM2.5 14C2.5 13.7239 2.27614 13.5 2 13.5C1.72386 13.5 1.5 13.7239 1.5 14H2H2.5ZM10 2.5C10.2761 2.5 10.5 2.27614 10.5 2C10.5 1.72386 10.2761 1.5 10 1.5V2V2.5ZM1.5 10C1.5 10.2761 1.72386 10.5 2 10.5C2.27614 10.5 2.5 10.2761 2.5 10H2H1.5ZM14 1.5C13.7239 1.5 13.5 1.72386 13.5 2C13.5 2.27614 13.7239 2.5 14 2.5V2V1.5ZM21.5 10C21.5 10.2761 21.7239 10.5 22 10.5C22.2761 10.5 22.5 10.2761 22.5 10H22H21.5ZM12 17V16.5C10.9976 16.5 10.0668 16.1683 9.29774 15.5983L9 16L8.70226 16.4017C9.63399 17.0923 10.7715 17.5 12 17.5V17ZM15 16L14.7023 15.5983C13.9332 16.1683 13.0024 16.5 12 16.5V17V17.5C13.2285 17.5 14.366 17.0923 15.2977 16.4017L15 16ZM16 10.5H15.5C15.5 10.8293 15.4101 11.1048 15.2911 11.2833C15.1697 11.4654 15.057 11.5 15 11.5V12V12.5C15.4953 12.5 15.8826 12.1988 16.1231 11.838C16.366 11.4737 16.5 10.9992 16.5 10.5H16ZM15 12V11.5C14.943 11.5 14.8303 11.4654 14.7089 11.2833C14.5899 11.1048 14.5 10.8293 14.5 10.5H14H13.5C13.5 10.9992 13.634 11.4737 13.8769 11.838C14.1174 12.1988 14.5047 12.5 15 12.5V12ZM14 10.5H14.5C14.5 10.1707 14.5899 9.89525 14.7089 9.71669C14.8303 9.53464 14.943 9.5 15 9.5V9V8.5C14.5047 8.5 14.1174 8.80115 13.8769 9.16199C13.634 9.52632 13.5 10.0008 13.5 10.5H14ZM15 9V9.5C15.057 9.5 15.1697 9.53464 15.2911 9.71669C15.4101 9.89525 15.5 10.1707 15.5 10.5H16H16.5C16.5 10.0008 16.366 9.52632 16.1231 9.16199C15.8826 8.80115 15.4953 8.5 15 8.5V9ZM10 10.5H9.5C9.5 10.8293 9.41012 11.1048 9.29108 11.2833C9.16971 11.4654 9.05695 11.5 9 11.5V12V12.5C9.49533 12.5 9.88257 12.1988 10.1231 11.838C10.366 11.4737 10.5 10.9992 10.5 10.5H10ZM9 12V11.5C8.94305 11.5 8.83029 11.4654 8.70892 11.2833C8.58988 11.1048 8.5 10.8293 8.5 10.5H8H7.5C7.5 10.9992 7.63398 11.4737 7.87687 11.838C8.11743 12.1988 8.50467 12.5 9 12.5V12ZM8 10.5H8.5C8.5 10.1707 8.58988 9.89525 8.70892 9.71669C8.83029 9.53464 8.94305 9.5 9 9.5V9V8.5C8.50467 8.5 8.11743 8.80115 7.87687 9.16199C7.63398 9.52632 7.5 10.0008 7.5 10.5H8ZM9 9V9.5C9.05695 9.5 9.16971 9.53464 9.29108 9.71669C9.41012 9.89525 9.5 10.1707 9.5 10.5H10H10.5C10.5 10.0008 10.366 9.52632 10.1231 9.16199C9.88257 8.80115 9.49533 8.5 9 8.5V9ZM22 14H21.5C21.5 15.8998 21.4989 17.2743 21.358 18.3225C21.219 19.3563 20.9523 19.9975 20.4749 20.4749L20.8284 20.8284L21.182 21.182C21.8762 20.4878 22.1952 19.6004 22.3491 18.4557C22.5011 17.3254 22.5 15.8715 22.5 14H22ZM14 22V22.5C15.8715 22.5 17.3254 22.5011 18.4557 22.3491C19.6004 22.1952 20.4878 21.8762 21.182 21.182L20.8284 20.8284L20.4749 20.4749C19.9975 20.9523 19.3563 21.219 18.3225 21.358C17.2743 21.4989 15.8998 21.5 14 21.5V22ZM10 22V21.5C8.10025 21.5 6.72573 21.4989 5.67754 21.358C4.64373 21.219 4.00253 20.9523 3.52513 20.4749L3.17157 20.8284L2.81802 21.182C3.51219 21.8762 4.39959 22.1952 5.54429 22.3491C6.6746 22.5011 8.12852 22.5 10 22.5V22ZM2 14H1.5C1.5 15.8715 1.49894 17.3254 1.65091 18.4557C1.80481 19.6004 2.12385 20.4878 2.81802 21.182L3.17157 20.8284L3.52513 20.4749C3.04772 19.9975 2.78098 19.3563 2.64199 18.3225C2.50106 17.2743 2.5 15.8998 2.5 14H2ZM10 2V1.5C8.12852 1.5 6.67461 1.49894 5.54429 1.65091C4.39959 1.80481 3.51219 2.12385 2.81802 2.81802L3.17157 3.17157L3.52513 3.52513C4.00253 3.04772 4.64373 2.78098 5.67754 2.64199C6.72573 2.50106 8.10025 2.5 10 2.5V2ZM2 10H2.5C2.5 8.10025 2.50106 6.72573 2.64199 5.67754C2.78098 4.64373 3.04772 4.00253 3.52513 3.52513L3.17157 3.17157L2.81802 2.81802C2.12385 3.51219 1.80481 4.39959 1.65091 5.54429C1.49894 6.6746 1.5 8.12852 1.5 10H2ZM14 2V2.5C15.8998 2.5 17.2743 2.50106 18.3225 2.64199C19.3563 2.78098 19.9975 3.04772 20.4749 3.52513L20.8284 3.17157L21.182 2.81802C20.4878 2.12385 19.6004 1.80481 18.4557 1.65091C17.3254 1.49894 15.8715 1.5 14 1.5V2ZM22 10H22.5C22.5 8.12852 22.5011 6.67461 22.3491 5.54429C22.1952 4.39959 21.8762 3.51219 21.182 2.81802L20.8284 3.17157L20.4749 3.52513C20.9523 4.00253 21.219 4.64373 21.358 5.67754C21.4989 6.72573 21.5 8.10025 21.5 10H22Z" fill="#2372EC"/>
</svg>
