<svg width="48" height="48" viewBox="0 0 48 48" fill="none" xmlns="http://www.w3.org/2000/svg">
<g clip-path="url(#clip0_4971_21303)">
<path fill-rule="evenodd" clip-rule="evenodd" d="M10.2109 26.5355C11.0721 26.0667 11.8308 27.6413 13.6083 26.8257C14.1121 26.5946 14.6539 26.1289 15.1663 26.7282C15.6037 27.2398 15.2964 27.7701 14.9359 28.0434C12.3686 29.9896 8.23971 27.6086 10.2109 26.5354L10.2109 26.5355ZM4.32792 32.6098C4.32792 33.9024 5.49125 34.1023 6.23047 34.4741C8.15064 35.44 7.42525 34.5948 8.37162 39.759C9.11645 43.8235 12.0985 43.6997 15.6284 43.695C17.8622 43.692 17.9126 43.948 18.4188 46.3934C18.5333 46.9466 18.6267 47.4729 18.7494 48H33.3862C33.2639 46.5303 32.3099 44.2433 32.3099 41.5425C32.3099 36.4534 38.4445 33.7986 38.4445 24.8609C38.4445 21.6689 36.9029 17.7916 34.9189 15.5793C34.7608 15.4029 34.6497 15.3285 34.4943 15.143C34.3083 14.9212 34.2779 14.8078 34.0601 14.6085C31.2468 12.0344 27.8104 10.2242 23.7001 10.2242C19.9272 10.2242 17.3656 10.645 14.4643 12.5041C9.91375 15.4202 7.55488 19.9348 7.55658 25.7219C7.55695 26.9459 7.70834 27.013 7.20097 27.8417C6.718 28.6305 4.32788 31.9789 4.32788 32.6098L4.32792 32.6098Z" fill="#FFC487"/>
<path fill-rule="evenodd" clip-rule="evenodd" d="M41.0666 26.3831C40.3976 26.0377 38.5561 26.8265 38.6255 25.4214C38.6807 24.3058 40.1754 24.5912 41.1019 24.5894V20.2479C40.15 20.2479 38.6192 20.523 38.6243 19.3881C38.6294 18.2625 40.1512 18.5272 41.1019 18.5272V14.1931C40.1613 14.1915 38.5607 14.4873 38.6259 13.2594C38.6942 11.9745 40.2965 12.816 41.0739 12.3921C41.1339 11.7984 41.1661 8.93984 41.0616 8.4504C40.6292 6.42562 37.3817 5.63666 36.3642 8.19253C35.9892 9.13443 36.1512 10.7969 36.1512 12.0692C36.1512 17.5221 36.1512 22.975 36.1512 28.428C32.034 31.185 33.4798 36.194 36.917 37.4559C39.6533 38.4606 42.7069 36.8717 43.4721 34.1345C44.208 31.5025 42.7987 29.3258 41.1018 28.428L41.0665 26.3831L41.0666 26.3831Z" fill="#FF5040"/>
<path fill-rule="evenodd" clip-rule="evenodd" d="M15.3056 0.753404C15.3056 1.98792 16.3726 2.30733 16.0717 3.23134C15.964 3.56206 15.612 3.84935 15.4131 4.19728C14.8256 5.22549 15.0942 6.28099 15.6332 7.20605C16.0101 7.85306 16.1229 8.3946 16.8123 8.3946C17.42 8.3946 17.6733 8.00299 17.6733 7.42602C17.6733 6.60138 16.9199 6.61599 16.9199 5.27356C16.9199 4.76749 18.8021 3.69002 17.3457 1.18858C17.0932 0.754868 16.8175 3.05176e-05 16.1666 3.05176e-05C15.842 3.05176e-05 15.3056 0.438868 15.3056 0.753363V0.753404Z" fill="#C3C3C3"/>
<path fill-rule="evenodd" clip-rule="evenodd" d="M27.6823 0.861027C27.6823 1.43568 28.5433 2.48654 28.5433 2.90586C28.5433 4.11047 26.5363 4.14521 28.0408 7.17509C28.2796 7.65615 28.5446 8.3946 29.189 8.3946C29.8908 8.3946 30.2705 7.78273 30.0155 7.14784C29.8367 6.70246 29.2966 5.92883 29.2966 5.48881C29.2966 4.5657 31.4329 3.90019 29.4053 0.537095C28.8497 -0.384346 27.6823 0.11286 27.6823 0.860986V0.861027Z" fill="#C3C3C3"/>
<path fill-rule="evenodd" clip-rule="evenodd" d="M22.3009 2.9059C22.3009 4.15355 21.3323 3.31944 21.3323 5.81177C21.3323 6.38813 22.2392 8.39468 22.9466 8.39468C23.4684 8.39468 23.9152 8.03841 23.9152 7.53372C23.9152 6.9003 23.0542 6.004 23.0542 5.48889C23.0542 4.29083 25.0662 4.26837 23.5567 1.21962C23.3329 0.767599 22.9954 0.000152588 22.4085 0.000152588C21.9961 0.000152588 21.2808 0.483976 21.566 1.26297C21.7253 1.69811 22.3009 2.35073 22.3009 2.90594V2.9059Z" fill="#C3C3C3"/>
<path fill-rule="evenodd" clip-rule="evenodd" d="M10.2109 26.5355C8.23966 27.6086 12.3686 29.9896 14.9358 28.0434C15.2963 27.7701 15.6037 27.2399 15.1663 26.7283C14.6539 26.1289 14.112 26.5946 13.6082 26.8258C11.8307 27.6413 11.072 26.0667 10.2108 26.5355L10.2109 26.5355Z" fill="#FA9F4D"/>
<path fill-rule="evenodd" clip-rule="evenodd" d="M41.0667 26.3831C41.4923 26.2112 41.9357 26.1173 41.9726 25.5195C42.0107 24.9022 41.6467 24.5583 41.102 24.5894C40.1756 24.5912 38.6808 24.3058 38.6257 25.4214C38.5563 26.8265 40.3978 26.0377 41.0668 26.3831H41.0667Z" fill="#2F3542"/>
<path fill-rule="evenodd" clip-rule="evenodd" d="M41.1021 20.2479C42.2823 20.1525 42.2823 18.6226 41.1021 18.5272C40.1514 18.5272 38.6296 18.2625 38.6245 19.3881C38.6194 20.523 40.1502 20.2479 41.1021 20.2479Z" fill="#2F3542"/>
<path fill-rule="evenodd" clip-rule="evenodd" d="M41.102 14.1931C41.6362 14.2083 41.9584 13.9148 41.9734 13.3547C41.9917 12.6745 41.5157 12.5764 41.074 12.3921C40.2966 12.816 38.6943 11.9744 38.626 13.2593C38.5607 14.4873 40.1614 14.1915 41.1019 14.1931H41.102Z" fill="#2F3542"/>
</g>
<defs>
<clipPath id="clip0_4971_21303">
<rect width="48" height="48" fill="white"/>
</clipPath>
</defs>
</svg>
