<svg width="16" height="16" viewBox="0 0 16 16" fill="none" xmlns="http://www.w3.org/2000/svg">
<path d="M9.29277 2H7.03997C3.90626 2 2.33941 2 2.04294 2.94918C1.74648 3.89837 2.99467 4.94394 5.49107 7.03507C6.23326 7.65678 6.60436 7.96763 6.80273 8.40632C7.00109 8.84501 7.00109 9.35268 7.00109 10.368V12.8511C7.00109 13.2381 7.00109 13.4316 7.04501 13.5542C7.15956 13.8741 7.47029 14.0563 7.77861 13.9844C7.89681 13.9568 8.04516 13.8503 8.34184 13.6373C8.63312 13.4281 8.77875 13.3236 8.89897 13.2008C9.20488 12.8883 9.4089 12.4757 9.48008 12.0256C9.50805 11.8487 9.50805 11.6587 9.50805 11.2788V10.2196C9.50805 9.27496 9.50805 8.80262 9.68258 8.38682C9.8571 7.97102 10.1851 7.66193 10.8411 7.04376L10.9753 6.91724C13.1648 4.85397 14.2595 3.82233 13.9477 2.91116C13.636 2 12.1882 2 9.29277 2Z" stroke="#424242" stroke-linecap="round"/>
</svg>
