<svg width="32" height="33" viewBox="0 0 32 33" fill="none" xmlns="http://www.w3.org/2000/svg">
<rect width="32" height="32" rx="16" fill="#F9F9F9"/>
<path d="M20.0177 20.814L16.0095 18.3655C16.0095 18.3655 16.0087 18.401 16.0079 18.4653C16.0071 18.401 16.0064 18.3655 16.0064 18.3655L11.9981 20.814C11.9981 20.814 10.9764 22.5642 9.49414 22.7127C9.49414 22.7127 11.0268 23.9744 12.7503 22.7127C12.7503 22.7127 12.9532 24.2651 14.5496 24.4538C15.8212 24.6041 15.9914 20.6522 16.0079 19.0379C16.0245 20.6523 16.1945 24.6042 17.4661 24.4538C19.0626 24.2652 19.2655 22.7127 19.2655 22.7127C20.9889 23.9744 22.5216 22.7127 22.5216 22.7127C21.0394 22.5643 20.0176 20.814 20.0176 20.814H20.0177Z" fill="#E5611F"/>
<path d="M12.6682 22.7715C13.2057 22.2066 13.4859 21.4164 13.4209 20.6479" stroke="#FFCE10" stroke-width="0.615385" stroke-miterlimit="10"/>
<path d="M19.3572 22.8004C18.7762 22.1962 18.4796 21.3414 18.5646 20.5168" stroke="#FFCE10" stroke-width="0.615385" stroke-miterlimit="10"/>
<path d="M27.84 27.2786C27.8227 27.247 27.8054 27.2157 27.7879 27.1847C26.0922 24.1841 22.8218 24.3251 22.8218 24.3251L15.3096 23.9651L16.2718 23.9512L16.2007 23.9546L16.1295 23.9512V23.958L9.02777 24.3251C9.02777 24.3251 5.97172 24.3251 4.33323 26.969C4.27424 27.0643 4.21655 27.1633 4.16016 27.2654C7.17853 30.2504 11.371 32.1009 16.0067 32.1009C20.6356 32.1009 24.8227 30.2559 27.84 27.2786Z" fill="#E23128"/>
<path d="M22.0565 24.2884C20.9379 25.2666 18.04 27.6079 16.01 27.5295C13.9953 27.4517 10.9345 25.2356 9.71533 24.2896L16.1295 23.958V23.9512L16.2007 23.9546L16.2718 23.9512L15.3096 23.9651L22.0564 24.2883L22.0565 24.2884Z" fill="#F14738"/>
<path d="M11.9876 25.886C11.0498 25.2978 10.223 24.6837 9.71533 24.2898" stroke="#7F1B09" stroke-width="0.615385" stroke-miterlimit="10"/>
<path d="M22.0564 24.2888C21.5159 24.7614 20.5604 25.5518 19.488 26.2341" stroke="#7F1B09" stroke-width="0.615385" stroke-miterlimit="10"/>
<path d="M18.4357 26.8396C17.597 27.2676 16.746 27.5577 16.0096 27.5293C15.1282 27.4953 14.0465 27.0518 13.0063 26.4846" stroke="#7F1B09" stroke-width="0.615385" stroke-miterlimit="10"/>
<path d="M18.132 24.759L15.9251 25.3135L13.7183 24.759V18.3647H18.132V24.759Z" fill="#EED28A"/>
<path d="M10.7833 24.2343C10.7833 24.2343 15.1452 26.5409 16.0066 26.5409C16.868 26.5409 20.9281 24.2343 20.9281 24.2343C20.9281 24.2343 18.9631 23.4465 16.1293 23.4465C13.2954 23.4465 10.7832 24.2343 10.7832 24.2343H10.7833Z" fill="#EED28A"/>
<path d="M13.7175 20.9351C13.7175 20.9351 17.7413 20.0687 18.1312 20.7235V20.9714C17.3872 23.0697 13.7175 22.9069 13.7175 22.9069V20.9351Z" fill="#902B12"/>
<path d="M22.856 9.72494C21.6596 6.51919 18.3506 5.00439 15.743 5.00439C12.9958 5.00439 9.98568 6.825 8.7893 10.0307C7.53618 13.3886 8.93087 16.6423 9.76545 18.408C10.2894 19.5164 12.788 22.1601 15.7509 22.1601C18.8748 22.1601 20.9384 20.3364 21.8599 19.1753C23.08 17.6383 24.109 13.0828 22.856 9.72494Z" fill="#EED28A"/>
<path d="M6.35295 13.1186C5.63434 15.4339 9.01083 18.5399 10.2361 15.6765C11.3448 13.0853 7.37992 9.80981 6.35295 13.1186Z" fill="#EED28A"/>
<path d="M25.6173 13.0835C26.3575 15.4681 22.88 18.6671 21.6181 15.7179C20.4762 13.0491 24.5597 9.67569 25.6173 13.0835Z" fill="#EED28A"/>
<path d="M8.93502 15.4472C8.93502 15.4472 8.68968 5.05072 16.0058 8.08297C16.0058 8.08297 22.3146 4.2655 23.2308 14.6754C23.2308 14.6754 26.4792 4.23901 16.0058 4.23901C5.50309 4.23901 8.93502 15.4472 8.93502 15.4472Z" fill="#902B12"/>
<path d="M15.3718 20.5999L15.75 22.1614L16.0089 20.1685" stroke="#902B12" stroke-width="0.615385" stroke-miterlimit="10"/>
<path d="M16.3368 20.1685L16.2241 22.1429L16.801 20.7186" stroke="#902B12" stroke-width="0.615385" stroke-miterlimit="10"/>
<path d="M14.7754 20.469L15.4445 22.1496" stroke="#902B12" stroke-width="0.615385" stroke-miterlimit="10"/>
<path d="M16.6958 22.0896L17.4075 20.3372" stroke="#902B12" stroke-width="0.615385" stroke-miterlimit="10"/>
<path d="M15.9781 7.43751C14.65 7.43751 12.0342 7.29282 10.7335 6.92062C8.31136 6.22759 9.85686 3.57227 11.8047 2.86605C13.7523 2.15971 12.1942 3.68099 12.1942 3.68099C12.1942 3.68099 15.5889 1.88803 16.3123 2.1596C17.0357 2.43128 15.9779 3.35494 15.9779 3.35494C15.9779 3.35494 19.0391 2.41416 19.5956 2.61287C20.1522 2.81157 19.0948 3.62663 19.0948 3.62663C19.0948 3.62663 21.8773 3.30058 22.0999 3.68099C22.3225 4.06128 21.2238 5.0807 21.2238 5.0807C21.2238 5.0807 22.8069 4.38409 22.8624 4.65577C22.9181 4.92746 22.5343 6.5194 20.3384 6.91854C18.2794 7.2927 17.2689 7.43739 15.9778 7.43739L15.9781 7.43751Z" fill="#E5611F"/>
<path d="M12.3462 3.55591C11.9536 4.13398 11.4722 4.65445 10.9231 5.09465C10.9231 5.09465 12.8387 4.23657 13.7221 4.32528C14.6055 4.41399 12.7518 6.06388 12.7518 6.06388C12.7518 6.06388 15.6809 5.05139 16.3722 5.27646C17.0636 5.50142 15.5657 6.73887 15.5657 6.73887" stroke="#FFCE10" stroke-width="0.615385" stroke-miterlimit="10"/>
<path d="M15.9781 3.35522L15.1101 4.26836" stroke="#FFCE10" stroke-width="0.615385" stroke-miterlimit="10"/>
<path d="M15.1101 4.26843C15.1101 4.26843 16.9372 3.97384 17.7537 4.23928C18.1991 4.38409 16.5224 5.64224 16.5224 5.64224" stroke="#FFCE10" stroke-width="0.615385" stroke-miterlimit="10"/>
<path d="M19.0954 3.62695C19.0954 3.62695 19.8948 3.792 19.9439 4.23914C19.9928 4.68628 18.769 5.73775 18.769 5.73775C18.769 5.73775 20.4824 5.16419 20.7761 5.40314C21.0699 5.6421 19.7726 6.45461 19.7726 6.45461" stroke="#FFCE10" stroke-width="0.615385" stroke-miterlimit="10"/>
<path d="M8.16889 15.8982C7.83731 15.9665 7.55347 16.2442 7.51355 16.5728C7.47362 16.9014 7.70274 17.2496 8.03278 17.3246C8.36294 17.3997 8.74025 17.1629 8.78207 16.8346" stroke="#902B12" stroke-width="0.615385" stroke-miterlimit="10"/>
<path d="M6.59256 13.6147C6.36131 13.5619 6.10152 13.6109 5.92524 13.7662C5.74885 13.9215 5.67326 14.1863 5.76721 14.3993C5.86115 14.6122 6.13256 14.7417 6.35492 14.66" stroke="#902B12" stroke-width="0.615385" stroke-miterlimit="10"/>
<path d="M6.9471 12.62C6.89664 12.35 6.61611 12.1409 6.33594 12.1647C6.05589 12.1884 5.81624 12.4415 5.81422 12.7159C5.81209 12.9904 6.04772 13.247 6.32741 13.2748" stroke="#902B12" stroke-width="0.615385" stroke-miterlimit="10"/>
</svg>
