<svg width="32" height="33" viewBox="0 0 32 33" fill="none" xmlns="http://www.w3.org/2000/svg">
<rect width="32" height="32" rx="16" fill="#F9F9F9"/>
<path d="M27.9156 26.8293C26.1048 23.7808 15.8034 22.2615 15.8034 22.2615C15.8034 22.2615 5.83483 23.9437 4.17398 26.662C4.14361 26.7116 4.1138 26.7626 4.08423 26.814C7.01146 30.0582 11.2679 32.101 16.0067 32.101C20.7381 32.101 24.9887 30.0645 27.9155 26.8293H27.9156Z" fill="white"/>
<path d="M7.44938 29.6425C7.44563 28.5153 7.36669 26.4058 7.28809 24.5662C10.7962 23.1062 15.803 22.261 15.803 22.261C15.803 22.261 20.9379 23.0184 24.5943 24.5367C24.507 26.4346 24.4179 28.6283 24.4146 29.735C21.972 31.2344 19.0914 32.1005 16.0063 32.1005C12.8583 32.1005 9.92332 31.1987 7.44927 29.6424L7.44938 29.6425Z" fill="#902B12"/>
<path d="M18.1599 22.7406L15.9229 25.5121L13.686 22.7316V17.8167H18.1599V22.7406Z" fill="#C9902C"/>
<path d="M13.686 20.4592C13.686 20.4592 17.5061 20.5145 18.1599 21.1483V21.5669C16.8895 23.5301 13.9593 22.8039 13.7042 22.7363L13.686 22.7135V20.4592Z" fill="#902B12"/>
<path d="M22.9886 10.1244C21.7759 6.82831 18.5482 4.95654 15.905 4.95654C13.1203 4.95654 10.0692 6.82842 8.85649 10.1244C7.58625 13.5768 8.85649 17.4129 10.2243 18.8833C11.1811 19.9119 12.928 22.1162 15.9315 22.1162C19.0979 22.1162 20.6834 19.8909 21.6207 18.8833C22.9886 17.4127 24.2588 13.5767 22.9886 10.1244Z" fill="#C9902C"/>
<path d="M6.09266 13.3004C5.3178 15.8326 8.95847 19.2296 10.2794 16.0979C11.4749 13.264 7.1999 9.6817 6.09266 13.3004Z" fill="#C9902C"/>
<path d="M25.473 13.3007C26.2478 15.8329 22.6072 19.2298 21.2861 16.0982C20.0906 13.2643 24.3657 9.68195 25.473 13.3007Z" fill="#C9902C"/>
<path d="M15.9236 25.5102L13.9141 27.0294L12.5142 22.9474L13.6867 22.6484L15.9236 25.5102Z" fill="white"/>
<path d="M15.9235 25.5103L14.6448 26.477L15.9235 30.3274L17.2888 26.4775L15.9235 25.5103Z" fill="white"/>
<path d="M15.9233 25.5106L18.0717 27.0326L19.3168 22.9017L18.1603 22.5769L15.9233 25.5106Z" fill="white"/>
<path d="M18.0719 27.0318L15.9236 25.5098L13.9141 27.0291" stroke="#902B12" stroke-width="0.615385" stroke-miterlimit="10"/>
<path d="M13.6865 22.6484L15.9234 25.5102V30.3273" stroke="#902B12" stroke-width="0.615385" stroke-miterlimit="10"/>
<path d="M16.2403 27.3459C16.2403 27.519 16.0987 27.6592 15.9239 27.6592C15.7492 27.6592 15.6074 27.519 15.6074 27.3459C15.6074 27.1728 15.7492 27.0325 15.9239 27.0325C16.0987 27.0325 16.2403 27.1728 16.2403 27.3459Z" fill="#902B12"/>
<path d="M16.2403 28.632C16.2403 28.805 16.0987 28.9454 15.9239 28.9454C15.7492 28.9454 15.6074 28.805 15.6074 28.632C15.6074 28.459 15.7492 28.3186 15.9239 28.3186C16.0987 28.3186 16.2403 28.459 16.2403 28.632Z" fill="#902B12"/>
<path d="M18.1601 22.5767L15.9231 25.5104" stroke="#902B12" stroke-width="0.615385" stroke-miterlimit="10"/>
<path d="M22.8972 12.8354C22.8972 12.8354 22.8356 8.36843 19.9512 6.64119L20.3278 4.39014C20.3278 4.39014 25.5563 4.44815 22.8972 12.8355V12.8354Z" fill="#7F1B09"/>
<path d="M12.2366 4.448L12.5136 6.42396C12.5136 6.42396 9.20054 7.38936 8.79901 12.7651C8.79901 12.7651 6.14864 4.72568 12.2366 4.448Z" fill="#7F1B09"/>
<path d="M12.5138 6.42389L12.2368 4.44793C12.2368 4.44793 12.1294 1.71993 16.4898 2.18494C20.8502 2.64995 21.4538 7.10102 23.1309 5.63941C23.1309 5.63941 22.8626 8.23032 20.7159 8.03105C18.5694 7.83177 13.8732 5.54141 12.5138 6.42389Z" fill="#902B12"/>
<path d="M12.4408 5.89865C12.4408 5.89865 13.6871 3.24128 15.9064 4.95579C18.9076 7.27432 22.039 8.99029 23.1317 5.64013C23.1317 5.64013 22.4173 7.34754 20.2288 6.82203C18.0404 6.29653 15.2194 0.883774 12.2375 4.44864" stroke="#7F1B09" stroke-width="0.615385" stroke-miterlimit="10" stroke-linejoin="round"/>
<path d="M12.2375 4.44873L12.5145 6.42469" stroke="#7F1B09" stroke-width="0.615385" stroke-miterlimit="10" stroke-linejoin="round"/>
<path d="M23.0187 5.73006C23.0187 5.73006 21.4148 7.33563 19.2767 5.37758C17.7131 3.94559 14.5789 0.0855832 12.2375 4.44845" stroke="#7F1B09" stroke-width="0.615385" stroke-miterlimit="10" stroke-linejoin="round"/>
</svg>
