<svg width="32" height="32" viewBox="0 0 32 32" fill="none" xmlns="http://www.w3.org/2000/svg">
<path d="M5.3335 20.5834C4.91928 20.5834 4.5835 20.9192 4.5835 21.3334C4.5835 21.7476 4.91928 22.0834 5.3335 22.0834V21.3334V20.5834ZM17.3335 22.0834C17.7477 22.0834 18.0835 21.7476 18.0835 21.3334C18.0835 20.9192 17.7477 20.5834 17.3335 20.5834V21.3334V22.0834ZM8.00016 13.9167C7.58595 13.9167 7.25016 14.2525 7.25016 14.6667C7.25016 15.0809 7.58595 15.4167 8.00016 15.4167V14.6667V13.9167ZM17.3335 15.4167C17.7477 15.4167 18.0835 15.0809 18.0835 14.6667C18.0835 14.2525 17.7477 13.9167 17.3335 13.9167V14.6667V15.4167ZM10.6668 7.25004C10.2526 7.25004 9.91683 7.58583 9.91683 8.00004C9.91683 8.41425 10.2526 8.75004 10.6668 8.75004V8.00004V7.25004ZM17.3335 8.75004C17.7477 8.75004 18.0835 8.41425 18.0835 8.00004C18.0835 7.58583 17.7477 7.25004 17.3335 7.25004V8.00004V8.75004ZM23.4168 5.33337C23.4168 4.91916 23.081 4.58337 22.6668 4.58337C22.2526 4.58337 21.9168 4.91916 21.9168 5.33337H22.6668H23.4168ZM22.6668 26.6667H21.9168C21.9168 26.9895 22.1234 27.2761 22.4297 27.3782C22.7359 27.4803 23.0731 27.375 23.2668 27.1167L22.6668 26.6667ZM27.2668 21.7834C27.5154 21.452 27.4482 20.9819 27.1168 20.7334C26.7855 20.4848 26.3154 20.552 26.0668 20.8834L26.6668 21.3334L27.2668 21.7834ZM5.3335 21.3334V22.0834H17.3335V21.3334V20.5834H5.3335V21.3334ZM8.00016 14.6667V15.4167H17.3335V14.6667V13.9167H8.00016V14.6667ZM10.6668 8.00004V8.75004H17.3335V8.00004V7.25004H10.6668V8.00004ZM22.6668 5.33337H21.9168V26.6667H22.6668H23.4168V5.33337H22.6668ZM22.6668 26.6667L23.2668 27.1167L27.2668 21.7834L26.6668 21.3334L26.0668 20.8834L22.0668 26.2167L22.6668 26.6667Z" fill="#424242"/>
</svg>
