<svg width="24" height="24" viewBox="0 0 24 24" fill="none" xmlns="http://www.w3.org/2000/svg">
<circle cx="12" cy="11" r="6" fill="#2372EC"/>
<path d="M13.333 17.0663C13.333 17.2136 13.4524 17.333 13.5997 17.333H15.7333C15.8806 17.333 16 17.4524 16 17.5997V19.7333C16 19.8806 15.8806 20 15.7333 20H13.5997C13.4524 20 13.333 20.1194 13.333 20.2667V23.7333C13.333 23.8806 13.2136 24 13.0663 24H10.9337C10.7864 24 10.667 23.8806 10.667 23.7333V20.2667C10.667 20.1194 10.5476 20 10.4003 20H8.26667C8.11939 20 8 19.8806 8 19.7333V17.5997C8 17.4524 8.11939 17.333 8.26667 17.333H10.4003C10.5476 17.333 10.667 17.2136 10.667 17.0663V16.2667C10.667 16.1194 10.7864 16 10.9337 16H13.0663C13.2136 16 13.333 16.1194 13.333 16.2667V17.0663Z" fill="#2372EC"/>
<path opacity="0.5" d="M19.9014 7.24066C19.8865 7.44912 19.6334 7.54346 19.4856 7.39568L18.6574 6.56743C18.5621 6.47217 18.4077 6.47217 18.3124 6.56743L16.0706 8.80919C15.9754 8.90445 15.8209 8.90445 15.7257 8.80919L14.3457 7.42922C14.2504 7.33395 14.2504 7.1795 14.3457 7.08424L16.5875 4.84248C16.6827 4.74721 16.6827 4.59276 16.5875 4.4975L15.7592 3.66924C15.6114 3.52146 15.7058 3.26841 15.9142 3.25344L19.9289 2.9652C20.0771 2.95456 20.2003 3.07777 20.1897 3.22598L19.9014 7.24066Z" fill="#2372EC"/>
</svg>
