<svg width="24" height="24" viewBox="0 0 24 24" fill="none" xmlns="http://www.w3.org/2000/svg">
<path d="M10.75 21.5C10.75 21.9142 11.0858 22.25 11.5 22.25C11.9142 22.25 12.25 21.9142 12.25 21.5H11.5H10.75ZM8.5 17.75C8.08579 17.75 7.75 18.0858 7.75 18.5C7.75 18.9142 8.08579 19.25 8.5 19.25V18.5V17.75ZM14.5 19.25C14.9142 19.25 15.25 18.9142 15.25 18.5C15.25 18.0858 14.9142 17.75 14.5 17.75V18.5V19.25ZM15.4697 5.96967C15.1768 6.26256 15.1768 6.73744 15.4697 7.03033C15.7626 7.32322 16.2375 7.32322 16.5304 7.03033L16 6.5L15.4697 5.96967ZM19.5 3L20.25 3.00001C20.25 2.80109 20.171 2.61032 20.0304 2.46967C19.8897 2.32902 19.6989 2.25 19.5 2.25L19.5 3ZM15 2.25002C14.5858 2.25002 14.25 2.58581 14.25 3.00002C14.25 3.41423 14.5858 3.75002 15 3.75002L15 3.00002L15 2.25002ZM18.75 7.50001C18.75 7.91423 19.0858 8.25001 19.5 8.25002C19.9142 8.25002 20.25 7.91424 20.25 7.50002L19.5 7.50002L18.75 7.50001ZM17 10.5H16.25C16.25 13.1234 14.1234 15.25 11.5 15.25V16V16.75C14.9518 16.75 17.75 13.9518 17.75 10.5H17ZM11.5 16V15.25C8.87665 15.25 6.75 13.1234 6.75 10.5H6H5.25C5.25 13.9518 8.04822 16.75 11.5 16.75V16ZM6 10.5H6.75C6.75 7.87666 8.87665 5.75002 11.5 5.75002V5.00002V4.25002C8.04822 4.25002 5.25 7.04824 5.25 10.5H6ZM11.5 5.00002V5.75002C14.1234 5.75002 16.25 7.87666 16.25 10.5H17H17.75C17.75 7.04824 14.9518 4.25002 11.5 4.25002V5.00002ZM11.5 16H10.75V18.5H11.5H12.25V16H11.5ZM11.5 18.5H10.75V21.5H11.5H12.25V18.5H11.5ZM8.5 18.5V19.25H11.5V18.5V17.75H8.5V18.5ZM11.5 18.5V19.25H14.5V18.5V17.75H11.5V18.5ZM16 6.5L16.5304 7.03033L20.0304 3.53033L19.5 3L18.9697 2.46967L15.4697 5.96967L16 6.5ZM15 3.00002L15 3.75002L19.5 3.75L19.5 3L19.5 2.25L15 2.25002L15 3.00002ZM19.5 3L18.75 2.99999L18.75 7.50001L19.5 7.50002L20.25 7.50002L20.25 3.00001L19.5 3Z" fill="#626060"/>
</svg>
