<svg width="64" height="80" viewBox="0 0 64 80" fill="none" xmlns="http://www.w3.org/2000/svg">
<path d="M23.0885 51.6274C23.0885 51.6274 26.1526 50.1196 31.571 50.1196C36.9892 50.1196 40.2994 51.6274 40.2994 51.6274C40.2994 51.6274 46.239 64.7248 31.571 64.895C17.4747 65.059 23.0885 51.6274 23.0885 51.6274Z" fill="#7F1B09"/>
<path d="M64.0001 66.5154C58.1695 58.8371 31.476 55.0107 31.476 55.0107C31.476 55.0107 4.837 59.3823 0.00187683 66.4588C7.9537 74.7802 19.3579 79.9959 32.0284 79.9959C44.6701 79.9959 56.0505 74.8034 64.0001 66.5154Z" fill="#5C30FC"/>
<path d="M43.3731 57.3466C40.4673 61.302 35.0801 68.0792 32.0266 68.4539C27.7002 68.9848 21.9875 56.96 21.9875 56.96C13.8283 58.8919 2.92509 62.1826 4.57764e-05 66.4636C7.95187 74.7849 19.356 80.0007 32.0266 80.0007C44.6683 80.0007 56.0505 74.7884 64.0002 66.5005C60.7955 62.2803 51.2869 59.2437 43.3731 57.3466Z" fill="#E5611F"/>
<path d="M30.516 79.9728V68.751H32.6283V79.9946C32.4277 79.9972 32.2267 79.9984 32.0252 79.9984C31.5202 79.9984 31.017 79.9892 30.516 79.9728Z" fill="#902B12"/>
<path d="M10.6736 74.6154C9.56853 70.3264 7.49589 66.3197 4.63866 63.179L5.73504 62.2543C5.98058 62.1354 6.23137 62.0179 6.48589 61.9014C9.96485 65.7879 12.3177 70.7065 13.3172 75.939C12.4186 75.5261 11.5368 75.0847 10.6736 74.6154Z" fill="#902B12"/>
<path d="M50.48 76.054C51.4683 70.7702 53.8354 65.8007 57.3488 61.8828C57.5757 61.9874 57.7996 62.0933 58.0197 62.2003L59.1799 63.1786C56.2905 66.3551 54.2036 70.4167 53.1084 74.7603C52.2498 75.2193 51.3733 75.651 50.48 76.0543V76.054Z" fill="#902B12"/>
<path d="M37.8754 60.6386L31.7984 62.144L25.7214 60.6386V43.2754H37.8754V60.6386Z" fill="#EED28A"/>
<path d="M25.7217 50.2553C25.7217 50.2553 36.8014 47.9027 37.8755 49.6806V50.3546C35.8267 56.0518 25.7217 55.6097 25.7217 55.6097V50.2556V50.2553Z" fill="#902B12"/>
<path d="M49.8691 18.7422C46.8069 10.0372 38.7576 7.00293 32.0833 7.00293C25.0516 7.00293 17.9593 10.395 14.8971 19.1C11.6897 28.2178 14.2847 39.9005 17.7389 43.7841C20.1549 46.5006 24.5662 52.3224 32.1501 52.3224C40.1459 52.3224 44.1494 46.4455 46.5162 43.7841C49.9704 39.9005 53.0763 27.8601 49.8691 18.7422Z" fill="#EED28A"/>
<path d="M7.78584 28.5855C5.7389 34.6005 15.3571 42.6703 18.8472 35.231C22.0057 28.4991 10.7112 19.9891 7.78584 28.5855Z" fill="#EED28A"/>
<path d="M56.4124 28.5855C58.4594 34.6005 48.8411 42.6703 45.351 35.231C42.1928 28.4991 53.4871 19.9891 56.4124 28.5855Z" fill="#EED28A"/>
<path d="M31.7375 14.7856C36.411 15.848 51.2276 8.45316 49.2107 23.6906C48.6125 28.2112 50.0606 33.5388 50.1888 36.4396C50.1888 36.4396 51.2266 26.7372 51.5267 24.79C52.5196 18.3455 50.7582 6.99756 31.749 6.99756C11.8372 6.99756 12.7039 21.3899 13.0002 24.0236C13.3764 27.3688 14.5124 36.4396 14.5124 36.4396C14.5124 36.4396 16.1463 27.5462 15.5719 24.0147C14.2715 16.0188 20.7823 12.2953 31.7372 14.7859L31.7375 14.7856Z" fill="#902B12"/>
<path d="M46.7557 10.374C46.3578 5.75887 42.8281 -1.81008 31.7379 0.393148C20.6477 2.59637 16.4934 8.61165 14.7329 4.88307C12.9727 1.15478 9.91728 11.6108 17.9694 15.2559C28.4778 20.0126 47.3508 17.2764 46.7557 10.3743V10.374Z" fill="#7F1B09"/>
<path d="M13.6741 4.38274C13.7094 5.57721 14.3129 7.15772 15.4699 7.58996C16.627 8.02219 17.9188 7.96108 19.1436 7.76702C22.5235 7.23224 25.6504 5.75875 28.8764 4.65133C32.1027 3.5439 35.6554 2.79807 38.9306 3.7627C42.9127 4.93571 45.8669 8.78562 45.861 12.7947C44.6262 10.2731 41.9814 8.54565 39.2245 7.6928C36.4676 6.83995 33.449 6.94786 30.6605 7.70025C28.4024 8.30956 26.2824 9.32368 24.0391 9.98188C21.7959 10.6401 19.3118 10.9215 17.1447 10.0591C14.9773 9.19669 12.6743 7.39232 13.6744 4.38245" stroke="#902B12" stroke-miterlimit="10" stroke-linejoin="round"/>
<path d="M45.2325 13.8618C42.9567 12.0154 39.9728 11.0218 37.0159 11.1259C34.1547 11.2266 31.4343 12.3022 28.625 12.8399C25.591 13.4209 22.4313 13.3673 19.4195 12.6843C17.4221 12.2312 15.4024 11.4442 14.0853 9.90934C12.7681 8.37445 12.3873 5.9402 13.6738 4.38086" stroke="#902B12" stroke-miterlimit="10"/>
<path d="M43.5762 15.0075C40.7883 13.8479 37.6369 13.8023 34.6156 14.0986C31.5946 14.3946 28.6054 15.0125 25.5702 15.1142C22.5352 15.2158 19.3634 14.7502 16.8706 13.0806" stroke="#902B12" stroke-miterlimit="10"/>
<path d="M46.6333 11.5675C46.4655 9.48351 45.6146 7.45527 44.2319 5.84376C42.8491 4.23226 40.9408 3.04494 38.8468 2.49316" stroke="#902B12" stroke-miterlimit="10"/>
<path d="M31.0666 2.38525C26.1119 2.65354 21.9326 6.37586 16.9875 6.77382" stroke="#902B12" stroke-miterlimit="10"/>
<path d="M43.5155 56.434C43.2612 52.5045 40.2963 51.6204 40.2963 51.6204C40.2963 51.6204 41.3886 56.7113 35.9073 59.4651C33.0132 60.9192 31.9407 63.8453 31.5722 66.2843C31.319 63.8456 30.3681 60.9192 27.474 59.4651C21.9927 56.711 23.6885 51.3774 23.6885 51.3774C23.6885 51.3774 19.8662 52.2944 19.8662 56.434C19.8662 61.5112 25.8667 70.0585 31.4682 70.2552C31.4682 70.2552 31.4701 70.2448 31.4731 70.2275C31.4753 70.2448 31.4766 70.2552 31.4766 70.2552C37.078 70.0585 43.8433 61.5014 43.5155 56.434Z" fill="white"/>
<path d="M30.4449 70.1303C30.4768 69.6334 30.5145 65.881 24.8549 62.3536C21.1716 60.0583 20.2306 56.9885 20.0981 54.785C20.4117 53.7452 21.0037 53.0041 21.6177 52.4849C21.3994 53.3449 20.4805 58.0688 25.5936 61.2554C31.8577 65.1587 31.8475 69.5166 31.7998 70.235C31.6917 70.2448 31.5837 70.2526 31.4765 70.2564C31.4765 70.2564 31.4753 70.246 31.4731 70.2287C31.4704 70.246 31.4682 70.2564 31.4682 70.2564C31.1282 70.2445 30.7867 70.2013 30.4452 70.1303H30.4449Z" fill="#E23128"/>
<path d="M31.3415 70.2476C31.3406 69.872 31.4694 65.3213 37.996 61.2541C42.8921 58.2025 42.3277 53.9159 42.092 52.835C42.6797 53.472 43.2352 54.4146 43.4448 55.7813C43.0986 57.8147 41.9493 60.3491 38.7351 62.3523C33.3677 65.6969 32.7738 69.2943 32.7088 70.084C32.2942 70.1814 31.8824 70.2408 31.4768 70.2551C31.4768 70.2551 31.4756 70.2446 31.4734 70.2274C31.4706 70.2446 31.4684 70.2551 31.4684 70.2551C31.426 70.2536 31.3839 70.25 31.3415 70.2476Z" fill="#E23128"/>
<path d="M41.14 63.2686C42.4398 61.3027 43.3222 59.2136 43.4953 57.4209" stroke="#902B12" stroke-miterlimit="10"/>
<path d="M28.3062 69.3365C29.3456 69.8862 30.4139 70.2189 31.4681 70.2558C31.4681 70.2558 31.47 70.2454 31.4731 70.2281C31.4753 70.2454 31.4765 70.2558 31.4765 70.2558C34.0579 70.1652 36.8866 68.2988 39.1543 65.8169" stroke="#902B12" stroke-miterlimit="10"/>
<path d="M19.9396 57.4565C20.3765 60.6581 22.7238 64.7852 25.7021 67.4755" stroke="#902B12" stroke-miterlimit="10"/>
<path d="M34.9061 60.0764C32.757 61.6441 31.8953 64.1511 31.5729 66.2852C31.3197 63.8465 30.3688 60.9201 27.4747 59.4659C25.7619 58.6053 24.7497 57.4929 24.1679 56.3696" stroke="#902B12" stroke-miterlimit="10"/>
<path d="M40.2971 51.6196C40.2971 51.6196 41.2467 56.0449 36.933 58.8756" stroke="#902B12" stroke-miterlimit="10"/>
<path d="M29.638 73.9856C29.638 74.7582 28.9875 75.3845 28.1852 75.3845C27.3827 75.3845 26.7321 74.7582 26.7321 73.9856C26.7321 73.2132 27.3827 72.5869 28.1852 72.5869C28.9875 72.5869 29.638 73.2132 29.638 73.9856Z" stroke="#902B12" stroke-miterlimit="10"/>
<path d="M36.3901 73.9856C36.3901 74.7582 35.7395 75.3845 34.937 75.3845C34.1347 75.3845 33.4842 74.7582 33.4842 73.9856C33.4842 73.2132 34.1347 72.5869 34.937 72.5869C35.7395 72.5869 36.3901 73.2132 36.3901 73.9856Z" stroke="#902B12" stroke-miterlimit="10"/>
<path d="M31.6542 65.812L31.4703 70.2581" stroke="#902B12" stroke-miterlimit="10"/>
</svg>
