<svg width="48" height="48" viewBox="0 0 48 48" fill="none" xmlns="http://www.w3.org/2000/svg">
<g clip-path="url(#clip0_4971_21318)">
<path fill-rule="evenodd" clip-rule="evenodd" d="M9.86596 20.815C10.9552 20.222 11.9147 22.2136 14.1628 21.1821C14.8 20.8897 15.4853 20.3007 16.1334 21.0588C16.6865 21.7058 16.2978 22.3765 15.8419 22.7221C12.5949 25.1836 7.3729 22.1722 9.86596 20.8149V20.815ZM2.42554 28.4975C2.42554 30.1323 3.89686 30.3851 4.83176 30.8554C7.26031 32.0769 6.3429 31.008 7.53979 37.5394C8.48185 42.6801 12.2534 42.5234 16.7178 42.5175C19.543 42.5137 19.6067 42.8375 20.247 45.9303C20.3918 46.6298 20.5098 47.2955 20.6651 47.9622H39.1769C39.0222 46.1034 37.8157 43.211 37.8157 39.7952C37.8157 33.3587 45.5744 30.001 45.5744 18.6972C45.5744 14.6601 43.6248 9.75627 41.1155 6.95814C40.9156 6.73517 40.775 6.64105 40.5784 6.40635C40.3433 6.12582 40.3048 5.9824 40.0294 5.73038C36.4712 2.47475 32.1251 0.185349 26.9264 0.185349C22.1548 0.185349 18.915 0.717534 15.2456 3.06893C9.49025 6.75697 6.50686 12.4669 6.50901 19.7861C6.50946 21.3341 6.70096 21.4189 6.05924 22.467C5.44839 23.4648 2.42554 27.6996 2.42554 28.4975Z" fill="#FFC487"/>
<path fill-rule="evenodd" clip-rule="evenodd" d="M9.86586 20.815C7.3728 22.1722 12.5948 25.1836 15.8418 22.7222C16.2977 22.3765 16.6864 21.7058 16.1333 21.0588C15.4852 20.3008 14.7999 20.8897 14.1627 21.1821C11.9146 22.2136 10.955 20.2221 9.86586 20.815V20.815Z" fill="#FA9F4D"/>
<path fill-rule="evenodd" clip-rule="evenodd" d="M13.21 0.672671C13.21 0.751132 13.7517 4.26159 14.6238 4.26159C15.2595 4.26159 15.6616 3.65838 16.2551 3.60905C16.2645 4.03174 16.4253 4.55294 16.5399 4.95554C16.7643 5.74474 16.8585 5.89284 17.4513 5.89284C18.7888 5.89284 17.9919 4.24003 17.7136 3.12929C16.9783 0.194786 16.2355 2.10637 15.1675 2.1952C14.9202 -0.776684 13.21 -0.035188 13.21 0.67263L13.21 0.672671Z" fill="#FF6959"/>
<path fill-rule="evenodd" clip-rule="evenodd" d="M10.2736 8.93794C10.0152 8.76487 8.72587 7.95919 8.42484 7.95919C8.05621 7.95919 7.66357 8.35182 7.66357 8.72041C7.66357 9.5315 8.85644 9.89351 9.81741 10.4817C11.8068 11.6994 11.5173 9.96335 11.9049 9.15543C12.1792 9.33911 12.3678 9.42823 12.6607 9.59589C12.8965 9.73085 13.2018 9.9522 13.4813 10.0896C14.289 10.4867 15.5222 9.43759 13.953 8.52111L12.2944 7.56965C10.4603 6.45545 10.6859 8.07877 10.2736 8.9379V8.93794Z" fill="#FF6859"/>
<path fill-rule="evenodd" clip-rule="evenodd" d="M37.6392 1.79964C37.6392 1.8781 37.0974 5.38851 36.2254 5.38851C35.5897 5.38851 35.1876 4.78535 34.5941 4.73601C34.5847 5.1587 34.4238 5.67991 34.3094 6.0825C34.0848 6.87167 33.9906 7.01981 33.3979 7.01981C32.0604 7.01981 32.8573 5.367 33.1356 4.25626C33.8709 1.32175 34.6136 3.23333 35.6817 3.32217C35.929 0.350284 37.6393 1.09178 37.6393 1.7996L37.6392 1.79964Z" fill="#FF6959"/>
<path fill-rule="evenodd" clip-rule="evenodd" d="M40.5755 10.0649C40.8339 9.89188 42.1232 9.08616 42.4243 9.08616C42.7929 9.08616 43.1855 9.47883 43.1855 9.84742C43.1855 10.6585 41.9926 11.0205 41.0317 11.6087C39.0423 12.8264 39.3318 11.0904 38.9442 10.2824C38.6699 10.4661 38.4813 10.5552 38.1883 10.7229C37.9526 10.8579 37.6473 11.0792 37.3678 11.2166C36.5601 11.6137 35.3268 10.5646 36.8961 9.64812L38.5547 8.69666C40.3888 7.58246 40.1632 9.20578 40.5755 10.0649V10.0649Z" fill="#FF6859"/>
<path d="M25.6369 17.555C28.9957 17.555 31.7186 14.8321 31.7186 11.4733C31.7186 8.11443 28.9957 5.39156 25.6369 5.39156C22.278 5.39156 19.5552 8.11443 19.5552 11.4733C19.5552 14.8321 22.278 17.555 25.6369 17.555Z" fill="white"/>
<path fill-rule="evenodd" clip-rule="evenodd" d="M23.8896 11.4122C23.8896 9.3145 27.3533 8.93317 27.3533 11.6688C27.3533 13.5914 23.8896 13.9601 23.8896 11.4122ZM25.5573 16.0305C30.1791 16.0305 32.1334 9.67569 27.529 7.38807C23.1932 5.23399 18.9323 10.9457 22.3775 14.592C23.1285 15.3868 24.5414 16.0305 25.5573 16.0305Z" fill="#FF6859"/>
</g>
<defs>
<clipPath id="clip0_4971_21318">
<rect width="48" height="48" fill="white"/>
</clipPath>
</defs>
</svg>
