<svg width="32" height="32" viewBox="0 0 32 32" fill="none" xmlns="http://www.w3.org/2000/svg">
<path d="M11.949 25.2145L12.4133 24.6255L11.949 25.2145ZM16 7.33418L15.4596 7.85428C15.601 8.00117 15.7961 8.08418 16 8.08418C16.2039 8.08418 16.399 8.00117 16.5404 7.85428L16 7.33418ZM20.051 25.2145L20.5153 25.8035L20.051 25.2145ZM11.949 25.2145L12.4133 24.6255C10.4072 23.0441 8.16977 21.4681 6.39744 19.4724C4.65083 17.5056 3.41666 15.1907 3.41666 12.1828H2.66666H1.91666C1.91666 15.6588 3.36211 18.3134 5.27587 20.4684C7.16393 22.5944 9.56762 24.2923 11.4847 25.8035L11.949 25.2145ZM2.66666 12.1828H3.41666C3.41666 9.22144 5.09037 6.7251 7.3952 5.67155C9.65275 4.63962 12.6517 4.93692 15.4596 7.85428L16 7.33418L16.5404 6.81408C13.3485 3.49787 9.68078 2.97753 6.77161 4.30732C3.90972 5.6155 1.91666 8.66024 1.91666 12.1828H2.66666ZM11.949 25.2145L11.4847 25.8035C12.1699 26.3437 12.8897 26.9067 13.6152 27.3307C14.3405 27.7545 15.1429 28.0833 16 28.0833V27.3333V26.5833C15.5237 26.5833 14.9928 26.3984 14.372 26.0356C13.7515 25.673 13.1124 25.1766 12.4133 24.6255L11.949 25.2145ZM20.051 25.2145L20.5153 25.8035C22.4324 24.2923 24.836 22.5944 26.7241 20.4684C28.6379 18.3134 30.0833 15.6588 30.0833 12.1828H29.3333H28.5833C28.5833 15.1907 27.3492 17.5056 25.6025 19.4724C23.8302 21.4681 21.5927 23.0441 19.5867 24.6255L20.051 25.2145ZM29.3333 12.1828H30.0833C30.0833 8.66024 28.0903 5.6155 25.2284 4.30732C22.3192 2.97753 18.6515 3.49787 15.4596 6.81408L16 7.33418L16.5404 7.85428C19.3483 4.93692 22.3472 4.63962 24.6048 5.67155C26.9096 6.7251 28.5833 9.22144 28.5833 12.1828H29.3333ZM20.051 25.2145L19.5867 24.6255C18.8876 25.1766 18.2485 25.673 17.628 26.0356C17.0072 26.3984 16.4763 26.5833 16 26.5833V27.3333V28.0833C16.8571 28.0833 17.6595 27.7545 18.3848 27.3307C19.1103 26.9067 19.83 26.3437 20.5153 25.8035L20.051 25.2145Z" fill="#424242"/>
</svg>
