<svg width="18" height="18" viewBox="0 0 18 18" fill="none" xmlns="http://www.w3.org/2000/svg">
<path d="M9 8.99995H8.5V9.20706L8.64645 9.35351L9 8.99995ZM9.5 5.99995C9.5 5.72381 9.27614 5.49995 9 5.49995C8.72386 5.49995 8.5 5.72381 8.5 5.99995H9H9.5ZM10.5214 11.2285C10.7167 11.4238 11.0333 11.4238 11.2286 11.2285C11.4238 11.0332 11.4238 10.7167 11.2286 10.5214L10.875 10.875L10.5214 11.2285ZM13.7489 4.25107L13.3954 4.60463V4.60463L13.7489 4.25107ZM4.20311 4.2031L3.84955 3.84955H3.84955L4.20311 4.2031ZM4.25107 13.7489L4.60463 13.3954V13.3954L4.25107 13.7489ZM13.7969 13.7969L14.1504 14.1504V14.1504L13.7969 13.7969ZM3.25332 5.15289L2.75333 5.1554C2.7547 5.42958 2.97663 5.65151 3.25081 5.65288L3.25332 5.15289ZM5.15997 5.66248C5.43611 5.66387 5.66109 5.44114 5.66248 5.165C5.66387 4.88886 5.44114 4.66388 5.165 4.66249L5.16248 5.16248L5.15997 5.66248ZM3.74372 3.24121C3.74233 2.96508 3.51735 2.74235 3.24121 2.74373C2.96507 2.74512 2.74234 2.9701 2.74373 3.24624L3.24373 3.24373L3.74372 3.24121ZM2.80803 8.0802C2.84553 7.80662 2.65415 7.55443 2.38057 7.51693C2.10698 7.47943 1.8548 7.67082 1.8173 7.9444L2.31267 8.0123L2.80803 8.0802ZM9 8.99995H9.5V5.99995H9H8.5V8.99995H9ZM9 8.99995L8.64645 9.35351L10.5214 11.2285L10.875 10.875L11.2286 10.5214L9.35355 8.6464L9 8.99995ZM13.7489 4.25107L14.1025 3.89752C11.2613 1.05637 6.67092 1.02819 3.84955 3.84955L4.20311 4.2031L4.55666 4.55666C6.98081 2.1325 10.938 2.14728 13.3954 4.60463L13.7489 4.25107ZM4.25107 13.7489L3.89752 14.1025C6.73868 16.9436 11.3291 16.9718 14.1504 14.1504L13.7969 13.7969L13.4433 13.4433C11.0192 15.8675 7.06198 15.8527 4.60463 13.3954L4.25107 13.7489ZM13.7969 13.7969L14.1504 14.1504C16.9718 11.3291 16.9436 6.73868 14.1025 3.89752L13.7489 4.25107L13.3954 4.60463C15.8527 7.06198 15.8675 11.0192 13.4433 13.4433L13.7969 13.7969ZM4.20311 4.2031L3.84955 3.84955L2.89977 4.79934L3.25332 5.15289L3.60687 5.50644L4.55666 4.55666L4.20311 4.2031ZM3.25332 5.15289L3.25081 5.65288L5.15997 5.66248L5.16248 5.16248L5.165 4.66249L3.25583 4.6529L3.25332 5.15289ZM3.25332 5.15289L3.75331 5.15038L3.74372 3.24121L3.24373 3.24373L2.74373 3.24624L2.75333 5.1554L3.25332 5.15289ZM2.31267 8.0123L1.8173 7.9444C1.51878 10.1222 2.21394 12.4189 3.89752 14.1025L4.25107 13.7489L4.60463 13.3954C3.14989 11.9406 2.55049 9.95912 2.80803 8.0802L2.31267 8.0123Z" fill="#626060"/>
</svg>
