<svg width="48" height="48" viewBox="0 0 48 48" fill="none" xmlns="http://www.w3.org/2000/svg">
<g clip-path="url(#clip0_4971_12219)">
<path fill-rule="evenodd" clip-rule="evenodd" d="M44.7862 33.5625C45.064 33.4728 45.4353 33.3718 45.6897 33.3018C46.9032 32.9676 46.922 33.0601 46.1492 30.4575L44.8248 25.5006C44.5995 24.649 44.3965 23.8238 44.1699 22.968L41.4929 13.0826C40.6789 11.0081 39.3517 10.059 37.4997 9.29457C37.1096 9.13354 36.7512 8.97552 36.3854 8.81506C35.6405 8.4884 34.9132 8.1761 34.1513 7.86165C33.452 7.57298 32.6997 7.24852 31.9843 6.93488L29.7823 5.94937C28.9671 5.40409 29.0755 4.73443 29.0755 3.46876C29.0755 2.40622 29.0755 1.34376 29.0755 0.281216C28.8702 0.103224 28.7286 0.0283832 28.5303 -7.62939e-06H27.5091C27.3839 0.00149733 27.2452 0.00182272 27.0907 -7.62939e-06H19.2318C18.8829 0.520992 18.9506 0.387824 18.9506 1.21921C18.9506 2.251 18.9457 3.283 18.9529 4.31479C18.9609 5.46742 18.5827 5.86892 17.7594 6.21506C16.2784 6.83775 14.8684 7.43074 13.422 8.06506L9.7508 9.64392C8.76696 10.0978 8.24718 10.6019 7.53587 11.3665C6.49159 12.4889 6.20532 14.2761 5.80635 15.7307L1.34427 32.4632C1.32548 32.7076 1.31088 32.3316 1.34712 32.6092C1.4207 33.173 1.81955 33.1426 2.34543 33.2926L6.83822 34.6173C7.92187 34.9379 7.77776 34.4985 8.15742 33.3629C8.28696 32.9754 8.41924 32.5983 8.53329 32.2389L11.3569 23.3438H11.6381C11.6381 24.4167 11.7373 25.2799 11.7306 26.4387C11.7268 27.0957 11.828 27.3311 11.8288 27.9342C11.8296 28.4671 11.8217 29.0017 11.8224 29.5344C11.8232 30.1377 11.9244 30.373 11.9206 31.03C11.9176 31.5511 11.9009 32.111 11.9163 32.628L12.0131 35.7187C12.0136 37.4264 11.2558 47.3047 11.5443 47.9062C11.5874 47.9492 12.3595 47.9793 13.5984 48H34.6897H36.3881C36.8151 47.3623 36.6045 47.7001 36.5739 46.8793L36.3881 42.3318C36.2311 42.0912 36.2961 41.6384 36.2972 41.2471L36.0131 35.3436C36.0131 32.9215 36.1668 30.5512 36.1969 28.1212L36.2942 25.781C36.2923 24.9468 36.4845 24.0989 36.3428 23.3437H36.6694C36.8188 23.9852 37.0728 24.5724 37.2714 25.2729C37.4735 25.9852 37.7142 26.5415 37.9219 27.2474C38.5311 29.3176 39.6032 32.2454 40.0955 34.0739C40.3833 35.143 40.6377 34.7552 42.7099 34.1655L44.7863 33.5624L44.7862 33.5625Z" fill="#FFC487"/>
<path fill-rule="evenodd" clip-rule="evenodd" d="M18.7548 27.0596C18.2957 27.2268 17.2022 28.255 16.8942 28.5995C16.2097 29.3653 16.4995 30.319 16.5936 31.4115C16.8535 34.4291 18.5368 33.6459 20.6802 32.8541C21.311 32.6212 22.6828 32.1904 23.0775 31.8767C23.6285 31.4389 24.3131 29.2807 21.9452 28.9777C21.4114 28.9094 21.5301 28.8232 21.0234 28.1132C20.5742 27.4837 20.025 26.5969 18.7548 27.0596H18.7548Z" fill="#FF6859"/>
<path fill-rule="evenodd" clip-rule="evenodd" d="M28.9261 21.1808C27.7787 21.6848 28.1023 22.1855 27.8417 23.4221C27.6466 24.3482 27.0578 24.9848 26.3998 25.3535C24.0401 26.6752 25.7554 28.9643 27.377 28.4881C27.7426 28.3808 29.1745 27.4823 29.4348 27.2647C30.0505 26.7497 30.5294 26.1823 30.8345 25.2893C31.0705 24.5989 31.1952 22.9973 31.0279 22.238C30.8406 21.3889 29.8663 20.7677 28.9261 21.1808Z" fill="#FF6859"/>
<path fill-rule="evenodd" clip-rule="evenodd" d="M23.3119 13.0312V20.7187C23.3119 21.3055 23.4027 21.7291 24.0126 21.7293C24.6307 21.7295 24.7141 21.3111 24.7141 20.7187V13.0312C24.7141 11.5742 23.3119 11.5648 23.3119 13.0312H23.3119Z" fill="#FFBA70"/>
<path fill-rule="evenodd" clip-rule="evenodd" d="M34.0826 32.9201C33.4517 32.8742 31.8323 32.8368 31.2397 32.917C29.2786 33.1821 30.944 35.6504 29.7815 36.7994C29.5436 37.0346 29.3261 37.1451 29.0333 37.4578C27.2962 39.3136 29.4425 41.122 30.235 41.8709C31.2405 42.821 32.5315 43.3265 34.4424 43.0211L36.3881 42.3318C36.2311 42.0912 36.2961 41.6384 36.2972 41.2471L36.0131 35.3437C36.0131 34.7621 35.8797 33.305 36.1069 32.9454L34.0826 32.92L34.0826 32.9201Z" fill="#FF6859"/>
</g>
<defs>
<clipPath id="clip0_4971_12219">
<rect width="48" height="48" fill="white"/>
</clipPath>
</defs>
</svg>
