<svg width="302" height="107" viewBox="0 0 302 107" fill="none" xmlns="http://www.w3.org/2000/svg">
<path d="M95.7454 31.8066H82.4297V84.809H95.7454V31.8066Z" fill="url(#paint0_linear_4046_24684)"/>
<path d="M93.5698 28.0068H84.6055V50.2801H93.5698V28.0068Z" fill="url(#paint1_linear_4046_24684)"/>
<path d="M91.5736 25.5964H86.6013V37.951H91.5736V25.5964Z" fill="url(#paint2_linear_4046_24684)"/>
<path d="M90.7819 31.9449H87.3933V23.5254H88.6158H89.827H90.7819V31.9449Z" fill="url(#paint3_linear_4046_24684)"/>
<path d="M88.8644 28.2785H88.4968V19.859H88.6295H88.7608H88.8644V28.2785Z" fill="url(#paint4_linear_4046_24684)"/>
<path d="M89.6784 25.3681H89.3108V16.9486H89.4435H89.5748H89.6784V25.3681Z" fill="url(#paint5_linear_4046_24684)"/>
<path d="M96.1007 31.671H82.0745V32.2353H96.1007V31.671Z" fill="url(#paint6_linear_4046_24684)"/>
<path d="M93.8967 27.7351H84.2783V28.2785H93.8967V27.7351Z" fill="url(#paint7_linear_4046_24684)"/>
<path d="M91.7822 25.368H86.239V25.7849H91.7822V25.368Z" fill="url(#paint8_linear_4046_24684)"/>
<path opacity="0.29" d="M85.8468 28.9106H85.4299V31.2446H85.8468V28.9106Z" fill="url(#paint9_linear_4046_24684)"/>
<path opacity="0.29" d="M86.9996 28.9106H86.5828V31.2446H86.9996V28.9106Z" fill="url(#paint10_linear_4046_24684)"/>
<path opacity="0.29" d="M88.1527 28.9106H87.7358V31.2446H88.1527V28.9106Z" fill="url(#paint11_linear_4046_24684)"/>
<path opacity="0.29" d="M89.306 28.9106H88.8892V31.2446H89.306V28.9106Z" fill="url(#paint12_linear_4046_24684)"/>
<path opacity="0.29" d="M90.4591 28.9106H90.0422V31.2446H90.4591V28.9106Z" fill="url(#paint13_linear_4046_24684)"/>
<path opacity="0.29" d="M91.6121 28.9106H91.1953V31.2446H91.6121V28.9106Z" fill="url(#paint14_linear_4046_24684)"/>
<path opacity="0.29" d="M92.7652 28.9106H92.3484V31.2446H92.7652V28.9106Z" fill="url(#paint15_linear_4046_24684)"/>
<path d="M84.6053 33.9199H83.5984V36.6888H84.6053V33.9199Z" fill="url(#paint16_linear_4046_24684)"/>
<path opacity="0.29" d="M86.5997 33.9199H85.5928V36.6888H86.5997V33.9199Z" fill="url(#paint17_linear_4046_24684)"/>
<path d="M88.5939 33.9199H87.5869V36.6888H88.5939V33.9199Z" fill="url(#paint18_linear_4046_24684)"/>
<path d="M90.588 33.9199H89.5811V36.6888H90.588V33.9199Z" fill="url(#paint19_linear_4046_24684)"/>
<path d="M92.5824 33.9199H91.5754V36.6888H92.5824V33.9199Z" fill="url(#paint20_linear_4046_24684)"/>
<path d="M94.5768 33.9199H93.5698V36.6888H94.5768V33.9199Z" fill="url(#paint21_linear_4046_24684)"/>
<path d="M84.6053 38.2361H83.5984V41.005H84.6053V38.2361Z" fill="url(#paint22_linear_4046_24684)"/>
<path d="M86.5997 38.2361H85.5928V41.005H86.5997V38.2361Z" fill="url(#paint23_linear_4046_24684)"/>
<path d="M88.5939 38.2361H87.5869V41.005H88.5939V38.2361Z" fill="url(#paint24_linear_4046_24684)"/>
<path opacity="0.29" d="M90.588 38.2361H89.5811V41.005H90.588V38.2361Z" fill="url(#paint25_linear_4046_24684)"/>
<path d="M92.5824 38.2361H91.5754V41.005H92.5824V38.2361Z" fill="url(#paint26_linear_4046_24684)"/>
<path d="M94.5768 38.2361H93.5698V41.005H94.5768V38.2361Z" fill="url(#paint27_linear_4046_24684)"/>
<path d="M84.6053 42.552H83.5984V45.3209H84.6053V42.552Z" fill="url(#paint28_linear_4046_24684)"/>
<path d="M86.5997 42.552H85.5928V45.3209H86.5997V42.552Z" fill="url(#paint29_linear_4046_24684)"/>
<path d="M88.5939 42.552H87.5869V45.3209H88.5939V42.552Z" fill="url(#paint30_linear_4046_24684)"/>
<path d="M90.588 42.552H89.5811V45.3209H90.588V42.552Z" fill="url(#paint31_linear_4046_24684)"/>
<path opacity="0.29" d="M92.5824 42.552H91.5754V45.3209H92.5824V42.552Z" fill="url(#paint32_linear_4046_24684)"/>
<path opacity="0.29" d="M94.5768 42.552H93.5698V45.3209H94.5768V42.552Z" fill="url(#paint33_linear_4046_24684)"/>
<path opacity="0.29" d="M84.6053 46.8682H83.5984V49.6371H84.6053V46.8682Z" fill="url(#paint34_linear_4046_24684)"/>
<path d="M86.5997 46.8682H85.5928V49.6371H86.5997V46.8682Z" fill="url(#paint35_linear_4046_24684)"/>
<path d="M88.5939 46.8682H87.5869V49.6371H88.5939V46.8682Z" fill="url(#paint36_linear_4046_24684)"/>
<path d="M90.588 46.8682H89.5811V49.6371H90.588V46.8682Z" fill="url(#paint37_linear_4046_24684)"/>
<path d="M92.5824 46.8682H91.5754V49.6371H92.5824V46.8682Z" fill="url(#paint38_linear_4046_24684)"/>
<path d="M94.5768 46.8682H93.5698V49.6371H94.5768V46.8682Z" fill="url(#paint39_linear_4046_24684)"/>
<path d="M84.6053 51.1842H83.5984V53.9531H84.6053V51.1842Z" fill="url(#paint40_linear_4046_24684)"/>
<path opacity="0.29" d="M86.5997 51.1842H85.5928V53.9531H86.5997V51.1842Z" fill="url(#paint41_linear_4046_24684)"/>
<path d="M88.5939 51.1842H87.5869V53.9531H88.5939V51.1842Z" fill="url(#paint42_linear_4046_24684)"/>
<path opacity="0.29" d="M90.588 51.1842H89.5811V53.9531H90.588V51.1842Z" fill="url(#paint43_linear_4046_24684)"/>
<path d="M92.5824 51.1842H91.5754V53.9531H92.5824V51.1842Z" fill="url(#paint44_linear_4046_24684)"/>
<path d="M94.5768 51.1842H93.5698V53.9531H94.5768V51.1842Z" fill="url(#paint45_linear_4046_24684)"/>
<path d="M84.6053 55.5002H83.5984V58.2692H84.6053V55.5002Z" fill="url(#paint46_linear_4046_24684)"/>
<path d="M86.5997 55.5002H85.5928V58.2692H86.5997V55.5002Z" fill="url(#paint47_linear_4046_24684)"/>
<path d="M88.5939 55.5002H87.5869V58.2692H88.5939V55.5002Z" fill="url(#paint48_linear_4046_24684)"/>
<path d="M90.588 55.5002H89.5811V58.2692H90.588V55.5002Z" fill="url(#paint49_linear_4046_24684)"/>
<path d="M92.5824 55.5002H91.5754V58.2692H92.5824V55.5002Z" fill="url(#paint50_linear_4046_24684)"/>
<path opacity="0.29" d="M94.5768 55.5002H93.5698V58.2692H94.5768V55.5002Z" fill="url(#paint51_linear_4046_24684)"/>
<path d="M84.6053 59.8163H83.5984V62.5852H84.6053V59.8163Z" fill="url(#paint52_linear_4046_24684)"/>
<path opacity="0.29" d="M86.5997 59.8163H85.5928V62.5852H86.5997V59.8163Z" fill="url(#paint53_linear_4046_24684)"/>
<path opacity="0.29" d="M88.5939 59.8163H87.5869V62.5852H88.5939V59.8163Z" fill="url(#paint54_linear_4046_24684)"/>
<path d="M90.588 59.8163H89.5811V62.5852H90.588V59.8163Z" fill="url(#paint55_linear_4046_24684)"/>
<path d="M92.5824 59.8163H91.5754V62.5852H92.5824V59.8163Z" fill="url(#paint56_linear_4046_24684)"/>
<path d="M94.5768 59.8163H93.5698V62.5852H94.5768V59.8163Z" fill="url(#paint57_linear_4046_24684)"/>
<path d="M84.6053 64.1323H83.5984V66.9012H84.6053V64.1323Z" fill="url(#paint58_linear_4046_24684)"/>
<path d="M86.5997 64.1323H85.5928V66.9012H86.5997V64.1323Z" fill="url(#paint59_linear_4046_24684)"/>
<path d="M88.5939 64.1323H87.5869V66.9012H88.5939V64.1323Z" fill="url(#paint60_linear_4046_24684)"/>
<path d="M90.588 64.1323H89.5811V66.9012H90.588V64.1323Z" fill="url(#paint61_linear_4046_24684)"/>
<path opacity="0.29" d="M92.5824 64.1323H91.5754V66.9012H92.5824V64.1323Z" fill="url(#paint62_linear_4046_24684)"/>
<path d="M94.5768 64.1323H93.5698V66.9012H94.5768V64.1323Z" fill="url(#paint63_linear_4046_24684)"/>
<path d="M84.6053 68.4485H83.5984V71.2174H84.6053V68.4485Z" fill="url(#paint64_linear_4046_24684)"/>
<path opacity="0.29" d="M86.5997 68.4485H85.5928V71.2174H86.5997V68.4485Z" fill="url(#paint65_linear_4046_24684)"/>
<path d="M88.5939 68.4485H87.5869V71.2174H88.5939V68.4485Z" fill="url(#paint66_linear_4046_24684)"/>
<path d="M90.588 68.4485H89.5811V71.2174H90.588V68.4485Z" fill="url(#paint67_linear_4046_24684)"/>
<path d="M92.5824 68.4485H91.5754V71.2174H92.5824V68.4485Z" fill="url(#paint68_linear_4046_24684)"/>
<path d="M94.5768 68.4485H93.5698V71.2174H94.5768V68.4485Z" fill="url(#paint69_linear_4046_24684)"/>
<path d="M84.6053 72.7645H83.5984V75.5334H84.6053V72.7645Z" fill="url(#paint70_linear_4046_24684)"/>
<path d="M86.5997 72.7645H85.5928V75.5334H86.5997V72.7645Z" fill="url(#paint71_linear_4046_24684)"/>
<path d="M88.5939 72.7645H87.5869V75.5334H88.5939V72.7645Z" fill="url(#paint72_linear_4046_24684)"/>
<path opacity="0.29" d="M90.588 72.7645H89.5811V75.5334H90.588V72.7645Z" fill="url(#paint73_linear_4046_24684)"/>
<path d="M92.5824 72.7645H91.5754V75.5334H92.5824V72.7645Z" fill="url(#paint74_linear_4046_24684)"/>
<path opacity="0.29" d="M94.5768 72.7645H93.5698V75.5334H94.5768V72.7645Z" fill="url(#paint75_linear_4046_24684)"/>
<path opacity="0.29" d="M84.6053 77.0807H83.5984V79.8496H84.6053V77.0807Z" fill="url(#paint76_linear_4046_24684)"/>
<path d="M86.5997 77.0807H85.5928V79.8496H86.5997V77.0807Z" fill="url(#paint77_linear_4046_24684)"/>
<path opacity="0.29" d="M88.5939 77.0807H87.5869V79.8496H88.5939V77.0807Z" fill="url(#paint78_linear_4046_24684)"/>
<path d="M90.588 77.0807H89.5811V79.8496H90.588V77.0807Z" fill="url(#paint79_linear_4046_24684)"/>
<path d="M92.5824 77.0807H91.5754V79.8496H92.5824V77.0807Z" fill="url(#paint80_linear_4046_24684)"/>
<path d="M94.5768 77.0807H93.5698V79.8496H94.5768V77.0807Z" fill="url(#paint81_linear_4046_24684)"/>
<path d="M65.1628 33.8229H43.7573V78.4726H65.1628V33.8229Z" fill="url(#paint82_linear_4046_24684)"/>
<path d="M65.771 33.0551H43.1492V34.3172H65.771V33.0551Z" fill="url(#paint83_linear_4046_24684)"/>
<path d="M64.4435 31.4398H44.4771V37.4383H64.4435V31.4398Z" fill="url(#paint84_linear_4046_24684)"/>
<path d="M53.9118 28.9852H46.0054V35.5393H53.9118V28.9852Z" fill="url(#paint85_linear_4046_24684)"/>
<path d="M50.5809 30.8324H46.0054V27.3823H49.2871L50.5809 30.8324Z" fill="url(#paint86_linear_4046_24684)"/>
<path d="M48.2932 24.5187H47.8496V32.2035H48.2932V24.5187Z" fill="url(#paint87_linear_4046_24684)"/>
<path d="M48.0714 24.5188C48.2914 24.5188 48.4697 24.3405 48.4697 24.1205C48.4697 23.9005 48.2914 23.7222 48.0714 23.7222C47.8514 23.7222 47.6731 23.9005 47.6731 24.1205C47.6731 24.3405 47.8514 24.5188 48.0714 24.5188Z" fill="url(#paint88_linear_4046_24684)"/>
<path d="M242.421 81.8717H218.99L216.066 16.2244L242.421 21.695V81.8717Z" fill="url(#paint89_linear_4046_24684)"/>
<path d="M140.195 44.3812V22.4336H136.52V16.5548H135.207V7.93253H127.974V1.59554H127.331V7.93253H125.914V0H125.27V7.93253H120.698V22.4336H118.336V44.3812H116.311V84.357H141.618V44.3812H140.195Z" fill="url(#paint90_linear_4046_24684)"/>
<path d="M178.633 86.0847H166.237L171.067 61.2604H178.633V86.0847Z" fill="url(#paint91_linear_4046_24684)"/>
<path d="M168.474 40.1473V29.147H164.494V24.959H162.364V21.4411H161.617V15.4103H161.424V21.4411H160.676V24.959H158.547V29.147H154.597V40.1473H153.775V60.119H147.651V82.8855H153.775H159.9H169.265V40.1473H168.474Z" fill="url(#paint92_linear_4046_24684)"/>
<path d="M191.35 52.7836H172.084V53.1339H172.955V85.7123H190.479V53.1339H191.35V52.7836Z" fill="url(#paint93_linear_4046_24684)"/>
<path d="M103.494 60.8983H86.4119V88.0367H103.494V60.8983Z" fill="url(#paint94_linear_4046_24684)"/>
<path d="M83.8385 74.8026H54.4602V88.0368H83.8385V74.8026Z" fill="url(#paint95_linear_4046_24684)"/>
<path d="M76.6568 45.2351H70.2073V77.7342H76.6568V45.2351Z" fill="url(#paint96_linear_4046_24684)"/>
<path d="M71.9661 36.5659H71.6311V54.2394H71.9661V36.5659Z" fill="url(#paint97_linear_4046_24684)"/>
<path d="M73.055 37.9061H72.72V55.5796H73.055V37.9061Z" fill="url(#paint98_linear_4046_24684)"/>
<path d="M74.6466 43.2249H70.7046V47.5804H74.6466V43.2249Z" fill="url(#paint99_linear_4046_24684)"/>
<path d="M93.9113 65.7565H82.6875V88.0368H93.9113V65.7565Z" fill="url(#paint100_linear_4046_24684)"/>
<path d="M127.332 42.1785H106.263V88.0367H127.332V42.1785Z" fill="url(#paint101_linear_4046_24684)"/>
<path d="M125.262 40.6023H108.333V48.2403H125.262V40.6023Z" fill="url(#paint102_linear_4046_24684)"/>
<path d="M128.965 43.1379H104.63V43.6741H128.965V43.1379Z" fill="url(#paint103_linear_4046_24684)"/>
<path d="M112.373 64.877H102.446V88.0367H112.373V64.877Z" fill="url(#paint104_linear_4046_24684)"/>
<path d="M42.7337 63.9974H31.3423V88.0367H42.7337V63.9974Z" fill="url(#paint105_linear_4046_24684)"/>
<path d="M57.7269 57.4642H35.0278V88.0367H57.7269V57.4642Z" fill="url(#paint106_linear_4046_24684)"/>
<path d="M58.3133 56.2916H33.7036V57.4642H58.3133V56.2916Z" fill="url(#paint107_linear_4046_24684)"/>
<path d="M46.0084 53.1086H36.033V59.3069H46.0084V53.1086Z" fill="url(#paint108_linear_4046_24684)"/>
<path d="M50.9423 53.1086H49.2671V56.8779H50.9423V53.1086Z" fill="url(#paint109_linear_4046_24684)"/>
<path d="M54.4602 53.1086H52.6174V56.8779H54.4602V53.1086Z" fill="url(#paint110_linear_4046_24684)"/>
<path d="M37.038 78.7394H25.144V88.0368H37.038V78.7394Z" fill="url(#paint111_linear_4046_24684)"/>
<path d="M26.2836 74.8026H20.6516V88.0368H26.2836V74.8026Z" fill="url(#paint112_linear_4046_24684)"/>
<path d="M23.4675 83.3881H13.8418V88.0368H23.4675V83.3881Z" fill="url(#paint113_linear_4046_24684)"/>
<path d="M234.4 49.2151C233.653 49.2151 233.041 49.7896 232.98 50.5208L231.31 50.4665C231.315 50.303 231.317 50.1392 231.317 49.9751C231.317 47.8975 230.959 45.875 230.271 43.9782L231.666 43.4647C231.885 43.9702 232.388 44.324 232.974 44.324C233.762 44.324 234.4 43.6858 234.4 42.8986C234.4 42.1113 233.761 41.4733 232.974 41.4733C232.187 41.4733 231.549 42.1114 231.549 42.8986C231.549 43.0438 231.571 43.184 231.611 43.316L230.217 43.8294C229.423 41.6984 228.211 39.7296 226.624 38.0238L227.716 37.0012C227.971 37.2457 228.318 37.396 228.7 37.396C229.487 37.396 230.125 36.7578 230.125 35.9707C230.125 35.1836 229.487 34.5454 228.7 34.5454C227.912 34.5454 227.274 35.1836 227.274 35.9707C227.274 36.3191 227.4 36.6383 227.607 36.8859L226.516 37.9085C226.403 37.7897 226.289 37.6721 226.173 37.5561C224.521 35.9037 222.597 34.6212 220.503 33.75L221.103 32.2884C221.239 32.3317 221.384 32.3552 221.535 32.3552C222.322 32.3552 222.96 31.717 222.96 30.9299C222.96 30.1427 222.322 29.5046 221.535 29.5046C220.748 29.5046 220.109 30.1427 220.109 30.9299C220.109 31.5106 220.457 32.0099 220.955 32.232L220.356 33.6901C218.482 32.9307 216.475 32.4985 214.404 32.4238L214.469 30.4261C214.484 30.4266 214.499 30.4273 214.514 30.4273C215.302 30.4273 215.94 29.7891 215.94 29.002C215.94 28.2149 215.301 27.5765 214.514 27.5765C213.727 27.5765 213.089 28.2147 213.089 29.002C213.089 29.7201 213.62 30.314 214.311 30.4127L214.246 32.4191C214.083 32.4147 213.919 32.4121 213.755 32.4121C211.761 32.4121 209.818 32.7422 207.988 33.3763L207.413 31.7459C207.932 31.5325 208.297 31.0227 208.297 30.4274C208.297 29.6402 207.659 29.0021 206.872 29.0021C206.085 29.0021 205.446 29.6403 205.446 30.4274C205.446 31.2145 206.085 31.8528 206.872 31.8528C207.008 31.8528 207.139 31.8333 207.264 31.7978L207.839 33.4288C205.62 34.2205 203.57 35.4615 201.803 37.1052L200.762 35.9936C200.995 35.7399 201.137 35.4015 201.137 35.03C201.137 34.2427 200.499 33.6045 199.712 33.6045C198.925 33.6045 198.286 34.2427 198.286 35.03C198.286 35.8172 198.925 36.4553 199.712 36.4553C200.07 36.4553 200.398 36.3226 200.648 36.104L201.688 37.2137C201.569 37.3261 201.452 37.4403 201.336 37.5563C199.866 39.026 198.689 40.7104 197.834 42.5386L196.51 41.9275C196.558 41.7848 196.585 41.6322 196.585 41.4735C196.585 40.6863 195.946 40.0482 195.159 40.0482C194.372 40.0482 193.733 40.6861 193.733 41.4733C193.733 42.2604 194.371 42.8986 195.158 42.8986C195.731 42.8986 196.224 42.5611 196.451 42.0745L197.767 42.6819C196.822 44.7497 196.287 46.9979 196.203 49.3252L194.504 49.2701C194.483 48.5012 193.853 47.8843 193.079 47.8843C192.292 47.8843 191.654 48.5225 191.654 49.3096C191.654 50.0969 192.292 50.7349 193.079 50.7349C193.827 50.7349 194.439 50.1599 194.499 49.4284L196.198 49.4835C196.193 49.6471 196.191 49.8108 196.191 49.975C196.191 52.0525 196.55 54.0749 197.237 55.9719L195.842 56.4854C195.623 55.9799 195.12 55.6261 194.534 55.6261C193.747 55.6261 193.109 56.2643 193.109 57.0514C193.109 57.8386 193.747 58.4767 194.534 58.4767C195.321 58.4767 195.96 57.8385 195.96 57.0514C195.96 56.9061 195.938 56.766 195.897 56.6339L197.291 56.1205C198.086 58.2515 199.297 60.2204 200.884 61.9262L199.793 62.9487C199.537 62.7043 199.191 62.5539 198.809 62.5539C198.021 62.5539 197.383 63.1921 197.383 63.9794C197.383 64.7666 198.022 65.4047 198.809 65.4047C199.596 65.4047 200.234 64.7665 200.234 63.9794C200.234 63.6309 200.109 63.3118 199.901 63.0641L200.992 62.0416C201.105 62.1603 201.219 62.2779 201.335 62.394C202.448 63.5069 203.684 64.4516 205.012 65.2163L196.418 81.0574H194.875V81.5103H194.12V82.4098H233.388V81.5103H232.633V81.0574H231.09L222.496 65.2163C223.641 64.5572 224.717 63.7642 225.705 62.8451L227.098 64.3313C226.799 64.5926 226.61 64.9764 226.61 65.4047C226.61 66.1919 227.248 66.83 228.035 66.83C228.822 66.83 229.461 66.1918 229.461 65.4047C229.461 64.6176 228.822 63.9794 228.035 63.9794C227.734 63.9794 227.454 64.0734 227.223 64.2335L225.821 62.7366C225.939 62.6242 226.057 62.5101 226.173 62.394C227.643 60.9243 228.82 59.2399 229.675 57.4118L231.226 58.1277C231.198 58.2395 231.183 58.3563 231.183 58.4768C231.183 59.264 231.821 59.9021 232.608 59.9021C233.395 59.9021 234.033 59.2639 234.033 58.4768C234.033 57.6896 233.395 57.0515 232.608 57.0515C231.997 57.0515 231.477 57.4357 231.274 57.9755L229.742 57.2682C230.686 55.2004 231.221 52.9522 231.305 50.6248L232.975 50.6791C232.996 51.4485 233.625 52.0659 234.399 52.0659C235.187 52.0659 235.825 51.4277 235.825 50.6404C235.825 49.8533 235.187 49.2151 234.4 49.2151ZM230.842 49.9751C230.842 50.134 230.84 50.2927 230.835 50.451L225.918 50.2912C225.921 50.1862 225.922 50.0808 225.922 49.9751C225.922 48.5259 225.667 47.1353 225.2 45.8452L229.825 44.1423C230.493 45.9874 230.842 47.9545 230.842 49.9751ZM225.681 50.2836L214.711 49.927C214.708 49.8555 214.696 49.7861 214.678 49.7195L224.977 45.9274C225.435 47.1918 225.685 48.5549 225.685 49.9751C225.685 50.0782 225.683 50.1811 225.681 50.2836ZM201.828 49.6667L212.797 50.0233C212.801 50.0948 212.812 50.1642 212.831 50.2308L202.531 54.0229C202.074 52.7585 201.823 51.3956 201.823 49.9752C201.824 49.872 201.825 49.7692 201.828 49.6667ZM214.505 49.38L222.509 41.8798C223.547 43.0018 224.373 44.323 224.922 45.779L214.623 49.5709C214.591 49.5024 214.551 49.4385 214.505 49.38ZM214.397 49.2643C214.335 49.2082 214.265 49.1603 214.19 49.1218L218.359 38.9696C219.896 39.615 221.27 40.573 222.401 41.7639L214.397 49.2643ZM214.044 49.0615C213.986 49.0432 213.926 49.0304 213.864 49.0233L214.221 38.0546C215.627 38.109 216.971 38.4076 218.213 38.9096L214.044 49.0615ZM213.706 49.018C213.639 49.0213 213.574 49.0316 213.511 49.0479L209.863 38.6967C211.083 38.2746 212.392 38.0446 213.754 38.0446C213.857 38.0446 213.96 38.0458 214.062 38.0485L213.706 49.018ZM213.362 49.1008C213.289 49.1336 213.221 49.1752 213.159 49.2244L205.659 41.2202C206.821 40.145 208.196 39.2976 209.714 38.7496L213.362 49.1008ZM213.043 49.3325C212.996 49.3845 212.955 49.4417 212.92 49.5031L202.957 44.9037C203.593 43.5549 204.474 42.3436 205.543 41.328L213.043 49.3325ZM212.854 49.6467C212.828 49.7161 212.811 49.7893 212.802 49.865L201.834 49.5084C201.895 47.9231 202.266 46.4161 202.89 45.047L212.854 49.6467ZM212.885 50.3794C212.911 50.4346 212.942 50.4868 212.977 50.5357L212.912 50.6559L204.999 58.0705C203.961 56.9485 203.135 55.6273 202.586 54.1713L212.885 50.3794ZM212.672 51.0972L207.704 60.2541C206.745 59.6871 205.87 58.9899 205.107 58.1864L212.672 51.0972ZM213.213 50.7658C213.246 50.7888 213.281 50.8098 213.318 50.8284L209.149 60.9806C208.747 60.8119 208.357 60.6216 207.979 60.4117L213.213 50.7658ZM213.465 50.8888C213.522 50.9071 213.582 50.9199 213.644 50.927L213.287 61.8957C211.881 61.8413 210.537 61.5427 209.296 61.0406L213.465 50.8888ZM213.754 61.9056C213.651 61.9056 213.548 61.9043 213.446 61.9017L213.802 50.9322C213.869 50.9289 213.934 50.9186 213.997 50.9023L217.645 61.2535C216.425 61.6756 215.116 61.9056 213.754 61.9056ZM214.146 50.8495C214.199 50.8259 214.249 50.7979 214.296 50.7656L219.529 60.4117C218.976 60.7188 218.397 60.9834 217.795 61.2008L214.146 50.8495ZM215.027 51.4491L221.849 58.7303C221.225 59.3077 220.54 59.8193 219.804 60.2541L215.027 51.4491ZM214.728 50.8991L214.531 50.5357C214.552 50.5074 214.571 50.4778 214.588 50.4472L224.551 55.0466C223.915 56.3953 223.034 57.6067 221.965 58.6223L214.728 50.8991ZM214.655 50.3036C214.68 50.2343 214.697 50.1611 214.706 50.0853L225.675 50.4419C225.613 52.0272 225.242 53.5342 224.619 54.9033L214.655 50.3036ZM209.059 61.2004L207.186 65.7605C206.615 65.5229 206.057 65.2541 205.515 64.9546L207.866 60.6206C208.251 60.8345 208.649 61.0284 209.059 61.2004ZM209.205 61.2603C210.472 61.7729 211.844 62.0777 213.28 62.133L213.12 67.0516C211.107 66.9786 209.155 66.5585 207.333 65.8204L209.205 61.2603ZM213.438 62.1391C213.543 62.1418 213.648 62.1432 213.754 62.1432C215.144 62.1432 216.479 61.9084 217.724 61.4775L219.362 66.1257C217.583 66.7422 215.693 67.0631 213.754 67.0631C213.595 67.0631 213.436 67.0607 213.278 67.0564L213.438 62.1391ZM217.874 61.4248C218.487 61.2032 219.078 60.9335 219.642 60.6205L221.994 64.9545C221.197 65.3941 220.368 65.7681 219.512 66.0734L217.874 61.4248ZM229.771 43.9937L225.145 45.6968C224.585 44.2107 223.742 42.8624 222.682 41.7173L226.278 38.3486C227.82 40.0075 228.998 41.9219 229.771 43.9937ZM225.837 37.8921C225.95 38.0046 226.06 38.1184 226.169 38.2335L222.574 41.6016C221.42 40.3861 220.018 39.4085 218.449 38.75L220.322 34.1899C222.359 35.0376 224.23 36.2849 225.837 37.8921ZM220.176 34.1298L218.303 38.6899C217.036 38.1773 215.664 37.8724 214.228 37.8171L214.388 32.8986C216.402 32.9715 218.354 33.3917 220.176 34.1298ZM213.754 32.8871C213.913 32.8871 214.072 32.8895 214.23 32.8938L214.07 37.8112C213.965 37.8085 213.86 37.8071 213.754 37.8071C212.364 37.8071 211.029 38.0419 209.784 38.4728L208.146 33.8246C209.925 33.208 211.815 32.8871 213.754 32.8871ZM207.996 33.8769L209.635 38.5255C208.086 39.0845 206.682 39.9494 205.496 41.0468L202.128 37.4517C203.846 35.8536 205.838 34.647 207.996 33.8769ZM201.671 37.8921C201.783 37.7797 201.897 37.6692 202.012 37.5603L205.381 41.1547C204.289 42.1911 203.39 43.4275 202.741 44.8041L198.265 42.7377C199.097 40.9596 200.242 39.3215 201.671 37.8921ZM198.198 42.8813L202.674 44.9475C202.038 46.3447 201.659 47.8828 201.596 49.5007L196.678 49.3408C196.76 47.0778 197.28 44.892 198.198 42.8813ZM196.666 49.9751C196.666 49.816 196.668 49.6575 196.673 49.4991L201.59 49.659C201.588 49.764 201.586 49.8694 201.586 49.9751C201.586 51.4242 201.841 52.8149 202.308 54.1049L197.683 55.8077C197.015 53.9628 196.666 51.9958 196.666 49.9751ZM197.737 55.9565L202.363 54.2534C202.923 55.7395 203.766 57.0878 204.826 58.2329L201.231 61.6015C199.688 59.9428 198.51 58.0284 197.737 55.9565ZM201.671 62.0582C201.559 61.9458 201.448 61.8319 201.339 61.7169L204.934 58.3487C205.714 59.1707 206.609 59.8836 207.591 60.4629L205.239 64.7985C203.95 64.0556 202.751 63.1382 201.671 62.0582ZM230.73 81.0575H196.778L205.288 65.3722C205.846 65.6798 206.419 65.9561 207.006 66.2L206.405 67.6616C206.269 67.6184 206.124 67.5949 205.974 67.5949C205.186 67.5949 204.548 68.2331 204.548 69.0202C204.548 69.8074 205.186 70.4455 205.974 70.4455C206.761 70.4455 207.399 69.8073 207.399 69.0202C207.399 68.4395 207.051 67.9402 206.553 67.7181L207.152 66.2599C209.026 67.0194 211.034 67.4516 213.105 67.5263L213.056 69.021C212.284 69.0385 211.663 69.6693 211.663 70.4455C211.663 71.2327 212.302 71.8709 213.089 71.8709C213.876 71.8709 214.514 71.2327 214.514 70.4455C214.514 69.7006 213.942 69.0895 213.214 69.0259L213.263 67.5311C213.426 67.5355 213.59 67.5381 213.754 67.5381C215.748 67.5381 217.691 67.208 219.521 66.5739L220.033 68.0271C219.548 68.2545 219.212 68.747 219.212 69.318C219.212 70.1053 219.85 70.7434 220.637 70.7434C221.424 70.7434 222.062 70.1052 222.062 69.318C222.062 68.5308 221.424 67.8927 220.637 67.8927C220.477 67.8927 220.323 67.9195 220.18 67.9681L219.67 66.5216C220.549 66.208 221.401 65.8239 222.22 65.3722L230.73 81.0575ZM222.269 64.7986L219.917 60.4631C220.671 60.0183 221.373 59.4947 222.012 58.9035L225.38 62.4986C224.422 63.3896 223.379 64.1587 222.269 64.7986ZM225.837 62.0582C225.725 62.1707 225.611 62.2812 225.496 62.3901L222.128 58.7956C223.219 57.7592 224.118 56.5228 224.767 55.1462L229.243 57.2126C228.411 58.9907 227.267 60.6288 225.837 62.0582ZM229.31 57.069L224.834 55.0027C225.471 53.6055 225.85 52.0674 225.912 50.4495L230.831 50.6094C230.749 52.8725 230.228 55.0583 229.31 57.069Z" fill="url(#paint114_linear_4046_24684)"/>
<path d="M256.155 61.2008H237.84V88.0366H256.155V61.2008Z" fill="url(#paint115_linear_4046_24684)"/>
<path d="M271.791 71.6345H253.475V87.8855H271.791V71.6345Z" fill="url(#paint116_linear_4046_24684)"/>
<path d="M192.721 69.2479H182.446V82.8854H192.721V69.2479Z" fill="url(#paint117_linear_4046_24684)"/>
<path d="M259.952 35.6799H246.997V88.0368H259.952V35.6799Z" fill="url(#paint118_linear_4046_24684)"/>
<path d="M281.283 88.0367H264.196V57.4642H277.151L281.283 88.0367Z" fill="url(#paint119_linear_4046_24684)"/>
<path d="M288.766 81.0576H273.801V88.0367H288.766V81.0576Z" fill="url(#paint120_linear_4046_24684)"/>
<path d="M257.049 24.7418H256.602V38.9697H257.049V24.7418Z" fill="url(#paint121_linear_4046_24684)"/>
<path d="M258.556 27.7948H258.11V42.0227H258.556V27.7948Z" fill="url(#paint122_linear_4046_24684)"/>
<path d="M255.681 29.759H255.234V43.987H255.681V29.759Z" fill="url(#paint123_linear_4046_24684)"/>
<path d="M270.981 54.9933H264.866V59.8095H270.981V54.9933Z" fill="url(#paint124_linear_4046_24684)"/>
<path d="M270.311 53.2762H265.536V55.9834H270.311V53.2762Z" fill="url(#paint125_linear_4046_24684)"/>
<path d="M274.583 56.4039H273.41V58.3487H274.583V56.4039Z" fill="url(#paint126_linear_4046_24684)"/>
<path d="M276.673 54.6296H274.998V58.3487H276.673V54.6296Z" fill="url(#paint127_linear_4046_24684)"/>
<path d="M255.328 43.1984C255.328 42.9784 255.178 42.8 254.994 42.8C254.809 42.8 254.659 42.9784 254.659 43.1984C254.659 43.4183 254.809 43.5967 254.994 43.5967C255.178 43.5967 255.328 43.4185 255.328 43.1984Z" fill="url(#paint128_linear_4046_24684)"/>
<path d="M291.775 91.6143L289.699 77.7342H285.456V66.2167H285.98V65.1745H283.92V60.6881H283.669V65.1745H282.245V61.4992H281.993V65.1745H273.41V66.2167H273.996V89.5859H264.196V79.118H258.615V53.3952H259.125V52.133H258.011V50.5177H256.728V49.9105V48.0632V46.4605H255.18V43.5968H254.994H254.808V46.4605H253.973L253.469 48.0632H250.091V50.5177H241.251V52.133H240.137V53.3952H240.647V70.1313H233.251V86.5756L225.043 82.9392V66.9781H226.367V65.8055H224.038V62.6225H214.062V65.8055H210.804V62.6225H209.128V65.8055H207.453V62.6225H205.611V65.8055H201.758V66.9781H202.344V89.1008H198.602V88.8687H197.925V82.5644H198.602V82.0588H197.925V75.7544H198.602V75.2488H197.925V68.9445H198.602V68.4388H197.925V62.1345H198.602V61.6289H197.925V55.3245H198.602V54.8188H197.925V48.2945H199.085V47.7871H199.676V46.4039H188.657V44.8657H189.015V44.4213H183.016V44.8657H183.375V46.4039H180.644V47.7871H181.234V48.2945H182.394V54.8188H181.717V55.3245H182.394V61.6289H181.717V62.1345H182.394V68.4388H181.717V68.9445H182.394V75.2488H181.717V75.7544H182.394V82.0588H181.717V82.5644H182.394V88.8687H181.717V89.3745H182.394V94.5262H178.633V74.6187H163.5V89.1008H161.043V43.987H159.225V45.1482L155.871 45.9687V45.2144H154.053V46.4133L150.699 47.2339V46.3689H148.881V47.6785L145.527 48.499V47.7854H143.709V48.9436L140.355 49.7641V49.1493H138.537V93.4521H135.98V69.833H126.508V84.357H116.797V71.9715H115.601V67.9041H116.311V67.4955H113.169V66.2167H112.834V67.4955H111.828V60.9306H111.577V67.4955H110.268V67.9041H111.038V71.9715H104.63V81.4196H98.3905L95.1318 93.4521H88.5941V54.1662H79.9376V52.7589H80.4295V52.2649H73.8731V52.7589H74.3886V54.1662V56.4297V83.3355H70.307V73.1696H71.7579V72.2493H61.4876V66.1077H59.5283V64.8458H55.1552V66.1077H51.5967V88.0367H39.923V71.7728H30.0931V84.6188H21.5627V92.838H15.412V82.5053H7.32314V91.3149H0V106.299H7.32314H9.79839H13.8417H15.412H21.5627H30.0931H32.9597H34.4945H39.923H51.5967H55.1552H59.5283H61.4876H69.1493H70.307H74.3886H81.2336H84.6055H88.5941H104.63H108.333H114.584H116.797H126.674H129.327H138.537H139.446H140.355H143.709H145.527H148.881H150.401H150.699H154.053H155.871H158.755H159.225H160.134H161.043H163.5H176.009H177.795H178.633H182.394H189.015H195.076H197.925H202.344H213.318H224.922H225.043H233.251H237.84H240.647H242.421H256.155H258.615H261.556H264.196H273.996H281.283H282.775H285.456H301.761V91.6143H291.775Z" fill="url(#paint129_linear_4046_24684)"/>
<g opacity="0.52">
<path d="M53.3661 67.6998H52.6174V68.4485H53.3661V67.6998Z" fill="#96BFFF"/>
<path d="M54.87 67.6998H54.1213V68.4485H54.87V67.6998Z" fill="#96BFFF"/>
<path d="M53.3659 69.4586H52.6172V70.2073H53.3659V69.4586Z" fill="#96BFFF"/>
<path d="M54.87 69.4586H54.1213V70.2073H54.87V69.4586Z" fill="#96BFFF"/>
<path d="M53.3659 71.1589H52.6172V71.9076H53.3659V71.1589Z" fill="#96BFFF"/>
<path d="M56.5421 67.6998H55.7935V68.4485H56.5421V67.6998Z" fill="#96BFFF"/>
</g>
<path opacity="0.5" d="M107.92 45.2145H107.409V48.0409H107.92V45.2145Z" fill="#96BFFF"/>
<path opacity="0.5" d="M109.68 45.2145H109.169V48.0409H109.68V45.2145Z" fill="#96BFFF"/>
<path opacity="0.5" d="M111.439 45.2145H110.929V48.0409H111.439V45.2145Z" fill="#96BFFF"/>
<path opacity="0.5" d="M113.199 45.2145H112.688V48.0409H113.199V45.2145Z" fill="#96BFFF"/>
<path opacity="0.5" d="M114.959 45.2145H114.448V48.0409H114.959V45.2145Z" fill="#96BFFF"/>
<path opacity="0.5" d="M116.718 45.2145H116.208V48.0409H116.718V45.2145Z" fill="#96BFFF"/>
<path opacity="0.5" d="M118.478 45.2145H117.968V48.0409H118.478V45.2145Z" fill="#96BFFF"/>
<path opacity="0.5" d="M120.238 45.2145H119.727V48.0409H120.238V45.2145Z" fill="#96BFFF"/>
<path opacity="0.5" d="M121.998 45.2145H121.487V48.0409H121.998V45.2145Z" fill="#96BFFF"/>
<path opacity="0.5" d="M123.757 45.2145H123.247V48.0409H123.757V45.2145Z" fill="#96BFFF"/>
<path opacity="0.5" d="M125.517 45.2145H125.006V48.0409H125.517V45.2145Z" fill="#96BFFF"/>
<path opacity="0.5" d="M107.92 49.1494H107.409V51.9758H107.92V49.1494Z" fill="#96BFFF"/>
<path opacity="0.5" d="M109.68 49.1494H109.169V51.9758H109.68V49.1494Z" fill="#96BFFF"/>
<path opacity="0.5" d="M111.439 49.1494H110.929V51.9758H111.439V49.1494Z" fill="#96BFFF"/>
<path opacity="0.5" d="M113.199 49.1494H112.688V51.9758H113.199V49.1494Z" fill="#96BFFF"/>
<path opacity="0.5" d="M114.959 49.1494H114.448V51.9758H114.959V49.1494Z" fill="#96BFFF"/>
<path opacity="0.5" d="M116.718 49.1494H116.208V51.9758H116.718V49.1494Z" fill="#96BFFF"/>
<path opacity="0.5" d="M118.478 49.1494H117.968V51.9758H118.478V49.1494Z" fill="#96BFFF"/>
<path opacity="0.5" d="M120.238 49.1494H119.727V51.9758H120.238V49.1494Z" fill="#96BFFF"/>
<path opacity="0.5" d="M121.998 49.1494H121.487V51.9758H121.998V49.1494Z" fill="#96BFFF"/>
<path opacity="0.5" d="M123.757 49.1494H123.247V51.9758H123.757V49.1494Z" fill="#96BFFF"/>
<path opacity="0.5" d="M125.517 49.1494H125.006V51.9758H125.517V49.1494Z" fill="#96BFFF"/>
<path opacity="0.5" d="M107.92 53.0841H107.409V55.9105H107.92V53.0841Z" fill="#96BFFF"/>
<path opacity="0.5" d="M109.68 53.0841H109.169V55.9105H109.68V53.0841Z" fill="#96BFFF"/>
<path opacity="0.5" d="M111.439 53.0841H110.929V55.9105H111.439V53.0841Z" fill="#96BFFF"/>
<path opacity="0.5" d="M113.199 53.0841H112.688V55.9105H113.199V53.0841Z" fill="#96BFFF"/>
<path opacity="0.5" d="M114.959 53.0841H114.448V55.9105H114.959V53.0841Z" fill="#96BFFF"/>
<path opacity="0.5" d="M116.718 53.0841H116.208V55.9105H116.718V53.0841Z" fill="#96BFFF"/>
<path opacity="0.5" d="M118.478 53.0841H117.968V55.9105H118.478V53.0841Z" fill="#96BFFF"/>
<path opacity="0.5" d="M120.238 53.0841H119.727V55.9105H120.238V53.0841Z" fill="#96BFFF"/>
<path opacity="0.5" d="M121.998 53.0841H121.487V55.9105H121.998V53.0841Z" fill="#96BFFF"/>
<path opacity="0.5" d="M123.757 53.0841H123.247V55.9105H123.757V53.0841Z" fill="#96BFFF"/>
<path opacity="0.5" d="M125.517 53.0841H125.006V55.9105H125.517V53.0841Z" fill="#96BFFF"/>
<path opacity="0.5" d="M113.199 57.019H112.688V59.8454H113.199V57.019Z" fill="#96BFFF"/>
<path opacity="0.5" d="M114.959 57.019H114.448V59.8454H114.959V57.019Z" fill="#96BFFF"/>
<path opacity="0.5" d="M116.718 57.019H116.208V59.8454H116.718V57.019Z" fill="#96BFFF"/>
<path opacity="0.5" d="M118.478 57.019H117.968V59.8454H118.478V57.019Z" fill="#96BFFF"/>
<path opacity="0.5" d="M120.238 57.019H119.727V59.8454H120.238V57.019Z" fill="#96BFFF"/>
<path opacity="0.5" d="M121.998 57.019H121.487V59.8454H121.998V57.019Z" fill="#96BFFF"/>
<path opacity="0.5" d="M123.757 57.019H123.247V59.8454H123.757V57.019Z" fill="#96BFFF"/>
<path opacity="0.5" d="M125.517 57.019H125.006V59.8454H125.517V57.019Z" fill="#96BFFF"/>
<path opacity="0.5" d="M114.959 61.1721H114.448V63.9985H114.959V61.1721Z" fill="#96BFFF"/>
<path opacity="0.5" d="M116.718 61.1721H116.208V63.9985H116.718V61.1721Z" fill="#96BFFF"/>
<path opacity="0.5" d="M118.478 61.1721H117.968V63.9985H118.478V61.1721Z" fill="#96BFFF"/>
<path opacity="0.5" d="M120.238 61.1721H119.727V63.9985H120.238V61.1721Z" fill="#96BFFF"/>
<path opacity="0.5" d="M121.998 61.1721H121.487V63.9985H121.998V61.1721Z" fill="#96BFFF"/>
<path opacity="0.5" d="M123.757 61.1721H123.247V63.9985H123.757V61.1721Z" fill="#96BFFF"/>
<path opacity="0.5" d="M125.517 61.1721H125.006V63.9985H125.517V61.1721Z" fill="#96BFFF"/>
<path opacity="0.33" d="M142.635 52.2296H141.429V55.2891H142.635V52.2296Z" fill="#96BFFF"/>
<path opacity="0.33" d="M142.635 58.0818H141.429V61.1413H142.635V58.0818Z" fill="#96BFFF"/>
<path opacity="0.33" d="M142.635 63.9343H141.429V66.9939H142.635V63.9343Z" fill="#96BFFF"/>
<path opacity="0.33" d="M142.635 69.7865H141.429V72.846H142.635V69.7865Z" fill="#96BFFF"/>
<path opacity="0.33" d="M142.635 75.3041H141.429V78.3636H142.635V75.3041Z" fill="#96BFFF"/>
<path opacity="0.33" d="M142.635 81.1564H141.429V84.2159H142.635V81.1564Z" fill="#96BFFF"/>
<path opacity="0.33" d="M147.807 52.2296H146.601V55.2891H147.807V52.2296Z" fill="#96BFFF"/>
<path opacity="0.33" d="M147.807 58.0818H146.601V61.1413H147.807V58.0818Z" fill="#96BFFF"/>
<path opacity="0.33" d="M147.807 63.9343H146.601V66.9939H147.807V63.9343Z" fill="#96BFFF"/>
<path opacity="0.33" d="M147.807 69.7865H146.601V72.846H147.807V69.7865Z" fill="#96BFFF"/>
<path opacity="0.33" d="M147.807 75.3041H146.601V78.3636H147.807V75.3041Z" fill="#96BFFF"/>
<path opacity="0.33" d="M147.807 81.1564H146.601V84.2159H147.807V81.1564Z" fill="#96BFFF"/>
<path opacity="0.33" d="M152.979 52.2296H151.773V55.2891H152.979V52.2296Z" fill="#96BFFF"/>
<path opacity="0.33" d="M152.979 58.0818H151.773V61.1413H152.979V58.0818Z" fill="#96BFFF"/>
<path opacity="0.33" d="M152.979 63.9343H151.773V66.9939H152.979V63.9343Z" fill="#96BFFF"/>
<path opacity="0.33" d="M152.979 69.7865H151.773V72.846H152.979V69.7865Z" fill="#96BFFF"/>
<path opacity="0.33" d="M152.979 75.3041H151.773V78.3636H152.979V75.3041Z" fill="#96BFFF"/>
<path opacity="0.33" d="M152.979 81.1564H151.773V84.2159H152.979V81.1564Z" fill="#96BFFF"/>
<path opacity="0.33" d="M158.151 52.2296H156.945V55.2891H158.151V52.2296Z" fill="#96BFFF"/>
<path opacity="0.33" d="M158.151 58.0818H156.945V61.1413H158.151V58.0818Z" fill="#96BFFF"/>
<path opacity="0.33" d="M158.151 63.9343H156.945V66.9939H158.151V63.9343Z" fill="#96BFFF"/>
<path opacity="0.33" d="M158.151 69.7865H156.945V72.846H158.151V69.7865Z" fill="#96BFFF"/>
<path opacity="0.33" d="M158.151 75.3041H156.945V78.3636H158.151V75.3041Z" fill="#96BFFF"/>
<path opacity="0.33" d="M158.151 81.1564H156.945V84.2159H158.151V81.1564Z" fill="#96BFFF"/>
<path opacity="0.5" d="M123.001 9.56165H121.998V12.2392H123.001V9.56165Z" fill="#96BFFF"/>
<path opacity="0.5" d="M125.478 9.56165H124.474V12.2392H125.478V9.56165Z" fill="#96BFFF"/>
<path opacity="0.5" d="M127.955 9.56165H126.951V12.2392H127.955V9.56165Z" fill="#96BFFF"/>
<path opacity="0.5" d="M130.431 9.56165H129.427V12.2392H130.431V9.56165Z" fill="#96BFFF"/>
<path opacity="0.5" d="M123.001 14.0212H121.998V16.6988H123.001V14.0212Z" fill="#96BFFF"/>
<path opacity="0.5" d="M125.478 14.0212H124.474V16.6988H125.478V14.0212Z" fill="#96BFFF"/>
<path opacity="0.5" d="M127.955 14.0212H126.951V16.6988H127.955V14.0212Z" fill="#96BFFF"/>
<path opacity="0.5" d="M130.431 14.0212H129.427V16.6988H130.431V14.0212Z" fill="#96BFFF"/>
<path opacity="0.5" d="M123.001 18.4808H121.998V21.1584H123.001V18.4808Z" fill="#96BFFF"/>
<path opacity="0.5" d="M125.478 18.4808H124.474V21.1584H125.478V18.4808Z" fill="#96BFFF"/>
<path opacity="0.5" d="M133.24 9.56165H132.237V12.2392H133.24V9.56165Z" fill="#96BFFF"/>
<path opacity="0.4" d="M55.7933 36.6888H55.155V39.1434H55.7933V36.6888Z" fill="#96BFFF"/>
<path opacity="0.4" d="M58.046 36.6888H57.4077V39.1434H58.046V36.6888Z" fill="#96BFFF"/>
<path opacity="0.4" d="M60.6806 36.6888H60.0422V39.1434H60.6806V36.6888Z" fill="#96BFFF"/>
<path opacity="0.4" d="M62.933 36.6888H62.2947V39.1434H62.933V36.6888Z" fill="#96BFFF"/>
<path opacity="0.4" d="M50.7897 36.6888H50.1514V39.1434H50.7897V36.6888Z" fill="#96BFFF"/>
<path opacity="0.4" d="M53.0421 36.6888H52.4038V39.1434H53.0421V36.6888Z" fill="#96BFFF"/>
<path opacity="0.4" d="M55.7933 40.9512H55.155V43.4058H55.7933V40.9512Z" fill="#96BFFF"/>
<path opacity="0.4" d="M58.046 40.9512H57.4077V43.4058H58.046V40.9512Z" fill="#96BFFF"/>
<path opacity="0.4" d="M60.6806 40.9512H60.0422V43.4058H60.6806V40.9512Z" fill="#96BFFF"/>
<path opacity="0.4" d="M62.933 40.9512H62.2947V43.4058H62.933V40.9512Z" fill="#96BFFF"/>
<path opacity="0.4" d="M50.7897 40.9512H50.1514V43.4058H50.7897V40.9512Z" fill="#96BFFF"/>
<path opacity="0.4" d="M53.0421 40.9512H52.4038V43.4058H53.0421V40.9512Z" fill="#96BFFF"/>
<path opacity="0.4" d="M55.7933 45.2134H55.155V47.668H55.7933V45.2134Z" fill="#96BFFF"/>
<path opacity="0.4" d="M58.046 45.2134H57.4077V47.668H58.046V45.2134Z" fill="#96BFFF"/>
<path opacity="0.4" d="M60.6806 45.2134H60.0422V47.668H60.6806V45.2134Z" fill="#96BFFF"/>
<path opacity="0.4" d="M62.933 45.2134H62.2947V47.668H62.933V45.2134Z" fill="#96BFFF"/>
<path opacity="0.4" d="M50.7897 45.2134H50.1514V47.668H50.7897V45.2134Z" fill="#96BFFF"/>
<path opacity="0.4" d="M53.0421 45.2134H52.4038V47.668H53.0421V45.2134Z" fill="#96BFFF"/>
<path opacity="0.5" d="M175.264 55.5004H174.275V59.3071H175.264V55.5004Z" fill="#96BFFF"/>
<path opacity="0.5" d="M178.29 55.5004H177.301V59.3071H178.29V55.5004Z" fill="#96BFFF"/>
<path opacity="0.5" d="M181.138 55.5004H180.149V59.3071H181.138V55.5004Z" fill="#96BFFF"/>
<path opacity="0.33" d="M243.172 56.2916H242.421V58.4322H243.172V56.2916Z" fill="#96BFFF"/>
<path opacity="0.33" d="M245.525 56.2916H244.774V58.4322H245.525V56.2916Z" fill="#96BFFF"/>
<path opacity="0.33" d="M243.172 56.2916H242.421V58.4322H243.172V56.2916Z" fill="#96BFFF"/>
<path opacity="0.33" d="M245.525 56.2916H244.774V58.4322H245.525V56.2916Z" fill="#96BFFF"/>
<path opacity="0.33" d="M247.748 56.2916H246.997V58.4322H247.748V56.2916Z" fill="#96BFFF"/>
<path opacity="0.33" d="M250.101 56.2916H249.351V58.4322H250.101V56.2916Z" fill="#96BFFF"/>
<path opacity="0.33" d="M243.172 60.1305H242.421V62.2711H243.172V60.1305Z" fill="#96BFFF"/>
<path opacity="0.33" d="M245.525 60.1305H244.774V62.2711H245.525V60.1305Z" fill="#96BFFF"/>
<path opacity="0.33" d="M243.172 60.1305H242.421V62.2711H243.172V60.1305Z" fill="#96BFFF"/>
<path opacity="0.33" d="M245.525 60.1305H244.774V62.2711H245.525V60.1305Z" fill="#96BFFF"/>
<path opacity="0.33" d="M247.748 60.1305H246.997V62.2711H247.748V60.1305Z" fill="#96BFFF"/>
<path opacity="0.33" d="M250.101 60.1305H249.351V62.2711H250.101V60.1305Z" fill="#96BFFF"/>
<path opacity="0.33" d="M243.172 64.2163H242.421V66.3569H243.172V64.2163Z" fill="#96BFFF"/>
<path opacity="0.33" d="M245.525 64.2163H244.774V66.3569H245.525V64.2163Z" fill="#96BFFF"/>
<path opacity="0.33" d="M243.172 64.2163H242.421V66.3569H243.172V64.2163Z" fill="#96BFFF"/>
<path opacity="0.33" d="M245.525 64.2163H244.774V66.3569H245.525V64.2163Z" fill="#96BFFF"/>
<path opacity="0.33" d="M247.748 64.2163H246.997V66.3569H247.748V64.2163Z" fill="#96BFFF"/>
<path opacity="0.33" d="M250.101 64.2163H249.351V66.3569H250.101V64.2163Z" fill="#96BFFF"/>
<path opacity="0.33" d="M252.674 56.2916H251.923V58.4322H252.674V56.2916Z" fill="#96BFFF"/>
<path opacity="0.33" d="M252.674 60.1305H251.923V62.2711H252.674V60.1305Z" fill="#96BFFF"/>
<path opacity="0.33" d="M255.027 56.2916H254.276V58.4322H255.027V56.2916Z" fill="#96BFFF"/>
<path opacity="0.33" d="M184.599 49.9387H183.792V53.2762H184.599V49.9387Z" fill="#96BFFF"/>
<path opacity="0.33" d="M188.612 49.9387H187.805V53.2762H188.612V49.9387Z" fill="#96BFFF"/>
<path opacity="0.33" d="M192.624 49.9387H191.818V53.2762H192.624V49.9387Z" fill="#96BFFF"/>
<path opacity="0.33" d="M196.637 49.9387H195.831V53.2762H196.637V49.9387Z" fill="#96BFFF"/>
<path opacity="0.33" d="M184.599 56.8079H183.792V60.1453H184.599V56.8079Z" fill="#96BFFF"/>
<path opacity="0.33" d="M188.612 56.8079H187.805V60.1453H188.612V56.8079Z" fill="#96BFFF"/>
<path opacity="0.33" d="M192.624 56.8079H191.818V60.1453H192.624V56.8079Z" fill="#96BFFF"/>
<path opacity="0.33" d="M196.637 56.8079H195.831V60.1453H196.637V56.8079Z" fill="#96BFFF"/>
<path opacity="0.33" d="M184.599 63.8481H183.792V67.1856H184.599V63.8481Z" fill="#96BFFF"/>
<path opacity="0.33" d="M188.612 63.8481H187.805V67.1856H188.612V63.8481Z" fill="#96BFFF"/>
<path opacity="0.33" d="M192.624 63.8481H191.818V67.1856H192.624V63.8481Z" fill="#96BFFF"/>
<path opacity="0.33" d="M196.637 63.8481H195.831V67.1856H196.637V63.8481Z" fill="#96BFFF"/>
<path opacity="0.33" d="M184.599 70.8883H183.792V74.2258H184.599V70.8883Z" fill="#96BFFF"/>
<path opacity="0.33" d="M188.612 70.8883H187.805V74.2258H188.612V70.8883Z" fill="#96BFFF"/>
<path opacity="0.33" d="M192.624 70.8883H191.818V74.2258H192.624V70.8883Z" fill="#96BFFF"/>
<path opacity="0.33" d="M196.637 70.8883H195.831V74.2258H196.637V70.8883Z" fill="#96BFFF"/>
<path opacity="0.33" d="M184.599 77.2832H183.792V80.6207H184.599V77.2832Z" fill="#96BFFF"/>
<path opacity="0.33" d="M188.612 77.2832H187.805V80.6207H188.612V77.2832Z" fill="#96BFFF"/>
<path opacity="0.33" d="M192.624 77.2832H191.818V80.6207H192.624V77.2832Z" fill="#96BFFF"/>
<path opacity="0.33" d="M184.599 84.416H183.792V87.7535H184.599V84.416Z" fill="#96BFFF"/>
<path opacity="0.33" d="M188.612 84.416H187.805V87.7535H188.612V84.416Z" fill="#96BFFF"/>
<path opacity="0.33" d="M192.624 84.416H191.818V87.7535H192.624V84.416Z" fill="#96BFFF"/>
<path opacity="0.33" d="M196.637 77.2832H195.831V80.6207H196.637V77.2832Z" fill="#96BFFF"/>
<path opacity="0.33" d="M275.835 67.5839H275.011V69.4996H275.835V67.5839Z" fill="#96BFFF"/>
<path opacity="0.33" d="M275.835 70.6766H275.011V72.5923H275.835V70.6766Z" fill="#96BFFF"/>
<path opacity="0.33" d="M277.95 67.5839H277.125V69.4996H277.95V67.5839Z" fill="#96BFFF"/>
<path d="M173.397 85.4601C173.397 89.5899 162.989 92.9377 150.149 92.9377C137.309 92.9377 126.9 89.5899 126.9 85.4601C126.9 81.3302 137.309 77.9824 150.149 77.9824C162.989 77.9824 173.397 81.3302 173.397 85.4601Z" fill="#2372EC"/>
<g opacity="0.499172">
<path d="M164.718 84.4775C164.718 86.6793 158.293 88.4643 150.366 88.4643C142.439 88.4643 136.014 86.6793 136.014 84.4775C136.014 82.2757 142.439 80.4907 150.366 80.4907C158.293 80.4907 164.718 82.2757 164.718 84.4775Z" fill="#96BFFF"/>
</g>
<path d="M148.857 82.2416C147.959 81.2592 126.88 57.9986 126.88 42.1541C126.881 29.387 137.447 19 150.435 19C163.423 19 173.989 29.387 173.989 42.1541C173.989 57.9986 152.91 81.2592 152.013 82.2416C151.17 83.1647 149.698 83.1631 148.857 82.2416Z" fill="#FF5652"/>
<path d="M150.435 56.1412C143.477 56.1412 137.816 50.4806 137.816 43.5228C137.816 36.565 143.477 30.9044 150.435 30.9044C157.392 30.9044 163.053 36.565 163.053 43.5228C163.053 50.4806 157.392 56.1412 150.435 56.1412Z" fill="#EEEEEE"/>
<defs>
<linearGradient id="paint0_linear_4046_24684" x1="89.0876" y1="31.8066" x2="89.0876" y2="84.809" gradientUnits="userSpaceOnUse">
<stop stop-color="#F2F7FF"/>
<stop offset="0.735577" stop-color="white" stop-opacity="0"/>
</linearGradient>
<linearGradient id="paint1_linear_4046_24684" x1="89.0876" y1="28.0068" x2="89.0876" y2="50.2801" gradientUnits="userSpaceOnUse">
<stop stop-color="#F2F7FF"/>
<stop offset="0.735577" stop-color="white" stop-opacity="0"/>
</linearGradient>
<linearGradient id="paint2_linear_4046_24684" x1="89.0875" y1="25.5964" x2="89.0875" y2="37.951" gradientUnits="userSpaceOnUse">
<stop stop-color="#F2F7FF"/>
<stop offset="0.735577" stop-color="white" stop-opacity="0"/>
</linearGradient>
<linearGradient id="paint3_linear_4046_24684" x1="89.0876" y1="23.5254" x2="89.0876" y2="31.9449" gradientUnits="userSpaceOnUse">
<stop stop-color="#F2F7FF"/>
<stop offset="0.735577" stop-color="white" stop-opacity="0"/>
</linearGradient>
<linearGradient id="paint4_linear_4046_24684" x1="88.6806" y1="19.859" x2="88.6806" y2="28.2785" gradientUnits="userSpaceOnUse">
<stop stop-color="#F2F7FF"/>
<stop offset="0.735577" stop-color="white" stop-opacity="0"/>
</linearGradient>
<linearGradient id="paint5_linear_4046_24684" x1="89.4946" y1="16.9486" x2="89.4946" y2="25.3681" gradientUnits="userSpaceOnUse">
<stop stop-color="#F2F7FF"/>
<stop offset="0.735577" stop-color="white" stop-opacity="0"/>
</linearGradient>
<linearGradient id="paint6_linear_4046_24684" x1="89.0876" y1="31.671" x2="89.0876" y2="32.2353" gradientUnits="userSpaceOnUse">
<stop stop-color="#F2F7FF"/>
<stop offset="0.735577" stop-color="white" stop-opacity="0"/>
</linearGradient>
<linearGradient id="paint7_linear_4046_24684" x1="89.0875" y1="27.7351" x2="89.0875" y2="28.2785" gradientUnits="userSpaceOnUse">
<stop stop-color="#F2F7FF"/>
<stop offset="0.735577" stop-color="white" stop-opacity="0"/>
</linearGradient>
<linearGradient id="paint8_linear_4046_24684" x1="89.0106" y1="25.368" x2="89.0106" y2="25.7849" gradientUnits="userSpaceOnUse">
<stop stop-color="#F2F7FF"/>
<stop offset="0.735577" stop-color="white" stop-opacity="0"/>
</linearGradient>
<linearGradient id="paint9_linear_4046_24684" x1="85.6383" y1="28.9106" x2="85.6383" y2="31.2446" gradientUnits="userSpaceOnUse">
<stop stop-color="#F2F7FF"/>
<stop offset="0.735577" stop-color="white" stop-opacity="0"/>
</linearGradient>
<linearGradient id="paint10_linear_4046_24684" x1="86.7912" y1="28.9106" x2="86.7912" y2="31.2446" gradientUnits="userSpaceOnUse">
<stop stop-color="#F2F7FF"/>
<stop offset="0.735577" stop-color="white" stop-opacity="0"/>
</linearGradient>
<linearGradient id="paint11_linear_4046_24684" x1="87.9443" y1="28.9106" x2="87.9443" y2="31.2446" gradientUnits="userSpaceOnUse">
<stop stop-color="#F2F7FF"/>
<stop offset="0.735577" stop-color="white" stop-opacity="0"/>
</linearGradient>
<linearGradient id="paint12_linear_4046_24684" x1="89.0976" y1="28.9106" x2="89.0976" y2="31.2446" gradientUnits="userSpaceOnUse">
<stop stop-color="#F2F7FF"/>
<stop offset="0.735577" stop-color="white" stop-opacity="0"/>
</linearGradient>
<linearGradient id="paint13_linear_4046_24684" x1="90.2507" y1="28.9106" x2="90.2507" y2="31.2446" gradientUnits="userSpaceOnUse">
<stop stop-color="#F2F7FF"/>
<stop offset="0.735577" stop-color="white" stop-opacity="0"/>
</linearGradient>
<linearGradient id="paint14_linear_4046_24684" x1="91.4037" y1="28.9106" x2="91.4037" y2="31.2446" gradientUnits="userSpaceOnUse">
<stop stop-color="#F2F7FF"/>
<stop offset="0.735577" stop-color="white" stop-opacity="0"/>
</linearGradient>
<linearGradient id="paint15_linear_4046_24684" x1="92.5568" y1="28.9106" x2="92.5568" y2="31.2446" gradientUnits="userSpaceOnUse">
<stop stop-color="#F2F7FF"/>
<stop offset="0.735577" stop-color="white" stop-opacity="0"/>
</linearGradient>
<linearGradient id="paint16_linear_4046_24684" x1="84.1019" y1="33.9199" x2="84.1019" y2="36.6888" gradientUnits="userSpaceOnUse">
<stop stop-color="#F2F7FF"/>
<stop offset="0.735577" stop-color="white" stop-opacity="0"/>
</linearGradient>
<linearGradient id="paint17_linear_4046_24684" x1="86.0962" y1="33.9199" x2="86.0962" y2="36.6888" gradientUnits="userSpaceOnUse">
<stop stop-color="#F2F7FF"/>
<stop offset="0.735577" stop-color="white" stop-opacity="0"/>
</linearGradient>
<linearGradient id="paint18_linear_4046_24684" x1="88.0904" y1="33.9199" x2="88.0904" y2="36.6888" gradientUnits="userSpaceOnUse">
<stop stop-color="#F2F7FF"/>
<stop offset="0.735577" stop-color="white" stop-opacity="0"/>
</linearGradient>
<linearGradient id="paint19_linear_4046_24684" x1="90.0845" y1="33.9199" x2="90.0845" y2="36.6888" gradientUnits="userSpaceOnUse">
<stop stop-color="#F2F7FF"/>
<stop offset="0.735577" stop-color="white" stop-opacity="0"/>
</linearGradient>
<linearGradient id="paint20_linear_4046_24684" x1="92.0789" y1="33.9199" x2="92.0789" y2="36.6888" gradientUnits="userSpaceOnUse">
<stop stop-color="#F2F7FF"/>
<stop offset="0.735577" stop-color="white" stop-opacity="0"/>
</linearGradient>
<linearGradient id="paint21_linear_4046_24684" x1="94.0733" y1="33.9199" x2="94.0733" y2="36.6888" gradientUnits="userSpaceOnUse">
<stop stop-color="#F2F7FF"/>
<stop offset="0.735577" stop-color="white" stop-opacity="0"/>
</linearGradient>
<linearGradient id="paint22_linear_4046_24684" x1="84.1019" y1="38.2361" x2="84.1019" y2="41.005" gradientUnits="userSpaceOnUse">
<stop stop-color="#F2F7FF"/>
<stop offset="0.735577" stop-color="white" stop-opacity="0"/>
</linearGradient>
<linearGradient id="paint23_linear_4046_24684" x1="86.0962" y1="38.2361" x2="86.0962" y2="41.005" gradientUnits="userSpaceOnUse">
<stop stop-color="#F2F7FF"/>
<stop offset="0.735577" stop-color="white" stop-opacity="0"/>
</linearGradient>
<linearGradient id="paint24_linear_4046_24684" x1="88.0904" y1="38.2361" x2="88.0904" y2="41.005" gradientUnits="userSpaceOnUse">
<stop stop-color="#F2F7FF"/>
<stop offset="0.735577" stop-color="white" stop-opacity="0"/>
</linearGradient>
<linearGradient id="paint25_linear_4046_24684" x1="90.0845" y1="38.2361" x2="90.0845" y2="41.005" gradientUnits="userSpaceOnUse">
<stop stop-color="#F2F7FF"/>
<stop offset="0.735577" stop-color="white" stop-opacity="0"/>
</linearGradient>
<linearGradient id="paint26_linear_4046_24684" x1="92.0789" y1="38.2361" x2="92.0789" y2="41.005" gradientUnits="userSpaceOnUse">
<stop stop-color="#F2F7FF"/>
<stop offset="0.735577" stop-color="white" stop-opacity="0"/>
</linearGradient>
<linearGradient id="paint27_linear_4046_24684" x1="94.0733" y1="38.2361" x2="94.0733" y2="41.005" gradientUnits="userSpaceOnUse">
<stop stop-color="#F2F7FF"/>
<stop offset="0.735577" stop-color="white" stop-opacity="0"/>
</linearGradient>
<linearGradient id="paint28_linear_4046_24684" x1="84.1019" y1="42.552" x2="84.1019" y2="45.3209" gradientUnits="userSpaceOnUse">
<stop stop-color="#F2F7FF"/>
<stop offset="0.735577" stop-color="white" stop-opacity="0"/>
</linearGradient>
<linearGradient id="paint29_linear_4046_24684" x1="86.0962" y1="42.552" x2="86.0962" y2="45.3209" gradientUnits="userSpaceOnUse">
<stop stop-color="#F2F7FF"/>
<stop offset="0.735577" stop-color="white" stop-opacity="0"/>
</linearGradient>
<linearGradient id="paint30_linear_4046_24684" x1="88.0904" y1="42.552" x2="88.0904" y2="45.3209" gradientUnits="userSpaceOnUse">
<stop stop-color="#F2F7FF"/>
<stop offset="0.735577" stop-color="white" stop-opacity="0"/>
</linearGradient>
<linearGradient id="paint31_linear_4046_24684" x1="90.0845" y1="42.552" x2="90.0845" y2="45.3209" gradientUnits="userSpaceOnUse">
<stop stop-color="#F2F7FF"/>
<stop offset="0.735577" stop-color="white" stop-opacity="0"/>
</linearGradient>
<linearGradient id="paint32_linear_4046_24684" x1="92.0789" y1="42.552" x2="92.0789" y2="45.3209" gradientUnits="userSpaceOnUse">
<stop stop-color="#F2F7FF"/>
<stop offset="0.735577" stop-color="white" stop-opacity="0"/>
</linearGradient>
<linearGradient id="paint33_linear_4046_24684" x1="94.0733" y1="42.552" x2="94.0733" y2="45.3209" gradientUnits="userSpaceOnUse">
<stop stop-color="#F2F7FF"/>
<stop offset="0.735577" stop-color="white" stop-opacity="0"/>
</linearGradient>
<linearGradient id="paint34_linear_4046_24684" x1="84.1019" y1="46.8682" x2="84.1019" y2="49.6371" gradientUnits="userSpaceOnUse">
<stop stop-color="#F2F7FF"/>
<stop offset="0.735577" stop-color="white" stop-opacity="0"/>
</linearGradient>
<linearGradient id="paint35_linear_4046_24684" x1="86.0962" y1="46.8682" x2="86.0962" y2="49.6371" gradientUnits="userSpaceOnUse">
<stop stop-color="#F2F7FF"/>
<stop offset="0.735577" stop-color="white" stop-opacity="0"/>
</linearGradient>
<linearGradient id="paint36_linear_4046_24684" x1="88.0904" y1="46.8682" x2="88.0904" y2="49.6371" gradientUnits="userSpaceOnUse">
<stop stop-color="#F2F7FF"/>
<stop offset="0.735577" stop-color="white" stop-opacity="0"/>
</linearGradient>
<linearGradient id="paint37_linear_4046_24684" x1="90.0845" y1="46.8682" x2="90.0845" y2="49.6371" gradientUnits="userSpaceOnUse">
<stop stop-color="#F2F7FF"/>
<stop offset="0.735577" stop-color="white" stop-opacity="0"/>
</linearGradient>
<linearGradient id="paint38_linear_4046_24684" x1="92.0789" y1="46.8682" x2="92.0789" y2="49.6371" gradientUnits="userSpaceOnUse">
<stop stop-color="#F2F7FF"/>
<stop offset="0.735577" stop-color="white" stop-opacity="0"/>
</linearGradient>
<linearGradient id="paint39_linear_4046_24684" x1="94.0733" y1="46.8682" x2="94.0733" y2="49.6371" gradientUnits="userSpaceOnUse">
<stop stop-color="#F2F7FF"/>
<stop offset="0.735577" stop-color="white" stop-opacity="0"/>
</linearGradient>
<linearGradient id="paint40_linear_4046_24684" x1="84.1019" y1="51.1842" x2="84.1019" y2="53.9531" gradientUnits="userSpaceOnUse">
<stop stop-color="#F2F7FF"/>
<stop offset="0.735577" stop-color="white" stop-opacity="0"/>
</linearGradient>
<linearGradient id="paint41_linear_4046_24684" x1="86.0962" y1="51.1842" x2="86.0962" y2="53.9531" gradientUnits="userSpaceOnUse">
<stop stop-color="#F2F7FF"/>
<stop offset="0.735577" stop-color="white" stop-opacity="0"/>
</linearGradient>
<linearGradient id="paint42_linear_4046_24684" x1="88.0904" y1="51.1842" x2="88.0904" y2="53.9531" gradientUnits="userSpaceOnUse">
<stop stop-color="#F2F7FF"/>
<stop offset="0.735577" stop-color="white" stop-opacity="0"/>
</linearGradient>
<linearGradient id="paint43_linear_4046_24684" x1="90.0845" y1="51.1842" x2="90.0845" y2="53.9531" gradientUnits="userSpaceOnUse">
<stop stop-color="#F2F7FF"/>
<stop offset="0.735577" stop-color="white" stop-opacity="0"/>
</linearGradient>
<linearGradient id="paint44_linear_4046_24684" x1="92.0789" y1="51.1842" x2="92.0789" y2="53.9531" gradientUnits="userSpaceOnUse">
<stop stop-color="#F2F7FF"/>
<stop offset="0.735577" stop-color="white" stop-opacity="0"/>
</linearGradient>
<linearGradient id="paint45_linear_4046_24684" x1="94.0733" y1="51.1842" x2="94.0733" y2="53.9531" gradientUnits="userSpaceOnUse">
<stop stop-color="#F2F7FF"/>
<stop offset="0.735577" stop-color="white" stop-opacity="0"/>
</linearGradient>
<linearGradient id="paint46_linear_4046_24684" x1="84.1019" y1="55.5002" x2="84.1019" y2="58.2692" gradientUnits="userSpaceOnUse">
<stop stop-color="#F2F7FF"/>
<stop offset="0.735577" stop-color="white" stop-opacity="0"/>
</linearGradient>
<linearGradient id="paint47_linear_4046_24684" x1="86.0962" y1="55.5002" x2="86.0962" y2="58.2692" gradientUnits="userSpaceOnUse">
<stop stop-color="#F2F7FF"/>
<stop offset="0.735577" stop-color="white" stop-opacity="0"/>
</linearGradient>
<linearGradient id="paint48_linear_4046_24684" x1="88.0904" y1="55.5002" x2="88.0904" y2="58.2692" gradientUnits="userSpaceOnUse">
<stop stop-color="#F2F7FF"/>
<stop offset="0.735577" stop-color="white" stop-opacity="0"/>
</linearGradient>
<linearGradient id="paint49_linear_4046_24684" x1="90.0845" y1="55.5002" x2="90.0845" y2="58.2692" gradientUnits="userSpaceOnUse">
<stop stop-color="#F2F7FF"/>
<stop offset="0.735577" stop-color="white" stop-opacity="0"/>
</linearGradient>
<linearGradient id="paint50_linear_4046_24684" x1="92.0789" y1="55.5002" x2="92.0789" y2="58.2692" gradientUnits="userSpaceOnUse">
<stop stop-color="#F2F7FF"/>
<stop offset="0.735577" stop-color="white" stop-opacity="0"/>
</linearGradient>
<linearGradient id="paint51_linear_4046_24684" x1="94.0733" y1="55.5002" x2="94.0733" y2="58.2692" gradientUnits="userSpaceOnUse">
<stop stop-color="#F2F7FF"/>
<stop offset="0.735577" stop-color="white" stop-opacity="0"/>
</linearGradient>
<linearGradient id="paint52_linear_4046_24684" x1="84.1019" y1="59.8163" x2="84.1019" y2="62.5852" gradientUnits="userSpaceOnUse">
<stop stop-color="#F2F7FF"/>
<stop offset="0.735577" stop-color="white" stop-opacity="0"/>
</linearGradient>
<linearGradient id="paint53_linear_4046_24684" x1="86.0962" y1="59.8163" x2="86.0962" y2="62.5852" gradientUnits="userSpaceOnUse">
<stop stop-color="#F2F7FF"/>
<stop offset="0.735577" stop-color="white" stop-opacity="0"/>
</linearGradient>
<linearGradient id="paint54_linear_4046_24684" x1="88.0904" y1="59.8163" x2="88.0904" y2="62.5852" gradientUnits="userSpaceOnUse">
<stop stop-color="#F2F7FF"/>
<stop offset="0.735577" stop-color="white" stop-opacity="0"/>
</linearGradient>
<linearGradient id="paint55_linear_4046_24684" x1="90.0845" y1="59.8163" x2="90.0845" y2="62.5852" gradientUnits="userSpaceOnUse">
<stop stop-color="#F2F7FF"/>
<stop offset="0.735577" stop-color="white" stop-opacity="0"/>
</linearGradient>
<linearGradient id="paint56_linear_4046_24684" x1="92.0789" y1="59.8163" x2="92.0789" y2="62.5852" gradientUnits="userSpaceOnUse">
<stop stop-color="#F2F7FF"/>
<stop offset="0.735577" stop-color="white" stop-opacity="0"/>
</linearGradient>
<linearGradient id="paint57_linear_4046_24684" x1="94.0733" y1="59.8163" x2="94.0733" y2="62.5852" gradientUnits="userSpaceOnUse">
<stop stop-color="#F2F7FF"/>
<stop offset="0.735577" stop-color="white" stop-opacity="0"/>
</linearGradient>
<linearGradient id="paint58_linear_4046_24684" x1="84.1019" y1="64.1323" x2="84.1019" y2="66.9012" gradientUnits="userSpaceOnUse">
<stop stop-color="#F2F7FF"/>
<stop offset="0.735577" stop-color="white" stop-opacity="0"/>
</linearGradient>
<linearGradient id="paint59_linear_4046_24684" x1="86.0962" y1="64.1323" x2="86.0962" y2="66.9012" gradientUnits="userSpaceOnUse">
<stop stop-color="#F2F7FF"/>
<stop offset="0.735577" stop-color="white" stop-opacity="0"/>
</linearGradient>
<linearGradient id="paint60_linear_4046_24684" x1="88.0904" y1="64.1323" x2="88.0904" y2="66.9012" gradientUnits="userSpaceOnUse">
<stop stop-color="#F2F7FF"/>
<stop offset="0.735577" stop-color="white" stop-opacity="0"/>
</linearGradient>
<linearGradient id="paint61_linear_4046_24684" x1="90.0845" y1="64.1323" x2="90.0845" y2="66.9012" gradientUnits="userSpaceOnUse">
<stop stop-color="#F2F7FF"/>
<stop offset="0.735577" stop-color="white" stop-opacity="0"/>
</linearGradient>
<linearGradient id="paint62_linear_4046_24684" x1="92.0789" y1="64.1323" x2="92.0789" y2="66.9012" gradientUnits="userSpaceOnUse">
<stop stop-color="#F2F7FF"/>
<stop offset="0.735577" stop-color="white" stop-opacity="0"/>
</linearGradient>
<linearGradient id="paint63_linear_4046_24684" x1="94.0733" y1="64.1323" x2="94.0733" y2="66.9012" gradientUnits="userSpaceOnUse">
<stop stop-color="#F2F7FF"/>
<stop offset="0.735577" stop-color="white" stop-opacity="0"/>
</linearGradient>
<linearGradient id="paint64_linear_4046_24684" x1="84.1019" y1="68.4485" x2="84.1019" y2="71.2174" gradientUnits="userSpaceOnUse">
<stop stop-color="#F2F7FF"/>
<stop offset="0.735577" stop-color="white" stop-opacity="0"/>
</linearGradient>
<linearGradient id="paint65_linear_4046_24684" x1="86.0962" y1="68.4485" x2="86.0962" y2="71.2174" gradientUnits="userSpaceOnUse">
<stop stop-color="#F2F7FF"/>
<stop offset="0.735577" stop-color="white" stop-opacity="0"/>
</linearGradient>
<linearGradient id="paint66_linear_4046_24684" x1="88.0904" y1="68.4485" x2="88.0904" y2="71.2174" gradientUnits="userSpaceOnUse">
<stop stop-color="#F2F7FF"/>
<stop offset="0.735577" stop-color="white" stop-opacity="0"/>
</linearGradient>
<linearGradient id="paint67_linear_4046_24684" x1="90.0845" y1="68.4485" x2="90.0845" y2="71.2174" gradientUnits="userSpaceOnUse">
<stop stop-color="#F2F7FF"/>
<stop offset="0.735577" stop-color="white" stop-opacity="0"/>
</linearGradient>
<linearGradient id="paint68_linear_4046_24684" x1="92.0789" y1="68.4485" x2="92.0789" y2="71.2174" gradientUnits="userSpaceOnUse">
<stop stop-color="#F2F7FF"/>
<stop offset="0.735577" stop-color="white" stop-opacity="0"/>
</linearGradient>
<linearGradient id="paint69_linear_4046_24684" x1="94.0733" y1="68.4485" x2="94.0733" y2="71.2174" gradientUnits="userSpaceOnUse">
<stop stop-color="#F2F7FF"/>
<stop offset="0.735577" stop-color="white" stop-opacity="0"/>
</linearGradient>
<linearGradient id="paint70_linear_4046_24684" x1="84.1019" y1="72.7645" x2="84.1019" y2="75.5334" gradientUnits="userSpaceOnUse">
<stop stop-color="#F2F7FF"/>
<stop offset="0.735577" stop-color="white" stop-opacity="0"/>
</linearGradient>
<linearGradient id="paint71_linear_4046_24684" x1="86.0962" y1="72.7645" x2="86.0962" y2="75.5334" gradientUnits="userSpaceOnUse">
<stop stop-color="#F2F7FF"/>
<stop offset="0.735577" stop-color="white" stop-opacity="0"/>
</linearGradient>
<linearGradient id="paint72_linear_4046_24684" x1="88.0904" y1="72.7645" x2="88.0904" y2="75.5334" gradientUnits="userSpaceOnUse">
<stop stop-color="#F2F7FF"/>
<stop offset="0.735577" stop-color="white" stop-opacity="0"/>
</linearGradient>
<linearGradient id="paint73_linear_4046_24684" x1="90.0845" y1="72.7645" x2="90.0845" y2="75.5334" gradientUnits="userSpaceOnUse">
<stop stop-color="#F2F7FF"/>
<stop offset="0.735577" stop-color="white" stop-opacity="0"/>
</linearGradient>
<linearGradient id="paint74_linear_4046_24684" x1="92.0789" y1="72.7645" x2="92.0789" y2="75.5334" gradientUnits="userSpaceOnUse">
<stop stop-color="#F2F7FF"/>
<stop offset="0.735577" stop-color="white" stop-opacity="0"/>
</linearGradient>
<linearGradient id="paint75_linear_4046_24684" x1="94.0733" y1="72.7645" x2="94.0733" y2="75.5334" gradientUnits="userSpaceOnUse">
<stop stop-color="#F2F7FF"/>
<stop offset="0.735577" stop-color="white" stop-opacity="0"/>
</linearGradient>
<linearGradient id="paint76_linear_4046_24684" x1="84.1019" y1="77.0807" x2="84.1019" y2="79.8496" gradientUnits="userSpaceOnUse">
<stop stop-color="#F2F7FF"/>
<stop offset="0.735577" stop-color="white" stop-opacity="0"/>
</linearGradient>
<linearGradient id="paint77_linear_4046_24684" x1="86.0962" y1="77.0807" x2="86.0962" y2="79.8496" gradientUnits="userSpaceOnUse">
<stop stop-color="#F2F7FF"/>
<stop offset="0.735577" stop-color="white" stop-opacity="0"/>
</linearGradient>
<linearGradient id="paint78_linear_4046_24684" x1="88.0904" y1="77.0807" x2="88.0904" y2="79.8496" gradientUnits="userSpaceOnUse">
<stop stop-color="#F2F7FF"/>
<stop offset="0.735577" stop-color="white" stop-opacity="0"/>
</linearGradient>
<linearGradient id="paint79_linear_4046_24684" x1="90.0845" y1="77.0807" x2="90.0845" y2="79.8496" gradientUnits="userSpaceOnUse">
<stop stop-color="#F2F7FF"/>
<stop offset="0.735577" stop-color="white" stop-opacity="0"/>
</linearGradient>
<linearGradient id="paint80_linear_4046_24684" x1="92.0789" y1="77.0807" x2="92.0789" y2="79.8496" gradientUnits="userSpaceOnUse">
<stop stop-color="#F2F7FF"/>
<stop offset="0.735577" stop-color="white" stop-opacity="0"/>
</linearGradient>
<linearGradient id="paint81_linear_4046_24684" x1="94.0733" y1="77.0807" x2="94.0733" y2="79.8496" gradientUnits="userSpaceOnUse">
<stop stop-color="#F2F7FF"/>
<stop offset="0.735577" stop-color="white" stop-opacity="0"/>
</linearGradient>
<linearGradient id="paint82_linear_4046_24684" x1="54.46" y1="33.8229" x2="54.46" y2="78.4726" gradientUnits="userSpaceOnUse">
<stop stop-color="#F2F7FF"/>
<stop offset="0.735577" stop-color="white" stop-opacity="0"/>
</linearGradient>
<linearGradient id="paint83_linear_4046_24684" x1="54.4601" y1="33.0551" x2="54.4601" y2="34.3172" gradientUnits="userSpaceOnUse">
<stop stop-color="#F2F7FF"/>
<stop offset="0.735577" stop-color="white" stop-opacity="0"/>
</linearGradient>
<linearGradient id="paint84_linear_4046_24684" x1="54.4603" y1="31.4398" x2="54.4603" y2="37.4383" gradientUnits="userSpaceOnUse">
<stop stop-color="#F2F7FF"/>
<stop offset="0.735577" stop-color="white" stop-opacity="0"/>
</linearGradient>
<linearGradient id="paint85_linear_4046_24684" x1="49.9586" y1="28.9852" x2="49.9586" y2="35.5393" gradientUnits="userSpaceOnUse">
<stop stop-color="#F2F7FF"/>
<stop offset="0.735577" stop-color="white" stop-opacity="0"/>
</linearGradient>
<linearGradient id="paint86_linear_4046_24684" x1="48.2931" y1="27.3823" x2="48.2931" y2="30.8324" gradientUnits="userSpaceOnUse">
<stop stop-color="#F2F7FF"/>
<stop offset="0.735577" stop-color="white" stop-opacity="0"/>
</linearGradient>
<linearGradient id="paint87_linear_4046_24684" x1="48.0714" y1="24.5187" x2="48.0714" y2="32.2035" gradientUnits="userSpaceOnUse">
<stop stop-color="#F2F7FF"/>
<stop offset="0.735577" stop-color="white" stop-opacity="0"/>
</linearGradient>
<linearGradient id="paint88_linear_4046_24684" x1="48.0714" y1="23.7222" x2="48.0714" y2="24.5188" gradientUnits="userSpaceOnUse">
<stop stop-color="#F2F7FF"/>
<stop offset="0.735577" stop-color="white" stop-opacity="0"/>
</linearGradient>
<linearGradient id="paint89_linear_4046_24684" x1="229.243" y1="16.2244" x2="229.243" y2="81.8717" gradientUnits="userSpaceOnUse">
<stop stop-color="#F2F7FF"/>
<stop offset="0.735577" stop-color="white" stop-opacity="0"/>
</linearGradient>
<linearGradient id="paint90_linear_4046_24684" x1="128.965" y1="0" x2="128.965" y2="84.357" gradientUnits="userSpaceOnUse">
<stop stop-color="#F2F7FF"/>
<stop offset="0.735577" stop-color="white" stop-opacity="0"/>
</linearGradient>
<linearGradient id="paint91_linear_4046_24684" x1="172.435" y1="61.2604" x2="172.435" y2="86.0847" gradientUnits="userSpaceOnUse">
<stop stop-color="#F2F7FF"/>
<stop offset="0.735577" stop-color="white" stop-opacity="0"/>
</linearGradient>
<linearGradient id="paint92_linear_4046_24684" x1="158.458" y1="15.4103" x2="158.458" y2="82.8855" gradientUnits="userSpaceOnUse">
<stop stop-color="#F2F7FF"/>
<stop offset="0.735577" stop-color="white" stop-opacity="0"/>
</linearGradient>
<linearGradient id="paint93_linear_4046_24684" x1="181.717" y1="52.7836" x2="181.717" y2="85.7123" gradientUnits="userSpaceOnUse">
<stop stop-color="#F2F7FF"/>
<stop offset="0.735577" stop-color="white" stop-opacity="0"/>
</linearGradient>
<linearGradient id="paint94_linear_4046_24684" x1="94.953" y1="60.8983" x2="94.953" y2="88.0367" gradientUnits="userSpaceOnUse">
<stop stop-color="#F2F7FF"/>
<stop offset="0.735577" stop-color="white" stop-opacity="0"/>
</linearGradient>
<linearGradient id="paint95_linear_4046_24684" x1="69.1494" y1="74.8026" x2="69.1494" y2="88.0368" gradientUnits="userSpaceOnUse">
<stop stop-color="#F2F7FF"/>
<stop offset="0.735577" stop-color="white" stop-opacity="0"/>
</linearGradient>
<linearGradient id="paint96_linear_4046_24684" x1="73.432" y1="45.2351" x2="73.432" y2="77.7342" gradientUnits="userSpaceOnUse">
<stop stop-color="#F2F7FF"/>
<stop offset="0.735577" stop-color="white" stop-opacity="0"/>
</linearGradient>
<linearGradient id="paint97_linear_4046_24684" x1="71.7986" y1="36.5659" x2="71.7986" y2="54.2394" gradientUnits="userSpaceOnUse">
<stop stop-color="#F2F7FF"/>
<stop offset="0.735577" stop-color="white" stop-opacity="0"/>
</linearGradient>
<linearGradient id="paint98_linear_4046_24684" x1="72.8875" y1="37.9061" x2="72.8875" y2="55.5796" gradientUnits="userSpaceOnUse">
<stop stop-color="#F2F7FF"/>
<stop offset="0.735577" stop-color="white" stop-opacity="0"/>
</linearGradient>
<linearGradient id="paint99_linear_4046_24684" x1="72.6756" y1="43.2249" x2="72.6756" y2="47.5804" gradientUnits="userSpaceOnUse">
<stop stop-color="#F2F7FF"/>
<stop offset="0.735577" stop-color="white" stop-opacity="0"/>
</linearGradient>
<linearGradient id="paint100_linear_4046_24684" x1="88.2994" y1="65.7565" x2="88.2994" y2="88.0368" gradientUnits="userSpaceOnUse">
<stop stop-color="#F2F7FF"/>
<stop offset="0.735577" stop-color="white" stop-opacity="0"/>
</linearGradient>
<linearGradient id="paint101_linear_4046_24684" x1="116.797" y1="42.1785" x2="116.797" y2="88.0367" gradientUnits="userSpaceOnUse">
<stop stop-color="#F2F7FF"/>
<stop offset="0.735577" stop-color="white" stop-opacity="0"/>
</linearGradient>
<linearGradient id="paint102_linear_4046_24684" x1="116.797" y1="40.6023" x2="116.797" y2="48.2403" gradientUnits="userSpaceOnUse">
<stop stop-color="#F2F7FF"/>
<stop offset="0.735577" stop-color="white" stop-opacity="0"/>
</linearGradient>
<linearGradient id="paint103_linear_4046_24684" x1="116.797" y1="43.1379" x2="116.797" y2="43.6741" gradientUnits="userSpaceOnUse">
<stop stop-color="#F2F7FF"/>
<stop offset="0.735577" stop-color="white" stop-opacity="0"/>
</linearGradient>
<linearGradient id="paint104_linear_4046_24684" x1="107.409" y1="64.877" x2="107.409" y2="88.0367" gradientUnits="userSpaceOnUse">
<stop stop-color="#F2F7FF"/>
<stop offset="0.735577" stop-color="white" stop-opacity="0"/>
</linearGradient>
<linearGradient id="paint105_linear_4046_24684" x1="37.038" y1="63.9974" x2="37.038" y2="88.0367" gradientUnits="userSpaceOnUse">
<stop stop-color="#F2F7FF"/>
<stop offset="0.735577" stop-color="white" stop-opacity="0"/>
</linearGradient>
<linearGradient id="paint106_linear_4046_24684" x1="46.3774" y1="57.4642" x2="46.3774" y2="88.0367" gradientUnits="userSpaceOnUse">
<stop stop-color="#F2F7FF"/>
<stop offset="0.735577" stop-color="white" stop-opacity="0"/>
</linearGradient>
<linearGradient id="paint107_linear_4046_24684" x1="46.0085" y1="56.2916" x2="46.0085" y2="57.4642" gradientUnits="userSpaceOnUse">
<stop stop-color="#F2F7FF"/>
<stop offset="0.735577" stop-color="white" stop-opacity="0"/>
</linearGradient>
<linearGradient id="paint108_linear_4046_24684" x1="41.0207" y1="53.1086" x2="41.0207" y2="59.3069" gradientUnits="userSpaceOnUse">
<stop stop-color="#F2F7FF"/>
<stop offset="0.735577" stop-color="white" stop-opacity="0"/>
</linearGradient>
<linearGradient id="paint109_linear_4046_24684" x1="50.1047" y1="53.1086" x2="50.1047" y2="56.8779" gradientUnits="userSpaceOnUse">
<stop stop-color="#F2F7FF"/>
<stop offset="0.735577" stop-color="white" stop-opacity="0"/>
</linearGradient>
<linearGradient id="paint110_linear_4046_24684" x1="53.5388" y1="53.1086" x2="53.5388" y2="56.8779" gradientUnits="userSpaceOnUse">
<stop stop-color="#F2F7FF"/>
<stop offset="0.735577" stop-color="white" stop-opacity="0"/>
</linearGradient>
<linearGradient id="paint111_linear_4046_24684" x1="31.091" y1="78.7394" x2="31.091" y2="88.0368" gradientUnits="userSpaceOnUse">
<stop stop-color="#F2F7FF"/>
<stop offset="0.735577" stop-color="white" stop-opacity="0"/>
</linearGradient>
<linearGradient id="paint112_linear_4046_24684" x1="23.4676" y1="74.8026" x2="23.4676" y2="88.0368" gradientUnits="userSpaceOnUse">
<stop stop-color="#F2F7FF"/>
<stop offset="0.735577" stop-color="white" stop-opacity="0"/>
</linearGradient>
<linearGradient id="paint113_linear_4046_24684" x1="18.6547" y1="83.3881" x2="18.6547" y2="88.0368" gradientUnits="userSpaceOnUse">
<stop stop-color="#F2F7FF"/>
<stop offset="0.735577" stop-color="white" stop-opacity="0"/>
</linearGradient>
<linearGradient id="paint114_linear_4046_24684" x1="213.739" y1="27.5765" x2="213.739" y2="82.4098" gradientUnits="userSpaceOnUse">
<stop stop-color="#F2F7FF"/>
<stop offset="0.735577" stop-color="white" stop-opacity="0"/>
</linearGradient>
<linearGradient id="paint115_linear_4046_24684" x1="246.997" y1="61.2008" x2="246.997" y2="88.0366" gradientUnits="userSpaceOnUse">
<stop stop-color="#F2F7FF"/>
<stop offset="0.735577" stop-color="white" stop-opacity="0"/>
</linearGradient>
<linearGradient id="paint116_linear_4046_24684" x1="262.633" y1="71.6345" x2="262.633" y2="87.8855" gradientUnits="userSpaceOnUse">
<stop stop-color="#F2F7FF"/>
<stop offset="0.735577" stop-color="white" stop-opacity="0"/>
</linearGradient>
<linearGradient id="paint117_linear_4046_24684" x1="187.583" y1="69.2479" x2="187.583" y2="82.8854" gradientUnits="userSpaceOnUse">
<stop stop-color="#F2F7FF"/>
<stop offset="0.735577" stop-color="white" stop-opacity="0"/>
</linearGradient>
<linearGradient id="paint118_linear_4046_24684" x1="253.475" y1="35.6799" x2="253.475" y2="88.0368" gradientUnits="userSpaceOnUse">
<stop stop-color="#F2F7FF"/>
<stop offset="0.735577" stop-color="white" stop-opacity="0"/>
</linearGradient>
<linearGradient id="paint119_linear_4046_24684" x1="272.74" y1="57.4642" x2="272.74" y2="88.0367" gradientUnits="userSpaceOnUse">
<stop stop-color="#F2F7FF"/>
<stop offset="0.735577" stop-color="white" stop-opacity="0"/>
</linearGradient>
<linearGradient id="paint120_linear_4046_24684" x1="281.283" y1="81.0576" x2="281.283" y2="88.0367" gradientUnits="userSpaceOnUse">
<stop stop-color="#F2F7FF"/>
<stop offset="0.735577" stop-color="white" stop-opacity="0"/>
</linearGradient>
<linearGradient id="paint121_linear_4046_24684" x1="256.825" y1="24.7418" x2="256.825" y2="38.9697" gradientUnits="userSpaceOnUse">
<stop stop-color="#F2F7FF"/>
<stop offset="0.735577" stop-color="white" stop-opacity="0"/>
</linearGradient>
<linearGradient id="paint122_linear_4046_24684" x1="258.333" y1="27.7948" x2="258.333" y2="42.0227" gradientUnits="userSpaceOnUse">
<stop stop-color="#F2F7FF"/>
<stop offset="0.735577" stop-color="white" stop-opacity="0"/>
</linearGradient>
<linearGradient id="paint123_linear_4046_24684" x1="255.457" y1="29.759" x2="255.457" y2="43.987" gradientUnits="userSpaceOnUse">
<stop stop-color="#F2F7FF"/>
<stop offset="0.735577" stop-color="white" stop-opacity="0"/>
</linearGradient>
<linearGradient id="paint124_linear_4046_24684" x1="267.924" y1="54.9933" x2="267.924" y2="59.8095" gradientUnits="userSpaceOnUse">
<stop stop-color="#F2F7FF"/>
<stop offset="0.735577" stop-color="white" stop-opacity="0"/>
</linearGradient>
<linearGradient id="paint125_linear_4046_24684" x1="267.924" y1="53.2762" x2="267.924" y2="55.9834" gradientUnits="userSpaceOnUse">
<stop stop-color="#F2F7FF"/>
<stop offset="0.735577" stop-color="white" stop-opacity="0"/>
</linearGradient>
<linearGradient id="paint126_linear_4046_24684" x1="273.996" y1="56.4039" x2="273.996" y2="58.3487" gradientUnits="userSpaceOnUse">
<stop stop-color="#F2F7FF"/>
<stop offset="0.735577" stop-color="white" stop-opacity="0"/>
</linearGradient>
<linearGradient id="paint127_linear_4046_24684" x1="275.835" y1="54.6296" x2="275.835" y2="58.3487" gradientUnits="userSpaceOnUse">
<stop stop-color="#F2F7FF"/>
<stop offset="0.735577" stop-color="white" stop-opacity="0"/>
</linearGradient>
<linearGradient id="paint128_linear_4046_24684" x1="254.994" y1="42.8" x2="254.994" y2="43.5967" gradientUnits="userSpaceOnUse">
<stop stop-color="#F2F7FF"/>
<stop offset="1" stop-color="white" stop-opacity="0"/>
</linearGradient>
<linearGradient id="paint129_linear_4046_24684" x1="150.88" y1="43.5968" x2="150.88" y2="106.299" gradientUnits="userSpaceOnUse">
<stop stop-color="#C8DDFF"/>
<stop offset="1" stop-color="white" stop-opacity="0"/>
</linearGradient>
</defs>
</svg>
