<svg width="32" height="32" viewBox="0 0 32 32" fill="none" xmlns="http://www.w3.org/2000/svg">
<path d="M2.66669 16.0002C2.66669 10.9718 2.66669 8.45769 4.22878 6.89559C5.79088 5.3335 8.30504 5.3335 13.3334 5.3335H18.6667C23.695 5.3335 26.2092 5.3335 27.7713 6.89559C29.3334 8.45769 29.3334 10.9718 29.3334 16.0002C29.3334 21.0285 29.3334 23.5426 27.7713 25.1047C26.2092 26.6668 23.695 26.6668 18.6667 26.6668H13.3334C8.30504 26.6668 5.79088 26.6668 4.22878 25.1047C2.66669 23.5426 2.66669 21.0285 2.66669 16.0002Z" fill="#96BFFF"/>
<path d="M8.00002 10.6668L10.8785 13.0656C13.3274 15.1063 14.5518 16.1267 16 16.1267C17.4482 16.1267 18.6726 15.1063 21.1215 13.0656L24 10.6668M13.3334 26.6668H18.6667C23.695 26.6668 26.2092 26.6668 27.7713 25.1047C29.3334 23.5426 29.3334 21.0285 29.3334 16.0002C29.3334 10.9718 29.3334 8.45769 27.7713 6.89559C26.2092 5.3335 23.695 5.3335 18.6667 5.3335H13.3334C8.30504 5.3335 5.79088 5.3335 4.22878 6.89559C2.66669 8.45769 2.66669 10.9718 2.66669 16.0002C2.66669 21.0285 2.66669 23.5426 4.22878 25.1047C5.79088 26.6668 8.30504 26.6668 13.3334 26.6668Z" stroke="#0D47A1" stroke-linecap="round"/>
</svg>
