<svg width="24" height="24" viewBox="0 0 24 24" fill="none" xmlns="http://www.w3.org/2000/svg">
<path d="M22 2H22.75C22.75 1.58579 22.4142 1.25 22 1.25V2ZM21.25 7C21.25 7.41421 21.5858 7.75 22 7.75C22.4142 7.75 22.75 7.41421 22.75 7H22H21.25ZM17 1.25C16.5858 1.25 16.25 1.58579 16.25 2C16.25 2.41421 16.5858 2.75 17 2.75V2V1.25ZM18 14H17.25C17.25 18.0041 14.0041 21.25 10 21.25V22V22.75C14.8325 22.75 18.75 18.8325 18.75 14H18ZM10 22V21.25C5.99594 21.25 2.75 18.0041 2.75 14H2H1.25C1.25 18.8325 5.16751 22.75 10 22.75V22ZM2 14H2.75C2.75 9.99594 5.99594 6.75 10 6.75V6V5.25C5.16751 5.25 1.25 9.16751 1.25 14H2ZM10 6V6.75C14.0041 6.75 17.25 9.99594 17.25 14H18H18.75C18.75 9.16751 14.8325 5.25 10 5.25V6ZM15.5 8.5L16.0303 9.03033L22.5303 2.53033L22 2L21.4697 1.46967L14.9697 7.96967L15.5 8.5ZM22 2H21.25V7H22H22.75V2H22ZM17 2V2.75H22V2V1.25H17V2Z" fill="#626060"/>
</svg>
