<svg width="32" height="32" viewBox="0 0 32 32" fill="none" xmlns="http://www.w3.org/2000/svg">
<path d="M17.333 9.91667C16.9188 9.91667 16.583 10.2525 16.583 10.6667C16.583 11.0809 16.9188 11.4167 17.333 11.4167V10.6667V9.91667ZM17.333 13.9167C16.9188 13.9167 16.583 14.2525 16.583 14.6667C16.583 15.0809 16.9188 15.4167 17.333 15.4167V14.6667V13.9167ZM27.4163 13.3333C27.4163 12.9191 27.0806 12.5833 26.6663 12.5833C26.2521 12.5833 25.9163 12.9191 25.9163 13.3333H26.6663H27.4163ZM6.08301 13.3333C6.08301 12.9191 5.74722 12.5833 5.33301 12.5833C4.91879 12.5833 4.58301 12.9191 4.58301 13.3333H5.33301H6.08301ZM15.2497 29.3333C15.2497 29.7475 15.5855 30.0833 15.9997 30.0833C16.4139 30.0833 16.7497 29.7475 16.7497 29.3333H15.9997H15.2497ZM22.6663 10.6667H21.9163V14.6667H22.6663H23.4163V10.6667H22.6663ZM9.33301 14.6667H10.083V10.6667H9.33301H8.58301V14.6667H9.33301ZM15.9997 21.3333V20.5833C12.732 20.5833 10.083 17.9344 10.083 14.6667H9.33301H8.58301C8.58301 18.7628 11.9036 22.0833 15.9997 22.0833V21.3333ZM22.6663 14.6667H21.9163C21.9163 17.9344 19.2674 20.5833 15.9997 20.5833V21.3333V22.0833C20.0958 22.0833 23.4163 18.7628 23.4163 14.6667H22.6663ZM15.9997 4V4.75C19.2674 4.75 21.9163 7.39898 21.9163 10.6667H22.6663H23.4163C23.4163 6.57056 20.0958 3.25 15.9997 3.25V4ZM15.9997 4V3.25C11.9036 3.25 8.58301 6.57056 8.58301 10.6667H9.33301H10.083C10.083 7.39898 12.732 4.75 15.9997 4.75V4ZM17.333 10.6667V11.4167H22.6663V10.6667V9.91667H17.333V10.6667ZM17.333 14.6667V15.4167L22.6663 15.4167V14.6667V13.9167L17.333 13.9167V14.6667ZM26.6663 13.3333H25.9163V14.6667H26.6663H27.4163V13.3333H26.6663ZM5.33301 14.6667H6.08301V13.3333H5.33301H4.58301V14.6667H5.33301ZM15.9997 25.3333V24.5833C10.5229 24.5833 6.08301 20.1435 6.08301 14.6667H5.33301H4.58301C4.58301 20.9719 9.69442 26.0833 15.9997 26.0833V25.3333ZM26.6663 14.6667H25.9163C25.9163 20.1435 21.4765 24.5833 15.9997 24.5833V25.3333V26.0833C22.3049 26.0833 27.4163 20.9719 27.4163 14.6667H26.6663ZM15.9997 25.3333H15.2497V29.3333H15.9997H16.7497V25.3333H15.9997Z" fill="#424242"/>
</svg>
