<svg width="136" height="115" viewBox="0 0 136 115" fill="none" xmlns="http://www.w3.org/2000/svg">
<path d="M101.505 16.3875C101.851 17.2866 102.035 17.9781 101.897 19.1999C101.769 20.3338 102.589 21.1594 103.35 20.7213C103.35 20.7213 103.603 21.6203 102.128 22.2659C100.653 22.9116 99.3616 22.589 99.3616 22.589L99.1769 18.0014L101.505 16.3875Z" fill="#E72452"/>
<path d="M93.8536 22.057L94.0456 21.9122L101.194 22.3183L101.609 22.6813C101.609 22.6813 102.577 25.1019 102.646 26.6927C102.715 28.2833 100.641 39.6946 100.641 39.6946L96.6986 42.2535L94.7621 40.6629C94.7621 40.6629 92.4453 26.0355 92.4453 25.8972C92.4453 25.759 93.8536 22.057 93.8536 22.057Z" fill="#D6D6D6"/>
<path d="M102.136 23.3737C102.547 23.6727 103.106 24.0802 103.699 24.5114C104.885 25.3734 106.209 26.3335 106.755 26.7233C107.284 27.1016 107.701 27.4842 108.036 27.9713C108.371 28.4588 108.634 29.0639 108.836 29.8981C109.039 30.7341 109.296 32.7143 109.497 34.7721C109.698 36.8275 109.839 38.9272 109.813 39.9996C109.787 41.099 109.761 42.2181 109.519 43.0826C109.398 43.5117 109.229 43.8569 108.999 44.1012C108.774 44.3396 108.479 44.495 108.072 44.5289C106.222 44.6831 103.147 44.6812 100.235 43.7106C98.7603 43.219 97.8045 42.8704 97.2188 42.6451C97.0143 42.5665 96.8558 42.5001 96.7354 42.4508L99.5664 39.2369L99.6182 39.1783L99.627 39.0992V39.0973C99.6271 39.0956 99.6276 39.0928 99.6279 39.0895C99.6287 39.0824 99.6303 39.0712 99.6318 39.0573C99.635 39.0293 99.6402 38.9878 99.6465 38.9342C99.6591 38.8269 99.6775 38.6704 99.7021 38.4752C99.7514 38.0845 99.8243 37.5378 99.918 36.9137C100.106 35.6625 100.376 34.109 100.709 32.8785C101.386 30.3784 101.835 27.8849 101.962 26.2623C102.032 25.3644 102.006 24.4612 101.962 23.7848C101.948 23.5699 101.932 23.3773 101.917 23.2145C101.984 23.2632 102.057 23.3165 102.136 23.3737Z" fill="white" stroke="#F9F9F9" stroke-width="0.5"/>
<path d="M97.5115 26.7791C98.0302 26.831 101.194 22.3184 101.194 22.3184C100.987 22.1973 100.122 21.5403 100.018 20.8832C99.9148 20.2263 100.226 18.186 100.226 18.186L94.7623 17.6674C94.7623 18.908 95.0024 21.1439 94.0459 21.9123C94.1891 22.1254 94.3269 22.3635 94.451 22.6296C95.1773 24.1857 96.9928 26.7272 97.5115 26.7791Z" fill="#DE613B"/>
<path d="M93.5762 22.5532C93.5171 23.9738 93.5845 25.9494 93.7256 27.7866C93.8053 28.8238 93.9084 29.8218 94.0264 30.6558C94.1433 31.4824 94.2769 32.1682 94.4229 32.5698C94.7303 33.4154 95.1954 35.0014 95.585 36.3843C95.7792 37.0739 95.9538 37.7104 96.0801 38.1743C96.1432 38.4062 96.1943 38.5953 96.2295 38.7261C96.247 38.7912 96.2603 38.842 96.2695 38.8765C96.2741 38.8935 96.2779 38.9067 96.2803 38.9155C96.2815 38.9199 96.2826 38.924 96.2832 38.9263V38.9282L96.2842 38.9292L96.333 39.1147H96.875L97.4912 43.9937C97.4264 44.0029 97.3501 44.0147 97.2637 44.0269C96.9708 44.0681 96.563 44.1245 96.1035 44.186C95.1832 44.3092 94.059 44.4515 93.2344 44.5288C92.4078 44.6062 91.2096 44.6962 90.04 44.7026C88.8599 44.7091 87.7459 44.6302 87.0654 44.3872C86.8059 44.2945 86.5473 43.9917 86.3145 43.4556C86.0874 42.9326 85.91 42.2457 85.7754 41.4858C85.5065 39.9684 85.416 38.2076 85.416 36.9976C85.416 35.783 85.4549 34.1711 85.6094 32.6069C85.7646 31.0355 86.0343 29.5396 86.4834 28.5415C86.6837 28.0966 87.1527 27.5415 87.7969 26.9312C88.4346 26.3269 89.2207 25.6897 90.0264 25.0796C91.3797 24.0548 92.7507 23.127 93.5762 22.5532Z" fill="white" stroke="#F9F9F9" stroke-width="0.5"/>
<path d="M97.0957 38.8647C98.358 38.7955 101.608 38.104 102.023 38.1732C102.438 38.2423 105.239 38.9339 105.239 38.9339L105.308 40.3517C105.308 40.3517 104.167 40.3863 103.095 40.8012C102.023 41.2161 98.0813 42.9797 97.5625 43.0835L97.0957 38.8647Z" fill="#F27752"/>
<path d="M88.1915 35.0782C88.1915 35.0782 88.2259 35.2684 88.4335 35.3894C88.6409 35.5105 89.0559 35.5624 89.2806 35.6661C89.5054 35.7698 90.0759 36.0983 90.0759 36.0983L89.0731 35.7526L87.9492 35.6315C87.9492 35.6315 87.984 35.9428 88.1915 36.0637C88.3989 36.1848 89.0904 36.3058 89.0904 36.3058L90.0586 36.9283L88.9348 36.4268H88.1222C88.1222 36.4268 87.9839 36.5825 88.1222 36.7035C88.2605 36.8246 88.9348 36.9975 88.9348 36.9975L89.5746 37.4296L88.7273 37.0493L88.2951 37.0665C88.2951 37.0665 88.2951 37.3432 88.6063 37.4815C88.9175 37.6199 89.5054 37.8619 89.7301 38.1039C89.9549 38.346 90.5601 39.2105 90.854 39.4872C93.0152 39.3488 95.8336 39.0204 95.8336 39.0204L92.7385 37.7236C92.7385 37.7236 91.6373 36.1134 91.0442 35.718C90.9923 35.6834 90.0126 35.2338 89.6321 35.1763C89.2518 35.1186 88.1915 35.0782 88.1915 35.0782Z" fill="#F27752"/>
<path d="M93.6725 33.8852C94.4094 35.1542 95.6951 36.9721 96.2045 37.6822C95.7929 36.1818 95.0814 33.6493 94.658 32.4848C94.1132 30.9866 93.6479 24.8791 93.8533 22.0571C93.4537 22.3472 92.7122 22.8459 91.8413 23.4556C91.4031 24.8304 91.0791 26.8828 91.0791 26.8828L92.7907 27.5053L91.7014 29.0095C91.7014 29.0095 92.7388 32.2773 93.6725 33.8852Z" fill="#F9F9F9"/>
<path d="M101.713 26.2431C101.587 27.8462 101.142 30.3235 100.468 32.8133C100.06 34.3194 99.747 36.2936 99.5635 37.6186C100.051 36.488 101.058 34.1988 101.817 32.796C102.854 30.8768 103.891 29.2169 103.891 29.2169L102.647 27.8165L104.254 27.2978C103.978 26.2324 103.492 24.7471 103.115 23.7775C102.26 23.1553 101.609 22.6814 101.609 22.6814C101.609 22.6814 101.851 24.4795 101.713 26.2431Z" fill="#F9F9F9"/>
<path d="M93.6977 33.0245C93.613 33.5807 93.0934 33.9628 92.5374 33.8781C91.9812 33.7934 91.5989 33.2739 91.6836 32.7177C91.7684 32.1615 92.2879 31.7794 92.8441 31.864C93.4003 31.9488 93.7824 32.4683 93.6977 33.0245Z" fill="#D6D6D6"/>
<path d="M93.5662 33.0044C93.4925 33.4879 93.0407 33.8203 92.5571 33.7467C92.0735 33.6729 91.7412 33.2212 91.8149 32.7376C91.8886 32.254 92.3403 31.9217 92.8239 31.9953C93.3075 32.069 93.6398 32.5208 93.5662 33.0044Z" fill="#DDEBEF"/>
<path d="M103.023 37.0505H103.014C101.597 37.0462 100.896 33.7124 100.633 32.4574C100.609 32.3459 100.589 32.2515 100.573 32.1785C100.56 32.1225 100.595 32.0669 100.652 32.0544C100.708 32.0419 100.763 32.077 100.776 32.133C100.792 32.2068 100.812 32.3021 100.836 32.4147C101.066 33.5089 101.766 36.8388 103.015 36.8427H103.023C103.799 36.8427 104.504 36.4932 104.511 36.4896C104.562 36.4639 104.624 36.4845 104.65 36.5359C104.676 36.5871 104.655 36.6495 104.604 36.6753C104.574 36.6906 103.85 37.0505 103.023 37.0505Z" fill="#96BFFF"/>
<path d="M102.354 37.1755C102.012 37.1755 101.677 37.0942 101.427 37.0335C101.372 37.0202 101.32 37.0077 101.272 36.9968C101.216 36.984 101.181 36.9283 101.194 36.8724C101.207 36.8164 101.262 36.7812 101.318 36.794C101.367 36.8052 101.42 36.818 101.476 36.8315C102.127 36.9897 103.112 37.2286 103.506 36.1555C103.857 35.203 104.036 33.8351 104.181 32.7361C104.223 32.4121 104.263 32.1062 104.302 31.8584C104.311 31.8017 104.365 31.7631 104.421 31.7719C104.478 31.7809 104.517 31.8341 104.508 31.8908C104.469 32.1359 104.429 32.4405 104.387 32.7631C104.241 33.8725 104.06 35.253 103.702 36.2273C103.423 36.9831 102.88 37.1755 102.354 37.1755Z" fill="#96BFFF"/>
<path d="M92.6763 33.0431C92.5826 33.0431 92.5008 32.9743 92.487 32.8789C92.4848 32.8637 92.2685 31.3376 92.2274 29.5885C92.2242 29.4556 92.2196 29.3108 92.2147 29.1557C92.1547 27.2626 92.0431 23.7389 94.0039 21.6571C94.0764 21.5802 94.1975 21.5765 94.2745 21.649C94.3515 21.7215 94.3552 21.8427 94.2826 21.9196C92.4308 23.8857 92.5392 27.3059 92.5974 29.1435C92.6023 29.2997 92.6071 29.4457 92.6101 29.5794C92.6506 31.3048 92.8639 32.8095 92.8661 32.8245C92.881 32.9291 92.8083 33.0262 92.7037 33.0412C92.6945 33.0425 92.6853 33.0431 92.6763 33.0431Z" fill="#E72452"/>
<path d="M102.526 28.4067C102.523 28.4067 102.519 28.4067 102.516 28.4065C102.41 28.4008 102.329 28.3105 102.335 28.2051C102.335 28.1926 102.401 26.9439 102.335 25.7129L102.33 25.6349C102.266 24.4231 102.204 23.2784 100.892 22.1095C100.813 22.0391 100.806 21.9181 100.877 21.8392C100.947 21.7603 101.068 21.7534 101.147 21.8237C102.578 23.0988 102.647 24.3777 102.713 25.6145L102.717 25.6923C102.785 26.9445 102.718 28.213 102.717 28.2257C102.712 28.3277 102.627 28.4067 102.526 28.4067Z" fill="#E72452"/>
<path d="M100.647 32.2586C100.561 32.2586 100.483 32.2008 100.461 32.114C100.142 30.8503 100.318 29.5924 100.92 28.8309C101.332 28.3098 101.917 28.0398 102.613 28.0494C103.083 28.0562 103.479 28.2326 103.791 28.574C104.73 29.6 104.579 31.7854 104.572 31.8779C104.565 31.9833 104.473 32.0623 104.367 32.0547C104.262 32.0469 104.183 31.9552 104.191 31.8497C104.192 31.8287 104.336 29.7356 103.509 28.8321C103.267 28.5682 102.972 28.4375 102.608 28.4323C102.025 28.4231 101.56 28.638 101.22 29.0683C100.691 29.7384 100.542 30.8694 100.833 32.0203C100.859 32.1227 100.796 32.227 100.694 32.2528C100.678 32.2568 100.662 32.2586 100.647 32.2586Z" fill="#E72452"/>
<path d="M104.778 36.4288C104.875 36.6584 104.824 36.749 104.589 36.8201C104.382 36.8829 104.259 36.8962 104.259 36.8962L104.135 36.5617C104.135 36.5617 104.362 36.3759 104.504 36.3519C104.632 36.3306 104.741 36.3407 104.778 36.4288Z" fill="#1D1D1B"/>
<path d="M100.896 36.7043C100.825 36.9429 100.885 37.0275 101.126 37.0733C101.338 37.1138 101.462 37.1138 101.462 37.1138L101.55 36.7681C101.55 36.7681 101.305 36.6074 101.16 36.5987C101.032 36.5911 100.924 36.6128 100.896 36.7043Z" fill="#1D1D1B"/>
<path d="M94.5989 12.8803C93.9399 12.4779 93.175 12.6517 92.9388 13.5791C92.7027 14.5067 92.8583 15.541 93.5658 15.9414C94.2734 16.3418 94.5991 16.0232 94.5991 16.0232L94.5989 12.8803Z" fill="#F75F5F"/>
<path d="M94.5997 15.1117L94.5996 13.6776C94.5251 13.6 94.2171 13.3042 93.8589 13.3895C93.4478 13.4875 93.3126 14.2375 93.4942 14.6894C93.6725 15.1331 94.0897 15.2618 94.5997 15.1117Z" fill="#F64747"/>
<path d="M101.504 14.0291C102.261 13.8758 102.929 14.3033 102.835 15.2558C102.74 16.2083 102.241 17.1274 101.439 17.2622C100.637 17.397 100.449 16.9895 100.449 16.9895L101.504 14.0291Z" fill="#F75F5F"/>
<path d="M100.754 16.131L101.236 14.7801C101.332 14.7326 101.727 14.5612 102.034 14.7637C102.387 14.9961 102.258 15.7473 101.933 16.11C101.614 16.4661 101.182 16.4462 100.754 16.131Z" fill="#F64747"/>
<path d="M94.1273 12.93C93.9331 14.358 93.943 15.6042 94.1966 16.7339C94.4503 17.8634 95.2804 20.0764 97.2631 20.2146C99.2457 20.3527 100.352 18.4854 100.721 17.8399C101.09 17.1943 102.15 14.1281 102.15 14.1281C102.15 14.1281 103.002 10.3473 100.513 9.49459C98.0228 8.64183 94.5881 9.54115 94.1273 12.93Z" fill="#F27752"/>
<path d="M96.4633 14.985C96.3329 14.985 96.1915 14.9741 96.0389 14.9523C95.6263 14.8933 94.7677 14.7703 94.7368 13.9054C94.7128 13.2335 94.88 12.7984 94.887 12.7803C94.908 12.7269 94.954 12.6874 95.01 12.6752C95.0374 12.6692 95.6874 12.5297 96.4743 12.6689C97.2676 12.8093 97.7356 13.1536 97.7551 13.1681C97.7861 13.1915 97.8092 13.2252 97.8192 13.2632C97.8589 13.4122 97.5545 14.4453 97.343 14.6785C97.1581 14.8824 96.863 14.985 96.4633 14.985ZM95.1787 12.9936C95.1367 13.141 95.0645 13.4631 95.0799 13.8932C95.0971 14.3744 95.4783 14.5252 96.0877 14.6125C96.5808 14.6832 96.927 14.6261 97.0888 14.4479C97.2254 14.2971 97.4132 13.6446 97.4677 13.39C97.3122 13.2956 96.9426 13.1004 96.4145 13.007C95.8613 12.9091 95.3768 12.9629 95.1787 12.9936ZM97.545 13.4399C97.5598 13.4518 97.5778 13.4619 97.5986 13.4688C97.5811 13.4631 97.5644 13.4544 97.5496 13.4433C97.5496 13.4433 97.5478 13.4419 97.545 13.4399Z" fill="#06223E"/>
<path d="M99.9998 15.4931C99.8143 15.4931 99.641 15.4683 99.5115 15.4498C98.8916 15.361 98.4963 15.1493 98.3367 14.8206C98.1994 14.5378 98.1971 13.4609 98.2769 13.3289C98.2973 13.2952 98.329 13.2694 98.3653 13.2558C98.3882 13.2472 98.934 13.0479 99.7348 13.136C100.529 13.2233 101.114 13.5397 101.138 13.553C101.189 13.5806 101.222 13.6313 101.227 13.6883C101.229 13.7078 101.267 14.1725 101.055 14.8105C100.868 15.3741 100.405 15.4931 99.9998 15.4931ZM98.5789 13.5492C98.5596 13.8087 98.5566 14.4876 98.6456 14.6707C98.7508 14.8874 99.0671 15.0393 99.5602 15.1098C100.17 15.1971 100.578 15.1595 100.729 14.7024C100.865 14.2941 100.886 13.9648 100.887 13.8115C100.705 13.7263 100.253 13.5383 99.6973 13.4772C99.1644 13.4186 98.7548 13.5021 98.5789 13.5492ZM98.4903 13.5755C98.487 13.5767 98.4849 13.5774 98.4849 13.5774C98.4676 13.5838 98.449 13.5874 98.4306 13.5879C98.4527 13.5874 98.4727 13.5827 98.4903 13.5755Z" fill="#06223E"/>
<path d="M95.0945 12.9539C95.0357 12.9539 94.9784 12.9238 94.9465 12.8694C94.9455 12.8679 94.857 12.7183 94.7673 12.5986C94.7267 12.5444 94.5678 12.4442 94.4787 12.4563C94.4664 12.4579 94.4538 12.4597 94.4389 12.4974C94.4043 12.5857 94.3048 12.6292 94.2165 12.5946C94.1282 12.5601 94.0847 12.4605 94.1193 12.3722C94.1763 12.2267 94.2876 12.1358 94.4326 12.1161C94.6676 12.084 94.9422 12.2594 95.0421 12.3927C95.1435 12.528 95.2382 12.6884 95.2421 12.6951C95.2903 12.7768 95.2631 12.882 95.1814 12.9302C95.1541 12.9463 95.1241 12.9539 95.0945 12.9539Z" fill="#06223E"/>
<path d="M102.62 14.441C102.603 14.441 102.586 14.4386 102.569 14.4333C102.478 14.4053 102.428 14.3091 102.456 14.2185C102.483 14.1297 102.461 14.1 102.454 14.0903C102.349 13.947 101.823 13.9448 101.475 13.9434C101.324 13.9428 101.181 13.9422 101.055 13.9339C100.96 13.9278 100.889 13.8461 100.895 13.7515C100.901 13.6569 100.983 13.5855 101.077 13.5914C101.193 13.5989 101.331 13.5995 101.477 13.6001C101.991 13.6022 102.523 13.6043 102.731 13.8871C102.791 13.9687 102.849 14.1101 102.784 14.3201C102.761 14.3937 102.693 14.441 102.62 14.441Z" fill="#06223E"/>
<path d="M98.4259 13.5881C98.4049 13.5881 98.3835 13.5842 98.3628 13.5761C98.1808 13.5042 97.9374 13.4702 97.6576 13.4774C97.5646 13.4809 97.484 13.405 97.4815 13.3102C97.479 13.2155 97.5539 13.1367 97.6487 13.1341C97.9788 13.1257 98.2612 13.1667 98.489 13.2568C98.5772 13.2916 98.6204 13.3913 98.5856 13.4795C98.5589 13.547 98.4944 13.5881 98.4259 13.5881Z" fill="#06223E"/>
<path d="M95.1881 12.7456C96.2074 12.0425 97.4704 12.6302 99.107 11.754C100.744 10.8778 101.251 10.1632 101.251 10.1632C101.251 10.1632 101.043 11.0852 101.274 11.7538C101.505 12.4222 101.989 13.0446 101.989 13.598C101.989 14.1512 101.666 15.3961 101.666 15.3961C101.666 15.3961 102.588 14.1512 102.75 13.5979C102.911 13.0446 103.003 11.7767 102.657 10.9007C102.311 10.0247 101.666 9.70203 101.574 9.47149C101.481 9.24096 101 7.84101 99.1528 7.46601C97.6773 7.16651 95.764 7.72002 94.8419 8.94181C94.0475 9.9945 93.8508 10.8323 93.6895 11.9389C93.5283 13.0454 93.0903 13.8062 92.6984 14.129C92.3065 14.4518 91.4997 14.9129 91.4997 14.9129C91.4997 14.9129 92.5601 14.8898 93.2518 14.6131C93.9433 14.3364 94.5197 13.2067 95.1881 12.7456Z" fill="#E72452"/>
<path d="M105.541 1.5931C109.659 1.5931 112.998 4.93157 112.998 9.04968V37.9065C112.998 42.0247 109.659 45.3631 105.541 45.3631H88.5438C84.4256 45.3631 81.0873 42.0247 81.0873 37.9065V9.04968C81.0873 4.93157 84.4256 1.5931 88.5438 1.5931H105.541ZM105.541 0H88.5438C83.5537 0 79.4941 4.05969 79.4941 9.04968V37.9065C79.4941 42.8966 83.5537 46.9562 88.5438 46.9562H105.541C110.531 46.9562 114.591 42.8966 114.591 37.9065V9.04968C114.591 4.05969 110.531 0 105.541 0Z" fill="#D6D6D6"/>
<path d="M59.9941 33.8746C60.6891 33.8511 61.1988 34.1114 61.7646 34.5074C62.3235 34.8986 62.958 35.4418 63.8291 35.8678C64.6808 36.2843 65.9192 36.763 67.1201 37.2906C68.3387 37.8261 69.5379 38.4192 70.3779 39.0856C71.1661 39.7107 71.8537 40.4877 72.5732 41.5143C69.9569 44.7826 66.2486 45.4513 61.7285 46.4635C61.2614 46.2148 60.7684 46.1074 60.2676 46.0602C59.7428 46.0107 59.181 46.0242 58.6396 46.0133L49.8701 45.8365C47.3585 45.3969 45.9385 44.9417 44.8926 44.2838C43.8932 43.6552 43.2182 42.8304 42.252 41.5914C42.8236 41.0819 43.4072 40.6538 43.9404 40.2897L44.5029 39.9137C45.308 39.3832 46.4453 38.5822 47.4326 37.858C47.9264 37.4959 48.3839 37.1516 48.7451 36.8698C49.0992 36.5935 49.3775 36.3635 49.498 36.235H49.499C49.7053 36.0148 49.9692 35.7446 50.2715 35.5065C50.572 35.2697 50.8972 35.0742 51.2266 34.985C51.2281 34.9848 51.2297 34.9852 51.2314 34.985C51.2452 34.983 51.2662 34.9801 51.293 34.9762C51.3464 34.9684 51.4249 34.9566 51.5254 34.942C51.7267 34.9129 52.0161 34.8711 52.3682 34.8209C53.0726 34.7205 54.0286 34.586 55.0322 34.4498C57.0477 34.1765 59.2346 33.9005 59.9941 33.8746Z" fill="white" stroke="#F9F9F9" stroke-width="0.5"/>
<path d="M60.2283 46.4968L62.239 46.4556L65.7748 41.6317L64.0585 39.4474L65.5961 38.3906L63.9624 35.6548C63.9546 35.651 63.9463 35.647 63.9386 35.6433C62.243 34.8142 61.5364 33.5715 59.9853 33.6243C58.4343 33.6771 51.1748 34.7404 51.1748 34.7404C50.4151 34.9405 49.7337 35.618 49.3162 36.0638C49.1507 36.2404 48.5892 36.6839 47.8729 37.2201C47.1985 38.2107 46.9756 38.9754 46.9756 38.9754L48.7698 39.4864L47.1061 41.9224C47.1061 41.9224 49.1814 44.1485 49.9459 45.1301C50.4655 45.7971 51.2545 45.4358 51.7072 46.1239L58.6349 46.2632C59.1865 46.2743 59.7204 46.3551 60.2283 46.4968Z" fill="#F9F9F9"/>
<path d="M61.6941 46.7279C61.9844 46.6627 62.2724 46.5921 62.557 46.5147C62.5419 41.635 62.9297 41.0686 62.7213 38.9621C62.4911 36.6351 61.9046 34.7438 61.7624 34.4904C61.6203 34.237 60.8999 33.5248 60.8999 33.5248L52.7151 32.702C52.0577 32.8349 52.0901 32.8799 51.4177 33.9963C50.7452 35.1128 50.3359 35.532 50.3359 35.532C50.3359 35.532 50.3974 38.3646 50.7899 41.0675C51.0669 42.9755 51.4316 43.7298 51.6966 46.1237L58.6349 46.2633C59.7497 46.2857 60.7918 46.2076 61.6941 46.7279Z" fill="#96BFFF"/>
<path d="M58.9071 46.2755L57.8713 39.5679L59.0007 36.8452L57.8392 36.2619L56.2662 36.1611L54.9421 36.7743C54.9421 36.7743 55.2643 37.7812 55.5727 38.4351C55.8809 39.0889 56.114 39.6671 56.114 39.6671L54.7197 46.1844L58.9071 46.2755Z" fill="#D6D6D6"/>
<path d="M60.8999 33.5248L52.7151 32.702C52.0577 32.8349 52.0902 32.8798 51.4178 33.9962C50.7452 35.1127 50.3359 35.5319 50.3359 35.5319C50.3359 35.5319 50.3421 35.8122 50.3626 36.2802C50.8897 37.2931 52.1376 39.2784 52.2026 39.4022C52.2026 39.4022 53.0248 38.7391 53.8265 38.1047C54.6282 37.4703 55.8192 36.2941 56.591 36.0923C57.363 35.8903 57.2891 36.0534 57.7006 36.2626C58.1124 36.472 60.4556 37.7232 61.0772 38.7534L62.5079 37.3958C62.2377 35.8303 61.8708 34.6837 61.7624 34.4904C61.6203 34.2371 60.8999 33.5248 60.8999 33.5248Z" fill="#D6D6D6"/>
<path d="M52.8981 28.5968C52.9032 29.7028 52.4457 32.7462 52.3838 32.9828C52.3838 32.9828 54.3791 36.1023 57.1133 36.2079C59.8476 36.3135 61.0007 33.9863 61.0007 33.9863C61.0007 33.9863 61.2395 31.7586 61.8904 29.5891C61.9198 29.4911 52.8981 28.5968 52.8981 28.5968Z" fill="#DE613B"/>
<path d="M62.4182 13.4366C57.1068 12.9887 53.055 17.2828 53.055 17.2828C52.5658 19.9659 51.9759 24.2512 51.8 26.4555C51.6241 28.6598 53.3725 31.5177 54.7523 32.6928C56.1319 33.868 58.3018 34.012 59.5218 33.729C60.7419 33.4459 63.1704 31.7816 64.1448 30.3768C65.1192 28.972 66.4748 24.6886 67.1519 22.5303C67.8291 20.372 68.2318 18.8241 68.2318 18.8241C68.2318 18.8241 67.7297 13.8846 62.4182 13.4366Z" fill="#F27752"/>
<path d="M52.8545 18.7031C51.8935 17.793 50.6347 18.0179 50.0752 19.8379C49.5156 21.658 49.5543 23.7541 50.5926 24.668C51.6307 25.5819 52.1948 24.994 52.1948 24.994L52.8545 18.7031Z" fill="#F75F5F"/>
<path d="M52.3859 23.1694L52.6868 20.2989C52.5845 20.1317 52.1503 19.4899 51.567 19.6041C50.8974 19.7351 50.5331 21.2157 50.7296 22.1495C50.9225 23.066 51.5496 23.3894 52.3859 23.1694Z" fill="#F64747"/>
<path d="M67.3792 21.3381C68.6354 20.9216 69.6798 21.6592 69.4145 23.5448C69.1491 25.4303 68.2249 27.3121 66.8971 27.6993C65.5693 28.0865 65.3078 27.3148 65.3078 27.3148L67.3792 21.3381Z" fill="#F75F5F"/>
<path d="M65.9083 25.5814L66.8535 22.8543C67.017 22.7462 67.6823 22.3493 68.1622 22.7001C68.7131 23.1028 68.4148 24.5982 67.8409 25.3604C67.2774 26.1086 66.5723 26.1354 65.9083 25.5814Z" fill="#F64747"/>
<path d="M69.4688 15.7108C69.1762 14.258 68.3345 14.0262 68.3345 14.0262C68.3345 14.0262 68.8008 12.4092 67.9168 11.1472C67.0328 9.88513 65.2295 10.5583 65.2295 10.5583C65.2295 10.5583 64.1961 8.90293 60.9515 9.33552C57.7068 9.76819 56.564 12.7446 56.564 12.7446C56.564 12.7446 54.9543 11.6454 53.6129 13.0321C52.2717 14.4185 52.4328 15.9101 52.4959 16.6399C52.5592 17.3697 52.3036 18.4454 52.3036 18.4454L52.562 21.4974C52.562 21.4974 52.8394 19.6943 54.3168 18.8289C55.8446 17.9339 55.822 16.5699 56.7293 15.9669C57.6367 15.3638 57.7856 14.1259 57.7856 14.1259C57.7856 14.1259 59.0311 15.2732 60.8366 15.4655C62.6422 15.6578 63.7958 15.3775 63.7958 15.3775C63.7958 15.3775 63.8937 16.1392 64.7836 16.7352C65.6737 17.3311 66.5003 17.1974 66.5003 17.1974C66.5003 17.1974 66.331 17.7646 66.3914 18.6C66.4683 19.6621 67.1907 20.2317 67.2084 20.6637C67.2262 21.0957 66.6596 23.5158 66.6596 23.5158L68.3324 21.2834C68.3324 21.2834 68.618 20.9388 68.8524 20.1635C69.087 19.3882 68.8174 18.5004 68.8174 18.5004C68.8174 18.5004 69.7614 17.1635 69.4688 15.7108Z" fill="#06223E"/>
<path d="M65.7472 1.5931C69.8654 1.5931 73.2038 4.93157 73.2038 9.04968V37.9065C73.2038 42.0247 69.8654 45.3631 65.7472 45.3631H48.7499C44.6317 45.3631 41.2933 42.0247 41.2933 37.9065V9.04968C41.2933 4.93157 44.6317 1.5931 48.7499 1.5931H65.7472ZM65.7471 0H48.7499C43.7598 0 39.7002 4.05969 39.7002 9.04968V37.9065C39.7002 42.8966 43.7598 46.9562 48.7499 46.9562H65.7471C70.7372 46.9562 74.797 42.8966 74.797 37.9065V9.04968C74.797 4.05969 70.7372 0 65.7471 0Z" fill="#D6D6D6"/>
<path d="M9.55052 38.5348L4.53765 37.5905C4.1381 39.2614 3.95633 41.4045 4.06532 42.2037C4.12061 42.609 4.54966 43.4346 4.95904 44.15C6.13047 44.9161 7.52951 45.3629 9.03366 45.3629H10.523L8.8966 42.676L9.55052 38.5348Z" fill="#F27752"/>
<path d="M30.9096 41.2592C30.8006 39.8062 30.7278 36.5371 30.7278 36.5371L25.8604 37.6632C25.8604 37.6632 26.4416 40.4237 26.4053 41.2955C26.3722 42.0904 26.0372 44.8768 25.9783 45.363H26.0311C27.8759 45.363 29.5627 44.6916 30.8646 43.5817C30.9208 42.7888 30.9576 41.9003 30.9096 41.2592Z" fill="#F27752"/>
<path d="M4.38672 38.2982L9.43711 39.2555L9.55092 38.5349L4.53815 37.5905C4.48342 37.819 4.43304 38.0566 4.38672 38.2982Z" fill="#0E4395"/>
<path d="M25.8604 37.663C25.8604 37.663 25.9323 38.0049 26.0238 38.4853L30.7721 38.1687C30.7439 37.2556 30.7279 36.537 30.7279 36.537L25.8604 37.663Z" fill="#0E4395"/>
<path d="M4.38672 38.2982L9.43711 39.2555L9.55092 38.5349L4.53815 37.5905C4.48342 37.819 4.43304 38.0566 4.38672 38.2982Z" fill="#F27752"/>
<path d="M25.8604 37.663C25.8604 37.663 25.9323 38.0049 26.0238 38.4853L30.7721 38.1687C30.7439 37.2556 30.7279 36.537 30.7279 36.537L25.8604 37.663Z" fill="#F27752"/>
<path d="M21.4326 21.4645C22.0614 22.0754 22.8379 22.6276 23.6533 23.1608C25.5878 24.4258 26.8447 24.6512 28.2227 27.0885C28.9175 28.3178 29.8089 30.72 30.5322 32.8356C30.8924 33.889 31.2085 34.8646 31.4346 35.5768C31.5476 35.9329 31.638 36.2234 31.7002 36.4244C31.7053 36.441 31.7101 36.457 31.7148 36.4723L25.9395 37.6178L25.7949 37.6461L25.75 37.7858V37.7867L25.749 37.7877C25.7488 37.7885 25.7484 37.7894 25.748 37.7906C25.7471 37.7937 25.746 37.7986 25.7441 37.8043C25.7405 37.8158 25.7353 37.8327 25.7285 37.8541C25.7147 37.8977 25.6949 37.9611 25.6709 38.0387C25.6229 38.1937 25.5578 38.4077 25.4893 38.6442C25.3873 38.9956 25.2742 39.4064 25.2002 39.7467L25.1406 40.0592C25.1126 40.2417 25.0938 40.633 25.0791 41.1061C25.0641 41.587 25.0532 42.1723 25.0459 42.7535C25.0341 43.6983 25.0323 44.637 25.0312 45.1129H10.8115C10.7971 44.3741 10.7627 42.5448 10.7627 41.7311C10.7627 41.1747 10.5898 40.4634 10.4258 39.9098C10.3427 39.6293 10.2595 39.382 10.1973 39.2047C10.1661 39.1159 10.1394 39.0442 10.1211 38.9948C10.1121 38.9705 10.1056 38.9512 10.1006 38.9381C10.0981 38.9316 10.0961 38.926 10.0947 38.9225C10.0941 38.9208 10.0931 38.9195 10.0928 38.9186V38.9166H10.0918L10.0439 38.7926L9.91504 38.7633L3.95215 37.4039C3.95989 37.3737 3.96944 37.3406 3.97852 37.3053C4.03568 37.083 4.1186 36.762 4.22266 36.3688C4.43096 35.5816 4.72335 34.5038 5.05762 33.3414C5.72874 31.0077 6.56249 28.3612 7.23145 27.0231C7.78912 25.9077 8.9337 24.9838 10.1602 24.153C10.774 23.7371 11.384 23.3602 11.9521 22.9869C12.3726 22.7107 12.7654 22.4377 13.0957 22.1666C13.338 22.9269 13.7615 23.7723 14.1816 24.5162C14.43 24.956 14.6802 25.3662 14.8965 25.7096L15.4072 26.5026C15.6532 26.8813 16.0082 27.3095 16.2959 27.6383C16.4408 27.804 16.5713 27.9472 16.665 28.0485C16.7116 28.0987 16.7492 28.1389 16.7754 28.1666C16.7884 28.1803 16.7987 28.1915 16.8057 28.1989L16.8164 28.2096V28.2106H16.8174L16.9922 28.3922L17.1729 28.2155L17.2588 28.1295C17.3138 28.0743 17.3934 27.9939 17.4912 27.8932C17.6869 27.6917 17.9574 27.4084 18.2549 27.0787C18.847 26.4227 19.5597 25.5715 20.0088 24.8229C20.6226 23.8001 21.158 22.297 21.4326 21.4645Z" fill="white" stroke="#F9F9F9" stroke-width="0.5"/>
<path d="M19.976 16.5947L14.4911 16.1228C14.4911 17.4303 14.4911 19.5006 13.7275 21.0809C13.6251 21.2931 13.453 21.5045 13.2285 21.7183C13.3097 22.0592 13.4416 22.4303 13.6038 22.8112C15.4487 23.1856 18.303 23.3159 20.6428 22.9144C20.9648 22.1124 21.2106 21.357 21.3237 20.9958C20.8657 20.4959 20.5192 19.9569 20.3389 19.3555C19.9031 17.9022 19.976 16.5947 19.976 16.5947Z" fill="#DE613B"/>
<path d="M13.6045 22.8112C14.2181 24.2498 15.2602 25.8163 15.6173 26.366C16.0892 27.0927 16.9978 28.0374 16.9978 28.0374C16.9978 28.0374 18.923 26.148 19.7947 24.6946C20.1044 24.1778 20.3969 23.5322 20.6435 22.9145C18.3036 23.3159 15.4495 23.1856 13.6045 22.8112Z" fill="#2372EC"/>
<path d="M12.4195 30.4792C11.8929 30.3989 11.401 30.7607 11.3207 31.2874C11.2405 31.814 11.6023 32.3059 12.1289 32.3861C12.6556 32.4663 13.1475 32.1045 13.2276 31.5779C13.3079 31.0513 12.946 30.5594 12.4195 30.4792Z" fill="#D6D6D6"/>
<path d="M12.4006 30.6036C11.9427 30.5338 11.515 30.8485 11.4452 31.3063C11.3755 31.7642 11.69 32.1919 12.148 32.2617C12.6059 32.3314 13.0336 32.0168 13.1034 31.5589C13.1731 31.101 12.8585 30.6733 12.4006 30.6036Z" fill="#DDEBEF"/>
<path d="M22.1674 34.6898C22.1601 34.6909 21.4302 34.7947 20.7397 34.5632C19.6544 34.1995 20.0146 31.0264 20.1329 29.9836C20.1452 29.8751 20.1556 29.7833 20.1627 29.712C20.1707 29.6323 20.1125 29.5612 20.0328 29.5532C19.9525 29.5459 19.8822 29.6034 19.8742 29.6831C19.8671 29.7534 19.8568 29.8439 19.8447 29.951C19.6096 32.0223 19.4883 34.4497 20.6474 34.8382C21.0475 34.9723 21.4526 35.0046 21.7502 35.0046C22.0147 35.0046 22.1943 34.9791 22.2097 34.9768C22.2889 34.9651 22.3436 34.8914 22.3318 34.8122C22.3202 34.7329 22.247 34.678 22.1674 34.6898Z" fill="#B8B8B8"/>
<path d="M24.6952 29.4269C24.6856 29.3474 24.6136 29.2902 24.5338 29.3004C24.4544 29.3099 24.3978 29.3821 24.4073 29.4616C24.4358 29.698 24.4782 29.9874 24.5232 30.2936C24.6675 31.2751 24.8651 32.6194 24.7925 33.5724C24.7194 34.5311 23.9797 34.6385 23.1624 34.6698C23.1078 34.6718 23.0561 34.6738 23.0084 34.6764C22.9284 34.6807 22.867 34.749 22.8713 34.8289C22.8754 34.9064 22.9395 34.9662 23.016 34.9662C23.0187 34.9662 23.0213 34.9662 23.0239 34.9661C23.0704 34.9635 23.1205 34.9617 23.1736 34.9596C23.806 34.9354 24.9829 34.8903 25.0816 33.5945C25.1566 32.6092 24.9646 31.3019 24.8103 30.2515C24.7656 29.9471 24.7233 29.6596 24.6952 29.4269Z" fill="#B8B8B8"/>
<path d="M12.7941 21.8096C11.693 23.7748 11.7756 26.3975 11.8236 27.9144C11.8282 28.0614 11.8327 28.1986 11.8356 28.3244C11.8746 29.9805 12.0795 31.4256 12.0816 31.44C12.0946 31.5303 12.1719 31.5955 12.2607 31.5955C12.2692 31.5955 12.278 31.595 12.2868 31.5937C12.3858 31.5795 12.4545 31.4877 12.4404 31.3886C12.4383 31.3744 12.2364 29.9495 12.198 28.316C12.1951 28.1892 12.1906 28.0509 12.1859 27.9029C12.1314 26.1791 12.0314 22.9848 13.7352 21.1157C13.376 21.2881 13.0655 21.4994 12.7941 21.8096Z" fill="#E72452"/>
<path d="M22.5534 23.7445C22.5086 22.9084 22.4623 22.0521 21.9467 21.1912C21.8212 21.0354 21.6871 20.8873 21.5368 20.7615C21.3238 20.5833 21.0651 20.4857 20.8047 20.3989C20.812 20.4086 20.8202 20.4176 20.8295 20.426C22.0719 21.5327 22.1299 22.6164 22.1913 23.764L22.1953 23.8378C22.2584 25.0033 22.196 26.1855 22.1953 26.1973C22.1899 26.2972 22.2666 26.3826 22.3665 26.388C22.3699 26.3882 22.3732 26.3883 22.3765 26.3883C22.4721 26.3883 22.552 26.3135 22.5573 26.2168C22.558 26.2048 22.6214 25.0038 22.5573 23.8182L22.5534 23.7445Z" fill="#E72452"/>
<path d="M22.432 26.1044C22.4202 26.1043 22.4086 26.1042 22.3969 26.1042C20.6257 26.1042 19.9127 28.0328 19.8371 29.8467C19.8329 29.9467 19.9106 30.0311 20.0106 30.0353C20.0133 30.0355 20.0158 30.0355 20.0184 30.0355C20.115 30.0355 20.1952 29.9593 20.1993 29.8617C20.2382 28.9279 20.443 28.0888 20.7758 27.4989C21.1681 26.8041 21.726 26.454 22.4267 26.4669C24.1668 26.4918 24.3924 29.665 24.3944 29.6971C24.401 29.797 24.4861 29.874 24.587 29.8663C24.6868 29.8599 24.7627 29.7737 24.7563 29.6739C24.754 29.6385 24.6973 28.7962 24.3974 27.9362C23.9838 26.7503 23.3042 26.1169 22.432 26.1044Z" fill="#E72452"/>
<path d="M22.2093 34.6102C22.0736 34.5892 21.8145 34.6886 21.8145 34.6886L21.8266 35.0261C21.8266 35.0261 21.941 35.051 22.146 35.0563C22.3781 35.0623 22.4504 34.9961 22.4324 34.7609C22.4255 34.6708 22.3299 34.629 22.2093 34.6102Z" fill="#1D1D1B"/>
<path d="M22.8158 34.5858C22.6966 34.6121 22.6039 34.6598 22.6026 34.7502C22.5992 34.9859 22.6756 35.0476 22.9068 35.0271C23.1111 35.009 23.2239 34.977 23.2239 34.977L23.2148 34.6393C23.2148 34.6393 22.9498 34.5563 22.8158 34.5858Z" fill="#1D1D1B"/>
<path d="M13.1561 12.7531C12.277 12.5821 11.4055 12.9884 11.3579 13.9341C11.3104 14.8796 11.7529 15.8024 12.6888 15.9562C13.6248 16.1101 13.9192 15.7114 13.9192 15.7114L13.1561 12.7531Z" fill="#F75F5F"/>
<path d="M13.6977 14.8534L13.3494 13.5036C13.2419 13.4541 12.7992 13.2742 12.3972 13.467C11.9358 13.6882 11.9634 14.4353 12.2908 14.8027C12.6123 15.1634 13.1326 15.1547 13.6977 14.8534Z" fill="#F64747"/>
<path d="M19.1991 11.8182C19.9697 11.3619 20.9271 11.4519 21.2894 12.3266C21.6518 13.2012 21.5451 14.219 20.7151 14.6783C19.8851 15.1376 19.474 14.8609 19.474 14.8609L19.1991 11.8182Z" fill="#F75F5F"/>
<path d="M19.3943 13.9785L19.2689 12.5901C19.3535 12.5074 19.71 12.1894 20.1534 12.2359C20.6623 12.2892 20.8873 13.0021 20.7023 13.4582C20.5206 13.906 20.0278 14.0725 19.3943 13.9785Z" fill="#F64747"/>
<path d="M13.8979 8.69535C12.6186 8.97198 12.3741 12.1938 12.3741 12.1938C12.4085 12.7131 12.6109 13.5629 12.9762 14.7162C13.3416 15.8696 13.5661 16.6878 14.2108 17.3781C14.8556 18.0684 16.0077 18.9752 16.6928 18.9396C17.3779 18.904 18.0804 18.8101 18.5931 18.4174C19.1058 18.0246 19.7543 17.1382 19.9568 16.5503C20.1591 15.9622 20.2911 13.368 20.2064 12.7191C20.1218 12.0702 15.1772 8.41883 13.8979 8.69535Z" fill="#F27752"/>
<path d="M14.8548 8.6314L13.8272 9.16398C14.5194 10.422 15.7968 11.3069 16.2766 11.6295C16.7563 11.952 17.9543 12.0582 18.4853 12.464C19.0164 12.8699 20.2002 14.0659 20.2002 14.0659L19.5077 11.6605L14.8548 8.6314Z" fill="#0E4395"/>
<path d="M18.6731 6.62515C17.7236 6.14427 16.9378 6.12998 16.2694 6.10161L16.4148 5.90359C16.4148 5.90359 16.0295 5.75421 15.3279 5.93313C14.6261 6.11217 14.1497 6.55469 14.1497 6.55469L14.2003 6.12816C14.2003 6.12816 13.8731 6.31436 13.6713 6.66621L13.5108 6.21865C13.5108 6.21865 13.3018 6.52847 13.1879 6.9083C13.0738 7.28805 13.0803 7.8055 13.0803 7.8055C13.0803 7.8055 12.5824 7.96367 12.1057 8.56461C11.629 9.16565 11.6891 9.8322 11.6891 9.8322C11.6891 9.8322 11.4272 10.3961 11.604 11.2585C11.7808 12.1209 12.2084 13.3145 12.8244 14.1586C12.8244 14.1586 12.5584 12.6202 12.5884 12.1541C12.6183 11.688 13.7827 8.90833 13.7827 8.90833C13.7827 8.90833 14.4583 9.85732 15.3162 10.5012C16.174 11.145 17.0105 11.346 17.0105 11.346L16.8451 11.0289C16.8451 11.0289 17.7336 11.6098 18.2201 11.785L18.006 11.3467C18.006 11.3467 18.7576 12.0953 19.2121 12.4055C19.6667 12.7158 20.1603 13.8116 20.2096 14.3359C20.2096 14.3359 20.4872 13.0636 20.5223 12.467C20.5573 11.8704 20.7335 11.451 20.6323 10.5467C20.5313 9.6423 20.1499 7.37311 18.6731 6.62515Z" fill="#06223E"/>
<path d="M26.047 1.5931C30.1653 1.5931 33.5037 4.93157 33.5037 9.04968V37.9065C33.5037 42.0247 30.1653 45.3631 26.047 45.3631H9.04968C4.93158 45.3631 1.5931 42.0247 1.5931 37.9065V9.04968C1.5931 4.93157 4.93158 1.5931 9.04968 1.5931H26.047ZM26.047 0H9.04968C4.05969 0 0 4.05969 0 9.04968V37.9065C0 42.8966 4.05969 46.9562 9.04968 46.9562H26.047C31.0371 46.9562 35.0968 42.8966 35.0968 37.9065V9.04968C35.0968 4.05969 31.0371 0 26.047 0Z" fill="#D6D6D6"/>
<path d="M14.8329 69.412C14.7993 70.5892 14.7969 72.3876 14.3643 73.283C15.5473 74.3194 17.8527 75.6687 18.4655 75.8056C18.4655 75.8056 19.9418 74.6102 20.8888 73.4993C20.7349 72.8817 20.6815 72.245 20.6815 72.245L14.8329 69.412Z" fill="#DE613B"/>
<path d="M13.4971 74.5555C13.7652 75.1612 14.2569 76.0164 14.8281 76.9022C15.5182 77.9722 16.3398 79.1141 17.0586 79.9628C17.8081 80.8476 18.3899 81.6017 18.7842 82.1337C18.9813 82.3996 19.1318 82.6102 19.2324 82.7538L19.374 82.9589C19.3771 82.9634 19.3794 82.9674 19.3809 82.9696C19.3815 82.9705 19.3825 82.971 19.3828 82.9716V82.9725L19.6689 83.4012L19.8291 82.912C20.1096 82.0532 20.3933 80.4241 20.6152 78.9159C20.7824 77.7798 20.917 76.6951 20.9893 76.0292L21.04 75.5165C21.0629 75.2279 21.0818 74.9155 21.1025 74.6239C21.4169 75.0172 22.0602 75.5529 22.8496 76.1298C23.6828 76.7386 24.7059 77.4143 25.7451 78.0526C27.7316 79.2717 28.4727 80.9176 29.3965 83.8534C29.8572 85.3161 30.3982 87.3453 30.6885 89.4384C30.9795 91.5369 31.0146 93.673 30.4863 95.3641C29.6892 97.915 27.1247 98.6333 25.958 98.828H9.03418C7.68432 98.828 6.42259 98.455 5.34277 97.8094C4.60352 94.8238 3.95612 89.596 3.82227 86.076C3.68251 82.3974 6.16068 80.2519 8.0127 78.7997C9.40271 77.7092 12.0605 75.7721 13.4971 74.5555Z" fill="white" stroke="#F9F9F9" stroke-width="0.5"/>
<path d="M18.4661 75.8054C17.8533 75.6686 15.5478 74.3193 14.3649 73.283C14.3305 73.3551 14.2935 73.4207 14.2526 73.4804C14.1485 73.6336 13.9175 73.8621 13.5996 74.1424C13.9912 75.2729 15.8297 78.1248 17.2494 79.8011C18.7569 81.5805 19.5917 82.8338 19.5917 82.8338C20.1373 81.1635 20.7182 76.4044 20.7911 75.4966C20.8452 74.8126 20.9 73.9957 20.9239 73.6335C20.9116 73.5894 20.9 73.5444 20.8895 73.4993C19.9424 74.6102 18.4661 75.8054 18.4661 75.8054Z" fill="#EEEEEE"/>
<path d="M19.6923 76.348C19.2252 76.1029 18.466 75.8055 18.466 75.8055C18.466 75.8055 17.6668 76.1867 16.9767 76.7496C16.9551 76.7673 16.9332 76.7854 16.9111 76.8035C17.2033 77.2192 17.8284 78.1049 17.9938 78.3116C17.9938 78.3116 17.669 79.2557 17.4595 80.051C18.8339 81.6965 19.5917 82.8339 19.5917 82.8339C19.7677 82.2951 19.9473 81.4346 20.1125 80.4859C19.7401 79.7302 19.1295 78.4995 18.9563 78.2027C18.9563 78.2027 19.5568 76.7823 19.6923 76.348Z" fill="#06223E"/>
<path d="M13.5989 74.1423C13.2817 74.422 12.8769 74.7533 12.4248 75.1111C12.5188 76.5262 13.4342 79.4013 13.4342 79.4013C13.4342 79.4013 14.0337 79.3106 14.5604 79.2015C15.0871 79.0926 15.5049 78.911 15.5049 78.911L15.3595 80.0007C15.3595 80.0007 16.7217 81.2539 17.4482 81.9986C18.1747 82.7432 19.1738 84.0146 19.1738 84.0146L19.591 82.8338C19.591 82.8338 18.7562 81.5803 17.2487 79.8009C15.829 78.1247 13.9905 75.2728 13.5989 74.1423Z" fill="#F9F9F9"/>
<path d="M18.447 87.8833C18.2664 87.8833 18.1201 88.0297 18.1201 88.2103C18.1201 88.3908 18.2664 88.5372 18.447 88.5372C18.6275 88.5372 18.7738 88.3908 18.7738 88.2103C18.7738 88.0297 18.6275 87.8833 18.447 87.8833Z" fill="white"/>
<path d="M18.2664 92.9143C18.0859 92.9143 17.9395 93.0606 17.9395 93.2412C17.9395 93.4217 18.0859 93.5682 18.2664 93.5682C18.4469 93.5682 18.5932 93.4217 18.5932 93.2412C18.5932 93.0606 18.4469 92.9143 18.2664 92.9143Z" fill="white"/>
<path d="M22.1185 75.251C21.7261 74.928 21.4277 74.6449 21.2629 74.4251C21.1195 74.2333 21.008 73.9416 20.9236 73.6337C20.8998 73.9958 20.8449 74.8127 20.7909 75.4967C20.718 76.4044 20.1372 81.1635 19.5915 82.8339C19.5915 82.8339 19.4649 82.9975 19.1743 84.0147C18.8837 85.0318 17.7393 88.3011 17.7393 88.3011C17.9391 87.8106 20.5 83.3246 20.9359 82.3983C21.3718 81.4719 22.1165 79.6012 22.1165 79.6012L21.6261 79.02C21.6261 79.02 22.0256 78.9836 22.4616 79.0018C22.8974 79.02 23.3333 79.1108 23.3333 79.1108C23.3333 79.1108 23.2244 78.2208 23.0791 77.8031C22.9535 77.4419 22.4887 76.0362 22.1185 75.251Z" fill="#F9F9F9"/>
<path d="M17.8405 95.0631C17.7144 95.0845 17.5815 95.1098 17.4578 95.1393C16.9941 95.2483 13.0986 96.2289 12.2285 96.6197C12.2285 96.6197 13.2616 96.8007 13.5614 97.1007C13.8612 97.4005 14.3242 97.6732 15.0058 97.7544C15.6867 97.8363 16.5583 98.1091 17.0761 98.2452C17.4757 98.3501 18.264 98.8273 18.8916 99.0779H19.3987C19.3547 98.5127 19.2711 97.7469 19.1194 97.1555C18.8851 96.2388 18.4877 95.6873 17.8405 95.0631Z" fill="#F27752"/>
<path d="M18.475 94.9031C18.475 94.9031 18.1935 94.9666 17.8408 95.063C18.488 95.6873 18.8854 96.2387 19.1197 97.1554C19.2714 97.7468 19.3553 98.5127 19.3991 99.0778H21.1461C21.0138 98.6326 20.8009 98.037 20.4821 97.4553C19.8554 96.3108 18.475 94.9031 18.475 94.9031Z" fill="white"/>
<path d="M26.158 92.0061C25.9536 92.1422 25.3679 92.6872 25.3679 92.6872C25.4904 92.4964 26.0353 91.8835 26.0353 91.8835C26.0353 91.8835 26.621 91.6519 26.7436 91.4066C26.8662 91.1615 26.7981 90.9708 26.6755 91.0116C26.5529 91.0526 26.0489 91.148 25.6539 91.4341C25.2589 91.7202 24.6186 92.374 24.6186 92.374C24.6186 92.374 25.2453 91.611 25.5041 91.4204C25.7629 91.2296 25.9671 91.0935 26.0217 90.8891C26.0762 90.6848 25.9399 90.5758 25.9399 90.5758C25.9399 90.5758 25.4087 90.7121 25.0137 90.9436C24.6186 91.1752 23.697 92.115 23.697 92.115C23.8604 91.8244 24.4961 91.3342 24.7323 91.0617C24.9684 90.7893 25.0228 90.6439 24.8592 90.4987C24.6958 90.3534 23.4426 91.2433 23.0067 91.6428C22.5708 92.0424 22.2439 92.5872 21.917 93.9495L25.872 93.1912C25.872 93.1912 26.1443 92.8371 26.3486 92.6736C26.5529 92.5101 26.8935 92.0333 26.7981 91.8699C26.7028 91.7064 26.3623 91.8699 26.158 92.0061Z" fill="#F27752"/>
<path d="M20.429 65.5694C20.9173 64.9671 21.6355 64.9506 22.0505 65.8814C22.4654 66.8122 22.5603 67.9595 22.029 68.5725C21.4977 69.1856 21.1486 68.9273 21.1486 68.9273L20.429 65.5694Z" fill="#F75F5F"/>
<path d="M20.9393 67.9535L20.6109 66.4214C20.6589 66.3189 20.8667 65.921 21.2002 65.9187C21.5829 65.9163 21.8695 66.6836 21.8112 67.2144C21.754 67.7356 21.4204 67.9812 20.9393 67.9535Z" fill="#F64747"/>
<path d="M20.5033 64.4997C20.3762 64.0391 19.9812 62.6955 19.2716 62.102C18.5622 61.5085 17.0493 61.0821 15.7227 61.6214C14.3961 62.1607 13.9896 62.2815 13.619 62.7089C12.6624 63.8123 12.6911 65.5605 13.047 66.7257C13.4028 67.8909 14.2894 70.3107 15.0783 71.4253C15.8671 72.5399 17.0428 73.4446 17.985 73.5264C18.9272 73.6081 20.0653 73.2554 20.7325 72.6287C21.3997 72.002 21.4908 70.437 21.4997 69.8874C21.5085 69.3377 21.2653 67.8849 21.113 66.8969C20.9608 65.9091 20.6304 64.9603 20.5033 64.4997Z" fill="#F27752"/>
<path d="M19.6537 61.7693C19.2704 61.3068 18.4388 60.842 17.6251 60.608C16.8113 60.3742 15.7672 60.5145 14.9065 60.8164C14.0458 61.1184 12.985 62.0877 12.5526 63.4372C12.4019 63.9075 12.2567 64.8456 12.7134 66.2163C13.1574 67.5496 13.7099 68.4038 13.7099 68.4038L14.2074 68.318C14.2074 68.318 13.7678 67.4919 13.8232 66.6762C13.8633 66.0861 13.3377 65.2243 13.4806 64.6866C13.6233 64.1486 13.8123 63.5368 14.1029 63.3245C14.6082 63.3064 15.6682 63.2235 16.5566 62.8451C17.445 62.4668 17.856 61.7604 17.856 61.7604C17.856 61.7604 18.455 62.0743 18.8353 62.2767C19.2156 62.4791 19.4136 62.6479 19.7206 62.9273C20.0277 63.2068 20.2118 64.0769 20.3905 64.5497C20.5694 65.0225 20.9174 65.8869 20.9174 65.8869C20.9174 65.8869 20.7122 64.2514 20.5503 63.5709C20.3884 62.8904 19.9915 62.1771 19.6537 61.7693Z" fill="#06223E"/>
<path d="M13.4949 67.3584C12.5562 67.2655 11.7217 67.8128 11.8305 68.8679C11.9392 69.9229 12.5512 70.8987 13.5461 70.9664C14.5409 71.034 14.7791 70.5588 14.7791 70.5588L13.4949 67.3584Z" fill="#F75F5F"/>
<path d="M14.4067 69.6307L13.8209 68.1704C13.7013 68.1272 13.2129 67.9765 12.8289 68.2348C12.3882 68.5312 12.5413 69.3577 12.9418 69.7294C13.3349 70.0945 13.8721 70.0275 14.4067 69.6307Z" fill="#F64747"/>
<path d="M17.9775 60.6535C17.9775 60.6535 18.1378 60.1938 18.0001 60.1434C17.8623 60.093 17.5282 60.5644 17.5282 60.5644C17.5282 60.5644 17.5171 60.1954 17.3141 60.2192C16.93 60.2642 15.5895 60.7959 15.5895 60.7959L18.1915 61.1541C18.1915 61.1541 18.4644 60.7301 18.3418 60.6016C18.2191 60.4732 17.9775 60.6535 17.9775 60.6535Z" fill="#06223E"/>
<path d="M26.047 55.2823C30.1653 55.2823 33.5037 58.6207 33.5037 62.7388V91.5956C33.5037 95.7139 30.1653 99.0521 26.047 99.0521H9.04968C4.93158 99.0521 1.5931 95.7139 1.5931 91.5956V62.7388C1.5931 58.6207 4.93158 55.2823 9.04968 55.2823H26.047ZM26.047 53.6892H9.04968C4.05969 53.6892 0 57.7488 0 62.7389V91.5956C0 96.5857 4.05969 100.645 9.04968 100.645H26.047C31.0371 100.645 35.0968 96.5857 35.0968 91.5956V62.7389C35.0968 57.7488 31.0371 53.6892 26.047 53.6892Z" fill="#D6D6D6"/>
<path d="M62.5713 59.3564C61.0167 58.5868 59.7833 59.4461 59.7833 59.4461C59.7833 59.4461 58.8154 59.4088 57.9795 60.0715C57.1437 60.7342 56.419 61.873 56.1651 62.9367C55.9112 64.0003 56.1408 65.2662 55.841 66.029C55.541 66.7916 55.3514 68.3978 54.9135 69.3417C54.5718 70.0785 53.8655 71.2763 53.0067 72.2111C52.0948 73.2035 51.0678 74.9287 51.0541 75.0185C51.0404 75.1083 61.9222 76.3986 61.9222 76.3986C61.9222 76.3986 62.4045 75.6454 62.9781 74.1711C63.5519 72.697 63.5519 71.8519 63.7087 70.4611C63.8656 69.0703 64.3643 67.3643 64.5385 66.5824C64.7127 65.8005 65.3042 64.329 65.1254 62.8505C64.9465 61.3718 64.1107 60.1186 62.5713 59.3564Z" fill="#2372EC"/>
<path d="M59.6904 60.2954C59.8386 60.5761 59.979 60.8633 60.1763 61.1025C60.373 61.3411 60.6222 61.5211 60.9034 61.641C61.1851 61.761 61.4863 61.8423 61.7923 61.9064C62.1022 61.9714 62.4205 62.0483 62.7256 62.1641C63.0302 62.2798 63.3301 62.4394 63.5772 62.6719C63.8245 62.9049 63.9928 63.2081 64.1001 63.5144C64.2102 63.8278 64.2596 64.1479 64.284 64.4673C64.3084 64.7868 64.3148 65.1062 64.2921 65.4244C64.2592 65.1078 64.2226 64.7928 64.1646 64.4827C64.1068 64.1739 64.0403 63.8641 63.9217 63.5844C63.8011 63.3002 63.6426 63.0401 63.4189 62.8426C63.1959 62.6458 62.9251 62.5029 62.6377 62.3935C62.349 62.2836 62.0494 62.2085 61.7406 62.1328C61.4285 62.0563 61.1166 61.9609 60.8216 61.8134C60.5283 61.6671 60.2604 61.4473 60.0801 61.1737C59.9898 61.0369 59.9191 60.8914 59.8553 60.7447C59.7915 60.5977 59.7398 60.4467 59.6904 60.2954Z" fill="#06223E"/>
<path d="M64.5295 65.5523C64.5478 65.2132 64.5214 64.8756 64.4822 64.5405C64.443 64.2057 64.3909 63.8723 64.3124 63.5478C64.234 63.2244 64.137 62.9035 63.9515 62.6491C63.7656 62.3942 63.503 62.1993 63.2128 62.0458C62.9218 61.892 62.6114 61.7651 62.2969 61.6469C61.9831 61.5289 61.659 61.4278 61.3404 61.2877C61.025 61.1492 60.7151 60.9751 60.4633 60.7281C60.2087 60.4782 60.0695 60.1561 59.9229 59.8533C60.0241 59.9904 60.1124 60.137 60.2103 60.2728C60.3085 60.4089 60.4219 60.5302 60.5491 60.6338C60.8036 60.8413 61.1057 60.9844 61.4167 61.102C61.726 61.219 62.0546 61.3083 62.3776 61.4245C62.6994 61.5403 63.0217 61.6636 63.329 61.8311C63.6335 61.9972 63.9337 62.2138 64.1389 62.5184C64.3452 62.8245 64.4332 63.1733 64.4955 63.5093C64.5582 63.8485 64.589 64.1904 64.5977 64.5323C64.602 64.7033 64.5986 64.8743 64.5906 65.0448C64.5827 65.2151 64.5661 65.3859 64.5295 65.5523Z" fill="#06223E"/>
<path d="M64.7686 65.313C64.8051 64.9797 64.8216 64.6466 64.8168 64.3148C64.8121 63.9835 64.7899 63.6534 64.7294 63.334C64.6692 63.0153 64.5633 62.7075 64.3996 62.4374C64.2354 62.1662 64.0075 61.9377 63.7518 61.7409C63.2387 61.3458 62.6139 61.0905 62.0222 60.7715C61.7269 60.6123 61.4322 60.4508 61.1483 60.2713C60.8648 60.0922 60.5813 59.9069 60.3359 59.6772C60.8816 60.0659 61.492 60.3419 62.0947 60.626C62.3971 60.7685 62.701 60.9013 63.0074 61.041C63.3155 61.1814 63.6197 61.341 63.8958 61.5495C64.0338 61.6538 64.1682 61.7652 64.2876 61.8938C64.4068 62.0223 64.5141 62.1631 64.6044 62.3144C64.7856 62.6186 64.887 62.9599 64.9334 63.3004C65.0263 63.9825 64.9432 64.6654 64.7686 65.313Z" fill="#06223E"/>
<path d="M64.4811 61.65C64.2404 61.3683 63.9538 61.1484 63.6567 60.9424C63.3596 60.7365 63.0491 60.5496 62.7323 60.373C62.4156 60.1965 62.0944 60.027 61.7667 59.8696C61.4387 59.7122 61.1082 59.5625 60.7565 59.4475C61.1287 59.462 61.4928 59.5673 61.841 59.6928C62.191 59.819 62.5281 59.9774 62.8528 60.1589C63.1771 60.3402 63.4885 60.548 63.7729 60.7911C64.0549 61.032 64.3252 61.3103 64.4811 61.65Z" fill="#06223E"/>
<path d="M59.2466 60.5585C59.0847 60.9063 58.923 61.2515 58.7196 61.5808C58.5166 61.9092 58.2736 62.2178 57.9925 62.4887C57.923 62.5557 57.8462 62.6211 57.7777 62.6838C57.7099 62.7459 57.6403 62.8063 57.5756 62.8723C57.4459 63.0041 57.3207 63.1419 57.2045 63.2884C56.9721 63.5813 56.7621 63.8962 56.5744 64.2299C56.6752 63.8588 56.8473 63.5085 57.0564 63.1816C57.1612 63.0177 57.2823 62.8641 57.4129 62.7178C57.4781 62.6447 57.5473 62.5748 57.6195 62.5075C57.6908 62.441 57.7568 62.3805 57.8234 62.3142C58.0867 62.052 58.329 61.7694 58.5555 61.4691C58.7817 61.1691 58.9936 60.8493 59.2466 60.5585Z" fill="#06223E"/>
<path d="M59.4141 59.9409C59.0282 60.1596 58.7218 60.4706 58.4769 60.8216C58.3543 60.9972 58.2423 61.1804 58.1431 61.3714C58.0392 61.5716 57.9062 61.7649 57.7583 61.9354C57.6099 62.1067 57.4488 62.2629 57.2874 62.4121C57.1257 62.5618 56.9668 62.7084 56.826 62.8652C56.755 62.9442 56.6956 63.0271 56.6398 63.1173C56.5837 63.2078 56.5345 63.3027 56.4909 63.4005C56.4037 63.5964 56.3376 63.8051 56.3117 64.0245C56.2827 63.8036 56.315 63.5759 56.3775 63.3593C56.4394 63.1442 56.5357 62.9296 56.6764 62.7452C56.9554 62.3795 57.2933 62.0981 57.5722 61.775C57.7123 61.6128 57.8322 61.4441 57.9402 61.2588C58.0534 61.0648 58.1802 60.8777 58.3258 60.7048C58.615 60.3613 58.9857 60.0651 59.4141 59.9409Z" fill="#06223E"/>
<path d="M58.3271 60.198C58.1619 60.3567 58.016 60.519 57.8751 60.6876C57.7346 60.8558 57.5998 61.0281 57.4674 61.2031C57.3349 61.3781 56.6867 62.2814 56.6867 62.2814C56.7248 62.0544 56.81 61.8391 56.9109 61.6351C57.012 61.4303 57.1336 61.2364 57.2716 61.0546C57.4094 60.8729 57.5645 60.7028 57.7394 60.5531C57.9132 60.4043 58.1079 60.2701 58.3271 60.198Z" fill="#06223E"/>
<path d="M51.922 74.5076C52.1961 73.8774 52.639 73.3346 53.0767 72.8163C53.5165 72.2953 53.9597 71.7841 54.364 71.2441C54.5667 70.9732 54.7528 70.6974 54.9146 70.405C55.0761 70.1133 55.2086 69.8061 55.3136 69.4884C55.5238 68.8519 55.5899 68.1666 55.763 67.5052C55.7199 67.8439 55.6937 68.1819 55.6607 68.5224C55.6279 68.8624 55.5731 69.2038 55.4845 69.5388C55.3069 70.2103 54.9645 70.8339 54.5582 71.3872C54.1509 71.9418 53.6933 72.4544 53.2282 72.9508C52.9956 73.1991 52.7639 73.4467 52.5399 73.7002C52.3154 73.9541 52.1061 74.2196 51.922 74.5076Z" fill="#06223E"/>
<path d="M52.8675 74.2109C53.1185 73.7042 53.4724 73.2598 53.818 72.8225C53.9914 72.6028 54.1711 72.3892 54.3491 72.1748C54.5282 71.9592 54.7126 71.752 54.8662 71.5307C55.177 71.0829 55.4148 70.5808 55.62 70.0663C55.8255 69.5508 55.9957 69.0188 56.1649 68.485C56.0653 69.0356 55.9445 69.5843 55.7702 70.1204C55.5961 70.6554 55.3736 71.1815 55.0576 71.6609C54.898 71.9029 54.7156 72.1187 54.5372 72.3322C54.3579 72.5473 54.1727 72.7569 53.9858 72.9647C53.799 73.1722 53.139 73.8911 53.139 73.8911C53.0465 73.9955 52.956 74.1014 52.8675 74.2109Z" fill="#06223E"/>
<path d="M53.8641 73.94C54.0275 73.5301 54.2768 73.165 54.5569 72.831C54.6269 72.7474 54.6978 72.6639 54.7741 72.5859C54.8518 72.5069 54.9256 72.4293 54.994 72.3528C55.1332 72.1968 55.2623 72.0299 55.3792 71.8535C55.496 71.6769 55.6059 71.4946 55.7078 71.3071C55.8096 71.1195 55.9053 70.9278 55.9973 70.7337C56.1814 70.3457 56.3468 69.9469 56.5177 69.549C56.4087 69.968 56.2813 70.3822 56.1273 70.7891C55.9734 71.1954 55.7929 71.5954 55.5605 71.9699C55.4444 72.1572 55.3159 72.3381 55.1716 72.5078L54.7371 72.9878C54.4498 73.3045 54.1672 73.6229 53.8641 73.94Z" fill="#06223E"/>
<path d="M61.9209 75.4431C62.0825 74.88 62.2613 74.326 62.4326 73.7719C62.5184 73.4948 62.6029 73.2181 62.6831 72.941C62.7636 72.6636 62.8309 72.3866 62.8875 72.1028C63.0003 71.536 63.0865 70.9607 63.1744 70.3852C63.2621 69.8098 63.3449 69.2322 63.4506 68.6581C63.4151 69.2403 63.3836 69.8226 63.3313 70.4041C63.279 70.9857 63.2124 71.5661 63.1136 72.1453C63.0642 72.4344 63.0006 72.7256 62.9192 73.0083C62.8379 73.291 62.745 73.5693 62.642 73.8436C62.4363 74.3918 62.2002 74.9276 61.9209 75.4431Z" fill="#06223E"/>
<path d="M61.53 74.8692C61.6123 74.4519 61.7239 74.0481 61.8421 73.6466L62.2118 72.4496C62.3276 72.0495 62.4325 71.6462 62.5186 71.238C62.6048 70.8297 62.6746 70.4173 62.7311 69.9999C62.7597 70.8426 62.6377 71.69 62.4292 72.5089C62.3246 72.9193 62.2044 73.3232 62.0582 73.7183C61.9121 74.1135 61.7449 74.5016 61.53 74.8692Z" fill="#06223E"/>
<path d="M56.1152 73.4523C56.2444 73.4615 56.4301 73.4749 56.6543 73.4913C57.1029 73.5242 57.7075 73.5694 58.3311 73.6193C58.9549 73.6692 59.597 73.7237 60.1211 73.7745C60.6543 73.8263 61.0425 73.8729 61.1768 73.9044C61.2694 73.9262 61.3791 73.9899 61.5156 74.1193C61.6513 74.2478 61.7957 74.4228 61.9629 74.6398C62.2914 75.0659 62.695 75.6374 63.2344 76.1954C63.7811 76.761 64.5911 77.2982 65.4014 77.8859C66.2245 78.4829 67.0741 79.1482 67.7607 79.9933C68.4246 80.8103 68.7891 82.1141 69.0479 83.5577C69.1762 84.2739 69.2762 85.011 69.377 85.7247C69.4773 86.4356 69.5788 87.1255 69.708 87.7345C69.964 88.9412 70.3241 90.464 70.5635 91.9318C70.8043 93.4086 70.913 94.7789 70.6904 95.6866C70.5405 96.2979 70.1727 97.0056 69.6787 97.6896C69.196 98.358 68.6026 98.9883 68.002 99.4689C67.3454 99.6658 66.6498 99.7725 65.9287 99.7726H65.6943C65.4977 99.2474 65.4395 98.4681 65.4424 97.7628C65.444 97.3847 65.4616 97.0412 65.4795 96.7921C65.4884 96.6677 65.4973 96.5663 65.5039 96.4972C65.5072 96.4628 65.5099 96.4359 65.5117 96.4181C65.5126 96.4095 65.5132 96.4029 65.5137 96.3986C65.5139 96.3965 65.5145 96.3947 65.5146 96.3937V96.3917L65.5518 96.0685L65.2295 96.1163H65.2285L65.2266 96.1173C65.2243 96.1176 65.2204 96.1176 65.2158 96.1183C65.2067 96.1196 65.1927 96.1225 65.1748 96.1251C65.1389 96.1304 65.0851 96.1384 65.0156 96.1486C64.8761 96.1689 64.6713 96.1982 64.4102 96.2355C63.8868 96.3102 63.1366 96.416 62.2314 96.5382C60.421 96.7827 57.9892 97.0945 55.5039 97.3644C53.0176 97.6343 50.4817 97.8613 48.4609 97.9376C47.4499 97.9758 46.5741 97.976 45.9004 97.9259C45.5635 97.9008 45.2831 97.8639 45.0645 97.8146C44.8391 97.7637 44.7055 97.7054 44.6406 97.6554C44.2762 97.3743 44.0416 96.8857 43.9238 96.2081C43.8067 95.5338 43.8117 94.7085 43.8926 93.8029C44.0546 91.9894 44.5136 89.9202 44.8428 88.2013C45.1675 86.5055 45.7012 84.4803 46.2441 82.7247C46.7901 80.9594 47.3364 79.4978 47.6826 78.9093C47.8401 78.6416 48.1077 78.3767 48.46 78.1154C48.8103 77.8555 49.23 77.6089 49.6768 77.3732C50.1233 77.1376 50.5896 76.9166 51.0332 76.7042C51.4738 76.4932 51.8953 76.2896 52.2402 76.0939C52.9128 75.7122 53.6005 75.3164 54.1455 74.9904C54.4178 74.8274 54.6561 74.6806 54.8398 74.5616C55.0137 74.4492 55.1629 74.3459 55.2354 74.2736H55.2363C55.2967 74.2131 55.3609 74.1353 55.4229 74.0587C55.4879 73.9784 55.5534 73.8955 55.625 73.8107C55.7501 73.6625 55.8765 73.5322 56.001 73.4435C56.0317 73.4457 56.07 73.449 56.1152 73.4523Z" fill="white" stroke="#F9F9F9" stroke-width="0.5"/>
<path d="M53.512 84.6967C52.9499 84.6111 52.4247 84.9974 52.339 85.5596C52.2535 86.1217 52.6397 86.647 53.2019 86.7325C53.7641 86.8182 54.2893 86.4319 54.375 85.8697C54.4606 85.3075 54.0743 84.7823 53.512 84.6967Z" fill="#D6D6D6"/>
<path d="M53.4922 84.8294C53.0034 84.7549 52.5467 85.0909 52.4722 85.5797C52.3978 86.0685 52.7338 86.5252 53.2226 86.5997C53.7113 86.6742 54.168 86.3382 54.2425 85.8493C54.317 85.3606 53.9811 84.9038 53.4922 84.8294Z" fill="#E0DBCA"/>
<path d="M63.8019 89.9894H63.7927C62.4876 89.9853 61.7946 87.4848 61.3365 85.3068C61.3129 85.1943 61.2928 85.0991 61.2762 85.0254C61.2576 84.942 61.3101 84.8593 61.3935 84.8405C61.4771 84.822 61.5597 84.8744 61.5785 84.9578C61.5951 85.0325 61.6155 85.1289 61.6395 85.243C61.87 86.3395 62.5716 89.676 63.7937 89.6797C64.5733 89.6814 65.2762 89.3316 65.2833 89.3281C65.3595 89.2896 65.4526 89.3206 65.491 89.3968C65.5293 89.4732 65.4986 89.5662 65.4224 89.6047C65.391 89.6205 64.6489 89.9894 63.8019 89.9894Z" fill="#B8B8B8"/>
<path d="M63.1311 90.1167C62.7786 90.1167 62.4341 90.0332 62.1766 89.9707C62.1215 89.9573 62.0694 89.9447 62.021 89.9337C61.9376 89.9147 61.8853 89.8318 61.9043 89.7485C61.9232 89.665 62.0061 89.6128 62.0895 89.6317C62.1394 89.643 62.193 89.656 62.2497 89.6698C63.0982 89.8758 63.8893 89.9809 64.2436 89.0176C64.5958 88.0599 64.7845 86.6218 64.9223 85.5717C64.9653 85.2439 65.006 84.9344 65.0457 84.6832C65.059 84.5987 65.1382 84.5411 65.2227 84.5544C65.3071 84.5677 65.3649 84.647 65.3515 84.7314C65.3125 84.9787 65.2721 85.2863 65.2293 85.612C65.0819 86.7358 64.8982 88.1345 64.5341 89.1245C64.243 89.9159 63.6774 90.1167 63.1311 90.1167Z" fill="#B8B8B8"/>
<path d="M53.3424 85.859C53.2621 85.859 53.192 85.8001 53.1802 85.7184C53.1781 85.7031 52.9596 84.1621 52.9181 82.3956C52.915 82.2612 52.9104 82.1149 52.9054 81.9579C52.8449 80.0486 52.7322 76.4948 54.7059 74.3993C54.7679 74.3334 54.8716 74.3303 54.9375 74.3923C55.0034 74.4544 55.0064 74.5581 54.9444 74.624C53.0642 76.6204 53.1739 80.0858 53.2328 81.9475C53.2379 82.1054 53.2424 82.2528 53.2457 82.388C53.2867 84.135 53.5025 85.6567 53.5046 85.6719C53.5175 85.7614 53.4553 85.8445 53.3657 85.8573C53.3579 85.8584 53.3501 85.859 53.3424 85.859Z" fill="#E72452"/>
<path d="M63.299 81.1722C63.2961 81.1722 63.293 81.1721 63.2899 81.172C63.1997 81.1671 63.1304 81.0899 63.1353 80.9995C63.1359 80.9869 63.2025 79.7232 63.1353 78.4772L63.131 78.3983C63.065 77.167 63.0027 76.0039 61.6671 74.8142C61.5996 74.754 61.5936 74.6505 61.6539 74.5829C61.7139 74.5153 61.8175 74.5092 61.8851 74.5694C63.3226 75.8501 63.3915 77.1367 63.4583 78.3808L63.4624 78.4597C63.5308 79.7238 63.4631 81.0044 63.4624 81.0172C63.4577 81.1045 63.3854 81.1722 63.299 81.1722Z" fill="#E72452"/>
<path d="M61.3994 85.0657C61.3261 85.0657 61.2594 85.0162 61.2406 84.9419C60.9203 83.6732 61.0957 82.4113 61.6986 81.6488C62.1091 81.1294 62.6936 80.8611 63.3866 80.8702C63.8526 80.8769 64.246 81.0521 64.5561 81.3909C65.4967 82.4187 65.3448 84.6154 65.338 84.7085C65.3312 84.7988 65.2532 84.8671 65.1625 84.8597C65.0722 84.8531 65.0045 84.7744 65.0111 84.6841C65.0127 84.6627 65.1592 82.5349 64.314 81.6118C64.0639 81.3387 63.7591 81.2033 63.382 81.1979C62.7865 81.1885 62.3056 81.4094 61.9558 81.8519C61.4147 82.5363 61.2623 83.6897 61.5583 84.8619C61.5804 84.9496 61.5274 85.0386 61.4396 85.0607C61.426 85.0641 61.4126 85.0657 61.3994 85.0657Z" fill="#E72452"/>
<path d="M65.2996 89.2332C65.1552 89.2574 64.9258 89.4453 64.9258 89.4453L65.0516 89.7833C65.0516 89.7833 65.176 89.77 65.3854 89.7065C65.6226 89.6347 65.6737 89.5431 65.5764 89.3109C65.539 89.222 65.4282 89.2117 65.2996 89.2332Z" fill="#1D1D1B"/>
<path d="M61.6515 89.5894C61.5794 89.8305 61.6399 89.9161 61.8834 89.9623C62.0985 90.0033 62.2236 90.0033 62.2236 90.0033L62.3125 89.6538C62.3125 89.6538 62.0647 89.4913 61.9184 89.4826C61.7883 89.4749 61.6792 89.4968 61.6515 89.5894Z" fill="#1D1D1B"/>
<path d="M62.953 77.5633C63.2799 77.3454 63.6341 76.9912 63.6341 76.9912C63.6341 76.9912 63.1367 76.0335 62.8691 75.4053C62.1638 74.5406 61.7348 73.7784 61.2343 73.6607C60.6168 73.5154 55.9309 73.1886 55.9309 73.1886C55.5677 73.4065 55.2589 73.8969 55.059 74.0967C55.0258 74.1301 54.9583 74.1809 54.8638 74.2456C54.5557 75.2825 54.3572 77.0058 54.4529 77.6996C54.4529 77.6996 54.9706 77.8085 55.6517 77.7814C56.3327 77.7541 57.2046 77.7814 57.2046 77.7814C57.2046 77.7814 56.7686 78.3534 56.5234 78.5713C56.5234 78.5713 57.0955 79.2525 58.0219 79.6883C58.9482 80.1243 59.4385 80.2061 60.0924 80.7783C60.7462 81.3503 61.1367 81.9857 61.1367 81.9857C61.1367 81.9857 63.2527 79.5795 63.3616 79.3615L62.1902 78.4624C62.1902 78.4624 62.626 77.7814 62.953 77.5633Z" fill="#F9F9F9"/>
<path d="M55.8691 73.1951C55.8691 73.1951 56.8678 75.5931 57.7764 76.9915C57.964 77.2808 58.1623 77.5667 58.3622 77.842C59.3977 77.9599 60.5783 77.8608 61.2944 77.7748C61.5016 76.0814 61.7357 74.1946 61.7357 74.1946C61.7357 74.1946 61.7358 72.7592 61.8449 72.0514C61.9538 71.3427 62.1168 70.2352 62.1168 70.2352L56.1599 69.9803C56.1779 70.9797 56.0322 72.6872 55.8691 73.1951Z" fill="#DE613B"/>
<path d="M58.3623 77.842C59.1267 78.8996 59.9155 79.8139 60.2465 80.2604C60.6642 80.8233 61.1362 82.0408 61.1362 81.9859C61.1362 81.9318 61.0273 79.9516 61.2453 78.1721C61.2608 78.0418 61.2771 77.9092 61.2944 77.7748C60.5783 77.8608 59.3978 77.96 58.3623 77.842Z" fill="#D6D6D6"/>
<path d="M62.399 85.8764C62.4188 85.3782 62.0303 84.9587 61.532 84.9402L49.9844 84.5106L49.8246 84.6941V85.9682L48.7633 85.9471L48.595 86.1452L48.2285 99.9892C48.4597 100.011 48.6937 100.023 48.9304 100.023H61.4789L61.8627 99.4129L62.399 85.8764Z" fill="#E72452"/>
<path d="M61.0274 85.1095C60.7365 85.1095 50.2974 84.7147 50.2974 84.7147L49.2217 85.9542C49.2217 85.9542 59.5379 86.5218 60.2277 86.54C60.5611 86.549 61.0311 86.5645 61.4334 86.4956V85.1259C61.2712 85.1062 61.1175 85.1095 61.0274 85.1095Z" fill="white"/>
<path d="M64.8665 92.3159C64.9394 92.1889 64.9851 91.9709 64.846 91.628C64.7439 91.376 64.2242 91.1942 64.2242 91.1942L64.1873 92.1028L63.2248 92.3568C63.5335 92.2658 63.9694 91.9029 63.9694 91.685C63.9694 91.4671 63.3157 91.5211 62.9888 91.6121C62.6619 91.703 61.99 91.576 61.3543 91.9208C60.7186 92.2658 60.2279 92.9834 59.2472 93.2554C58.6237 93.4284 57.6381 93.5579 56.4568 93.5864C56.406 94.6744 56.5641 96.2343 56.7951 97.2608C56.7951 97.2608 57.6677 97.079 58.5574 96.807C59.4471 96.5342 60.7735 96.3162 61.7902 96.2073C62.8077 96.0984 64.3073 95.8441 64.4873 95.4807C64.6436 95.1653 64.6278 95.011 64.6053 94.8348C64.5933 94.7407 64.6144 94.6462 64.6648 94.5659C64.7262 94.4682 64.8053 94.3213 64.8507 94.1549C64.9111 93.9331 64.9061 93.777 64.884 93.6736C64.8616 93.5695 64.8864 93.463 64.9466 93.375C65.013 93.278 65.0776 93.1196 65.0708 92.8744C65.0602 92.4925 64.7937 92.4429 64.8665 92.3159Z" fill="#F27752"/>
<path d="M56.4565 93.5864C55.7789 93.6036 55.0367 93.5881 54.2617 93.5282C52.1366 93.3643 48.3769 93.2285 46.4697 93.3374C46.4697 93.3374 43.3098 96.0072 43.9906 97.0699C44.6714 98.1325 45.1072 98.2684 49.6844 98.5134C54.2617 98.7593 56.9586 97.8598 56.9586 97.8598L56.7948 97.2609C56.5638 96.2343 56.4057 94.6743 56.4565 93.5864Z" fill="#EEEEEE"/>
<path d="M60.6006 97.494C60.847 97.5926 61.1135 97.6285 61.1135 97.6285C61.1135 97.6285 60.8849 97.5539 60.6006 97.494Z" fill="#F27752"/>
<path d="M60.1426 98.2241C60.4749 98.3505 60.8143 98.4187 60.8143 98.4187C60.8143 98.4187 60.48 98.2863 60.1426 98.2241Z" fill="#F27752"/>
<path d="M66.8623 97.8872C66.8351 96.7158 65.8815 96.3071 65.8815 96.3071C65.146 96.3208 64.0834 96.1166 64.0834 96.1166L64.0426 96.6478C64.0426 96.6478 63.8978 96.7668 62.9119 96.8112C61.3999 96.8793 60.3647 96.5659 60.2149 96.9611C60.1148 97.2249 60.3473 97.3926 60.601 97.4941C60.8853 97.5539 61.1139 97.6285 61.1139 97.6285C61.1139 97.6285 60.8474 97.5927 60.601 97.4941C60.1668 97.4027 59.6023 97.3457 59.52 97.642C59.4503 97.8935 59.7924 98.0913 60.1424 98.2242C60.48 98.2865 60.8142 98.4185 60.8142 98.4185C60.8142 98.4185 60.4748 98.3505 60.1424 98.2242C59.8123 98.1634 59.479 98.1694 59.452 98.4321C59.3974 98.9634 60.569 99.195 60.569 99.195C60.569 99.195 59.9151 99.0996 59.8062 99.2904C59.6971 99.481 59.7925 99.6717 60.2284 99.9033C60.292 99.9371 60.3846 99.9781 60.4976 100.023H65.2797C65.5673 99.9156 65.8292 99.8077 66.0314 99.7126C66.4619 99.51 66.8895 99.0588 66.8623 97.8872Z" fill="#F27752"/>
<path d="M56.3777 64.3756C55.8328 63.9234 55.1459 64.0532 54.8732 64.9876C54.6003 65.922 54.6611 66.9899 55.2483 67.4431C55.8355 67.8964 56.1342 67.5897 56.1342 67.5897L56.3777 64.3756Z" fill="#F75F5F"/>
<path d="M56.205 66.6577L56.3161 65.1909C56.2568 65.1069 56.0063 64.7852 55.6881 64.8504C55.3229 64.9253 55.1509 65.6843 55.2764 66.1578C55.3997 66.6226 55.7501 66.7799 56.205 66.6577Z" fill="#F64747"/>
<path d="M64.2353 65.7703C64.8352 65.5265 65.4002 65.8855 65.3832 66.8685C65.3662 67.8515 65.0209 68.8473 64.3834 69.0775C63.7462 69.3077 63.5688 68.9137 63.5688 68.9137L64.2353 65.7703Z" fill="#F75F5F"/>
<path d="M63.762 68.002L64.066 66.5677C64.1408 66.508 64.4478 66.2876 64.7082 66.4586C65.007 66.655 64.9498 67.4365 64.7106 67.8443C64.4757 68.2446 64.1263 68.2743 63.762 68.002Z" fill="#F64747"/>
<path d="M62.3963 62.6737C61.7475 62.4096 61.1228 62.4704 60.3974 62.1671C59.672 61.8636 59.4136 60.9057 59.4136 60.9057C59.4136 60.9057 59.1456 61.5813 58.5645 62.3195C57.9836 63.0578 57.2739 63.5559 56.9534 64.0307C56.5004 64.7021 56.3261 65.6162 56.1765 66.7785C56.0271 67.9407 56.0501 68.7846 56.3038 69.4709C56.5684 70.1869 57.4771 71.4703 57.9591 71.9002C58.4807 72.3655 59.418 72.5992 60.1233 72.4366C60.9516 72.2459 61.9996 71.4273 62.7334 70.4092C63.4671 69.3911 63.9379 68.2916 64.0856 67.322C64.2334 66.3524 63.9579 64.905 63.7332 64.2094C63.5084 63.5137 63.0449 62.9379 62.3963 62.6737Z" fill="#F27752"/>
<path d="M65.7472 55.2824C69.8654 55.2824 73.2038 58.6208 73.2038 62.7389V91.5957C73.2038 95.714 69.8654 99.0522 65.7472 99.0522H48.7499C44.6317 99.0522 41.2933 95.714 41.2933 91.5957V62.7389C41.2933 58.6208 44.6317 55.2824 48.7499 55.2824H65.7472ZM65.7471 53.6893H48.7499C43.7598 53.6893 39.7002 57.7489 39.7002 62.739V91.5957C39.7002 96.5858 43.7598 100.645 48.7499 100.645H65.7471C70.7372 100.645 74.797 96.5858 74.797 91.5957V62.739C74.797 57.7489 70.7372 53.6893 65.7471 53.6893Z" fill="#D6D6D6"/>
<path d="M105.541 55.2823C109.659 55.2823 112.998 58.6207 112.998 62.7388V91.5956C112.998 95.7139 109.659 99.0521 105.541 99.0521H88.5438C84.4256 99.0521 81.0873 95.7139 81.0873 91.5956V62.7388C81.0873 58.6207 84.4256 55.2823 88.5438 55.2823H105.541ZM105.541 53.6892H88.5438C83.5537 53.6892 79.4941 57.7488 79.4941 62.7389V91.5956C79.4941 96.5857 83.5537 100.645 88.5438 100.645H105.541C110.531 100.645 114.591 96.5857 114.591 91.5956V62.7389C114.591 57.7488 110.531 53.6892 105.541 53.6892Z" fill="#D6D6D6"/>
<path d="M110.812 80.5007C109.966 76.9491 109.402 74.8063 107.881 73.8485C106.359 72.8897 103.108 71.8566 102.018 70.9164C101.515 70.4833 101.181 69.9629 100.963 69.384C100.48 71.2861 98.9815 73.3221 97.8838 73.3221C96.8116 73.3221 94.8789 71.3166 94.3441 69.6493C94.2797 69.8375 94.1992 70.0069 94.0966 70.1553C93.5329 70.9733 90.4044 73.3407 88.6285 74.4121C86.8527 75.4827 85.3304 76.3566 84.3725 78.696C83.4139 81.0355 81.6661 90.8172 82.0611 93.0151C82.2422 94.0255 82.6616 95.44 83.062 96.6744C84.4244 98.1517 86.3756 99.0778 88.5438 99.0778H105.541C106.752 99.0778 107.894 98.7876 108.904 98.2757C110.33 96.6307 111.956 94.3577 112.165 93.5229C112.503 92.17 111.658 84.0522 110.812 80.5007Z" fill="#EEEEEE"/>
<path d="M107.599 96.0174C107.233 95.059 106.768 95.0308 106.133 95.0308L104.71 96.0878L104.982 99.0779H105.542C106.271 99.0779 106.976 98.9712 107.643 98.7757C107.769 97.8461 107.831 96.6241 107.599 96.0174Z" fill="#0E4395"/>
<path d="M105.14 82.7316C104.51 82.9295 104.159 83.6005 104.357 84.2306C104.555 84.8606 105.226 85.2109 105.856 85.0132C106.486 84.8153 106.836 84.1441 106.638 83.5141C106.441 82.8841 105.77 82.5338 105.14 82.7316Z" fill="#D6D6D6"/>
<path d="M105.186 82.8804C104.639 83.0524 104.334 83.636 104.506 84.1838C104.678 84.7316 105.262 85.0363 105.809 84.8643C106.357 84.6922 106.662 84.1086 106.49 83.5609C106.318 83.013 105.734 82.7085 105.186 82.8804Z" fill="#96BFFF"/>
<path d="M93.2606 83.2467C93.1639 83.225 93.0675 83.2859 93.0458 83.3827C93.0263 83.4695 93.0027 83.5817 92.9749 83.7143C92.7072 84.9874 91.8924 88.8614 90.4734 88.8658H90.464C89.5649 88.8658 88.7523 88.4619 88.7442 88.4577C88.6556 88.413 88.5475 88.4485 88.5027 88.5373C88.458 88.6259 88.4937 88.7341 88.5824 88.7787C88.6187 88.797 89.4805 89.2255 90.4639 89.2255H90.4745C91.9901 89.2208 92.7949 86.3172 93.3268 83.7882C93.3543 83.6575 93.3774 83.5471 93.3966 83.4616C93.4185 83.3647 93.3574 83.2684 93.2606 83.2467Z" fill="#8E8E8E"/>
<path d="M92.4522 88.8103C92.3943 88.8234 92.332 88.8385 92.2661 88.8545C91.2808 89.0937 90.3624 89.2158 89.951 88.0972C89.5419 86.9851 89.3227 85.3151 89.1626 84.0957C89.1127 83.7153 89.0656 83.3558 89.0195 83.0642C89.004 82.9661 88.912 82.8992 88.8139 82.9146C88.7158 82.9301 88.6489 83.0222 88.6643 83.1202C88.7096 83.4072 88.7565 83.7643 88.8061 84.1425C88.9774 85.4475 89.1906 87.0716 89.6135 88.2214C89.9515 89.1404 90.6083 89.3736 91.2426 89.3736C91.652 89.3736 92.052 89.2765 92.351 89.2039C92.4149 89.1884 92.4754 89.1737 92.5317 89.1609C92.6285 89.139 92.6892 89.0426 92.6672 88.9458C92.6454 88.8489 92.549 88.7883 92.4522 88.8103Z" fill="#8E8E8E"/>
<path d="M105.385 79.4768C105.116 77.2701 104.615 73.1624 101.968 71.0984C101.869 71.0221 101.728 71.0396 101.652 71.1375C101.576 71.2355 101.593 71.3767 101.691 71.4529C104.191 73.4022 104.678 77.3893 104.939 79.5313C104.961 79.7136 104.982 79.8836 105.002 80.0394C105.264 82.0482 105.286 83.832 105.287 83.8497C105.288 83.9739 105.389 84.0735 105.514 84.0722C105.525 84.072 105.535 84.0711 105.546 84.0695C105.654 84.0527 105.737 83.9582 105.736 83.845C105.736 83.827 105.714 82.0178 105.448 79.9814C105.428 79.8266 105.407 79.6577 105.385 79.4768Z" fill="#E72452"/>
<path d="M93.3286 71.4153C91.5208 72.7546 91.3056 74.2424 91.0974 75.6813L91.0842 75.772C90.8729 77.2287 90.8171 78.7186 90.8166 78.7335C90.8122 78.8532 90.9027 78.9548 91.0207 78.9653C91.0248 78.9657 91.0289 78.9661 91.033 78.9662C91.157 78.9707 91.2612 78.8738 91.2657 78.7498C91.2663 78.7351 91.3212 77.2685 91.529 75.8364L91.5422 75.7458C91.7461 74.336 91.9388 73.0043 93.5961 71.7764C93.6958 71.7025 93.7167 71.5619 93.6429 71.4622C93.569 71.3623 93.4282 71.3414 93.3286 71.4153Z" fill="#E72452"/>
<path d="M90.9457 78.602C90.3949 78.6099 89.9296 78.817 89.5629 79.2178C88.4608 80.4221 88.6379 82.9875 88.646 83.096C88.6552 83.2198 88.7621 83.3127 88.8867 83.3035C89.0104 83.2943 89.1035 83.1865 89.0943 83.0627C89.0925 83.0381 88.9235 80.5814 89.8948 79.5208C90.1785 79.2111 90.5244 79.0575 90.9522 79.0514C91.6347 79.0401 92.1815 79.2929 92.5808 79.798C93.2025 80.5846 93.3768 81.9122 93.0357 83.2631C93.0054 83.3834 93.0784 83.5057 93.1987 83.536C93.2171 83.5406 93.2357 83.5429 93.2538 83.5429C93.3543 83.5429 93.4458 83.475 93.4716 83.3731C93.846 81.8897 93.6398 80.413 92.9334 79.5193C92.4499 78.9076 91.7643 78.5906 90.9457 78.602Z" fill="#E72452"/>
<path d="M88.4037 88.4379C88.2908 88.7075 88.35 88.8138 88.6254 88.8971C88.8687 88.971 89.0129 88.9866 89.0129 88.9866L89.159 88.5939C89.159 88.5939 88.8928 88.3758 88.7249 88.3477C88.5757 88.3227 88.4471 88.3344 88.4037 88.4379Z" fill="#1D1D1B"/>
<path d="M92.6511 88.6373C92.4813 88.6473 92.1934 88.8361 92.1934 88.8361L92.2968 89.2419C92.2968 89.2419 92.4421 89.2419 92.6918 89.1944C92.9745 89.1406 93.0446 89.0412 92.9609 88.7612C92.9288 88.6538 92.8022 88.6282 92.6511 88.6373Z" fill="#1D1D1B"/>
<path d="M103.165 71.6283C102.69 71.387 102.288 71.1489 102.018 70.9164C101.516 70.4833 101.181 69.9628 100.964 69.3839C100.48 71.286 98.9818 73.3219 97.8841 73.3219C96.8119 73.3219 94.8793 71.3164 94.3444 69.6492C94.28 69.8374 94.1995 70.0069 94.0969 70.1552C93.8258 70.5487 92.9607 71.3008 91.9385 72.0947C91.0891 73.9195 90.7432 75.8775 90.7432 75.8775L92.7726 77.625L91.8705 78.8653C91.8705 78.8653 93.6745 81.233 94.0127 82.8679C94.351 84.5028 100.778 83.2625 100.778 83.2625L103.146 80.1056L102.3 78.0761L104.273 77.5687C104.273 77.5687 104.231 74.3279 103.165 71.6283Z" fill="#F9F9F9"/>
<path d="M101.905 76.7231C102.359 74.6844 101.902 72.1007 101.675 70.579C101.358 70.2219 101.128 69.8196 100.964 69.3839C100.481 71.2861 98.9822 73.322 97.8845 73.322C96.8122 73.322 94.8796 71.3165 94.3447 69.6492C94.2803 69.8374 94.1997 70.0069 94.0972 70.1553C94.0759 70.1861 94.05 70.2198 94.0217 70.2549C93.5222 72.549 93.3114 75.1527 93.4492 78.358C93.5996 81.8531 93.5057 84.7283 92.4909 88.6182C91.6593 91.8059 90.1471 97.2247 89.6279 99.0777H100.778C100.78 96.6298 100.794 87.8986 100.891 84.9537C101.003 81.5149 101.342 79.2599 101.905 76.7231Z" fill="#2372EC"/>
<path d="M100.963 69.3839C100.48 71.286 98.9813 73.322 97.8836 73.322C96.8113 73.322 94.8789 71.3164 94.344 69.6492C94.2796 69.8374 94.199 70.0069 94.0963 70.1552C94.0751 70.186 94.049 70.2198 94.0208 70.2549C93.8297 71.1321 93.6814 72.0552 93.5781 73.0394L94.9142 75.511C94.9142 75.511 96.5632 73.7635 96.9578 73.989C97.0692 74.0526 96.6984 74.5112 96.8309 74.75C97.1682 75.358 97.9021 76.2157 97.9021 76.2157C97.9021 76.2157 98.6464 75.363 99.086 74.7782C99.2889 74.5083 98.9071 73.9363 98.9872 73.9185C99.2409 73.8622 100.918 75.1728 100.918 75.1728C100.918 75.1728 101.525 73.7064 101.928 72.3373C101.845 71.6763 101.748 71.0717 101.674 70.579C101.357 70.2218 101.127 69.8195 100.963 69.3839Z" fill="#2372EC"/>
<path d="M94.6905 66.2231C94.6581 66.2969 94.6285 66.3706 94.6006 66.446C94.5861 67.7133 94.6167 68.849 94.3438 69.6492C94.8295 71.875 97.3945 73.0306 97.9019 76.2158C98.6911 73.0588 100.537 71.579 100.963 69.3839C100.706 68.7059 100.609 67.948 100.589 67.1581L94.6905 66.2231Z" fill="#DE613B"/>
<path d="M94.6006 66.4461C94.6286 66.3706 94.6581 66.2969 94.6904 66.2232L94.6039 66.2096C94.6023 66.2893 94.6014 66.3681 94.6006 66.4461Z" fill="#F27752"/>
<path d="M103.747 96.6233L105.212 96.6608L112.428 84.8599L112.998 82.2747V81.0807L103.709 96.022L103.747 96.6233Z" fill="#D6D6D6"/>
<path d="M107.19 95.4253C106.514 95.1153 105.626 95.3266 105.358 95.2845C105.09 95.2421 104.654 95.4254 104.668 95.7919C104.682 96.1583 105.33 96.4401 105.33 96.4401L104.752 96.4542L104.033 95.9892L104.301 95.0729C104.301 95.0729 104.09 94.8759 103.878 94.9885C103.667 95.1013 102.864 95.6649 102.638 96.1018C102.638 96.1018 102.23 96.0174 101.919 96.3274C101.609 96.6375 101.497 97.0321 101.497 97.0321C101.497 97.0321 101.229 96.9476 101.074 97.3422C100.919 97.7368 101.017 98.2159 101.313 98.5401C101.431 98.6692 101.569 98.8635 101.712 99.0779H105.542C105.925 99.0779 106.301 99.0486 106.669 98.9928C107.012 98.8218 107.273 98.6786 107.359 98.5964C107.67 98.3004 107.867 95.7354 107.19 95.4253Z" fill="#F27752"/>
<path d="M94.651 62.8776C93.9081 62.4754 93.0477 62.6527 92.7847 63.5865C92.5219 64.5201 92.7004 65.5598 93.4981 65.9599C94.2958 66.36 94.6614 66.0384 94.6614 66.0384L94.651 62.8776Z" fill="#F75F5F"/>
<path d="M94.6593 65.1216L94.6546 63.6794C94.5704 63.6016 94.2229 63.3053 93.82 63.3924C93.3575 63.4923 93.2078 64.2472 93.4136 64.701C93.6158 65.1465 94.0859 65.2746 94.6593 65.1216Z" fill="#F64747"/>
<path d="M100.711 62.9142C101.451 62.5071 102.312 62.6787 102.581 63.6108C102.851 64.5426 102.679 65.5835 101.884 65.9888C101.089 66.3942 100.721 66.075 100.721 66.075L100.711 62.9142Z" fill="#F75F5F"/>
<path d="M100.718 65.1583L100.713 63.716C100.797 63.6376 101.142 63.3391 101.546 63.4235C102.009 63.5205 102.163 64.2743 101.961 64.7295C101.761 65.1763 101.292 65.3075 100.718 65.1583Z" fill="#F64747"/>
<path d="M99.1614 57.6504C97.7315 57.129 95.6586 57.4496 94.5423 58.7509C93.1195 60.4092 93.5782 62.7378 93.5782 62.7378C93.8603 62.8122 94.0117 63.1311 94.0514 63.7699C94.091 64.4086 94.5417 64.2756 94.5417 64.2756L101.231 64.0469C101.231 64.0469 101.4 63.99 101.493 63.7642C101.586 63.5384 101.774 63.0655 101.911 62.3205C102.036 61.6437 102.078 60.2904 101.493 59.4468C100.907 58.6032 100.591 58.1719 99.1614 57.6504Z" fill="#06223E"/>
<path d="M100.671 59.877C100.162 59.2021 99.8979 58.9869 99.8979 58.9869C99.8979 58.9869 98.5572 59.8511 97.2793 59.8553C96.0015 59.8595 95.2337 59.242 95.2337 59.242C95.2337 59.242 94.3038 60.7577 94.4392 61.9224C94.5746 63.0869 94.4281 64.2384 94.3556 65.0843C94.2833 65.9301 94.6259 67.2819 95.1556 68.3513C95.6853 69.4207 96.6469 70.376 98.0935 70.296C99.5402 70.2161 99.7821 69.5012 100.417 68.2965C101.052 67.0918 101.199 66.0201 101.253 65.3246C101.307 64.6292 101.135 63.6855 101.15 62.6896C101.166 61.6935 101.181 60.5517 100.671 59.877Z" fill="#F27752"/>
<path d="M81.0342 91.4433C82.062 91.7342 83.3314 91.3055 83.8861 89.8144C84.3365 88.604 85.2824 84.5579 85.6226 83.0776L84.9797 82.9746C83.5013 82.7378 82.0512 82.8958 80.7354 83.369C80.719 83.4909 80.7029 83.6144 80.6876 83.7409C80.2978 86.9646 80.0064 91.1523 81.0342 91.4433Z" fill="#F17852"/>
<path d="M135.556 98.6571C135.556 98.6571 128.707 94.4639 125.269 91.0694C121.831 87.6749 115.616 83.0774 111.833 80.2597C108.05 77.4421 105.363 76.0639 103.18 74.7031C100.996 73.3422 98.9875 72.0726 96.3526 72.3458C93.7178 72.6191 86.2419 74.7082 84.0185 76.7536C81.8822 78.7187 81.1363 80.3824 80.7354 83.3689C82.0512 82.8957 83.5014 82.7378 84.9798 82.9745L85.6227 83.0775C85.7016 82.7342 85.748 82.5289 85.748 82.5289L86.9317 82.5578L85.9375 84.8974C85.5993 88.1927 85.463 94.1746 87.457 94.7467C89.4508 95.3188 89.9987 95.1538 89.9987 95.1538C89.9987 95.1538 90.1001 96.5919 91.3811 97.1762C92.662 97.7606 94.6863 97.8477 94.6863 97.8477C94.6863 97.8477 94.9912 98.6075 96.3239 98.8683C97.6568 99.1291 98.4239 98.778 98.838 98.56C99.2521 98.3419 99.9953 97.8447 99.9953 97.8447L104.404 95.8271C106.569 97.8764 108.671 99.8721 110.443 101.567C113.004 104.016 114.875 105.836 115.25 106.276C116.687 107.959 124.426 114.886 124.426 114.886C124.426 114.886 129.242 114.014 132.528 109.674C135.814 105.334 136.628 99.4608 135.556 98.6571Z" fill="#F17852"/>
<path d="M98.2318 81.5261C96.7531 80.4994 95.3225 79.7647 95.3225 79.7647C93.8231 80.5436 92.6787 81.0793 90.3369 79.4246L94.111 83.6785C94.111 83.6785 96.6954 84.7401 97.1242 84.9194L102.978 85.8567C102.677 84.8353 99.6912 82.5395 98.2318 81.5261Z" fill="#D2694B"/>
<path d="M102.791 86.3009C102.989 86.2202 103.039 86.0649 102.978 85.8567L97.124 84.9194C98.5425 85.5126 101.72 86.7388 102.791 86.3009Z" fill="#DE613B"/>
<path d="M117.367 99.8296L107.281 90.9113L96.9195 81.7499L82.3627 68.8788C85.1565 65.0315 87.1124 60.4876 87.9158 55.4714C90.6458 38.4222 79.038 22.3878 61.9888 19.6577C44.9395 16.9275 28.9053 28.5355 26.1752 45.5847C24.5881 55.4956 27.8476 65.0628 34.2034 71.8738C38.7809 76.7792 44.9638 80.2554 52.1021 81.3985C55.5069 81.9437 58.8709 81.9154 62.097 81.3878C67.7283 80.4669 72.9378 78.0191 77.2053 74.4222L82.3421 79.4155L105.585 102.009L110.85 107.127C112.4 108.511 118.917 101.213 117.367 99.8296ZM58.8126 76.5736C56.8831 76.7028 54.9092 76.6185 52.9186 76.2998C49.8133 75.8025 46.9242 74.7763 44.3285 73.3282C35.0267 68.139 29.4918 57.5292 31.2738 46.4013C33.553 32.1679 46.939 22.4771 61.1723 24.7563C75.4057 27.0356 85.0963 40.4216 82.8171 54.655C80.8567 66.8976 70.6789 75.7792 58.8126 76.5736Z" fill="#2372EC"/>
<path d="M101.498 94.2779C100.615 94.2631 96.7037 96.1962 95.9827 96.5546C95.2617 96.9132 94.6855 97.8479 94.6855 97.8479C94.6855 97.8479 95.2837 98.7494 96.3232 98.8685C97.3626 98.9876 98.8373 98.5601 98.8373 98.5601C99.9977 97.9244 102.221 95.8789 102.537 95.4871C102.852 95.0952 102.38 94.2929 101.498 94.2779Z" fill="#F17852"/>
<path d="M97.9527 92.541C95.6555 92.6787 92.3402 94.0438 91.4343 94.3727C90.5285 94.7016 89.998 95.1539 89.998 95.1539C89.998 95.1539 90.2288 96.7708 91.3805 97.1764C92.532 97.582 94.6856 97.8479 94.6856 97.8479C96.4817 97.5825 100.516 94.6895 100.953 94.1275C101.391 93.5656 100.25 92.4033 97.9527 92.541Z" fill="#F17852"/>
<path d="M95.7535 89.5029C94.526 89.2747 90.0926 89.6791 88.274 90.2327C86.8457 90.6675 86.2131 92.8414 86.6863 93.8335C87.1594 94.8257 89.1373 95.3003 89.9981 95.1538C90.8589 95.0072 92.784 94.4309 94.815 93.587C96.8462 92.743 98.6936 91.2693 98.6936 91.2693C98.5088 90.4497 96.9808 89.731 95.7535 89.5029Z" fill="#F17852"/>
<path d="M116.873 90.4201C113.302 85.4876 108.061 85.6595 104.726 85.5678C101.032 85.4664 97.9383 84.5441 95.5845 83.8512C93.2308 83.1583 89.2898 81.3265 87.6754 82.3319C87.2472 82.5986 86.9191 82.9125 86.6919 83.2488C86.0627 84.1805 86.2142 85.2861 87.2065 86.0487C88.5572 87.0864 91.3772 88.6674 94.87 91.6681C98.3283 94.6392 103.968 98.5915 107.103 99.5359C107.991 99.8036 109.286 99.9636 110.685 100.056C114.22 100.288 118.422 100.085 118.422 100.085C118.422 100.085 120.444 95.3525 116.873 90.4201Z" fill="#F18466"/>
<path d="M86.7026 82.7293C86.5769 82.8539 86.4577 83.0155 86.3506 83.1944L90.2754 83.8228C89.4158 83.331 87.1503 82.2856 86.7026 82.7293Z" fill="#FAA3A3"/>
<path d="M85.9373 84.8976C86.1338 85.3478 88.5993 86.8722 89.2887 87.0064C89.9782 87.1405 90.2473 86.4962 90.4904 86.0139C90.7642 85.4706 90.9296 84.3068 90.5738 84.0128C90.5233 83.971 90.4181 83.9043 90.2758 83.8229L86.3511 83.1943C86.0022 83.7776 85.7869 84.5531 85.9373 84.8976Z" fill="#FAA3A3"/>
</svg>
