<svg width="98" height="98" viewBox="0 0 98 98" fill="none" xmlns="http://www.w3.org/2000/svg">
<path d="M77.1412 25.0828H2.26758V95.8381H77.1412V25.0828Z" fill="#D6D6D6"/>
<path d="M79.4086 25.0828H0V32.57H79.4086V25.0828Z" fill="#2372EC"/>
<path d="M53.0781 40.6998V87.2497" stroke="white" stroke-width="4.38115" stroke-linejoin="round"/>
<path d="M42.7861 40.6998V87.2497" stroke="white" stroke-width="4.38115" stroke-linejoin="round"/>
<path d="M32.4951 40.6998V87.2497" stroke="white" stroke-width="4.38115" stroke-linejoin="round"/>
<path d="M22.2031 40.6998V87.2497" stroke="white" stroke-width="4.38115" stroke-linejoin="round"/>
<path d="M11.9121 40.6998V87.2497" stroke="white" stroke-width="4.38115" stroke-linejoin="round"/>
<path d="M94.6039 0H64.6543V85.1685H94.6039V0Z" fill="#F2F7FF"/>
<path d="M94.6039 95.8381H64.6543V85.1682H94.6039V95.8381Z" fill="#96BFFF"/>
<path d="M94.6039 83.7992H64.6543V86.5376H78.2597V95.8381H80.9984V86.5376H94.6039V83.7992Z" fill="#2372EC"/>
<path d="M97.599 0H61.6592V7.48725H97.599V0Z" fill="#96BFFF"/>
<path d="M81.876 31.7486V26.5074H87.1172V22.0147H81.876V16.7736H77.3836V22.0147H72.1421V26.5074H77.3836V31.7486H81.876Z" fill="#D3462E"/>
<path d="M85.5166 37.3737V78.447" stroke="white" stroke-width="4.58336" stroke-linejoin="round" stroke-dasharray="41.72 8.34"/>
<path d="M73.7422 37.3737V78.447" stroke="white" stroke-width="4.58336" stroke-linejoin="round" stroke-dasharray="41.72 8.34"/>
<path d="M0.628906 97.255H96.4667V94.5168H0.628906V97.255Z" fill="#8E8E8E"/>
</svg>
