<svg width="177" height="103" viewBox="0 0 177 103" fill="none" xmlns="http://www.w3.org/2000/svg">
<path d="M156.479 0C163.359 0 168.945 5.58605 168.945 12.4661C168.945 19.3461 163.359 24.9321 156.479 24.9321C149.599 24.9321 144.013 19.3461 144.013 12.4661C144.013 5.58605 149.599 0 156.479 0Z" fill="#2372EC"/>
<g opacity="0.4">
<path d="M156.479 0C163.359 0 168.945 5.58605 168.945 12.4661C168.945 19.3461 163.359 24.9321 156.479 24.9321C149.599 24.9321 144.013 19.3461 144.013 12.4661C144.013 5.58605 149.599 0 156.479 0Z" fill="white"/>
</g>
<g opacity="0.4">
<path d="M156.479 0C163.359 0 168.945 5.58605 168.945 12.4661C168.945 19.3461 163.359 24.9321 156.479 24.9321C149.599 24.9321 144.013 19.3461 144.013 12.4661C144.013 5.58605 149.599 0 156.479 0Z" fill="white"/>
</g>
<g opacity="0.2">
<path d="M145.497 6.55359C145.216 7.95796 146.19 8.54779 148.329 8.42608C153.399 8.14052 158.356 6.80638 162.883 4.50322C163.875 3.82444 163.974 3.05204 163.599 2.22815C169.652 7.03576 170.073 13.4631 167.438 18.4017C166.796 19.3754 165.832 20.0917 164.718 20.4287C161.488 21.702 158.099 22.5306 154.644 22.8957C151.447 23.3638 149.57 23.1532 148.849 22.3199C143.395 18.0928 142.936 11.6093 145.497 6.55359Z" fill="white"/>
</g>
<g opacity="0.2">
<path d="M144.013 12.4661C143.999 14.8675 144.72 17.2128 146.073 19.193C146.728 20.1292 148.849 20.3165 152.159 19.853C156.461 19.4083 160.679 18.3784 164.7 16.7821C166.89 15.9208 168.342 14.8207 168.964 13.4398C169.109 11.2255 168.669 9.01601 167.691 7.02649C167.499 8.74918 166.319 10.1769 163.946 11.2396C159.307 12.9763 154.476 14.17 149.561 14.7926C146.429 15.1531 144.271 14.6381 144.013 12.4661Z" fill="white"/>
</g>
<g opacity="0.1">
<path d="M151.465 1.49326C152.655 1.0345 153.886 0.697457 155.145 0.486802C156.797 0.31828 157.083 0.599152 156.9 1.0345C156.409 1.53539 155.828 1.94266 155.187 2.2329C154.19 2.66357 153.132 2.93976 152.051 3.04275C151.297 3.07551 150.496 3.09424 150.042 2.74783C149.818 2.34056 150.492 1.90989 151.465 1.49326Z" fill="black"/>
</g>
<path d="M176.613 6.34304C175.991 4.42375 171.895 3.88541 166.179 4.63908C166.689 5.25232 167.134 5.92173 167.499 6.63328C169.545 6.71286 170.897 7.19971 171.192 8.10318C171.913 10.3361 165.917 14.2777 157.795 16.9039C149.673 19.53 142.506 19.8577 141.785 17.6248C141.471 16.6885 142.225 15.5323 144.023 14.1841C143.999 14.1841 144.149 14.0858 144.126 14.0998C144.027 13.3227 143.999 12.541 144.041 11.7592C138.827 14.5399 135.718 17.4375 136.35 19.3849C137.343 22.4417 147.159 22.0017 158.282 18.3972C169.404 14.7926 177.606 9.39988 176.613 6.34304Z" fill="#2372EC"/>
<g opacity="0.3">
<path d="M176.613 6.34304C175.991 4.42375 171.895 3.88541 166.179 4.63908C166.689 5.25232 167.134 5.92173 167.499 6.63328C169.545 6.71286 170.897 7.19971 171.192 8.10318C171.913 10.3361 165.917 14.2777 157.795 16.9039C149.673 19.53 142.506 19.8577 141.785 17.6248C141.471 16.6885 142.225 15.5323 144.023 14.1841C143.999 14.1841 144.149 14.0858 144.126 14.0998C144.027 13.3227 143.999 12.541 144.041 11.7592C138.827 14.5399 135.718 17.4375 136.35 19.3849C137.343 22.4417 147.159 22.0017 158.282 18.3972C169.404 14.7926 177.606 9.39988 176.613 6.34304Z" fill="white"/>
</g>
<path d="M40.7292 38.3011C36.8792 47.6152 26.1909 52.0517 16.8768 48.2017C7.56266 44.3517 3.1262 33.6634 6.97619 24.3493C10.8262 15.0351 21.5144 10.5987 30.8286 14.4487C40.1427 18.2987 44.5792 28.9869 40.7292 38.3011Z" fill="#2372EC"/>
<g opacity="0.4">
<path d="M40.7292 38.3011C36.8792 47.6152 26.1909 52.0517 16.8768 48.2017C7.56266 44.3517 3.1262 33.6634 6.97619 24.3493C10.8262 15.0351 21.5144 10.5987 30.8286 14.4487C40.1427 18.2987 44.5792 28.9869 40.7292 38.3011Z" fill="white"/>
</g>
<g opacity="0.2">
<path d="M17.5432 42.9002L17.6461 42.4919C17.6699 42.3852 17.7431 42.2939 17.8402 42.2429L18.6212 41.8363C18.6535 41.8193 18.6833 41.7961 18.7132 41.773L20.2473 40.2797C20.2983 40.2298 20.363 40.1958 20.4353 40.1801L22.3084 39.7539C22.3912 39.7374 22.4699 39.694 22.5349 39.6347L23.0604 39.1478C23.0841 39.1273 23.1052 39.1005 23.1221 39.0721L23.4801 38.4754C23.5332 38.3961 23.6018 38.3282 23.6841 38.2761L25.263 37.3483C25.3252 37.3082 25.3762 37.2584 25.4135 37.1927L25.9527 36.2557C25.9882 36.1943 26.0064 36.1259 26.0055 36.0546L25.9995 35.7381C25.9982 35.6311 26.0411 35.5273 26.1176 35.4525L27.1508 34.4968C27.2141 34.4419 27.2549 34.3676 27.2698 34.2826L27.4689 33.1391C27.4784 33.067 27.4689 32.9922 27.4348 32.9274L27.1378 32.2981C27.086 32.1906 27.0953 32.0577 27.166 31.9603L27.7053 31.1701L29.2715 29.685L30.4423 29.475C30.5337 29.4621 30.6274 29.4806 30.7025 29.5319L31.367 29.9585L32.2178 30.8167C32.2427 30.8422 32.2827 30.8435 32.3107 30.8247C32.3204 30.8135 32.3301 30.8023 32.3311 30.7876L32.5568 29.9843C32.5849 29.8794 32.5645 29.7696 32.4976 29.6863L32.2012 29.3004C32.1362 29.2127 32.107 29.0994 32.1265 28.9909L32.3257 27.8474C32.3408 27.7372 32.44 27.6566 32.552 27.6674L32.9994 27.7004L33.72 27.6235C33.8446 27.604 33.9657 27.6541 34.0402 27.7558L34.5827 28.5879L35.0221 29.0076C35.0806 29.0621 35.1172 29.133 35.1311 29.2096L35.2794 30.0763C35.294 30.1634 35.2773 30.2528 35.2347 30.3314L34.8738 30.9471C34.8269 31.0239 34.8171 31.1212 34.8422 31.2075L34.9407 31.5573C34.9557 31.6192 34.9541 31.6843 34.9334 31.7467L34.6831 32.4993C34.658 32.5599 34.6243 32.6168 34.5769 32.658L34.2325 32.9766C34.1614 33.0384 34.0638 33.0538 33.9773 33.018L33.6269 32.8732C33.5101 32.8249 33.3817 32.8782 33.3334 32.995L33.2851 33.1118C33.2225 33.2632 33.2979 33.4362 33.4511 33.4945C33.4554 33.4963 33.4641 33.4998 33.4684 33.5016L33.7856 33.5922L34.4285 33.7769C34.555 33.814 34.6468 33.9228 34.654 34.0525L34.7147 34.8982L35.3436 36.232L36.0249 37.243L35.9083 38.5422C35.8974 38.6542 35.9597 38.761 36.0635 38.8039L36.6259 39.0364C36.7297 39.0793 36.7876 39.1843 36.7725 39.2945L36.6438 40.1328C36.6325 40.2092 36.6482 40.2815 36.6865 40.348L37.0232 40.8569C37.0633 40.9191 37.1466 40.9383 37.2088 40.8982C37.221 40.8931 37.2289 40.8863 37.2386 40.8751L38.3231 39.6974L39.2365 38.8846C39.3173 38.8116 39.3516 38.7042 39.3293 38.5988L38.9616 36.9272C38.9386 36.8113 38.9757 36.6848 39.0644 36.6049L39.8851 35.845L40.501 35.2739C40.5344 35.2421 40.5892 35.2445 40.621 35.2779C40.6347 35.2937 40.6423 35.3121 40.6438 35.3329L40.5867 36.1451C40.5828 36.179 40.5876 36.2164 40.5985 36.2513L41.0113 37.5566C41.8854 35.0864 42.2129 32.456 41.9689 29.8478C40.1357 28.0821 38.1036 26.5279 35.9192 25.2197C35.8164 25.162 35.6878 25.1545 35.5803 25.2063L31.9385 26.8111C31.8756 26.8408 31.8203 26.8888 31.7891 26.9519L31.2733 27.8936C31.2536 27.9412 31.2123 27.9798 31.1684 28.0124L27.3062 30.8735C27.215 30.9472 27.0897 30.9562 26.9869 30.8985L23.2929 28.941C23.1573 28.8647 22.9959 28.8385 22.8426 28.8663L19.1189 29.5052C19.0692 29.5151 19.0221 29.5311 18.9818 29.5549L17.2928 30.5284C17.208 30.5743 17.1071 30.5732 17.026 30.5244L14.1135 28.7229L9.69212 25.7556C9.00385 25.5825 9.05315 26.5906 9.45559 28.1905L10.9518 30.2323L10.9427 31.4797L11.7637 35.0204L13.1186 37.7839L14.9411 39.7225C14.9686 39.7541 14.9943 39.79 15.0138 39.8285L15.7693 41.3463L16.1988 42.3293C16.2386 42.4166 16.3091 42.4913 16.3999 42.5289L17.4295 42.9545C17.4685 42.9706 17.5181 42.9607 17.536 42.9175C17.5378 42.9131 17.5414 42.9045 17.5432 42.9002Z" fill="black"/>
</g>
<path d="M34.0344 44.3376L34.0434 44.3159C34.0434 44.3159 34.0607 44.3231 34.0693 44.3267L34.0344 44.3376Z" fill="white"/>
<path d="M71.3321 33.3284H69.2809L68.7711 31.7188L68.2734 33.3284H66.166L67.8278 34.7654L67.033 37.3384L68.7711 35.5762L70.5534 37.3384L69.7265 34.7373L71.3321 33.3284Z" fill="#C7D9FF"/>
<path d="M108.634 98.9899H106.579L106.069 97.3802L105.572 98.9899H103.464L105.126 100.427L104.331 103L106.069 101.238L107.852 103L107.029 100.399L108.634 98.9899Z" fill="#C7D9FF"/>
<path d="M71.4935 61.3182H70.6144L70.3976 60.6278L70.1849 61.3182H69.2817L69.9922 61.9324L69.655 63.0322L70.3976 62.2816L71.1603 63.0322L70.8071 61.9203L71.4935 61.3182Z" fill="#C7D9FF"/>
<path d="M126.614 55.1809H125.735L125.518 54.4905L125.305 55.1809H124.402L125.112 55.795L124.775 56.8949L125.518 56.1402L126.28 56.8949L125.927 55.783L126.614 55.1809Z" fill="#C7D9FF"/>
<path d="M71.9782 51.6766H71.1032L70.8824 50.9862L70.6696 51.6766H69.7705L70.481 52.2908L70.1398 53.3906L70.8824 52.64L71.6451 53.3906L71.2918 52.2787L71.9782 51.6766Z" fill="#C7D9FF"/>
<path d="M41.2025 54.651H40.3234L40.1066 53.9646L39.8939 54.651H38.9907L39.7012 55.2651L39.364 56.369L40.1066 55.6144L40.8693 56.369L40.5161 55.2571L41.2025 54.651Z" fill="#C7D9FF"/>
<path d="M44.8117 71.3935H43.9367L43.7159 70.7031L43.5031 71.3935H42.604L43.3145 72.0077L42.9733 73.1075L43.7159 72.3529L44.4786 73.1075L44.1253 71.9956L44.8117 71.3935Z" fill="#C7D9FF"/>
<path d="M122.667 37.8963H121.788L121.571 37.2059L121.359 37.8963H120.456L121.166 38.5105L120.829 39.6103L121.571 38.8597L122.334 39.6103L121.981 38.4985L122.667 37.8963Z" fill="#C7D9FF"/>
<path d="M116.145 14.4505H115.511L115.354 13.9487L115.198 14.4505H114.547L115.061 14.892L114.816 15.6868L115.354 15.1449L115.904 15.6868L115.647 14.884L116.145 14.4505Z" fill="#C7D9FF"/>
<path d="M79.2563 38.0409H78.6221L78.4655 37.5392L78.309 38.0409H77.6587L78.1725 38.4825L77.9276 39.2773L78.4655 38.7354L79.0154 39.2773L78.7625 38.4745L79.2563 38.0409Z" fill="#C7D9FF"/>
<path d="M55.4531 43.1708H54.8188L54.6583 42.6731L54.5057 43.1708H53.8555L54.3693 43.6124L54.1244 44.4112L54.6583 43.8653L55.2082 44.4112L54.9553 43.6084L55.4531 43.1708Z" fill="#C7D9FF"/>
<path d="M89.6767 14.3902H89.0425L88.8859 13.8925L88.7294 14.3902H88.0791L88.5929 14.8317L88.348 15.6265L88.8859 15.0846L89.4358 15.6265L89.1789 14.8237L89.6767 14.3902Z" fill="#C7D9FF"/>
<path d="M137.287 45.4106H136.652L136.496 44.9128L136.339 45.4106H135.689L136.203 45.8561L135.958 46.6509L136.496 46.105L137.046 46.6509L136.789 45.8481L137.287 45.4106Z" fill="#C7D9FF"/>
<path d="M120.765 25.7419H120.135L119.974 25.2441L119.822 25.7419H119.167L119.685 26.1874L119.436 26.9822L119.974 26.4363L120.524 26.9822L120.271 26.1794L120.765 25.7419Z" fill="#C7D9FF"/>
<path d="M140.377 57.826H139.743L139.583 57.3282L139.43 57.826H138.78L139.294 58.2715L139.049 59.0663L139.583 58.5204L140.137 59.0663L139.88 58.2595L140.377 57.826Z" fill="#C7D9FF"/>
<path d="M125.755 82.7491H125.121L124.96 82.2513L124.807 82.7491H124.157L124.671 83.1906L124.426 83.9854L124.96 83.4435L125.51 83.9854L125.257 83.1826L125.755 82.7491Z" fill="#C7D9FF"/>
<path d="M114.973 56.1884H114.339L114.182 55.6907L114.026 56.1884H113.375L113.889 56.634L113.644 57.4287L114.182 56.8869L114.732 57.4287L114.475 56.6259L114.973 56.1884Z" fill="#C7D9FF"/>
<path d="M78.9028 60.0659H78.2685L78.108 59.5681L77.9555 60.0659H77.3052L77.819 60.5114L77.5741 61.3062L78.108 60.7643L78.6619 61.3062L78.405 60.5034L78.9028 60.0659Z" fill="#C7D9FF"/>
<path d="M50.2752 90.4881H49.3961L49.1794 89.7977L48.9626 90.4881H48.0635L48.774 91.1023L48.4368 92.2021L49.1794 91.4475L49.942 92.2021L49.5888 91.0902L50.2752 90.4881Z" fill="#C7D9FF"/>
<path d="M70.6902 72.8305H69.8112L69.5944 72.1401L69.3817 72.8305H68.4785L69.193 73.4447L68.8518 74.5445L69.5944 73.7939L70.3571 74.5445L70.0038 73.4326L70.6902 72.8305Z" fill="#C7D9FF"/>
<path d="M134.553 86.145C136.569 86.145 138.206 87.7818 138.206 89.7978C138.206 91.8138 136.569 93.4506 134.553 93.4506C132.537 93.4506 130.9 91.8138 130.9 89.7978C130.9 87.7818 132.537 86.145 134.553 86.145Z" fill="#C7D9FF"/>
<path d="M100.944 3.55223C100.944 4.69221 100.021 5.61544 98.8811 5.61544C97.7411 5.61544 96.8179 4.69221 96.8179 3.55223C96.8179 2.41224 97.7411 1.48901 98.8811 1.48901C100.021 1.48901 100.944 2.41224 100.944 3.55223Z" fill="#C7D9FF"/>
<path d="M26.2587 48.088L24.5607 48.6259C23.5532 48.4533 22.5698 49.0353 22.2366 49.9987L20.924 51.223C20.8558 51.2872 20.8518 51.3916 20.912 51.4598C20.9561 51.508 21.0244 51.528 21.0886 51.508L22.7905 50.9942C23.8221 51.2069 24.8457 50.6168 25.1789 49.6174L26.4473 48.3891C26.5196 48.3208 26.5276 48.2084 26.4594 48.1322C26.4072 48.076 26.3309 48.0599 26.2587 48.088Z" fill="#C7D9FF"/>
<path d="M92.6578 72.3104C97.0498 72.3104 100.616 75.8764 100.616 80.2685C100.616 84.6605 97.0498 88.2266 92.6578 88.2266C88.2657 88.2266 84.6997 84.6605 84.6997 80.2685C84.6997 75.8764 88.2657 72.3104 92.6578 72.3104Z" fill="#96BFFF"/>
<path d="M100.616 80.2685C100.616 84.6641 97.0533 88.2265 92.6576 88.2265C89.0578 88.2265 86.0197 85.8391 85.0366 82.5623C86.4831 84.0322 88.4914 84.9403 90.7103 84.9403C95.1059 84.9403 98.6683 81.3779 98.6683 76.9823C98.6683 76.1865 98.5513 75.4187 98.3313 74.6885C99.7403 76.1256 100.611 78.0964 100.611 80.2685H100.616Z" fill="#7498D8"/>
<path d="M124.567 74.0544L124.516 76.9188C124.489 78.4353 123.235 79.6488 121.714 79.6214L58.2098 78.4797C56.6934 78.4524 55.4799 77.1993 55.5072 75.6781L55.5587 72.8137C55.5786 71.7091 56.2612 70.7194 57.2845 70.3118C59.1474 69.5634 60.6965 68.2943 61.7877 66.7127C62.879 65.1311 63.5125 63.2275 63.5485 61.2243L63.7967 47.4216C64.0356 34.1338 73.9916 23.0761 86.7272 21.2169C86.6938 20.9916 86.6793 20.7572 86.6836 20.5185C86.7265 18.1315 88.6944 16.2285 91.0861 16.2715C93.4778 16.3145 95.3761 18.2823 95.3331 20.674C95.3289 20.908 95.306 21.137 95.2646 21.3563C100.916 22.3663 105.941 25.1534 109.756 29.108C114.504 34.0299 117.375 40.7673 117.242 48.1437L116.99 62.1851C116.918 66.2009 119.258 69.8669 122.928 71.4966C123.434 71.7211 123.844 72.0843 124.131 72.5342C124.413 72.9794 124.572 73.5113 124.563 74.0636L124.567 74.0544Z" fill="#C7D9FF"/>
<path d="M124.567 74.0544L124.516 76.9188C124.488 78.4353 123.235 79.6488 121.714 79.6215L59.67 78.506L84.0439 75.9243C98.3089 74.4157 108.844 61.8842 107.823 47.5718C107.06 36.8644 102.38 28.6992 92.1551 21.6469C93.4775 18.1452 90.905 16.9565 89.4092 16.5645C89.9231 16.363 90.4917 16.2515 91.0814 16.2621C93.4684 16.305 95.3714 18.2729 95.3284 20.6646C95.3242 20.8986 95.3013 21.1276 95.2599 21.3469C100.912 22.3568 105.937 25.144 109.752 29.0986C114.5 34.0205 117.37 40.7579 117.238 48.1343L116.985 62.1757C116.913 66.1915 119.254 69.8575 122.923 71.4872C123.429 71.7117 123.84 72.0749 124.127 72.5248C124.409 72.97 124.568 73.5019 124.558 74.0542L124.567 74.0544Z" fill="#B9D0FF"/>
<path d="M84.9119 25.0517C81.2077 25.8747 70.7384 29.5444 67.3081 45.0831C67.2315 45.4328 67.4924 45.7699 67.8528 45.7764L68.0306 45.7796C68.2412 45.7834 68.4352 45.6745 68.5368 45.4891C69.6591 43.482 76.4882 31.867 85.5636 29.6892C86.0996 29.5631 86.4643 29.0687 86.432 28.5203L86.2976 26.102C86.2587 25.399 85.5982 24.9002 84.9119 25.0517Z" fill="#D3E1FF"/>
<path d="M70.8283 43.044C73.5079 44.5248 76.7562 45.0983 79.7072 44.243C80.7332 43.9431 82.1449 43.5471 83.1398 43.1623L84.9079 42.4731C84.9456 42.4597 84.9875 42.4745 85.0055 42.5123C82.7651 46.035 77.7504 46.31 74.1214 45.0322C72.8981 44.5841 71.7482 43.9595 70.7561 43.1551C70.6915 43.1024 70.7589 42.9959 70.8331 43.0394L70.8283 43.044Z" fill="#7498D8"/>
<path d="M109.647 45.0904C106.17 46.8164 101.62 46.7814 98.3347 44.5968C97.2629 43.7956 96.3497 42.7679 95.8428 41.5321C95.8295 41.4944 95.8443 41.4525 95.882 41.4345C95.9056 41.4255 95.9336 41.4307 95.9522 41.4404L97.5346 42.4848C98.4184 43.0672 99.7264 43.7556 100.663 44.2594C102.263 45.1356 104.082 45.5007 105.913 45.5055C107.144 45.5183 108.388 45.3112 109.593 44.949C109.669 44.9222 109.723 45.0449 109.647 45.081L109.647 45.0904Z" fill="#7498D8"/>
<path d="M75.2568 55.8259C80.2478 62.0772 89.4382 63.6563 96.7035 61.1136C99.1494 60.2258 101.44 58.8343 103.309 56.7095C103.367 56.6357 103.492 56.7222 103.443 56.8009C102.074 59.2718 99.7839 61.1315 97.2396 62.2843C92.1267 64.6364 85.9324 64.3799 80.9797 61.7298C78.5172 60.4167 76.3099 58.4481 75.1105 55.8889C75.0841 55.7948 75.1884 55.7217 75.257 55.8166" fill="#7498D8"/>
<g opacity="0.864267">
<path d="M122.682 16.6802L122.764 16.8645L121.68 25.1482C121.658 25.3361 121.619 25.5096 121.565 25.6686L125.602 23.8712L126.276 25.3837L119.453 28.4212L119.371 28.2369L120.447 19.9567C120.479 19.7767 120.518 19.6033 120.562 19.4363L116.298 21.3347L115.625 19.8222L122.682 16.6802Z" fill="#C7D9FF"/>
</g>
</svg>
