<svg width="130" height="138" viewBox="0 0 130 138" fill="none" xmlns="http://www.w3.org/2000/svg">
<path d="M89.1165 107.412C67.5656 123.104 40.2877 122.357 28.1897 105.742C16.0916 89.1275 23.7543 62.9372 45.3051 47.2448C66.8558 31.5517 94.1337 32.2997 106.232 48.9139C118.33 65.5286 110.668 91.7189 89.1165 107.412Z" fill="#F2F7FF"/>
<path d="M49.8609 101.709C20.2878 95.8334 2.00596 74.6069 9.02675 54.2987C16.0475 33.9906 45.7126 22.2906 75.2854 28.1662C104.858 34.0418 123.14 55.2678 116.12 75.576C109.099 95.8844 79.4338 107.585 49.8609 101.709Z" fill="#F8FAFF"/>
<path d="M118.466 118.756C116.158 118.662 114.361 116.729 114.454 114.438C114.547 112.147 116.494 110.366 118.802 110.459C121.111 110.553 122.907 112.486 122.814 114.777C122.722 117.068 120.775 118.849 118.466 118.756Z" fill="#F2F7FF"/>
<path d="M17.248 8.74766C17.7038 13.0446 14.6166 16.8946 10.3525 17.3473C6.0882 17.7996 2.26186 14.6832 1.80576 10.3863C1.34987 6.089 4.43736 2.23897 8.70132 1.78667C12.9655 1.33399 16.7922 4.45068 17.248 8.74766Z" fill="#F2F7FF"/>
<path d="M117.664 32.8259C111.733 32.5858 107.119 27.6202 107.358 21.7346C107.596 15.8494 112.597 11.2734 118.527 11.5135C124.457 11.7537 129.072 16.7195 128.834 22.6048C128.595 28.49 123.594 33.066 117.664 32.8259Z" fill="#F8FAFF"/>
<path d="M14.5025 113.469C12.175 113.375 10.3643 111.426 10.4579 109.117C10.5515 106.808 12.5141 105.011 14.8411 105.106C17.1686 105.2 18.9793 107.149 18.8857 109.459C18.7921 111.768 16.83 113.564 14.5025 113.469Z" fill="#F2F7FF"/>
<path d="M104.645 48.121C109.469 74.3396 95.8218 89.69 75.6926 93.394C55.563 97.0979 34.0278 82.8444 29.2034 56.6258C24.379 30.4068 39.0204 10.2572 59.15 6.55299C79.2792 2.84903 99.8206 21.9023 104.645 48.121Z" fill="#F2F7FF"/>
<path d="M90.3685 37.8131H85.5605V47.0846C85.5605 49.339 83.7217 51.173 81.4616 51.173C79.2015 51.173 77.3631 49.339 77.3631 47.0846V37.8131H52.4859V47.0846C52.4859 49.339 50.6476 51.173 48.3875 51.173C46.1273 51.173 44.2885 49.339 44.2885 47.0846V37.8131H39.481C35.5713 37.8131 32.3721 41.0042 32.3721 44.9038V95.6568C32.3721 99.5564 35.5713 102.747 39.481 102.747H90.3685C94.2787 102.747 97.477 99.5564 97.477 95.6568V44.9038C97.477 41.0042 94.2787 37.8131 90.3685 37.8131Z" fill="#C74D28"/>
<path d="M91.1417 106.676H38.7079C35.2233 106.676 32.3723 103.825 32.3723 100.341V61.3015C32.3723 57.8169 35.2233 54.966 38.7079 54.966H91.1417C94.6267 54.966 97.4772 57.8169 97.4772 61.3015V100.341C97.4772 103.825 94.6267 106.676 91.1417 106.676Z" fill="#DBDBDB"/>
<path d="M91.2706 104.6H38.5794C35.1654 104.6 32.3721 101.806 32.3721 98.3924V61.1732C32.3721 57.7588 35.1654 54.9664 38.5794 54.9664H91.2706C94.6846 54.9664 97.4779 57.7588 97.4779 61.1732V98.3924C97.4779 101.806 94.6846 104.6 91.2706 104.6Z" fill="#EAEAEA"/>
<path d="M90.3685 37.4168H85.5605V46.7138C85.5605 48.9739 83.7217 50.8118 81.4616 50.8118C79.2015 50.8118 77.3631 48.9739 77.3631 46.7138V37.4168H52.4859V46.7138C52.4859 48.9739 50.6476 50.8118 48.3875 50.8118C46.1273 50.8118 44.2885 48.9739 44.2885 46.7138V37.4168H39.481C35.5713 37.4168 32.3721 40.616 32.3721 44.5262V95.4132C32.3721 99.3234 35.5713 102.523 39.481 102.523H90.3685C94.2787 102.523 97.477 99.3234 97.477 95.4132V44.5262C97.477 40.616 94.2787 37.4168 90.3685 37.4168Z" fill="white"/>
<path d="M90.3685 37.4168H85.5605V46.5058C85.5605 48.7654 83.7217 50.6043 81.4616 50.6043C79.2015 50.6043 77.3631 48.7654 77.3631 46.5058V37.4168H52.4859V46.5058C52.4859 48.7654 50.6476 50.6043 48.3875 50.6043C46.1273 50.6043 44.2885 48.7654 44.2885 46.5058V37.4168H39.481C35.5713 37.4168 32.3721 40.6165 32.3721 44.5267V54.9655H97.477V44.5267C97.477 40.6165 94.2787 37.4168 90.3685 37.4168Z" fill="#FF7348"/>
<path d="M90.3685 37.4168H85.5605V46.5058C85.5605 48.7654 83.7217 50.6043 81.4616 50.6043C79.2015 50.6043 77.3631 48.7654 77.3631 46.5058V37.4168H52.4859V46.5058C52.4859 48.7654 50.6476 50.6043 48.3875 50.6043C46.1273 50.6043 44.2885 48.7654 44.2885 46.5058V37.4168H39.481C35.5713 37.4168 32.3721 40.6165 32.3721 44.5267V54.9655H97.477V44.5267C97.477 40.6165 94.2787 37.4168 90.3685 37.4168Z" fill="#96BFFF"/>
<path d="M52.4142 68.7769C52.4142 70.2838 51.1927 71.5049 49.6858 71.5049C48.1788 71.5049 46.9573 70.2838 46.9573 68.7769C46.9573 67.2695 48.1788 66.048 49.6858 66.048C51.1927 66.048 52.4142 67.2695 52.4142 68.7769Z" fill="#96BFFF"/>
<path d="M62.5734 68.7769C62.5734 70.2838 61.3513 71.5049 59.8444 71.5049C58.3375 71.5049 57.1155 70.2838 57.1155 68.7769C57.1155 67.2695 58.3375 66.048 59.8444 66.048C61.3513 66.048 62.5734 67.2695 62.5734 68.7769Z" fill="#96BFFF"/>
<path d="M72.7338 68.7769C72.7338 70.2838 71.5113 71.5049 70.0044 71.5049C68.4974 71.5049 67.2759 70.2838 67.2759 68.7769C67.2759 67.2695 68.4974 66.048 70.0044 66.048C71.5113 66.048 72.7338 67.2695 72.7338 68.7769Z" fill="#96BFFF"/>
<path d="M82.893 68.7769C82.893 70.2838 81.6714 71.5049 80.164 71.5049C78.6576 71.5049 77.436 70.2838 77.436 68.7769C77.436 67.2695 78.6576 66.048 80.164 66.048C81.6714 66.048 82.893 67.2695 82.893 68.7769Z" fill="#96BFFF"/>
<path d="M52.4142 78.2498C52.4142 79.7567 51.1927 80.9778 49.6858 80.9778C48.1788 80.9778 46.9573 79.7567 46.9573 78.2498C46.9573 76.7424 48.1788 75.5208 49.6858 75.5208C51.1927 75.5208 52.4142 76.7424 52.4142 78.2498Z" fill="#96BFFF"/>
<path d="M62.5734 78.2498C62.5734 79.7567 61.3513 80.9778 59.8444 80.9778C58.3375 80.9778 57.1155 79.7567 57.1155 78.2498C57.1155 76.7424 58.3375 75.5208 59.8444 75.5208C61.3513 75.5208 62.5734 76.7424 62.5734 78.2498Z" fill="#96BFFF"/>
<path d="M72.7338 78.2498C72.7338 79.7567 71.5113 80.9778 70.0044 80.9778C68.4974 80.9778 67.2759 79.7567 67.2759 78.2498C67.2759 76.7424 68.4974 75.5208 70.0044 75.5208C71.5113 75.5208 72.7338 76.7424 72.7338 78.2498Z" fill="#96BFFF"/>
<path d="M82.893 78.2498C82.893 79.7567 81.6714 80.9778 80.164 80.9778C78.6576 80.9778 77.436 79.7567 77.436 78.2498C77.436 76.7424 78.6576 75.5208 80.164 75.5208C81.6714 75.5208 82.893 76.7424 82.893 78.2498Z" fill="#96BFFF"/>
<path d="M52.4142 87.7221C52.4142 89.2295 51.1927 90.451 49.6858 90.451C48.1788 90.451 46.9573 89.2295 46.9573 87.7221C46.9573 86.2152 48.1788 84.9941 49.6858 84.9941C51.1927 84.9941 52.4142 86.2152 52.4142 87.7221Z" fill="#96BFFF"/>
<path d="M62.5734 87.7221C62.5734 89.2295 61.3513 90.451 59.8444 90.451C58.3375 90.451 57.1155 89.2295 57.1155 87.7221C57.1155 86.2152 58.3375 84.9941 59.8444 84.9941C61.3513 84.9941 62.5734 86.2152 62.5734 87.7221Z" fill="#96BFFF"/>
<path d="M72.7338 87.7221C72.7338 89.2295 71.5113 90.451 70.0044 90.451C68.4974 90.451 67.2759 89.2295 67.2759 87.7221C67.2759 86.2152 68.4974 84.9941 70.0044 84.9941C71.5113 84.9941 72.7338 86.2152 72.7338 87.7221Z" fill="#96BFFF"/>
<path d="M44.2883 37.4173H42.6272V46.5058C42.6272 48.7654 44.4651 50.6043 46.7252 50.6043C47.0101 50.6043 47.2872 50.5754 47.5557 50.5197C45.911 50.1796 44.6236 48.8514 44.344 47.1855C44.3435 47.1817 44.3431 47.1783 44.3426 47.1744L44.3421 47.174C44.3387 47.1524 44.3354 47.1307 44.332 47.1091V47.1072C44.3315 47.1043 44.3315 47.101 44.3311 47.0976L44.3301 47.0957C44.3296 47.0928 44.3296 47.0899 44.3291 47.0865L44.3282 47.0841C44.3282 47.0808 44.3277 47.0779 44.3272 47.0745V47.0736L44.3214 47.0313L44.321 47.0294C44.3205 47.0265 44.321 47.0236 44.3205 47.0207C44.3205 47.0207 44.3195 47.0183 44.3195 47.0174C44.319 47.0145 44.3195 47.0121 44.319 47.0092C44.319 47.0082 44.3186 47.0058 44.3186 47.0058C44.3181 47.003 44.3176 47.0001 44.3171 46.9972V46.9943C44.3171 46.9914 44.3162 46.9885 44.3157 46.9857C44.3157 46.9857 44.3157 46.9833 44.3152 46.9823C44.3152 46.9794 44.3152 46.9765 44.3147 46.9741C44.3147 46.9732 44.3147 46.9717 44.3147 46.9717C44.3138 46.9621 44.3118 46.953 44.3109 46.9434C44.3109 46.942 44.3114 46.9405 44.3109 46.9391L44.3104 46.9323C44.3099 46.9304 44.3094 46.9285 44.3094 46.9271L44.309 46.9199C44.309 46.9184 44.3085 46.9165 44.3085 46.9146C44.3085 46.9127 44.3075 46.9107 44.3075 46.9083L44.307 46.9026C44.3066 46.9006 44.3066 46.8982 44.3066 46.8958C44.3061 46.8944 44.3066 46.893 44.3061 46.891C44.3061 46.8886 44.3056 46.8862 44.3051 46.8838C44.3051 46.8824 44.3051 46.8809 44.3046 46.879C44.3042 46.8742 44.3037 46.8694 44.3032 46.8646C44.3032 46.8632 44.3032 46.8622 44.3032 46.8603C44.3027 46.8584 44.3032 46.856 44.3027 46.854C44.3027 46.8521 44.3027 46.8507 44.3022 46.8488C44.3022 46.8464 44.3018 46.844 44.3013 46.842C44.3013 46.8401 44.3013 46.8382 44.3008 46.8363C44.3008 46.8344 44.3008 46.8319 44.3003 46.83C44.3003 46.8281 44.3008 46.8262 44.3003 46.8238C44.3003 46.8219 44.3003 46.8199 44.2998 46.8175C44.2998 46.8156 44.2993 46.8142 44.2989 46.8118C44.2989 46.8099 44.2989 46.8074 44.2984 46.8055C44.2984 46.8036 44.2989 46.8012 44.2984 46.7993C44.2984 46.7974 44.2984 46.795 44.2984 46.7935C44.2984 46.7911 44.2979 46.7887 44.2979 46.7868C44.2979 46.7834 44.2969 46.7806 44.2969 46.7772C44.2965 46.7748 44.2965 46.7724 44.2965 46.7695C44.296 46.7676 44.2965 46.7657 44.2965 46.7637C44.2965 46.7618 44.296 46.7594 44.296 46.757C44.296 46.7551 44.2955 46.7536 44.295 46.7517C44.295 46.7493 44.295 46.7469 44.2945 46.745C44.2945 46.7431 44.2945 46.7407 44.2945 46.7388C44.2941 46.7368 44.2941 46.7344 44.2941 46.733C44.2941 46.7306 44.2945 46.7287 44.2941 46.7267C44.2941 46.7243 44.2941 46.7219 44.2941 46.72C44.2936 46.7181 44.2936 46.7162 44.2936 46.7143C44.2936 46.7123 44.2926 46.7099 44.2926 46.7075C44.2926 46.7056 44.2926 46.7037 44.2926 46.7023C44.2921 46.6989 44.2921 46.696 44.2921 46.6936C44.2921 46.6917 44.2921 46.6902 44.2921 46.6888C44.2921 46.685 44.2921 46.6811 44.2917 46.6778C44.2917 46.6763 44.2917 46.6749 44.2917 46.6734C44.2917 46.6705 44.2912 46.6681 44.2907 46.6653C44.2907 46.6638 44.2907 46.6619 44.2907 46.6605C44.2907 46.6581 44.2907 46.6552 44.2902 46.6533C44.2902 46.6513 44.2902 46.6494 44.2902 46.648C44.2902 46.6456 44.2907 46.6427 44.2902 46.6403V46.635C44.2902 46.6331 44.2902 46.6307 44.2902 46.6278C44.2897 46.6264 44.2897 46.6244 44.2897 46.623C44.2897 46.6201 44.2897 46.6172 44.2897 46.6143V46.611C44.2893 46.6071 44.2888 46.6033 44.2888 46.5995V46.5971C44.2888 46.5937 44.2888 46.5898 44.2883 46.586V46.5817C44.2883 46.5788 44.2883 46.5759 44.2883 46.5735V46.5687V46.5605C44.2878 46.5591 44.2883 46.5572 44.2883 46.5557V46.5485V46.5432C44.2883 46.5408 44.2883 46.538 44.2883 46.5356V46.5308V46.5221V46.5183V46.5058V37.4173Z" fill="#6BA5FF"/>
<path d="M77.3635 37.4173H75.7019V46.5058C75.7019 48.7654 77.5407 50.6043 79.8009 50.6043C80.0852 50.6043 80.3629 50.5754 80.6314 50.5197C78.9247 50.1671 77.6027 48.75 77.3928 46.9958C77.3904 46.9741 77.3875 46.9525 77.3856 46.9299L77.3851 46.928C77.3846 46.9247 77.3846 46.9218 77.3841 46.9184C77.3841 46.9184 77.3841 46.917 77.3837 46.916C77.3837 46.9131 77.3832 46.9102 77.3832 46.9069L77.3827 46.9045C77.3822 46.9011 77.3822 46.8982 77.3817 46.8949V46.8939C77.3803 46.8795 77.3789 46.8656 77.3779 46.8516L77.3774 46.8492C77.3774 46.8464 77.3769 46.8435 77.3769 46.8406C77.3769 46.8392 77.3765 46.8377 77.3765 46.8368C77.3765 46.8344 77.376 46.8315 77.376 46.8291C77.376 46.8276 77.3755 46.8262 77.3755 46.8247C77.3755 46.8223 77.375 46.8195 77.375 46.8171C77.375 46.8156 77.375 46.8142 77.3745 46.8127C77.3745 46.8103 77.3741 46.8075 77.3741 46.805C77.3741 46.8036 77.3741 46.8022 77.3736 46.8007C77.3736 46.7978 77.3736 46.7954 77.3736 46.7935V46.7892L77.3721 46.7738V46.77C77.3721 46.7676 77.3717 46.7652 77.3717 46.7633C77.3717 46.7609 77.3717 46.7594 77.3712 46.7575C77.3712 46.7551 77.3712 46.7532 77.3707 46.7512V46.745C77.3702 46.7431 77.3702 46.7407 77.3702 46.7388C77.3702 46.7364 77.3697 46.7344 77.3697 46.733V46.7267C77.3693 46.7243 77.3693 46.7224 77.3693 46.72C77.3693 46.7181 77.3688 46.7162 77.3688 46.7143V46.708C77.3683 46.7061 77.3683 46.7037 77.3683 46.7018C77.3683 46.6998 77.3678 46.6974 77.3678 46.695C77.3678 46.6922 77.3678 46.6888 77.3673 46.6854V46.6778C77.3669 46.6763 77.3669 46.6744 77.3669 46.6725V46.6657C77.3664 46.6638 77.3664 46.6619 77.3664 46.66V46.6533C77.3659 46.6513 77.3659 46.6494 77.3659 46.6475V46.6408C77.3659 46.6388 77.3654 46.6369 77.3654 46.635V46.6283V46.6225C77.3649 46.6201 77.3649 46.6177 77.3649 46.6148V46.6105C77.3649 46.6076 77.3649 46.6043 77.3644 46.6009V46.5956V46.586C77.3644 46.5846 77.3644 46.5826 77.364 46.5812V46.5735V46.5687V46.5605V46.5557V46.5485C77.3635 46.5466 77.3635 46.5452 77.3635 46.5432V46.5356V46.5308V46.5221V46.5183V46.5058V37.4173Z" fill="#6BA5FF"/>
<path d="M82.893 87.7221C82.893 89.2295 81.6714 90.451 80.164 90.451C78.6576 90.451 77.436 89.2295 77.436 87.7221C77.436 86.2152 78.6576 84.9941 80.164 84.9941C81.6714 84.9941 82.893 86.2152 82.893 87.7221Z" fill="#F04248"/>
<path d="M48.3445 26.7647C46.3415 26.7647 44.7122 28.6717 44.7122 31.0161V45.4539C44.7122 47.7983 46.3415 49.7058 48.3445 49.7058C50.3475 49.7058 51.9769 47.7983 51.9769 45.4539V31.0161C51.9769 28.6717 50.3475 26.7647 48.3445 26.7647Z" fill="#D6D6D6"/>
<path d="M81.6092 26.7647C79.6062 26.7647 77.9768 28.6723 77.9768 31.0166V45.4544C77.9768 47.7988 79.6062 49.7058 81.6092 49.7058C83.6122 49.7058 85.2415 47.7988 85.2415 45.4544V31.0166C85.2415 28.6723 83.6122 26.7647 81.6092 26.7647Z" fill="#D6D6D6"/>
<path d="M83.0442 33.4124C82.5873 33.4124 82.2136 33.0387 82.2136 32.5819V30.6085C82.2136 30.1512 82.5873 29.778 83.0442 29.778C83.501 29.778 83.8747 30.1512 83.8747 30.6085V32.5819C83.8747 33.0387 83.501 33.4124 83.0442 33.4124Z" fill="white"/>
<path d="M83.0442 42.2896C82.5873 42.2896 82.2136 41.9163 82.2136 41.4595V36.3528C82.2136 35.8959 82.5873 35.5222 83.0442 35.5222C83.501 35.5222 83.8747 35.8959 83.8747 36.3528V41.4595C83.8747 41.9163 83.501 42.2896 83.0442 42.2896Z" fill="white"/>
<path d="M49.8242 33.4124C49.3674 33.4124 48.9937 33.0387 48.9937 32.5819V30.6085C48.9937 30.1512 49.3674 29.778 49.8242 29.778C50.281 29.778 50.6548 30.1512 50.6548 30.6085V32.5819C50.6548 33.0387 50.281 33.4124 49.8242 33.4124Z" fill="white"/>
<path d="M49.8242 42.2896C49.3674 42.2896 48.9937 41.9163 48.9937 41.4595V36.3528C48.9937 35.8959 49.3674 35.5222 49.8242 35.5222C50.281 35.5222 50.6548 35.8959 50.6548 36.3528V41.4595C50.6548 41.9163 50.281 42.2896 49.8242 42.2896Z" fill="white"/>
</svg>
