<svg width="32" height="33" viewBox="0 0 32 33" fill="none" xmlns="http://www.w3.org/2000/svg">
<rect width="32" height="32" rx="16" fill="#F9F9F9"/>
<path d="M12.7456 4.87829C12.7456 4.87829 9.70593 3.45409 8.02706 6.07629C6.34806 8.69849 8.21032 10.5447 6.61135 12.2413C5.01238 13.9381 3.86976 12.3232 3.86976 12.3232C3.86976 12.3232 3.39008 14.2938 4.82912 15.0438C4.82912 15.0438 1.69826 17.9309 6.30455 19.7507C12.7835 22.3106 24.961 21.657 27.4526 18.6126C29.6621 15.913 26.3352 15.0438 26.3352 15.0438C26.3352 15.0438 27.4298 15.3311 28.0018 13.6343C28.0018 13.6343 25.4301 14.0104 25.1631 12.2413C24.8962 10.4723 26.5751 4.88155 20.7389 4.78489C14.9027 4.68811 12.7457 4.87829 12.7457 4.87829H12.7456Z" fill="#7F1B09"/>
<path d="M25.6712 24.1781C24.0074 22.0197 7.84757 22.0197 6.18386 24.1781C5.65262 24.8673 5.09221 26.0536 4.57544 27.3491C7.55115 30.2808 11.6991 32.1007 16.2884 32.1007C20.6516 32.1007 24.6161 30.456 27.5534 27.7747C26.9316 26.3173 26.2601 24.9423 25.6712 24.1781Z" fill="#C9902C"/>
<path d="M22.6755 22.7426L15.7701 21.4207L8.94029 22.9965C8.8647 25.2983 9.08365 26.1059 8.40228 28.3183C8.24527 28.828 8.07612 29.353 7.90674 29.8801C10.3593 31.2904 13.2252 32.1016 16.2879 32.1016C18.9552 32.1016 21.4733 31.4866 23.699 30.3964C23.5123 29.7569 23.3262 29.0669 23.1599 28.3183C22.772 26.5728 22.7443 24.9274 22.6754 22.7426H22.6755Z" fill="#DD90F1"/>
<path d="M8.88135 25.3494C8.92848 24.6563 8.95239 23.8744 8.94119 22.9966" stroke="#902B12" stroke-width="0.993715" stroke-miterlimit="10"/>
<path d="M7.92578 29.8899C8.06647 29.6113 8.46006 28.7119 8.71483 26.95" stroke="#902B12" stroke-width="0.993715" stroke-miterlimit="10"/>
<path d="M23.6971 30.3976C23.5612 29.979 23.0072 28.1588 22.7917 25.6965" stroke="#902B12" stroke-width="0.993715" stroke-miterlimit="10"/>
<path d="M16.1248 21.4207C16.1248 21.4207 11.4315 22.0804 11.3851 22.6506C11.3385 23.2208 13.3248 22.8294 13.3248 22.8294C13.3248 22.8294 11.8052 24.7977 12.1679 25.2789C12.5306 25.7601 14.6618 23.7917 14.6618 23.7917C14.6618 23.7917 15.3392 26.6471 16.009 26.6471C16.6789 26.6471 17.2894 23.7291 17.2894 23.7291C17.2894 23.7291 19.9214 26.0223 20.3749 25.4538C20.8283 24.8852 18.7744 22.7857 18.7744 22.7857C18.7744 22.7857 21.4755 23.408 21.1155 22.8273C20.7348 22.2131 16.1248 21.4207 16.1248 21.4207Z" fill="#C66CE5"/>
<path d="M11.8261 22.3308C11.5602 22.4373 11.3937 22.5455 11.3851 22.6506C11.3385 23.2208 13.3248 22.8294 13.3248 22.8294C13.3248 22.8294 11.8052 24.7977 12.1679 25.2789C12.5306 25.7601 14.6618 23.7917 14.6618 23.7917" stroke="#902B12" stroke-width="0.993715" stroke-miterlimit="10"/>
<path d="M19.7675 25.4516C20.0473 25.5635 20.2699 25.5857 20.3751 25.4537C20.8286 24.8851 18.7747 22.7856 18.7747 22.7856C18.7747 22.7856 21.4758 23.4079 21.1158 22.8273C21.0312 22.6909 20.7382 22.5457 20.3331 22.4023" stroke="#902B12" stroke-width="0.993715" stroke-miterlimit="10"/>
<path d="M15.0613 25.1564C15.3166 25.8906 15.6634 26.6472 16.0083 26.6472C16.6782 26.6472 17.2887 23.7292 17.2887 23.7292C17.2887 23.7292 18.0443 24.3876 18.8155 24.9113" stroke="#902B12" stroke-width="0.993715" stroke-miterlimit="10"/>
<path d="M12.5744 22.0968C12.8352 23.1434 13.1716 24.1792 13.6746 25.09C13.804 25.3148 13.9438 25.5304 14.0956 25.7312C14.2508 25.9291 14.4217 26.1089 14.6087 26.2585C14.9766 26.5696 15.4205 26.7269 15.8834 26.7232C16.3461 26.722 16.7879 26.5548 17.1581 26.2443C17.3454 26.093 17.517 25.9129 17.6734 25.7152C17.8279 25.5158 17.9688 25.3 18.1005 25.0763C18.6131 24.1697 18.9635 23.1386 19.2388 22.0957L19.4007 22.1163C19.3813 22.6721 19.2935 23.2172 19.1718 23.7604C19.0413 24.3005 18.8725 24.8376 18.6234 25.3508C18.3813 25.8655 18.0522 26.3586 17.5986 26.7651C17.1489 27.1733 16.5169 27.4284 15.8881 27.4354C15.5747 27.4326 15.2576 27.377 14.9623 27.2639C14.666 27.1523 14.3971 26.9827 14.1688 26.7813C13.7114 26.375 13.3859 25.8773 13.148 25.3601C12.9041 24.8438 12.7408 24.3046 12.6179 23.7626C12.5034 23.2178 12.4231 22.6713 12.4121 22.1153L12.5744 22.0971V22.0968Z" fill="#E5611F"/>
<path d="M15.4807 28.2483C15.5591 28.3693 15.6598 28.4325 15.7609 28.4586C16.1857 28.5679 16.3666 27.5488 15.9805 27.2058C15.6361 26.8998 15.1045 27.6679 15.4807 28.2484V28.2483Z" fill="white"/>
<path d="M16.6379 27.5003C16.7017 27.5989 16.7837 27.6504 16.8662 27.6716C17.2123 27.7606 17.3595 26.9303 17.045 26.6509C16.7645 26.4017 16.3315 27.0273 16.6379 27.5003Z" fill="white"/>
<path d="M14.6033 27.5003C14.6672 27.5989 14.7491 27.6504 14.8315 27.6716C15.1775 27.7606 15.3249 26.9303 15.0104 26.6509C14.7298 26.4017 14.2968 27.0273 14.6033 27.5003Z" fill="white"/>
<path d="M13.7541 26.4153C13.8179 26.5139 13.8999 26.5655 13.9824 26.5866C14.3285 26.6756 14.4759 25.8454 14.1613 25.566C13.8807 25.3167 13.4477 25.9424 13.7541 26.4152V26.4153Z" fill="white"/>
<path d="M17.5486 26.4153C17.6125 26.5139 17.6945 26.5655 17.7769 26.5866C18.1229 26.6756 18.2702 25.8454 17.9557 25.566C17.6751 25.3167 17.2421 25.9424 17.5486 26.4152V26.4153Z" fill="white"/>
<path d="M18.1657 21.6561C18.1657 21.6561 17.6856 23.3661 15.8961 23.3661C14.1178 23.3661 13.6062 21.8309 13.6062 21.8309V17.1313H18.1658V21.656L18.1657 21.6561Z" fill="#C9902C"/>
<path d="M13.6062 19.6299C13.6062 19.6299 18.5193 18.5845 18.1658 19.6299C17.4305 21.8046 13.6062 21.6365 13.6062 21.6365V19.6299Z" fill="#902B12"/>
<path d="M22.1835 9.09856C21.0609 5.94589 18.0726 4.15552 15.6255 4.15552C13.0475 4.15552 10.2227 5.94589 9.10005 9.09856C7.92418 12.4008 9.10005 16.07 10.3664 17.4765C11.2522 18.4604 14.1259 20.5689 15.65 20.5689C17.5882 20.5689 20.0493 18.4405 20.9172 17.4765C22.1835 16.07 23.3594 12.4009 22.1835 9.09856Z" fill="#C9902C"/>
<path d="M6.61244 12.2412C5.93469 14.6042 9.1192 17.7744 10.2747 14.8519C11.3203 12.2072 7.58101 8.8641 6.61244 12.2412Z" fill="#C9902C"/>
<path d="M25.1634 12.2412C25.8411 14.6042 22.6566 17.7744 21.5012 14.8519C20.4555 12.2072 24.1948 8.8641 25.1634 12.2412Z" fill="#C9902C"/>
<path d="M13.1194 6.39527C13.3316 6.38965 16.9817 5.352 20.9557 7.91692C25.0542 10.5622 23.0087 5.50549 19.804 4.24953C16.5993 2.99357 12.7446 4.87802 12.7446 4.87802L13.1194 6.39527Z" fill="#7F1B09"/>
<path d="M12.7444 4.87873L13.1193 6.39599C13.1193 6.39599 11.4756 6.0162 10.33 8.20819C8.80226 11.1311 8.68514 12.2308 8.68514 12.2308C8.68514 12.2308 6.61781 8.24746 8.4453 5.53062C9.82099 3.48537 12.7446 4.87873 12.7446 4.87873H12.7444Z" fill="#902B12"/>
<path d="M12.7446 4.87869L13.1194 6.39595C13.1194 6.39595 15.4834 3.5919 16.8071 6.18462C18.2025 8.91789 20.0273 9.79327 21.46 9.5529C22.8928 9.31253 22.7059 11.7763 21.8338 13.0983C20.9617 14.4203 22.8785 16.7939 21.7573 17.9357C20.636 19.0774 20.5011 19.8458 22.0652 20.8732C22.0652 20.8732 20.8867 19.5882 22.5126 18.9873C24.1386 18.3864 23.0797 16.6437 22.9551 14.4203C22.8305 12.1969 24.8258 10.5076 24.3898 8.40441C23.9537 6.3012 22.6436 7.22564 21.46 4.24301C20.2765 1.26025 13.3732 1.40643 12.7446 4.87881V4.87869Z" fill="#902B12"/>
<path d="M10.1781 8.49756C9.13515 10.4242 9.52069 12.3107 9.63524 13.1268C9.72238 13.7475 10.0102 14.3556 9.91813 14.9756C9.83029 15.5674 9.40508 16.0798 9.34699 16.6749C9.28108 17.35 9.69462 17.9727 9.86423 18.6308C10.0338 19.2888 9.54005 20.491 8.83838 20.5307C9.86423 18.6308 8.10708 17.9675 8.31671 16.782C8.4168 16.2156 9.221 15.3149 8.89566 14.8336C8.2102 13.8195 8.35065 13.2559 8.68545 12.2308C8.85296 11.7181 8.52365 10.9653 8.21021 10.6507C8.61896 9.73664 9.19417 9.05065 10.1781 8.49767V8.49756Z" fill="#902B12"/>
<path d="M13.1199 6.39595C13.1199 6.39595 11.7056 5.21392 10.627 6.39595C9.54853 7.57798 9.5105 10.6646 9.5105 10.6646C9.5105 10.6646 10.1785 6.24561 13.1199 6.39595Z" fill="#7F1B09"/>
<path d="M13.1197 6.39567L12.7449 4.87842" stroke="#7F1B09" stroke-width="0.993715" stroke-miterlimit="10"/>
<path d="M9.74711 19.1884C8.86591 18.5876 8.62934 17.4097 8.74203 16.3744C8.85471 15.3392 9.23909 14.3411 9.30628 13.3021C9.36787 12.3497 9.16081 11.4026 8.97416 10.4654C8.78752 9.52827 8.61966 8.56849 8.75952 7.62368C8.89939 6.67887 9.3891 6.10608 10.2509 5.63739C11.1127 5.1687 12.1263 5.42032 12.9082 5.74868C12.9082 5.74868 11.029 3.66686 9.05221 5.63739C7.63685 7.0482 7.87249 9.64834 9.17831 11.5284" stroke="#7F1B09" stroke-width="0.993715" stroke-miterlimit="10"/>
<path d="M22.1435 20.7603C22.4371 21.1779 21.3204 20.1079 21.3605 19.6047C21.4006 19.1015 21.6984 18.6548 22.0079 18.2479C22.3174 17.8409 22.6551 17.4355 22.7978 16.95C23.2114 15.5424 21.8585 14.1132 22.1268 12.6732C22.2369 12.0817 22.6088 11.5729 22.8947 11.0389C23.1805 10.505 23.3849 9.86451 23.1411 9.31154C22.837 8.62172 21.9824 8.35435 21.2211 8.20389C20.4598 8.05344 19.6073 7.89128 19.1645 7.27517C18.8822 6.88221 18.829 6.37886 18.6182 5.94629C18.1558 4.99743 16.9612 4.52615 15.8802 4.63665C14.7993 4.74727 13.931 5.2504 13.1199 5.94843C13.1199 5.94843 13.5201 4.29692 15.3922 3.69499C17.2642 3.09306 19.2751 3.91398 19.6595 5.63773C20.0438 7.36148 22.8528 6.99925 23.6177 8.34647C24.3826 9.69369 23.1351 11.0424 22.8236 12.5055C22.2431 15.2309 24.3445 17.3101 22.8804 18.3063C21.4161 19.3024 21.4068 19.7125 22.1436 20.7605" stroke="#7F1B09" stroke-width="0.993715" stroke-miterlimit="10"/>
<path d="M12.8035 5.11377C12.8035 5.11377 13.8769 2.27248 16.9875 2.53411C20.098 2.79563 20.0639 4.70214 20.8404 5.63705C21.4021 6.31336 24.0695 6.6846 24.2171 8.84002C24.3647 10.9953 22.8739 13.6715 22.8739 13.6715" stroke="#7F1B09" stroke-width="0.993715" stroke-miterlimit="10"/>
</svg>
