<svg width="24" height="24" viewBox="0 0 24 24" fill="none" xmlns="http://www.w3.org/2000/svg">
<path d="M2 12C2 8.22876 2 6.34315 3.17157 5.17157C4.34315 4 6.22876 4 10 4H14C17.7712 4 19.6569 4 20.8284 5.17157C22 6.34315 22 8.22876 22 12C22 15.7712 22 17.6569 20.8284 18.8284C19.6569 20 17.7712 20 14 20H10C6.22876 20 4.34315 20 3.17157 18.8284C2 17.6569 2 15.7712 2 12Z" fill="#F8FAFF"/>
<path d="M12.0002 10V11.9997M12.0002 11.9997V14M12.0002 11.9997L10.2678 11M12.0002 11.9997L13.7319 13M12.0002 11.9997L13.7317 11M12.0002 11.9997L10.2676 13M6.73266 10V11.9997M6.73266 11.9997V14M6.73266 11.9997L5.00023 11M6.73266 11.9997L8.46434 13M6.73266 11.9997L8.4641 11M6.73266 11.9997L5 13M17.2681 10V11.9997M17.2681 11.9997V14M17.2681 11.9997L15.5356 11M17.2681 11.9997L18.9997 13M17.2681 11.9997L18.9995 11M17.2681 11.9997L15.5354 13M10 20H14C17.7712 20 19.6569 20 20.8284 18.8284C22 17.6569 22 15.7712 22 12C22 8.22876 22 6.34315 20.8284 5.17157C19.6569 4 17.7712 4 14 4H10C6.22876 4 4.34315 4 3.17157 5.17157C2 6.34315 2 8.22876 2 12C2 15.7712 2 17.6569 3.17157 18.8284C4.34315 20 6.22876 20 10 20Z" stroke="#2372EC" stroke-linecap="round"/>
</svg>
