<svg width="32" height="32" viewBox="0 0 32 32" fill="none" xmlns="http://www.w3.org/2000/svg">
<path d="M18.5174 7.55061L19.5061 6.56194C21.1442 4.92385 23.8001 4.92385 25.4381 6.56194C27.0762 8.20002 27.0762 10.8559 25.4381 12.494L24.4495 13.4826M18.5174 7.55061C18.5174 7.55061 18.641 9.65154 20.4948 11.5053C22.3485 13.3591 24.4495 13.4826 24.4495 13.4826M18.5174 7.55061L9.42812 16.6399C8.81248 17.2556 8.50466 17.5634 8.23993 17.9028C7.92765 18.3032 7.65992 18.7364 7.44147 19.1947C7.25629 19.5833 7.11863 19.9963 6.84331 20.8223L5.67664 24.3223M24.4495 13.4826L15.3601 22.572C14.7445 23.1876 14.4367 23.4954 14.0973 23.7601C13.6969 24.0724 13.2637 24.3402 12.8053 24.5586C12.4168 24.7438 12.0038 24.8815 11.1778 25.1568L7.67782 26.3234M7.67782 26.3234L6.82227 26.6086C6.41581 26.7441 5.96768 26.6383 5.66471 26.3354C5.36175 26.0324 5.25596 25.5843 5.39145 25.1778L5.67664 24.3223M7.67782 26.3234L5.67664 24.3223" stroke="#424242" stroke-width="1.5"/>
</svg>
