<svg width="48" height="48" viewBox="0 0 48 48" fill="none" xmlns="http://www.w3.org/2000/svg">
<g clip-path="url(#clip0_4971_206)">
<path fill-rule="evenodd" clip-rule="evenodd" d="M23.2484 29.4092V33.9201C23.2484 34.3753 23.0215 34.8113 22.6423 35.0956C22.113 35.494 21.7722 36.138 21.7722 36.8588V42.0521H21.4134C20.7502 42.0521 20.1642 41.5973 19.9937 40.9533L18.6497 36.0056C18.2709 34.6792 18.5545 33.2577 19.3693 32.1574L19.6345 31.7974C20.0136 31.3042 20.0505 30.6219 19.7101 30.11C18.2524 27.9105 14.6002 21.372 14.3915 11.1741C15.432 11.6861 16.5108 12.1593 17.5896 12.5577C18.7633 13.0125 19.5382 14.0932 19.5382 15.3439V18.2062C19.5382 19.4569 20.0679 20.576 20.8826 21.3904C21.4503 21.9408 21.7722 22.6987 21.7722 23.4947V26.3765C21.7722 27.1345 22.1315 27.8365 22.6991 28.2717C23.0399 28.5361 23.2484 28.9725 23.2484 29.4092Z" fill="#FFC487"/>
<path fill-rule="evenodd" clip-rule="evenodd" d="M28.6523 32.1518C29.4675 33.2513 29.7334 34.674 29.3734 36.0022L28.0267 40.9526C27.856 41.597 27.2684 42.0521 26.5856 42.0521H26.2445V36.8558C26.2445 36.1347 25.9029 35.4903 25.3526 35.0919C24.9926 34.8076 24.765 34.3709 24.765 33.9157V29.4389C24.765 28.9838 24.9925 28.5474 25.3526 28.2627C25.9029 27.8643 26.2445 27.2199 26.2445 26.4804V23.4831C26.2445 22.6864 26.5672 21.9284 27.1164 21.3781C27.9511 20.563 28.4631 19.4435 28.4631 18.1916V15.3278C28.4631 14.0763 29.2598 12.9952 30.4361 12.5401C31.5172 12.1417 32.5795 11.6677 33.6219 11.1742C33.4131 21.3592 29.7534 27.9027 28.3123 30.1021C27.9711 30.6141 27.9895 31.2968 28.3695 31.7907L28.6523 32.1519V32.1518Z" fill="#FFC487"/>
<path fill-rule="evenodd" clip-rule="evenodd" d="M35.8668 8.45033C38.7487 7.00886 41.231 5.77504 43.0889 5.77504C43.2781 5.77504 43.4684 5.77504 43.6392 5.79387C45.5464 5.9752 47.0698 7.24058 47.5592 9.07293C47.9903 10.6878 47.3726 12.4073 46.1546 13.5512L43.8284 15.7367C44.0172 16.2306 44.0559 16.7997 43.9235 17.3493C43.9051 17.5201 43.8483 17.7093 43.7716 17.8801C43.7148 18.0693 43.6192 18.26 43.5057 18.4492C43.4105 18.6384 43.2781 18.8291 43.146 19C42.9185 17.7289 42.0085 16.4766 40.6054 15.7367C39.7523 15.2815 38.8423 15.0723 38.008 15.1104C38.1784 14.9584 38.3492 14.8075 38.558 14.6736C40.0367 13.7061 41.8182 13.6873 42.9185 14.5216L45.2883 12.3399C46.1414 11.5432 46.4443 10.3477 46.0662 9.24742C45.6863 8.12757 44.7195 7.38766 43.5068 7.27365C43.3748 7.25523 43.2412 7.25523 43.0904 7.25523C41.5733 7.25523 39.1282 8.48868 36.532 9.77814L35.8669 8.45028L35.8668 8.45033Z" fill="#FF6859"/>
<path fill-rule="evenodd" clip-rule="evenodd" d="M32.8334 9.86511C31.6956 10.4154 30.5192 10.9078 29.3441 11.3261C28.7934 11.5154 28.2626 11.6861 27.7123 11.8385C27.4663 11.9137 27.2 11.9705 26.954 12.0277C25.9485 12.2553 24.9441 12.3877 23.9767 12.3877C23.2371 12.3877 22.4972 12.3121 21.7573 12.1786C21.5113 12.1402 21.2453 12.0834 20.9993 12.0262C20.7529 11.9694 20.487 11.9125 20.241 11.8369C19.6903 11.685 19.1599 11.5142 18.6092 11.325C17.4329 10.9078 16.2577 10.4143 15.1199 9.86356C16.3902 9.42684 19.2551 8.68693 23.9767 8.68693C28.6994 8.68957 31.582 9.44791 32.8335 9.86507L32.8334 9.86511Z" fill="#FFC487"/>
<path fill-rule="evenodd" clip-rule="evenodd" d="M10.992 19.4562C10.0188 20.947 7.76788 21.1952 5.93594 20.0111C5.07718 19.4562 4.48618 18.6734 4.19995 17.8508C4.33312 18.2333 4.54337 18.6148 4.82967 18.9789C5.07718 17.6988 5.99313 16.4371 7.40563 15.6919C8.26443 15.233 9.16159 15.0227 10.0204 15.0611C11.393 16.284 11.832 18.1373 10.992 19.4562V19.4562Z" fill="#FFC487"/>
<path fill-rule="evenodd" clip-rule="evenodd" d="M15.1197 9.91212C15.0813 9.91212 15.0629 9.93055 15.0441 9.93055C14.6269 10.0829 14.3426 10.4997 14.3426 10.9364C14.3426 11.012 14.3426 11.1072 14.361 11.1828C13.3547 10.7276 12.3869 10.2537 11.4577 9.77818C8.85728 8.48758 6.39074 7.2549 4.87333 7.2549C4.7409 7.2549 4.6074 7.2549 4.47496 7.27369C3.24114 7.38733 2.29322 8.12761 1.89449 9.24746C1.53448 10.3477 1.83767 11.5428 2.69155 12.3399L5.04449 14.5213C6.16434 13.6862 7.92933 13.7062 9.40952 14.6736C9.61867 14.8061 9.80788 14.9584 9.97868 15.1104C9.12475 15.0724 8.23252 15.2816 7.3786 15.7367C5.97362 16.4766 5.06292 17.7289 4.81655 19C4.53183 18.64 4.32264 18.2601 4.1902 17.8801C4.115 17.7093 4.05781 17.5201 4.03824 17.3493C3.92423 16.7986 3.9427 16.2291 4.15185 15.7168L1.6853 13.4214C0.375868 12.2075 -0.0608541 10.4429 0.489879 8.77238C1.059 7.10294 2.53918 5.96426 4.3226 5.79391C4.51222 5.77508 4.68297 5.77508 4.87333 5.77508C6.75229 5.77508 9.23872 7.0089 12.1221 8.45036C13.0899 8.94427 14.0951 9.43818 15.1197 9.91216V9.91212Z" fill="#FF6859"/>
<path fill-rule="evenodd" clip-rule="evenodd" d="M43.1464 18.9789C42.8616 19.3614 42.4813 19.724 42.0453 20.0107C40.2408 21.1956 38.0004 20.9462 37.0321 19.4558C36.1775 18.1189 36.6146 16.2648 38.0004 15.0611C38.8366 15.0227 39.7481 15.233 40.6027 15.6916C42.0084 16.4368 42.9184 17.6981 43.1463 18.9789L43.1464 18.9789Z" fill="#FFC487"/>
<path fill-rule="evenodd" clip-rule="evenodd" d="M42.3418 16.8084C42.1206 16.8084 41.925 16.6933 41.709 16.4469C41.0868 15.739 41.8057 15.0758 42.0427 14.8576L42.0784 14.8986C42.2398 14.7688 42.5152 14.5413 42.9639 14.1629L43.354 13.8371C45.4666 12.085 46.7715 10.7876 45.7167 8.79309C44.536 6.56694 41.3028 7.8019 41.1651 7.85343L35.7043 10.4106C35.7043 10.4106 29.4385 13.1397 29.182 13.3951C29.1304 13.4572 29.0969 13.4955 29.0969 13.4955L28.3574 11.6866L34.9328 8.67684L40.4147 6.11293C42.171 5.41666 45.8119 4.92198 47.3937 7.90647C49.2478 11.4138 46.4299 13.751 44.5652 15.2982L44.1842 15.6171C43.2772 16.3781 42.7653 16.8085 42.3417 16.8085L42.3418 16.8084Z" fill="#FF6859"/>
<path fill-rule="evenodd" clip-rule="evenodd" d="M5.65838 16.8084C5.87961 16.8084 6.07517 16.6933 6.29111 16.4469C6.91331 15.739 6.19443 15.0758 5.95746 14.8576L5.92175 14.8986C5.76035 14.7688 5.48502 14.5413 5.03626 14.1629L4.64579 13.8371C2.53364 12.085 1.22872 10.7876 2.28345 8.79309C3.46387 6.56693 6.69737 7.80189 6.83505 7.85342L12.2959 10.4106C12.2959 10.4106 18.5617 13.1397 18.8182 13.3951C18.8697 13.4572 18.9029 13.4955 18.9029 13.4955L19.6428 11.6865L13.0674 8.67684L7.5855 6.11292C5.82917 5.41665 2.18827 4.92197 0.606521 7.90646C-1.24763 11.4138 1.5699 13.751 3.43491 15.2982L3.81598 15.6171C4.72254 16.3781 5.23487 16.8084 5.65842 16.8084L5.65838 16.8084Z" fill="#FF6859"/>
<path fill-rule="evenodd" clip-rule="evenodd" d="M21.7301 42.0498C21.6797 42.0498 21.7632 36.8042 21.8651 36.3679C22.1322 35.2214 22.8093 34.1895 22.9681 33.0151C23.1347 31.7798 23.0185 30.4004 23.0023 29.1572C23.0023 29.0183 23.0023 28.8784 22.9654 28.7434C22.8861 28.4549 22.6495 28.2434 22.4456 28.0264C20.6336 26.0955 20.4102 22.338 19.8956 19.8489C19.689 19.3396 19.5676 18.7881 19.5676 18.2051V15.3428C19.5676 14.0944 18.7882 12.9888 17.6164 12.5577C16.5356 12.1597 15.4538 11.6861 14.4099 11.173C14.3915 11.0974 14.3915 11.0022 14.3915 10.927C14.3915 10.4903 14.6758 10.0739 15.0926 9.92152C15.1111 9.92152 15.131 9.90309 15.1679 9.90309C16.3054 10.4534 17.4813 10.9455 18.656 11.3634C19.2064 11.5526 19.7368 11.723 20.2871 11.875C20.5331 11.9506 20.7987 12.0074 21.0447 12.0642C21.2907 12.121 21.5567 12.1782 21.8026 12.2166C22.5422 12.3486 23.2813 12.4254 24.0209 12.4254C24.988 12.4254 25.9932 12.2933 26.9971 12.0658C27.2431 12.0089 27.5091 11.9517 27.7551 11.8765C28.305 11.7245 28.8354 11.5538 29.3857 11.3646C30.5616 10.9481 31.7364 10.455 32.8739 9.90464C33.8978 9.43107 34.9029 8.93789 35.8697 8.44434L36.534 9.77111C35.5853 10.2443 34.6186 10.7379 33.6146 11.1926C32.5643 11.6888 31.4942 12.1661 30.4055 12.5668C29.2364 12.9956 28.4585 14.0996 28.4585 15.3444V18.2063C28.4773 18.2063 28.4611 18.2872 28.4385 18.4049C28.4175 18.8838 28.3249 19.3397 28.1651 19.7659C27.1622 22.4254 27.5102 26.0309 25.4176 28.2198C25.2776 28.3665 25.1215 28.5079 25.0406 28.6957C24.9707 28.8597 24.9665 29.0421 24.9654 29.2208C24.9481 30.4655 24.944 31.7825 25.111 33.0179C25.2694 34.1922 25.9468 35.224 26.2139 36.3706C26.3159 36.807 26.3979 42.0526 26.349 42.0526C26.3317 42.05 21.73 42.05 21.73 42.05L21.7301 42.0498Z" fill="#FF6859"/>
<path fill-rule="evenodd" clip-rule="evenodd" d="M36.53 31.9415C36.53 32.6089 36.2671 33.2088 35.8409 33.649C35.546 33.9487 35.1698 34.1715 34.753 34.2806C34.5672 34.3302 34.3678 34.3535 34.1681 34.3535C32.8628 34.3535 31.8024 33.2773 31.8024 31.9415V31.8686C31.8024 31.378 31.9291 30.901 32.165 30.4745L34.0281 27.1228C34.0695 27.0502 34.1778 27.0502 34.2226 27.1228L34.7124 27.9854L36.1588 30.5245C36.4029 30.9556 36.53 31.4457 36.53 31.9415V31.9415Z" fill="#FF6859"/>
<path fill-rule="evenodd" clip-rule="evenodd" d="M42.6006 38.9216C42.6006 39.8884 42.2195 40.7577 41.6011 41.3957C41.1738 41.8302 40.6283 42.1525 40.0242 42.3109C39.7549 42.3831 39.4656 42.4162 39.176 42.4162C37.2831 42.4162 35.7454 40.857 35.7454 38.9216V38.8159C35.7454 38.105 35.9293 37.414 36.2716 36.7963L38.9729 31.94C39.0327 31.8343 39.1903 31.8343 39.2554 31.94L39.9652 33.1897L42.0623 36.8682C42.4166 37.4934 42.6006 38.2036 42.6006 38.9216Z" fill="#FF6859"/>
</g>
<defs>
<clipPath id="clip0_4971_206">
<rect width="48" height="48" fill="white"/>
</clipPath>
</defs>
</svg>
