<svg width="28" height="29" viewBox="0 0 28 29" fill="none" xmlns="http://www.w3.org/2000/svg">
<rect width="28" height="28" rx="14" fill="#F9F9F9"/>
<path d="M24.4262 23.4758C22.8417 20.8084 13.828 19.479 13.828 19.479C13.828 19.479 5.10551 20.9509 3.65226 23.3294C3.62569 23.3729 3.59961 23.4175 3.57373 23.4625C6.13506 26.3011 9.85941 28.0886 14.0059 28.0886C18.1459 28.0886 21.8651 26.3067 24.4261 23.4758H24.4262Z" fill="white"/>
<path d="M6.51833 25.9373C6.51505 24.9511 6.44597 23.1052 6.3772 21.4956C9.44683 20.2181 13.8278 19.4785 13.8278 19.4785C13.8278 19.4785 18.3208 20.1413 21.5201 21.4698C21.4438 23.1304 21.3658 25.0499 21.3629 26.0183C19.2256 27.3303 16.7051 28.0881 14.0056 28.0881C11.2511 28.0881 8.68303 27.299 6.51823 25.9372L6.51833 25.9373Z" fill="#902B12"/>
<path d="M15.89 19.8983L13.9326 22.3234L11.9753 19.8904V15.5898H15.89V19.8983Z" fill="#C9902C"/>
<path d="M11.9753 17.9019C11.9753 17.9019 15.3179 17.9503 15.89 18.5048V18.8711C14.7783 20.5889 12.2144 19.9534 11.9913 19.8943L11.9753 19.8744V17.9019Z" fill="#902B12"/>
<path d="M20.1151 8.85879C19.054 5.97471 16.2298 4.33691 13.917 4.33691C11.4803 4.33691 8.81062 5.97481 7.74952 8.85879C6.63806 11.8797 7.74952 15.2362 8.94638 16.5228C9.78354 17.4228 11.3121 19.3516 13.9401 19.3516C16.7108 19.3516 18.098 17.4045 18.9182 16.5228C20.1151 15.2361 21.2265 11.8796 20.1151 8.85879Z" fill="#C9902C"/>
<path d="M5.33123 11.6381C4.65322 13.8538 7.83881 16.8261 8.99466 14.0859C10.0407 11.6062 6.30006 8.4717 5.33123 11.6381Z" fill="#C9902C"/>
<path d="M22.289 11.6383C22.9669 13.854 19.7814 16.8263 18.6255 14.0861C17.5794 11.6065 21.3201 8.47195 22.289 11.6383Z" fill="#C9902C"/>
<path d="M13.9332 22.3216L12.1749 23.651L10.95 20.0792L11.9759 19.8176L13.9332 22.3216Z" fill="white"/>
<path d="M13.9331 22.3215L12.8142 23.1674L13.9331 26.5366L15.1277 23.1678L13.9331 22.3215Z" fill="white"/>
<path d="M13.9333 22.3219L15.8132 23.6536L16.9027 20.0391L15.8907 19.7549L13.9333 22.3219Z" fill="white"/>
<path d="M15.813 23.6528L13.9331 22.321L12.1748 23.6504" stroke="#902B12" stroke-width="0.538462" stroke-miterlimit="10"/>
<path d="M11.9758 19.8176L13.9331 22.3216V26.5367" stroke="#902B12" stroke-width="0.538462" stroke-miterlimit="10"/>
<path d="M14.2105 23.928C14.2105 24.0795 14.0866 24.2022 13.9336 24.2022C13.7808 24.2022 13.6567 24.0795 13.6567 23.928C13.6567 23.7766 13.7808 23.6538 13.9336 23.6538C14.0866 23.6538 14.2105 23.7766 14.2105 23.928Z" fill="#902B12"/>
<path d="M14.2105 25.0533C14.2105 25.2047 14.0866 25.3275 13.9336 25.3275C13.7808 25.3275 13.6567 25.2047 13.6567 25.0533C13.6567 24.9019 13.7808 24.7791 13.9336 24.7791C14.0866 24.7791 14.2105 24.9019 14.2105 25.0533Z" fill="#902B12"/>
<path d="M15.8905 19.7546L13.9331 22.3216" stroke="#902B12" stroke-width="0.538462" stroke-miterlimit="10"/>
<path d="M20.0353 11.2311C20.0353 11.2311 19.9814 7.32256 17.4575 5.81122L17.7871 3.84155C17.7871 3.84155 22.362 3.89231 20.0353 11.2312V11.2311Z" fill="#7F1B09"/>
<path d="M10.7071 3.89209L10.9494 5.62106C10.9494 5.62106 8.05051 6.46578 7.69916 11.1695C7.69916 11.1695 5.38009 4.13506 10.7071 3.89209Z" fill="#7F1B09"/>
<path d="M10.9496 5.621L10.7072 3.89203C10.7072 3.89203 10.6133 1.50503 14.4286 1.91191C18.2439 2.3188 18.7721 6.21349 20.2396 4.93458C20.2396 4.93458 20.0048 7.20163 18.1265 7.02726C16.2482 6.85289 12.1391 4.84882 10.9496 5.621Z" fill="#902B12"/>
<path d="M10.8859 5.16144C10.8859 5.16144 11.9763 2.83624 13.9183 4.33644C16.5443 6.36515 19.2843 7.86662 20.2404 4.93523C20.2404 4.93523 19.6153 6.42922 17.7004 5.9694C15.7855 5.50958 13.3171 0.773424 10.708 3.89269" stroke="#7F1B09" stroke-width="0.538462" stroke-miterlimit="10" stroke-linejoin="round"/>
<path d="M10.708 3.89258L10.9504 5.62155" stroke="#7F1B09" stroke-width="0.538462" stroke-miterlimit="10" stroke-linejoin="round"/>
<path d="M20.1415 5.01401C20.1415 5.01401 18.7381 6.41889 16.8673 4.70559C15.4991 3.45261 12.7567 0.0750989 10.708 3.89261" stroke="#7F1B09" stroke-width="0.538462" stroke-miterlimit="10" stroke-linejoin="round"/>
</svg>
