<svg width="28" height="29" viewBox="0 0 28 29" fill="none" xmlns="http://www.w3.org/2000/svg">
<rect width="28" height="28" rx="14" fill="#F9F9F9"/>
<path d="M17.5155 18.2123L14.0083 16.0698C14.0083 16.0698 14.0076 16.1009 14.0069 16.1572C14.0062 16.1009 14.0056 16.0698 14.0056 16.0698L10.4984 18.2123C10.4984 18.2123 9.60433 19.7437 8.30737 19.8736C8.30737 19.8736 9.64849 20.9776 11.1565 19.8736C11.1565 19.8736 11.3341 21.232 12.7309 21.3971C13.8436 21.5286 13.9924 18.0707 14.0069 16.6582C14.0215 18.0708 14.1702 21.5287 15.2829 21.3971C16.6797 21.2321 16.8573 19.8736 16.8573 19.8736C18.3653 20.9776 19.7064 19.8736 19.7064 19.8736C18.4095 19.7438 17.5154 18.2123 17.5154 18.2123H17.5155Z" fill="#E5611F"/>
<path d="M11.0847 19.925C11.555 19.4307 11.8002 18.7393 11.7434 18.0669" stroke="#FFCE10" stroke-width="0.538462" stroke-miterlimit="10"/>
<path d="M16.9375 19.9503C16.4291 19.4216 16.1696 18.6736 16.244 17.9521" stroke="#FFCE10" stroke-width="0.538462" stroke-miterlimit="10"/>
<path d="M24.36 23.8688C24.3449 23.8411 24.3297 23.8137 24.3144 23.7866C22.8307 21.1611 19.9691 21.2845 19.9691 21.2845L13.3959 20.9694L14.2378 20.9573L14.1756 20.9603L14.1133 20.9573V20.9632L7.8993 21.2845C7.8993 21.2845 5.22526 21.2845 3.79158 23.5978C3.73996 23.6812 3.68948 23.7679 3.64014 23.8572C6.28121 26.4691 9.94963 28.0883 14.0058 28.0883C18.0561 28.0883 21.7199 26.4739 24.36 23.8688Z" fill="#E23128"/>
<path d="M19.2995 21.2524C18.3207 22.1083 15.785 24.1569 14.0088 24.0883C12.246 24.0203 9.56771 22.0811 8.50098 21.2534L14.1134 20.9632V20.9573L14.1757 20.9603L14.2379 20.9573L13.396 20.9694L19.2994 21.2523L19.2995 21.2524Z" fill="#F14738"/>
<path d="M10.4892 22.6504C9.66867 22.1356 8.94515 21.5984 8.50098 21.2537" stroke="#7F1B09" stroke-width="0.538462" stroke-miterlimit="10"/>
<path d="M19.2993 21.2527C18.8264 21.6662 17.9903 22.3578 17.052 22.9548" stroke="#7F1B09" stroke-width="0.538462" stroke-miterlimit="10"/>
<path d="M16.1313 23.4847C15.3974 23.8592 14.6529 24.113 14.0084 24.0881C13.2372 24.0584 12.2907 23.6704 11.3806 23.1741" stroke="#7F1B09" stroke-width="0.538462" stroke-miterlimit="10"/>
<path d="M15.8655 21.6641L13.9344 22.1492L12.0034 21.6641V16.0691H15.8655V21.6641Z" fill="#EED28A"/>
<path d="M9.43541 21.2049C9.43541 21.2049 13.2521 23.2232 14.0057 23.2232C14.7595 23.2232 18.3121 21.2049 18.3121 21.2049C18.3121 21.2049 16.5927 20.5156 14.1131 20.5156C11.6335 20.5156 9.4353 21.2049 9.4353 21.2049H9.43541Z" fill="#EED28A"/>
<path d="M12.0029 18.3183C12.0029 18.3183 15.5237 17.5602 15.8649 18.1331V18.35C15.2139 20.1861 12.0029 20.0436 12.0029 20.0436V18.3183Z" fill="#902B12"/>
<path d="M19.9989 8.50938C18.9521 5.70435 16.0568 4.37891 13.7751 4.37891C11.3713 4.37891 8.73744 5.97193 7.69061 8.77696C6.59413 11.7151 7.81448 14.5621 8.54474 16.1071C9.00321 17.0769 11.1894 19.3902 13.782 19.3902C16.5154 19.3902 18.321 17.7944 19.1274 16.7784C20.1949 15.4336 21.0953 11.4475 19.9989 8.50938Z" fill="#EED28A"/>
<path d="M5.5588 11.4787C4.93002 13.5046 7.88445 16.2224 8.95657 13.7169C9.92669 11.4496 6.4574 8.58352 5.5588 11.4787Z" fill="#EED28A"/>
<path d="M22.4152 11.4482C23.0629 13.5346 20.02 16.3338 18.9159 13.7532C17.9167 11.4181 21.4898 8.46632 22.4152 11.4482Z" fill="#EED28A"/>
<path d="M7.81821 13.5164C7.81821 13.5164 7.60354 4.41947 14.0052 7.07269C14.0052 7.07269 19.5253 3.7324 20.327 12.841C20.327 12.841 23.1694 3.70923 14.0052 3.70923C4.81527 3.70923 7.81821 13.5164 7.81821 13.5164Z" fill="#902B12"/>
<path d="M13.4504 18.0249L13.7813 19.3913L14.0079 17.6475" stroke="#902B12" stroke-width="0.538462" stroke-miterlimit="10"/>
<path d="M14.2946 17.6475L14.196 19.3751L14.7009 18.1289" stroke="#902B12" stroke-width="0.538462" stroke-miterlimit="10"/>
<path d="M12.9285 17.9104L13.5139 19.381" stroke="#902B12" stroke-width="0.538462" stroke-miterlimit="10"/>
<path d="M14.6089 19.3283L15.2317 17.7949" stroke="#902B12" stroke-width="0.538462" stroke-miterlimit="10"/>
<path d="M13.9807 6.50791C12.8186 6.50791 10.5299 6.38131 9.39175 6.05564C7.27238 5.44923 8.62469 3.12582 10.329 2.50788C12.0332 1.88984 10.6698 3.22095 10.6698 3.22095C10.6698 3.22095 13.6402 1.65212 14.2732 1.88974C14.9062 2.12746 13.9806 2.93566 13.9806 2.93566C13.9806 2.93566 16.6591 2.11248 17.1461 2.28635C17.6331 2.46022 16.7079 3.17339 16.7079 3.17339C16.7079 3.17339 19.1425 2.8881 19.3373 3.22095C19.5321 3.55371 18.5708 4.44571 18.5708 4.44571C18.5708 4.44571 19.9559 3.83617 20.0046 4.07389C20.0533 4.31162 19.7174 5.70456 17.796 6.05381C15.9944 6.3812 15.1102 6.50781 13.9805 6.50781L13.9807 6.50791Z" fill="#E5611F"/>
<path d="M10.8028 3.11133C10.4593 3.61714 10.0381 4.07255 9.55762 4.45773C9.55762 4.45773 11.2337 3.7069 12.0067 3.78453C12.7797 3.86215 11.1578 5.3058 11.1578 5.3058C11.1578 5.3058 13.7207 4.41987 14.3256 4.61681C14.9306 4.81365 13.6199 5.89642 13.6199 5.89642" stroke="#FFCE10" stroke-width="0.538462" stroke-miterlimit="10"/>
<path d="M13.9809 2.93579L13.2214 3.73478" stroke="#FFCE10" stroke-width="0.538462" stroke-miterlimit="10"/>
<path d="M13.2214 3.73481C13.2214 3.73481 14.8201 3.47705 15.5345 3.70931C15.9243 3.83602 14.4572 4.93689 14.4572 4.93689" stroke="#FFCE10" stroke-width="0.538462" stroke-miterlimit="10"/>
<path d="M16.7084 3.17358C16.7084 3.17358 17.4079 3.318 17.4508 3.70925C17.4936 4.1005 16.4229 5.02053 16.4229 5.02053C16.4229 5.02053 17.922 4.51867 18.179 4.72775C18.4361 4.93684 17.3009 5.64778 17.3009 5.64778" stroke="#FFCE10" stroke-width="0.538462" stroke-miterlimit="10"/>
<path d="M7.14769 13.9109C6.85756 13.9707 6.60919 14.2137 6.57426 14.5012C6.53933 14.7887 6.7398 15.0933 7.02859 15.159C7.31748 15.2247 7.64763 15.0175 7.68422 14.7302" stroke="#902B12" stroke-width="0.538462" stroke-miterlimit="10"/>
<path d="M5.76849 11.9129C5.56615 11.8668 5.33883 11.9096 5.18459 12.0455C5.03024 12.1814 4.96411 12.413 5.04631 12.5995C5.12851 12.7858 5.36599 12.899 5.56055 12.8276" stroke="#902B12" stroke-width="0.538462" stroke-miterlimit="10"/>
<path d="M6.07868 11.0426C6.03453 10.8063 5.78907 10.6234 5.54392 10.6442C5.29888 10.6649 5.08918 10.8864 5.08741 11.1265C5.08555 11.3667 5.29172 11.5913 5.53645 11.6155" stroke="#902B12" stroke-width="0.538462" stroke-miterlimit="10"/>
</svg>
