<svg width="25" height="25" viewBox="0 0 25 25" fill="none" xmlns="http://www.w3.org/2000/svg">
<g opacity="0.7">
<rect width="24.0158" height="24.0158" rx="12.0079" fill="#F9F9F9"/>
<path d="M19.3113 20.0348C18.1346 18.5042 15.3643 18.3472 15.3643 18.3472H8.64546C8.64546 18.3472 5.8752 18.5042 4.69849 20.0348C4.47857 20.3208 4.26157 20.7277 4.05396 21.1999C6.18192 23.0003 8.96735 24.0915 12.0166 24.0915C15.0577 24.0915 17.8365 23.0062 19.9623 21.2145C19.7528 20.736 19.5335 20.3238 19.3114 20.0348H19.3113Z" fill="#5C30FC"/>
<path d="M12.0164 18.7666L9.46973 18.348V17.3368C9.46973 17.3368 9.88418 17.0068 11.7446 17.0068C13.6051 17.0068 14.033 17.3176 14.033 17.3176V18.348L12.0164 18.7666Z" fill="#5C30FC"/>
<path d="M13.2342 19.1608H10.2319V14.8518H13.2342V19.1608Z" fill="#C9902C"/>
<path d="M10.2319 16.5013C10.2319 16.5013 13.4669 15.8111 13.2342 16.5013C12.7501 17.9371 10.2319 17.8262 10.2319 17.8262V16.5013Z" fill="#902B12"/>
<path d="M16.3088 9.30447C15.5245 7.1874 13.4368 5.98511 11.7272 5.98511C9.92603 5.98511 7.95263 7.1874 7.16833 9.30447C6.34675 11.522 7.16833 13.9859 8.05303 14.9304C8.67191 15.591 10.0035 17.0069 11.7443 17.0069C13.5508 17.0069 14.8178 15.5776 15.4241 14.9304C16.3088 13.9859 17.1304 11.522 16.3088 9.30447Z" fill="#C9902C"/>
<path d="M5.43015 11.0534C4.95672 12.5648 7.18147 14.5923 7.98876 12.7231C8.71932 11.0317 6.10681 8.89347 5.43015 11.0534Z" fill="#C9902C"/>
<path d="M18.312 10.861C18.7856 12.3724 16.5608 14.4 15.7534 12.5308C15.0229 10.8393 17.6354 8.70109 18.312 10.861Z" fill="#C9902C"/>
<path d="M9.46973 18.3468V17.3356C9.46973 17.3356 10.1892 18.0607 11.6635 18.0607C13.1377 18.0607 14.0331 17.3164 14.0331 17.3164V18.3468C14.0331 18.3468 13.9177 19.97 11.7458 19.97C9.57392 19.97 9.46981 18.3468 9.46981 18.3468H9.46973Z" fill="#6243FF"/>
<path d="M8.95508 18.3462C8.95508 18.3462 11.0411 22.4632 11.9991 22.4632C12.9572 22.4632 14.5806 18.3462 14.5806 18.3462" stroke="white" stroke-width="0.461843" stroke-miterlimit="10"/>
<path d="M12.2136 22.9164C12.443 22.8569 12.6037 22.6139 12.5634 22.3875C12.494 21.9979 11.9485 21.6849 11.7078 22.1121C11.5034 22.4749 11.7012 23.0491 12.2136 22.9164Z" fill="#FFCE10"/>
<path d="M12.9922 22.1083C13.1578 22.0654 13.2739 21.8899 13.2448 21.7265C13.1946 21.4452 12.8009 21.2194 12.6272 21.5277C12.4796 21.7896 12.6224 22.2041 12.9923 22.1083H12.9922Z" fill="#FFCE10"/>
<path d="M13.4291 21.2402C13.5725 21.203 13.673 21.051 13.6478 20.9095C13.6044 20.666 13.2633 20.4703 13.1129 20.7373C12.9851 20.9642 13.1087 21.3232 13.4291 21.2402Z" fill="#FFCE10"/>
<path d="M11.2701 22.2647C11.4357 22.2218 11.5518 22.0463 11.5227 21.883C11.4726 21.6017 11.0787 21.3759 10.905 21.6842C10.7574 21.9461 10.9002 22.3606 11.2701 22.2647Z" fill="#FFCE10"/>
<path d="M10.6892 21.3679C10.8303 21.3314 10.9292 21.1819 10.9044 21.0426C10.8617 20.803 10.5261 20.6105 10.3782 20.8732C10.2525 21.0964 10.3741 21.4496 10.6893 21.3679H10.6892Z" fill="#FFCE10"/>
<path d="M12.2186 19.9419C12.0728 19.9603 11.9155 19.9702 11.7455 19.9702C9.57359 19.9702 9.46948 18.3469 9.46948 18.3469" stroke="#902B12" stroke-width="0.461843" stroke-miterlimit="10"/>
<path d="M14.0328 18.3469C14.0328 18.3469 13.9778 19.1198 13.2302 19.5989" stroke="#902B12" stroke-width="0.461843" stroke-miterlimit="10"/>
<path d="M9.46973 17.3354C9.46973 17.3354 11.5088 19.0166 14.033 17.3162" stroke="#902B12" stroke-width="0.461843" stroke-miterlimit="10"/>
<path d="M6.57303 12.9602C5.88431 13.0997 5.34552 13.743 5.3363 14.4235C5.32709 15.1041 5.8404 15.7564 6.51809 15.9397C7.19578 16.1229 7.97792 15.8284 8.35879 15.2561" stroke="#E23128" stroke-width="0.461843" stroke-miterlimit="10"/>
<path d="M16.8859 12.9602C17.5746 13.0997 18.1134 13.743 18.1225 14.4235C18.1317 15.1041 17.6185 15.7564 16.9408 15.9397C16.2631 16.1229 15.481 15.8284 15.1001 15.2561" stroke="#E23128" stroke-width="0.461843" stroke-miterlimit="10"/>
<path d="M11.5716 5.83679C11.5716 5.83679 9.09984 4.41127 8.74007 2.88915C8.38038 1.36694 15.0789 0.88102 14.5484 3.17375C14.3008 4.24419 11.5716 5.83679 11.5716 5.83679Z" fill="#902B12"/>
<path d="M11.5641 5.83687C11.5641 5.83687 7.16004 2.49252 11.0832 2.21399C16.8228 1.80654 11.5641 5.83687 11.5641 5.83687Z" stroke="#7F1B09" stroke-width="0.461843" stroke-miterlimit="10" stroke-linejoin="round"/>
<path d="M11.58 5.21881C11.58 5.21881 8.66625 3.00612 11.2618 2.82188C15.0592 2.55227 11.58 5.21881 11.58 5.21881Z" stroke="#7F1B09" stroke-width="0.461843" stroke-miterlimit="10" stroke-linejoin="round"/>
<path d="M14.8297 5.61753C14.3793 6.33382 11.7457 9.12813 7.16862 9.30303C5.82228 7.94557 7.42988 6.09394 9.55819 5.20407C10.2128 4.93038 10.7881 5.22131 11.5794 5.21898C12.6113 5.2159 13.8791 5.02658 14.8297 5.61753Z" fill="#902B12"/>
<path d="M11.7459 6.70028C10.641 6.83621 9.69704 7.14805 8.73828 7.69635C7.36818 8.47977 7.22256 10.4228 7.1802 11.4993C6.56916 10.7633 6.28103 8.47877 6.64795 7.60406C7.01486 6.72943 7.77669 6.04604 8.64606 5.61718C9.51535 5.18823 10.7756 5.27085 11.746 5.17065V6.70028H11.7459Z" fill="#902B12"/>
<path d="M13.6964 6.82141C16.4423 7.46332 16.3903 10.2406 16.4328 11.3172C17.0438 10.5812 17.1948 8.47855 16.8279 7.60384C16.461 6.72921 15.6992 6.04581 14.8298 5.61695C13.9605 5.18801 12.8063 5.2663 11.8359 5.16602L13.6963 6.82141H13.6964Z" fill="#902B12"/>
<path d="M6.85506 10.6435C6.03141 9.54802 5.96045 7.97217 6.68249 6.8116C7.40453 5.65112 8.87737 4.97381 10.2637 5.16488" stroke="#902B12" stroke-width="0.461843" stroke-miterlimit="10"/>
<path d="M10.3876 4.89255C9.8715 4.65001 9.32495 4.47352 8.95347 3.93505C8.82069 3.74256 8.69531 3.5181 8.67843 3.25681C8.64976 2.81479 8.94684 2.44132 9.26175 2.30656C9.57674 2.17171 9.91619 2.20169 10.2436 2.13989" stroke="#902B12" stroke-width="0.461843" stroke-miterlimit="10"/>
<path d="M12.9871 4.8928C13.6961 4.59429 14.8142 3.71225 14.3854 2.7475C13.9845 1.84547 12.6675 1.8697 12.3303 1.92059" stroke="#902B12" stroke-width="0.461843" stroke-miterlimit="10"/>
<path d="M16.7248 10.309C17.5842 9.10569 17.5092 7.35427 16.5498 6.22385C15.5905 5.09344 13.8291 4.68098 12.4414 5.26185" stroke="#902B12" stroke-width="0.461843" stroke-miterlimit="10"/>
<path d="M16.8572 10.4135C16.6441 10.6693 16.5197 11.0247 16.448 11.3747C16.4138 11.5511 16.3927 11.7321 16.3944 11.9054C16.3967 12.0655 16.4437 12.251 16.4866 12.4306C16.5311 12.612 16.5828 12.8052 16.5932 13.0107C16.6053 13.2156 16.5741 13.4224 16.5103 13.6142C16.3823 13.9968 16.1619 14.3162 16.0252 14.652C15.9575 14.8189 15.9103 14.9901 15.9202 15.1571C15.9245 15.2404 15.9432 15.3223 15.9734 15.4007C16.005 15.4794 16.0502 15.5581 16.0981 15.6404C16.1457 15.7229 16.1962 15.8099 16.2334 15.9081C16.2713 16.0059 16.2897 16.1171 16.2819 16.2234C16.2676 16.4391 16.1663 16.6259 16.0533 16.7871C15.9388 16.9509 15.801 17.0891 15.6832 17.2326C15.5647 17.376 15.458 17.5274 15.41 17.6945C15.3866 17.7788 15.3735 17.863 15.3902 17.9423C15.406 18.0231 15.4439 18.1021 15.4969 18.1691C15.6 18.3038 15.7827 18.3902 15.9291 18.3127L15.9852 18.4149C15.8851 18.4694 15.7567 18.4745 15.6521 18.4356C15.5463 18.3982 15.4597 18.3295 15.392 18.2493C15.3248 18.1681 15.2756 18.0729 15.2523 17.969C15.2407 17.9174 15.2367 17.862 15.2415 17.8092C15.2458 17.758 15.2535 17.7069 15.2674 17.6577C15.3793 17.255 15.7101 16.9927 15.9072 16.6929C16.0081 16.5425 16.087 16.378 16.0927 16.2138C16.1034 16.0496 16.0227 15.8999 15.9217 15.7386C15.8722 15.6579 15.8197 15.5728 15.7781 15.4765C15.7375 15.3793 15.7113 15.2757 15.7032 15.1708C15.686 14.9596 15.7396 14.7567 15.8089 14.5725C15.9508 14.2039 16.1597 13.8816 16.2622 13.5408C16.3137 13.3727 16.3338 13.1994 16.319 13.028C16.3058 12.8563 16.2556 12.683 16.2046 12.4995C16.1794 12.4079 16.1538 12.3143 16.1328 12.2184C16.122 12.1698 16.1122 12.124 16.1039 12.0717C16.0951 12.0174 16.0917 11.9657 16.0889 11.9141C16.0827 11.7104 16.1024 11.5146 16.1356 11.32C16.1704 11.126 16.2205 10.9342 16.2919 10.7462C16.364 10.5588 16.4561 10.3735 16.5937 10.2043L16.8573 10.4135H16.8572Z" fill="#902B12"/>
<path d="M6.97919 10.2903C7.05479 10.3711 7.12032 10.4604 7.17078 10.5563C7.21918 10.6527 7.25638 10.7528 7.28032 10.8542C7.32716 11.0569 7.33241 11.26 7.31433 11.456C7.29917 11.6502 7.25242 11.8484 7.20876 12.0238C7.16622 12.2018 7.12997 12.3784 7.1118 12.5541C7.09311 12.7296 7.09371 12.9044 7.12394 13.0722C7.13875 13.1561 7.16286 13.2374 7.19266 13.3166C7.20953 13.3566 7.22521 13.3919 7.24579 13.4347L7.30779 13.5626C7.46907 13.9047 7.61374 14.2699 7.64792 14.6628C7.66403 14.8584 7.65016 15.0582 7.60168 15.2498C7.57714 15.345 7.54786 15.4395 7.50231 15.5329C7.45736 15.6235 7.405 15.7046 7.35782 15.7829C7.26068 15.9395 7.19498 16.0884 7.21625 16.2514C7.23382 16.4135 7.31528 16.5737 7.41801 16.7207C7.61942 17.0126 7.94061 17.2765 8.04386 17.6758C8.056 17.7249 8.0628 17.775 8.06633 17.8259C8.069 17.8794 8.06306 17.9324 8.05066 17.9832C8.02552 18.0847 7.97575 18.1778 7.90806 18.2565C7.84021 18.3345 7.75436 18.4017 7.64939 18.4371C7.54605 18.4745 7.41973 18.4683 7.32122 18.4148L7.37728 18.3126C7.52125 18.3886 7.70114 18.3066 7.80447 18.1751C7.85795 18.1101 7.89635 18.0327 7.91375 17.9533C7.92244 17.9136 7.92572 17.8734 7.92287 17.8342C7.91883 17.7926 7.9122 17.7506 7.90092 17.7097C7.85622 17.5449 7.7553 17.394 7.63966 17.2525C7.52478 17.1102 7.39011 16.9753 7.27429 16.8169C7.16002 16.6605 7.05772 16.481 7.02887 16.2723C7.01423 16.169 7.02397 16.0591 7.05548 15.9588C7.08665 15.8586 7.13444 15.7695 7.18163 15.6866C7.22899 15.6037 7.27636 15.5257 7.31235 15.4479C7.34697 15.3727 7.37142 15.2877 7.39097 15.2027C7.42937 15.0327 7.43738 14.8575 7.4187 14.6835C7.37977 14.3343 7.23898 13.9964 7.07451 13.6694L7.01122 13.5467C6.9903 13.5059 6.96644 13.4565 6.94629 13.411C6.90772 13.3168 6.87671 13.2198 6.85665 13.1211C6.81601 12.9238 6.81136 12.7236 6.82703 12.53C6.84227 12.3357 6.87663 12.1467 6.91581 11.9622C6.95723 11.776 6.99167 11.6099 7.00166 11.4332C7.02638 11.0883 6.95998 10.7366 6.73291 10.5186L6.97893 10.2903H6.97919Z" fill="#902B12"/>
<path d="M16.4054 10.6436C16.4054 10.6436 16.9905 6.95986 14.166 6.33252" stroke="#7F1B09" stroke-width="0.461843" stroke-miterlimit="10" stroke-linejoin="round"/>
<path d="M13.6968 6.82193L14.1663 6.33252" stroke="#7F1B09" stroke-width="0.461843" stroke-miterlimit="10" stroke-linejoin="round"/>
<path d="M14.1659 6.33268C13.8455 6.07864 13.246 5.82661 12.7163 5.76505C11.8916 5.66919 11.0467 5.66152 10.2396 5.85101C9.43238 6.04049 8.6622 6.43879 8.13021 7.05572C7.59813 7.67265 7.32835 8.52004 7.51116 9.30372C7.51116 9.30372 7.81014 7.33949 10.5024 6.51158C12.1262 6.01226 13.6964 6.82201 13.6964 6.82201" stroke="#7F1B09" stroke-width="0.461843" stroke-miterlimit="10" stroke-linejoin="round"/>
<path d="M7.60278 9.21599C8.4682 7.65205 11.0753 6.63582 13.6962 6.82198" stroke="#7F1B09" stroke-width="0.461843" stroke-miterlimit="10" stroke-linejoin="round"/>
<path d="M10.2654 4.96627C10.2654 4.96627 11.5359 5.46559 13.0897 4.91479" stroke="#FFCE10" stroke-width="0.461843" stroke-miterlimit="10"/>
</g>
</svg>
