<svg width="33" height="33" viewBox="0 0 33 33" fill="none" xmlns="http://www.w3.org/2000/svg">
<rect width="32.2" height="32.2" rx="16.1" fill="#F9F9F9"/>
<path d="M28.353 27.8525L28.329 27.8103C26.666 24.9261 16.5778 23.489 16.5778 23.489C16.5778 23.489 6.93273 25.0617 5.32591 27.6029C5.26654 27.6968 5.20868 27.7944 5.1521 27.895C8.10933 30.7415 12.2048 32.5039 16.7307 32.5039C21.2791 32.5039 25.3922 30.7237 28.3528 27.8524L28.353 27.8525Z" fill="#FFCE10"/>
<path d="M8.40687 25.5695L8.354 30.2958C10.8027 31.6992 13.6676 32.5062 16.7297 32.5062C20.0079 32.5062 23.0602 31.5813 25.6178 29.9897L25.2655 25.6789C24.3659 25.3035 23.3613 24.9758 22.3626 24.6958C21.3005 26.8297 18.7966 31.37 16.7297 31.3442C14.7553 31.3196 12.1923 26.8516 11.0656 24.687C10.1581 24.9448 9.24165 25.24 8.40698 25.5695H8.40687Z" fill="#E23128"/>
<path d="M7.79346 29.9567L7.83993 25.8027C8.19975 25.6458 8.58083 25.4958 8.9747 25.3529L8.91591 30.6009C8.53204 30.4003 8.15769 30.1853 7.79346 29.9567ZM11.611 24.534C13.1255 27.4436 15.3851 30.7847 16.7376 30.8015C16.7412 30.8017 16.7451 30.8017 16.7487 30.8017C18.1602 30.8017 20.3765 27.4487 21.8193 24.5453C22.1814 24.6411 22.5469 24.7434 22.9105 24.8518C22.5376 25.6052 21.975 26.6801 21.3037 27.7642C19.5879 30.5348 18.0973 31.8824 16.7482 31.8824C16.7397 31.8824 16.7314 31.8823 16.7229 31.8823C15.416 31.8659 13.9205 30.4999 12.1508 27.7062C11.4787 26.6453 10.9066 25.5955 10.5179 24.8447C10.8827 24.735 11.249 24.6315 11.6109 24.5339L11.611 24.534ZM25.8536 25.9366L26.1562 29.6379C25.8067 29.8748 25.4472 30.0991 25.0781 30.3097L24.6805 25.4446C25.0902 25.5995 25.4842 25.7636 25.8536 25.9367V25.9366Z" fill="#5C30FC"/>
<path d="M21.5814 6.48655C21.5814 6.48655 21.7267 3.02498 20.8386 2.87045C19.9504 2.71592 18.6678 3.84398 18.6678 3.84398C18.6678 3.84398 17.4296 1.87835 16.1428 1.97173C14.8559 2.06523 15.3427 4.00196 15.3427 4.00196C15.3427 4.00196 11.9711 2.82209 11.1637 3.69457C10.3562 4.56705 11.1637 5.49411 11.1637 5.49411C11.1637 5.49411 8.49926 5.3696 8.2569 6.28177C8.01465 7.19383 8.82213 7.50289 8.82213 7.50289C8.82213 7.50289 5.59245 7.81195 5.59245 8.97081C5.59245 10.1297 6.80355 10.2069 6.80355 10.2069C6.80355 10.2069 4.46199 11.4431 4.46199 12.2157C4.46199 12.9884 5.83458 13.4518 5.83458 13.4518C5.83458 13.4518 3.816 15.6151 4.46199 16.5422C5.10797 17.4693 6.80355 17.7783 6.80355 17.7783C6.80355 17.7783 6.14607 19.6504 6.64206 20.0907C7.0853 20.4843 9.46811 20.0907 9.46811 20.0907C9.46811 20.0907 9.19403 21.6745 10.0014 22.2152C10.8089 22.7561 12.1968 21.1649 12.1968 21.1649C12.1968 21.1649 12.0747 22.7831 12.8709 23.0229C13.7425 23.2855 16.3819 21.2304 16.3819 21.2304C16.3819 21.2304 21.0145 23.4955 21.9834 23.1864C22.9523 22.8774 22.7909 20.9458 22.7909 20.9458C22.7909 20.9458 25.4553 21.0896 25.9398 20.0906C26.4243 19.0916 25.0517 18.3908 25.0517 18.3908C25.0517 18.3908 28.12 17.0828 27.8778 16.233C27.6355 15.3832 26.1822 14.9196 26.1822 14.9196C26.1822 14.9196 27.9858 13.9152 27.8914 12.8336C27.797 11.7519 26.1014 11.3657 26.1014 11.3657C26.1014 11.3657 27.3933 8.97059 27.0703 8.27531C26.7473 7.57993 25.1325 7.73446 25.1325 7.73446C25.1325 7.73446 25.5362 5.72569 25.0517 5.33936C24.5672 4.95304 21.5817 6.48633 21.5817 6.48633L21.5814 6.48655Z" fill="#7F1B09"/>
<path d="M21.5226 6.7566C22.0357 6.18617 22.2839 5.40508 22.1896 4.65789C22.1732 4.52871 22.1379 4.38641 22.0244 4.31492C21.8684 4.21676 21.6589 4.30514 21.5121 4.41553C21.2279 4.62932 21.0134 4.92693 20.9059 5.25733C21.1622 5.38207 21.4896 5.30424 21.7061 5.12337C21.9227 4.94238 22.0438 4.67746 22.1136 4.41053C22.2104 4.04077 22.2056 3.60831 21.9373 3.3266C21.6088 2.98152 20.9895 3.01587 20.6092 3.30848C20.229 3.60097 20.0542 4.07824 19.9995 4.54216" stroke="#7F1B09" stroke-width="0.627051" stroke-miterlimit="10"/>
<path d="M6.9692 17.2655C6.88717 17.7377 6.51039 18.1647 6.023 18.2731C5.53572 18.3815 4.97328 18.1294 4.7925 17.683C4.61171 17.2367 4.88626 16.6589 5.36981 16.5363C5.58406 16.4819 5.89148 16.6012 5.84384 16.8083C5.81329 16.9409 5.65353 17.0033 5.51295 17.0225C4.73138 17.1299 3.9382 16.4513 3.96271 15.6961C3.98711 14.9409 4.8227 14.3106 5.59579 14.4641C5.60311 14.5464 5.61043 14.6287 5.61775 14.7109" stroke="#7F1B09" stroke-width="0.627051" stroke-miterlimit="10"/>
<path d="M6.4567 13.3654C5.89252 13.5911 5.21668 13.5692 4.69071 13.2708C4.16475 12.9724 3.8148 12.3925 3.84954 11.8084C3.88428 11.2242 4.3245 10.6714 4.91541 10.521C5.22864 10.4411 5.58068 10.4753 5.84895 10.6496C6.11722 10.8239 6.28394 11.147 6.22573 11.4521C5.90321 11.6273 5.44951 11.3881 5.37062 11.0415C5.29161 10.6947 5.5349 10.3286 5.873 10.1828C6.21109 10.0369 6.61355 10.0822 6.95107 10.2292C7.28858 10.3763 7.57207 10.6155 7.83906 10.8618" stroke="#7F1B09" stroke-width="0.627051" stroke-miterlimit="10"/>
<path d="M7.03294 8.72837C6.67916 8.92259 6.17678 8.74126 6.00401 8.38763C5.83125 8.0341 5.97613 7.58018 6.29807 7.34038C6.62002 7.10069 7.08057 7.06734 7.45968 7.21131C7.78255 7.33404 8.07592 7.68835 7.90792 7.97929C7.75269 8.24799 7.28052 8.21064 7.10985 7.95061C6.93906 7.69069 7.03805 7.32793 7.26507 7.11092C7.49209 6.89391 7.81543 6.79686 8.13192 6.74617C8.46211 6.69325 8.80846 6.68358 9.12471 6.78874C9.44096 6.89391 9.72306 7.12915 9.81101 7.43832" stroke="#7F1B09" stroke-width="0.627051" stroke-miterlimit="10"/>
<path d="M20.6618 21.6993C20.4012 21.9564 20.4534 22.4081 20.7034 22.6747C20.9534 22.9414 21.3447 23.0486 21.7189 23.0603C22.5356 23.0864 23.3538 22.6911 23.8169 22.047C23.9798 21.8205 24.1026 21.5568 24.1013 21.282C24.1 21.0071 23.9542 20.7223 23.6955 20.6028C23.3079 20.4239 22.797 20.7184 22.7222 21.1238C22.6474 21.5293 22.9575 21.9457 23.3662 22.0744C23.7751 22.203 24.2411 22.0757 24.5722 21.8127C24.9849 21.4848 25.2076 20.9336 25.0799 20.4351C24.9523 19.9366 24.4521 19.5342 23.9159 19.5472" stroke="#7F1B09" stroke-width="0.627051" stroke-miterlimit="10"/>
<path d="M25.2877 17.8925C24.9733 18.3826 25.3682 19.1007 25.956 19.2212C26.5437 19.3417 27.1618 18.9441 27.3765 18.407C27.5277 18.0285 27.4876 17.5525 27.1749 17.2795C26.862 17.0064 26.2625 17.0711 26.1098 17.4491C25.9866 17.7542 26.2164 18.1254 26.5449 18.2154C26.8735 18.3054 27.2429 18.1437 27.4361 17.874C27.6294 17.6043 27.6629 17.2499 27.5836 16.9318C27.5068 16.6235 27.3191 16.3299 27.0306 16.1742C26.7421 16.0185 26.3485 16.028 26.1031 16.241" stroke="#7F1B09" stroke-width="0.627051" stroke-miterlimit="10"/>
<path d="M26.6299 12.4407C27.4034 12.5304 28.1881 11.9163 28.2496 11.173C28.2798 10.808 28.1318 10.41 27.8034 10.2221C27.4751 10.0343 26.9709 10.1453 26.836 10.4879C26.7744 10.6442 26.8173 10.8558 26.9787 10.9192C27.1682 10.9936 27.3686 10.8203 27.4466 10.639C27.6411 10.1878 27.3924 9.60814 26.9225 9.41804C26.4527 9.22782 25.8447 9.46073 25.6418 9.90853" stroke="#7F1B09" stroke-width="0.627051" stroke-miterlimit="10"/>
<path d="M25.9434 8.59859C26.2154 8.23606 26.4977 7.84595 26.5189 7.40015C26.5401 6.95446 26.1726 6.46341 25.7093 6.51455C25.3759 6.55135 25.1357 6.84051 24.9965 7.13278C24.8868 7.36291 24.8401 7.68453 25.0593 7.8255C25.2006 7.91632 25.4011 7.88131 25.5339 7.77936C25.6667 7.67742 25.7433 7.52288 25.7962 7.36813C25.9458 6.93045 25.9048 6.37892 25.52 6.10233C25.1136 5.81016 24.5206 5.95602 24.0966 6.2245C23.6728 6.49298 23.3214 6.8703 22.8572 7.06852" stroke="#7F1B09" stroke-width="0.627051" stroke-miterlimit="10"/>
<path d="M7.68651 19.542C7.26872 19.5851 6.89182 19.9007 6.8106 20.2953C6.72951 20.6897 6.96525 21.1282 7.35516 21.2778C7.74519 21.4275 8.24431 21.2549 8.42823 20.8934C8.50747 20.7375 8.52408 20.536 8.40953 20.4018C8.29485 20.2676 8.07468 20.2445 7.91389 20.3243C7.75309 20.4041 7.65015 20.5671 7.61227 20.7365C7.52409 21.1302 7.77516 21.5541 8.15322 21.7305C8.53129 21.907 9.00148 21.8524 9.35817 21.6388C9.86101 21.3378 10.1379 20.7261 10.0234 20.1691" stroke="#7F1B09" stroke-width="0.627051" stroke-miterlimit="10"/>
<path d="M16.622 23.2815L12.689 24.2576C12.689 24.2576 13.1846 27.7295 16.5316 27.7295C19.8786 27.7295 20.6378 24.2523 20.6378 24.2523L16.622 23.2815Z" fill="#C9902C"/>
<path d="M18.8144 25.4506L16.65 25.9835L14.4856 25.4506V19.3044H18.8144V25.4506Z" fill="#C9902C"/>
<path d="M14.4841 22.2597C14.4841 22.2597 18.4304 21.4269 18.8128 22.0563V22.2945C18.0832 24.3075 14.4841 23.8133 14.4841 23.8133V22.2596V22.2597Z" fill="#902B12"/>
<path d="M18.9229 26.9586C20.271 25.9341 20.6378 24.2537 20.6378 24.2537" stroke="#902B12" stroke-width="0.627051" stroke-miterlimit="10"/>
<path d="M14.3552 27.0791C14.8949 27.4645 15.6035 27.7312 16.5311 27.7312C16.9495 27.7312 17.3274 27.6769 17.6686 27.5818" stroke="#902B12" stroke-width="0.627051" stroke-miterlimit="10"/>
<path d="M12.689 24.2583C12.689 24.2583 12.8233 25.1985 13.4236 26.1003" stroke="#902B12" stroke-width="0.627051" stroke-miterlimit="10"/>
<path d="M23.4833 11.2925C22.3099 8.21114 19.1869 6.46118 16.6295 6.46118C13.9352 6.46118 10.983 8.21114 9.8097 11.2925C8.58071 14.5201 9.8097 18.1063 11.1331 19.4809C12.0589 20.4424 13.7491 22.9415 16.6551 22.9415C19.7188 22.9415 21.2528 20.423 22.1598 19.4809C23.4833 18.1063 24.7122 14.5201 23.4833 11.2925Z" fill="#C9902C"/>
<path d="M6.90406 14.1616C6.23252 16.2824 9.38795 19.1273 10.5331 16.5045C11.5693 14.1311 7.86385 11.131 6.90406 14.1616Z" fill="#C9902C"/>
<path d="M26.2757 14.1616C26.9473 16.2824 23.7918 19.1273 22.6467 16.5045C21.6105 14.1311 25.3159 11.131 26.2757 14.1616Z" fill="#C9902C"/>
<path d="M17.1738 8.27199C17.1738 8.27199 23.6804 5.83631 23.4473 15.5218L24.4215 12.3709C24.4215 12.3709 25.6895 5.39329 16.6314 5.51225C8.16529 5.62331 8.97439 11.403 9.08001 12.4311C9.21408 13.7369 10.0966 15.6874 10.0966 15.6874C10.0966 15.6874 9.30563 6.3516 17.1737 8.27199H17.1738Z" fill="#7F1B09"/>
<path d="M10.0977 15.6868C10.0977 15.6868 8.81774 14.2718 8.71364 13.7735C8.58909 13.1777 9.2317 12.9235 9.2317 12.9235C9.2317 12.9235 8.14387 12.7551 8.38565 12.0149C8.62743 11.2749 9.81355 11.2915 9.81355 11.2915C9.81355 11.2915 10.1672 13.6762 10.0977 15.687V15.6868Z" fill="#7F1B09"/>
<path d="M8.55416 18.3909C8.55416 18.3909 7.77526 19.0943 8.03493 19.5195C8.2946 19.9446 9.33306 19.5195 9.33306 19.5195C9.33306 19.5195 9.52778 20.643 9.98217 20.8838C10.4365 21.1247 10.9558 20.4926 10.9558 20.4926C10.9558 20.4926 11.3445 21.7518 11.7683 21.5939C12.1919 21.436 12.1984 21.165 12.1984 21.165" stroke="#902B12" stroke-width="0.627051" stroke-miterlimit="10"/>
<path d="M16.1992 7.13743C16.1992 7.13743 15.6351 6.30653 16.2637 6.03327C16.8922 5.76012 17.8124 6.82304 17.8124 6.82304C17.8124 6.82304 17.7986 5.76001 18.4383 5.76001C19.0781 5.76001 19.7711 6.8823 19.7711 6.8823C19.7711 6.8823 20.1518 6.42249 20.6775 6.44861C21.2031 6.47485 21.3705 7.85149 21.3705 7.85149" stroke="#902B12" stroke-width="0.627051" stroke-miterlimit="10"/>
<path d="M11.2101 9.50846C11.2101 9.50846 10.4204 8.42219 10.914 8.18595C11.4075 7.94982 12.1975 8.18595 12.1975 8.18595C12.1975 8.18595 11.5065 7.14694 12.1975 6.91081C12.8884 6.67468 13.2848 7.33682 13.2848 7.33682C13.2848 7.33682 13.2832 6.29669 13.6781 6.20231C14.073 6.10781 14.7929 6.85989 14.7929 6.85989" stroke="#902B12" stroke-width="0.627051" stroke-miterlimit="10"/>
<path d="M12.0089 6.19459C12.0089 6.19459 11.6417 4.91877 12.1894 4.85318C12.737 4.78748 13.3998 5.26163 13.3998 5.26163C13.3998 5.26163 13.1094 4.06186 13.843 4.05897C14.5767 4.05619 14.7204 4.80682 14.7204 4.80682C14.7204 4.80682 15.0804 3.82551 15.4856 3.86208C15.8909 3.89866 16.3083 4.83695 16.3083 4.83695" stroke="#902B12" stroke-width="0.627051" stroke-miterlimit="10"/>
<path d="M22.2734 7.84358C22.2734 7.84358 23.5314 7.29373 23.6861 7.80056C23.841 8.30739 23.4574 9.009 23.4574 9.009C23.4574 9.009 24.649 8.54375 24.7687 9.23635C24.8884 9.92895 24.1367 10.1842 24.1367 10.1842C24.1367 10.1842 25.2065 10.3681 25.2332 10.7567C25.2599 11.1454 24.3582 11.6891 24.3582 11.6891" stroke="#902B12" stroke-width="0.627051" stroke-miterlimit="10"/>
<path d="M8.23884 11.2828C8.23884 11.2828 7.07363 10.5701 7.43461 10.1706C7.7956 9.7712 8.61969 9.69894 8.61969 9.69894C8.61969 9.69894 7.56474 8.99344 8.10778 8.52151C8.65094 8.04959 9.28286 8.51529 9.28286 8.51529C9.28286 8.51529 8.86391 7.55565 9.19061 7.3233C9.51732 7.09095 10.4839 7.52074 10.4839 7.52074" stroke="#902B12" stroke-width="0.627051" stroke-miterlimit="10"/>
<path d="M23.4137 15.6868C23.4137 15.6868 24.7662 14.2718 24.8704 13.7735C24.9949 13.1777 24.3523 12.9235 24.3523 12.9235C24.3523 12.9235 25.4401 12.7551 25.1984 12.0149C24.9566 11.2749 23.7705 11.2915 23.7705 11.2915C23.7705 11.2915 23.3442 13.6762 23.4137 15.687V15.6868Z" fill="#7F1B09"/>
</svg>
