<svg width="20" height="21" viewBox="0 0 20 21" fill="none" xmlns="http://www.w3.org/2000/svg">
<g opacity="0.5">
<rect width="20" height="20" rx="10" fill="#F9F9F9"/>
<path d="M7.96601 3.04893C7.96601 3.04893 6.06624 2.15881 5.01694 3.79768C3.96757 5.43656 5.13148 6.59043 4.13213 7.65082C3.13277 8.71129 2.41863 7.70202 2.41863 7.70202C2.41863 7.70202 2.11883 8.93361 3.01823 9.40237C3.01823 9.40237 1.06144 11.2068 3.94037 12.3442C7.9897 13.9441 15.6007 13.5356 17.1579 11.6329C18.5388 9.94561 16.4595 9.40237 16.4595 9.40237C16.4595 9.40237 17.1436 9.58193 17.5012 8.52146C17.5012 8.52146 15.8938 8.75651 15.727 7.65082C15.5601 6.5452 16.6094 3.05097 12.9618 2.99055C9.31423 2.93007 7.96608 3.04893 7.96608 3.04893H7.96601Z" fill="#7F1B09"/>
<path d="M16.0444 15.1113C15.0046 13.7624 4.9047 13.7624 3.86488 15.1113C3.53286 15.5421 3.1826 16.2836 2.85962 17.0932C4.71944 18.9255 7.31192 20.063 10.1802 20.063C12.9072 20.063 15.3851 19.035 17.2208 17.3592C16.8322 16.4483 16.4126 15.589 16.0444 15.1113Z" fill="#C9902C"/>
<path d="M14.1721 14.2141L9.85626 13.3879L5.58762 14.3729C5.54037 15.8114 5.67722 16.3162 5.25136 17.6989C5.15323 18.0175 5.04751 18.3456 4.94165 18.6751C6.47448 19.5565 8.26569 20.0635 10.1799 20.0635C11.8469 20.0635 13.4207 19.6791 14.8118 18.9978C14.6951 18.5981 14.5788 18.1669 14.4749 17.6989C14.2324 16.608 14.2152 15.5796 14.1721 14.2141H14.1721Z" fill="#DD90F1"/>
<path d="M5.55078 15.8433C5.58024 15.4101 5.59518 14.9215 5.58818 14.3728" stroke="#902B12" stroke-width="0.621072" stroke-miterlimit="10"/>
<path d="M4.95361 18.6812C5.04154 18.5071 5.28753 17.9449 5.44677 16.8438" stroke="#902B12" stroke-width="0.621072" stroke-miterlimit="10"/>
<path d="M14.8107 18.9985C14.7258 18.7369 14.3795 17.5992 14.2449 16.0603" stroke="#902B12" stroke-width="0.621072" stroke-miterlimit="10"/>
<path d="M10.0781 13.3879C10.0781 13.3879 7.14476 13.8003 7.11574 14.1567C7.08665 14.513 8.32806 14.2684 8.32806 14.2684C8.32806 14.2684 7.37828 15.4986 7.60502 15.7993C7.8317 16.1001 9.16366 14.8698 9.16366 14.8698C9.16366 14.8698 9.58704 16.6544 10.0057 16.6544C10.4244 16.6544 10.8059 14.8307 10.8059 14.8307C10.8059 14.8307 12.451 16.264 12.7343 15.9086C13.0177 15.5533 11.734 14.2411 11.734 14.2411C11.734 14.2411 13.4222 14.63 13.1972 14.2671C12.9593 13.8832 10.0781 13.3879 10.0781 13.3879Z" fill="#C66CE5"/>
<path d="M7.3914 13.9568C7.22517 14.0233 7.12113 14.091 7.11574 14.1567C7.08665 14.513 8.32806 14.2684 8.32806 14.2684C8.32806 14.2684 7.37828 15.4986 7.60503 15.7993C7.8317 16.1001 9.16366 14.8698 9.16366 14.8698" stroke="#902B12" stroke-width="0.621072" stroke-miterlimit="10"/>
<path d="M12.3547 15.9073C12.5296 15.9772 12.6687 15.9911 12.7344 15.9086C13.0178 15.5532 11.7341 14.241 11.7341 14.241C11.7341 14.241 13.4223 14.63 13.1973 14.267C13.1445 14.1818 12.9613 14.0911 12.7082 14.0015" stroke="#902B12" stroke-width="0.621072" stroke-miterlimit="10"/>
<path d="M9.41333 15.7228C9.57293 16.1817 9.78968 16.6545 10.0052 16.6545C10.4239 16.6545 10.8054 14.8308 10.8054 14.8308C10.8054 14.8308 11.2777 15.2423 11.7597 15.5696" stroke="#902B12" stroke-width="0.621072" stroke-miterlimit="10"/>
<path d="M7.85898 13.8105C8.022 14.4646 8.23227 15.112 8.54666 15.6813C8.62751 15.8217 8.71485 15.9565 8.80978 16.082C8.90675 16.2057 9.01356 16.3181 9.13043 16.4115C9.36038 16.606 9.6378 16.7043 9.9271 16.702C10.2163 16.7012 10.4924 16.5967 10.7238 16.4027C10.8409 16.3081 10.9481 16.1955 11.0459 16.072C11.1424 15.9473 11.2305 15.8125 11.3128 15.6727C11.6332 15.106 11.8522 14.4617 12.0242 13.8098L12.1254 13.8227C12.1133 14.1701 12.0584 14.5107 11.9824 14.8502C11.9008 15.1878 11.7953 15.5235 11.6396 15.8442C11.4883 16.1659 11.2826 16.4741 10.9991 16.7282C10.7181 16.9833 10.3231 17.1428 9.93009 17.1471C9.73419 17.1454 9.53602 17.1106 9.35142 17.04C9.16623 16.9702 8.99818 16.8642 8.85549 16.7383C8.56962 16.4844 8.3662 16.1733 8.21747 15.8501C8.06509 15.5274 7.96302 15.1904 7.88618 14.8516C7.81465 14.5111 7.76442 14.1696 7.75757 13.8221L7.85898 13.8107V13.8105Z" fill="#E5611F"/>
<path d="M9.67545 17.6552C9.72444 17.7309 9.78736 17.7704 9.85057 17.7867C10.116 17.855 10.2291 17.2181 9.98779 17.0037C9.77256 16.8125 9.44032 17.2925 9.67545 17.6553V17.6552Z" fill="white"/>
<path d="M10.3988 17.1876C10.4386 17.2492 10.4899 17.2815 10.5414 17.2947C10.7578 17.3503 10.8498 16.8314 10.6532 16.6568C10.4779 16.501 10.2072 16.892 10.3988 17.1876Z" fill="white"/>
<path d="M9.12703 17.1876C9.16699 17.2492 9.21817 17.2815 9.26972 17.2947C9.48596 17.3503 9.57804 16.8314 9.38148 16.6568C9.20614 16.501 8.9355 16.892 9.12703 17.1876Z" fill="white"/>
<path d="M8.59627 16.5096C8.63615 16.5713 8.68741 16.6035 8.73895 16.6167C8.95527 16.6723 9.04735 16.1534 8.85072 15.9788C8.67538 15.823 8.40474 16.214 8.59627 16.5096V16.5096Z" fill="white"/>
<path d="M10.9679 16.5096C11.0078 16.5713 11.0591 16.6035 11.1105 16.6167C11.3268 16.6723 11.4189 16.1534 11.2223 15.9788C11.047 15.823 10.7763 16.214 10.9679 16.5096V16.5096Z" fill="white"/>
<path d="M11.3536 13.535C11.3536 13.535 11.0535 14.6038 9.9351 14.6038C8.82368 14.6038 8.50391 13.6442 8.50391 13.6442V10.707H11.3537V13.5349L11.3536 13.535Z" fill="#C9902C"/>
<path d="M8.50391 12.2687C8.50391 12.2687 11.5746 11.6153 11.3537 12.2687C10.8941 13.6278 8.50391 13.5228 8.50391 13.5228V12.2687Z" fill="#902B12"/>
<path d="M13.8647 5.68657C13.163 3.71615 11.2953 2.59717 9.76595 2.59717C8.15468 2.59717 6.3892 3.71615 5.68753 5.68657C4.95261 7.75046 5.68753 10.0437 6.47902 10.9228C7.03262 11.5377 8.82871 12.8555 9.78126 12.8555C10.9926 12.8555 12.5308 11.5253 13.0732 10.9228C13.8647 10.0437 14.5996 7.75053 13.8647 5.68657Z" fill="#C9902C"/>
<path d="M4.13275 7.65079C3.70915 9.12769 5.69947 11.1091 6.42163 9.28249C7.07518 7.62955 4.7381 5.54012 4.13275 7.65079Z" fill="#C9902C"/>
<path d="M15.7271 7.65079C16.1507 9.12769 14.1604 11.1091 13.4382 9.28249C12.7847 7.62955 15.1217 5.54012 15.7271 7.65079Z" fill="#C9902C"/>
<path d="M8.19959 3.99711C8.33221 3.99359 10.6135 3.34506 13.0973 4.94814C15.6588 6.60143 14.3804 3.44099 12.3775 2.65602C10.3745 1.87104 7.96533 3.04882 7.96533 3.04882L8.19959 3.99711Z" fill="#7F1B09"/>
<path d="M7.96534 3.04918L8.1996 3.99746C8.1996 3.99746 7.17232 3.76009 6.45628 5.13009C5.50147 6.95689 5.42827 7.64425 5.42827 7.64425C5.42827 7.64425 4.13619 5.15463 5.27837 3.45661C6.13818 2.17833 7.96541 3.04918 7.96541 3.04918H7.96534Z" fill="#902B12"/>
<path d="M7.96533 3.04912L8.19959 3.99741C8.19959 3.99741 9.67707 2.24488 10.5044 3.86532C11.3765 5.57362 12.517 6.12073 13.4125 5.9705C14.3079 5.82027 14.1911 7.36012 13.6461 8.18638C13.101 9.01264 14.299 10.4962 13.5982 11.2097C12.8974 11.9233 12.8132 12.4036 13.7907 13.0457C13.7907 13.0457 13.0541 12.2426 14.0703 11.867C15.0866 11.4914 14.4247 10.4023 14.3469 9.01264C14.269 7.62302 15.5161 6.5672 15.2436 5.25269C14.971 3.93819 14.1522 4.51597 13.4125 2.65182C12.6727 0.787598 8.35816 0.878959 7.96533 3.04919V3.04912Z" fill="#902B12"/>
<path d="M6.36131 5.31104C5.70944 6.51519 5.9504 7.69423 6.022 8.20428C6.07646 8.59223 6.25632 8.97231 6.1988 9.35984C6.1439 9.72971 5.87815 10.0499 5.84184 10.4218C5.80064 10.8438 6.05911 11.233 6.16512 11.6443C6.27112 12.0556 5.9625 12.8069 5.52396 12.8318C6.16512 11.6443 5.0669 11.2298 5.19791 10.4888C5.26047 10.1348 5.7631 9.57189 5.55976 9.27108C5.13135 8.63725 5.21913 8.28502 5.42837 7.6443C5.53307 7.32387 5.32725 6.85335 5.13135 6.65677C5.38682 6.08546 5.74633 5.65672 6.36131 5.31111V5.31104Z" fill="#902B12"/>
<path d="M8.19995 3.99753C8.19995 3.99753 7.31601 3.25876 6.6419 3.99753C5.96786 4.7363 5.94409 6.66543 5.94409 6.66543C5.94409 6.66543 6.36157 3.90357 8.19995 3.99753Z" fill="#7F1B09"/>
<path d="M8.19983 3.99736L7.96558 3.04907" stroke="#7F1B09" stroke-width="0.621072" stroke-miterlimit="10"/>
<path d="M6.09188 11.9927C5.54113 11.6172 5.39328 10.881 5.4637 10.234C5.53413 9.58691 5.77437 8.96314 5.81636 8.31376C5.85486 7.71847 5.72544 7.12656 5.60879 6.54083C5.49214 5.95511 5.38722 5.35525 5.47464 4.76474C5.56206 4.17423 5.86813 3.81624 6.40677 3.52331C6.94535 3.23038 7.57885 3.38764 8.06755 3.59287C8.06755 3.59287 6.89308 2.29173 5.65757 3.52331C4.77297 4.40506 4.92025 6.03015 5.73638 7.20519" stroke="#7F1B09" stroke-width="0.621072" stroke-miterlimit="10"/>
<path d="M13.8397 12.9752C14.0232 13.2362 13.3253 12.5675 13.3503 12.2529C13.3754 11.9385 13.5616 11.6593 13.755 11.4049C13.9484 11.1506 14.1595 10.8972 14.2486 10.5938C14.5072 9.71402 13.6616 8.82081 13.8293 7.92077C13.8981 7.5511 14.1305 7.23306 14.3092 6.89934C14.4879 6.56568 14.6156 6.16535 14.4632 5.81974C14.2731 5.38861 13.739 5.2215 13.2632 5.12746C12.7874 5.03343 12.2546 4.93208 11.9778 4.54701C11.8014 4.30141 11.7682 3.98682 11.6364 3.71646C11.3474 3.12342 10.6007 2.82887 9.92518 2.89794C9.24961 2.96708 8.70688 3.28153 8.19995 3.7178C8.19995 3.7178 8.4501 2.68561 9.62013 2.3094C10.7902 1.9332 12.047 2.44627 12.2872 3.52361C12.5274 4.60096 14.2831 4.37456 14.7611 5.21657C15.2392 6.05859 14.4595 6.90152 14.2648 7.81597C13.902 9.51934 15.2153 10.8189 14.3003 11.4414C13.3851 12.064 13.3793 12.3203 13.8398 12.9753" stroke="#7F1B09" stroke-width="0.621072" stroke-miterlimit="10"/>
<path d="M8.0022 3.19617C8.0022 3.19617 8.6731 1.42036 10.6172 1.58388C12.5613 1.74733 12.5399 2.9389 13.0253 3.52321C13.3763 3.94591 15.0435 4.17793 15.1357 5.52507C15.228 6.87214 14.2962 8.54478 14.2962 8.54478" stroke="#7F1B09" stroke-width="0.621072" stroke-miterlimit="10"/>
</g>
</svg>
