<svg width="28" height="28" viewBox="0 0 28 28" fill="none" xmlns="http://www.w3.org/2000/svg">
<rect width="28" height="28" rx="14" fill="#F9F9F9"/>
<path d="M10.364 19.4369C10.364 19.4369 13.2822 17.5156 17.4435 19.4369L13.9037 21.5717L10.364 19.4369Z" fill="#5C30FC"/>
<path d="M16.0129 21.6546L13.9428 22.1806L11.8728 21.6546V15.5876H16.0129V21.6546Z" fill="#C9902C"/>
<path d="M20.4809 7.68013C19.3588 4.63848 16.3718 2.91113 13.9258 2.91113C11.3489 2.91113 8.52548 4.63848 7.40332 7.68013C6.22792 10.8661 7.40332 14.406 8.66917 15.7629C9.55447 16.712 11.1711 18.7463 13.9504 18.7463C16.8806 18.7463 18.3477 16.6929 19.2152 15.7629C20.481 14.406 21.6564 10.8661 20.481 7.68013H20.4809Z" fill="#C9902C"/>
<path d="M5.45862 10.3044C4.78453 12.5011 7.95167 15.4481 9.10101 12.7313C10.141 10.2728 6.42189 7.16506 5.45862 10.3044Z" fill="#C9902C"/>
<path d="M22.4884 10.2709C23.1825 12.5334 19.9207 15.5685 18.7371 12.7704C17.6659 10.2382 21.4963 7.03749 22.4884 10.2709Z" fill="#C9902C"/>
<path d="M14.0191 4.87655C14.0191 4.87655 19.216 1.44077 20.7239 10.5724L20.8611 8.94299C20.8611 8.94299 21.5157 1.87386 13.9252 1.9752C7.3804 2.06252 7.09882 6.85134 7.02987 7.86873C6.91874 9.50736 7.47277 10.5724 7.47277 10.5724C7.47277 10.5724 7.20488 1.48473 14.0191 4.87655Z" fill="#902B12"/>
<path d="M24.5953 23.337C21.9721 20.6053 14.0189 20.2678 14.0189 20.2678C14.0189 20.2678 5.82086 20.5779 3.40527 23.2955C6.01422 26.1703 9.80233 27.9795 14.0189 27.9795C18.2153 27.9795 21.9876 26.1878 24.5953 23.337Z" fill="#6243FF"/>
<path d="M6.12363 21.6611C5.68427 22.6859 5.32005 23.7542 5.05176 24.8429" stroke="#5C30FC" stroke-width="0.533985" stroke-miterlimit="10"/>
<path d="M8.46503 20.9919C8.05376 22.8327 7.85593 24.7191 7.86982 26.6042" stroke="#5C30FC" stroke-width="0.533985" stroke-miterlimit="10"/>
<path d="M19.4798 21.0154C18.5624 23.0287 18.0561 25.2218 17.9775 27.4288" stroke="#5C30FC" stroke-width="0.533985" stroke-miterlimit="10"/>
<path d="M21.3147 21.5217C21.0425 23.0464 20.9712 24.5959 21.0546 26.1466" stroke="#5C30FC" stroke-width="0.533985" stroke-miterlimit="10"/>
<path d="M10.363 19.4375C10.363 19.4375 12.5788 21.0386 17.4425 19.4375V20.626C17.4425 20.626 16.821 22.6931 13.9027 22.6931C10.9845 22.6931 10.363 20.658 10.363 20.658V19.4376V19.4375Z" fill="#6243FF"/>
<path d="M17.4422 20.6262C17.4422 20.6262 16.8208 22.6933 13.9025 22.6933C10.9843 22.6933 10.3628 20.6582 10.3628 20.6582" stroke="#902B12" stroke-width="0.533985" stroke-miterlimit="10"/>
<path d="M16.1851 19.7974C16.5826 19.7014 17.0016 19.5825 17.4423 19.4375" stroke="#902B12" stroke-width="0.533985" stroke-miterlimit="10"/>
<path d="M10.3628 19.4375C10.3628 19.4375 11.8637 20.5221 15.1065 20.0133" stroke="#902B12" stroke-width="0.533985" stroke-miterlimit="10"/>
<path d="M7.64101 11.675C7.64101 11.6132 7.64101 11.5771 7.64101 11.5771C7.64101 11.5771 7.6396 11.6128 7.64101 11.675Z" fill="#902B12"/>
<path d="M20.2092 11.8732C19.7597 11.8682 20.0395 13.9497 18.1172 14.1667C16.6193 14.3359 15.3393 13.888 14.6207 14.2972C14.4477 14.3958 14.0136 14.6808 13.9172 14.6915C13.8209 14.7021 13.4768 14.4218 13.3501 14.3575C12.5622 13.9576 11.3233 14.3465 9.73204 14.1668C7.80985 13.9498 8.24809 11.6745 7.64072 11.6745C7.27741 11.6745 7.64072 13.2962 7.64072 13.7627C7.64072 16.4666 11.7959 19.4375 13.9246 19.4375C16.0533 19.4375 20.316 16.9071 20.316 13.7627C20.316 13.2962 20.5725 11.8773 20.2092 11.8732ZM13.9246 16.7574C12.2554 18.4058 11.4214 15.1821 11.8103 14.8529C11.9744 14.714 12.3766 14.7842 12.7866 14.9116L13.9246 15.3678L15.0359 14.92C15.455 14.7874 15.8711 14.7111 16.0388 14.853C16.4277 15.1821 15.6169 18.4287 13.9245 16.7575L13.9246 16.7574ZM8.70154 8.65213C8.99691 7.98532 9.62496 7.47183 10.3435 7.30991C11.062 7.14799 11.8535 7.34145 12.4125 7.8158L8.70154 8.65213ZM18.9844 8.65213C18.6891 7.98532 18.061 7.47183 17.3425 7.30991C16.624 7.14799 15.8325 7.34145 15.2735 7.8158L18.9844 8.65213Z" fill="#7F1B09"/>
<path d="M20.2085 11.5771C20.2085 11.5771 20.2085 11.6131 20.2085 11.675C20.2099 11.6128 20.2085 11.5771 20.2085 11.5771Z" fill="#902B12"/>
</svg>
