<svg width="20" height="20" viewBox="0 0 20 20" fill="none" xmlns="http://www.w3.org/2000/svg">
<g opacity="0.5">
<rect width="20" height="20" rx="10" fill="#F9F9F9"/>
<path d="M7.92753 13.4014C7.92753 13.4014 8.6401 13.0508 9.90021 13.0508C11.1602 13.0508 11.9301 13.4014 11.9301 13.4014C11.9301 13.4014 13.3114 16.4473 9.90021 16.4869C6.62198 16.5251 7.92753 13.4014 7.92753 13.4014Z" fill="#7F1B09"/>
<path d="M17.4419 16.864C16.086 15.0783 9.87816 14.1885 9.87816 14.1885C9.87816 14.1885 3.68304 15.2051 2.55859 16.8508C4.40786 18.786 7.05999 19.999 10.0066 19.999C12.9466 19.999 15.5931 18.7914 17.4419 16.864Z" fill="#5C30FC"/>
<path d="M12.6451 14.7318C11.9693 15.6516 10.7165 17.2277 10.0064 17.3149C9.00024 17.4383 7.67172 14.6418 7.67172 14.6418C5.77422 15.0911 3.23859 15.8564 2.55835 16.852C4.40761 18.7872 7.05974 20.0002 10.0064 20.0002C12.9463 20.0002 15.5933 18.788 17.4421 16.8606C16.6968 15.8791 14.4855 15.1729 12.6451 14.7318Z" fill="#E5611F"/>
<path d="M9.65479 19.9935V17.3838H10.146V19.9986C10.0994 19.9992 10.0526 19.9995 10.0057 19.9995C9.8883 19.9995 9.77129 19.9973 9.65479 19.9935Z" fill="#902B12"/>
<path d="M5.04019 18.7475C4.7832 17.7501 4.30119 16.8183 3.63672 16.0879L3.89169 15.8729C3.94879 15.8452 4.00712 15.8179 4.06631 15.7908C4.87537 16.6946 5.42254 17.8385 5.65498 19.0553C5.44602 18.9593 5.24094 18.8567 5.04019 18.7475Z" fill="#902B12"/>
<path d="M14.2976 19.0822C14.5275 17.8535 15.0779 16.6978 15.895 15.7866C15.9478 15.811 15.9998 15.8356 16.051 15.8605L16.3208 16.088C15.6489 16.8267 15.1636 17.7712 14.9089 18.7814C14.7092 18.8881 14.5053 18.9885 14.2976 19.0823V19.0822Z" fill="#902B12"/>
<path d="M11.3663 15.4972L9.95306 15.8473L8.53979 15.4972V11.4592H11.3663V15.4972Z" fill="#EED28A"/>
<path d="M8.53979 13.0824C8.53979 13.0824 11.1165 12.5353 11.3663 12.9487V13.1055C10.8898 14.4304 8.53979 14.3276 8.53979 14.3276V13.0824V13.0824Z" fill="#902B12"/>
<path d="M14.1556 5.75375C13.4434 3.72934 11.5715 3.02368 10.0193 3.02368C8.38407 3.02368 6.7347 3.81253 6.02256 5.83694C5.27665 7.95737 5.88013 10.6743 6.68343 11.5774C7.2453 12.2092 8.27117 13.5631 10.0349 13.5631C11.8944 13.5631 12.8254 12.1964 13.3758 11.5774C14.1791 10.6743 14.9014 7.87418 14.1556 5.75375Z" fill="#EED28A"/>
<path d="M4.36875 8.04319C3.89271 9.44202 6.12951 11.3187 6.94117 9.58864C7.6757 8.02309 5.04906 6.04401 4.36875 8.04319Z" fill="#EED28A"/>
<path d="M15.6771 8.04319C16.1532 9.44202 13.9164 11.3187 13.1047 9.58864C12.3702 8.02309 14.9968 6.04401 15.6771 8.04319Z" fill="#EED28A"/>
<path d="M9.93885 4.83388C11.0257 5.08095 14.4714 3.36122 14.0024 6.90481C13.8633 7.95612 14.2 9.19509 14.2298 9.86969C14.2298 9.86969 14.4712 7.61331 14.541 7.16048C14.7719 5.66175 14.3623 3.02271 9.94151 3.02271C5.31087 3.02271 5.51241 6.36977 5.58132 6.98225C5.66881 7.76021 5.933 9.86969 5.933 9.86969C5.933 9.86969 6.31298 7.80146 6.17941 6.98017C5.87698 5.12068 7.39113 4.25474 9.93878 4.83395L9.93885 4.83388Z" fill="#902B12"/>
<path d="M13.4318 3.80782C13.3392 2.73454 12.5184 0.974315 9.93924 1.48669C7.36012 1.99907 6.39402 3.39797 5.98459 2.53086C5.57523 1.66382 4.86468 4.09545 6.73727 4.94315C9.18109 6.04936 13.5702 5.41303 13.4318 3.80789V3.80782Z" fill="#7F1B09"/>
<path d="M5.73828 2.41439C5.74649 2.69218 5.88683 3.05974 6.15592 3.16026C6.425 3.26078 6.72541 3.24657 7.01027 3.20143C7.79629 3.07707 8.52348 2.7344 9.27371 2.47685C10.024 2.21931 10.8502 2.04586 11.6119 2.2702C12.538 2.54299 13.225 3.43832 13.2236 4.37066C12.9364 3.78425 12.3214 3.38251 11.6802 3.18417C11.0391 2.98584 10.3371 3.01093 9.68861 3.18591C9.16347 3.32761 8.67044 3.56345 8.14876 3.71652C7.62708 3.86959 7.04937 3.93503 6.5454 3.73447C6.04136 3.53392 5.50577 3.11429 5.73835 2.41432" stroke="#902B12" stroke-width="0.232558" stroke-miterlimit="10" stroke-linejoin="round"/>
<path d="M13.0773 4.61918C12.5481 4.18978 11.8542 3.95872 11.1665 3.98291C10.5011 4.00635 9.86845 4.25647 9.21514 4.38153C8.50955 4.51664 7.77473 4.50417 7.07433 4.34534C6.60982 4.23997 6.14012 4.05695 5.83381 3.7C5.52749 3.34305 5.43892 2.77694 5.73811 2.41431" stroke="#902B12" stroke-width="0.232558" stroke-miterlimit="10"/>
<path d="M12.692 4.88537C12.0437 4.6157 11.3108 4.60509 10.6082 4.674C9.90563 4.74284 9.21048 4.88655 8.5046 4.91019C7.7988 4.93383 7.06117 4.82554 6.48145 4.43726" stroke="#902B12" stroke-width="0.232558" stroke-miterlimit="10"/>
<path d="M13.4031 4.08541C13.3641 3.60076 13.1662 3.12907 12.8446 2.75431C12.523 2.37954 12.0793 2.10342 11.5923 1.9751" stroke="#902B12" stroke-width="0.232558" stroke-miterlimit="10"/>
<path d="M9.78274 1.94995C8.63049 2.01234 7.65856 2.878 6.50854 2.97055" stroke="#902B12" stroke-width="0.232558" stroke-miterlimit="10"/>
<path d="M12.6781 14.5195C12.6189 13.6056 11.9294 13.4 11.9294 13.4C11.9294 13.4 12.1834 14.5839 10.9087 15.2243C10.2357 15.5625 9.98625 16.243 9.90056 16.8102C9.84166 16.2431 9.62053 15.5625 8.94749 15.2243C7.67276 14.5839 8.06714 13.3435 8.06714 13.3435C8.06714 13.3435 7.17822 13.5567 7.17822 14.5195C7.17822 15.7002 8.5737 17.6879 9.87636 17.7337C9.87636 17.7337 9.8768 17.7313 9.87752 17.7272C9.87802 17.7313 9.87831 17.7337 9.87831 17.7337C11.181 17.6879 12.7543 15.6979 12.6781 14.5195Z" fill="white"/>
<path d="M9.63841 17.7047C9.64582 17.5891 9.65461 16.7165 8.33841 15.8961C7.48182 15.3623 7.263 14.6484 7.23218 14.136C7.30512 13.8942 7.4428 13.7218 7.58558 13.6011C7.53482 13.8011 7.32111 14.8997 8.51022 15.6407C9.96697 16.5485 9.9646 17.5619 9.95351 17.729C9.92838 17.7313 9.90325 17.7331 9.87833 17.734C9.87833 17.734 9.87804 17.7316 9.87754 17.7276C9.87689 17.7316 9.87639 17.734 9.87639 17.734C9.79733 17.7312 9.7179 17.7212 9.63848 17.7047H9.63841Z" fill="#E23128"/>
<path d="M9.84692 17.7321C9.84671 17.6447 9.87666 16.5864 11.3945 15.6406C12.5331 14.9309 12.4018 13.934 12.3471 13.6826C12.4837 13.8308 12.6129 14.05 12.6616 14.3678C12.5811 14.8407 12.3139 15.4301 11.5664 15.8959C10.3181 16.6738 10.18 17.5104 10.1649 17.694C10.0685 17.7167 9.97272 17.7305 9.87839 17.7338C9.87839 17.7338 9.8781 17.7314 9.8776 17.7274C9.87695 17.7314 9.87645 17.7338 9.87645 17.7338C9.86658 17.7335 9.85679 17.7326 9.84692 17.7321Z" fill="#E23128"/>
<path d="M12.1255 16.109C12.4278 15.6518 12.633 15.1659 12.6732 14.749" stroke="#902B12" stroke-width="0.232558" stroke-miterlimit="10"/>
<path d="M9.14087 17.5199C9.38259 17.6478 9.63101 17.7251 9.8762 17.7337C9.8762 17.7337 9.87663 17.7313 9.87735 17.7273C9.87785 17.7313 9.87814 17.7337 9.87814 17.7337C10.4785 17.7127 11.1363 17.2786 11.6637 16.7014" stroke="#902B12" stroke-width="0.232558" stroke-miterlimit="10"/>
<path d="M7.19531 14.7571C7.29691 15.5016 7.84279 16.4614 8.53542 17.0871" stroke="#902B12" stroke-width="0.232558" stroke-miterlimit="10"/>
<path d="M10.6757 15.3667C10.1759 15.7313 9.97552 16.3143 9.90057 16.8106C9.84166 16.2434 9.62053 15.5629 8.94749 15.2247C8.54915 15.0246 8.31377 14.7659 8.17847 14.5046" stroke="#902B12" stroke-width="0.232558" stroke-miterlimit="10"/>
<path d="M11.9296 13.3997C11.9296 13.3997 12.1504 14.4288 11.1472 15.0871" stroke="#902B12" stroke-width="0.232558" stroke-miterlimit="10"/>
<path d="M9.45068 18.6011C9.45068 18.7808 9.2994 18.9265 9.11283 18.9265C8.92619 18.9265 8.7749 18.7808 8.7749 18.6011C8.7749 18.4215 8.92619 18.2759 9.11283 18.2759C9.2994 18.2759 9.45068 18.4215 9.45068 18.6011Z" stroke="#902B12" stroke-width="0.232558" stroke-miterlimit="10"/>
<path d="M11.021 18.6011C11.021 18.7808 10.8697 18.9265 10.6831 18.9265C10.4965 18.9265 10.3452 18.7808 10.3452 18.6011C10.3452 18.4215 10.4965 18.2759 10.6831 18.2759C10.8697 18.2759 11.021 18.4215 11.021 18.6011Z" stroke="#902B12" stroke-width="0.232558" stroke-miterlimit="10"/>
<path d="M9.91948 16.7004L9.87671 17.7344" stroke="#902B12" stroke-width="0.232558" stroke-miterlimit="10"/>
</g>
</svg>
