<svg width="24" height="24" viewBox="0 0 24 24" fill="none" xmlns="http://www.w3.org/2000/svg">
<path d="M10.5675 18.8046L15.1007 16.538C19.0608 14.558 21.0409 13.5679 21.0409 12.0001C21.0409 10.4323 19.0608 9.44228 15.1007 7.46221L10.5675 5.19562C7.37127 3.59751 5.77316 2.79846 4.84668 3.04373C3.96531 3.27707 3.27695 3.96543 3.04361 4.8468C2.79834 5.77328 3.59739 7.37139 5.19549 10.5676C5.45209 11.0808 5.58039 11.3374 5.63357 11.606C5.6851 11.8662 5.6851 12.134 5.63357 12.3943C5.58039 12.6628 5.45209 12.9195 5.19549 13.4327C3.59739 16.6289 2.79834 18.227 3.04361 19.1534C3.27694 20.0348 3.96531 20.7232 4.84668 20.9565C5.77316 21.2018 7.37127 20.4027 10.5675 18.8046Z" fill="#2372EC"/>
<path d="M15.1007 16.538L15.3243 16.9852H15.3243L15.1007 16.538ZM10.5675 18.8046L10.3439 18.3574H10.3439L10.5675 18.8046ZM10.5675 5.19562L10.7911 4.7484V4.7484L10.5675 5.19562ZM15.1007 7.46221L14.8771 7.90943L15.1007 7.46221ZM5.19549 13.4327L5.64271 13.6563L5.19549 13.4327ZM5.63357 12.3943L5.14309 12.2972L5.14309 12.2972L5.63357 12.3943ZM5.19549 10.5676L5.64271 10.344L5.19549 10.5676ZM5.63357 11.606L6.12405 11.5088L6.12405 11.5088L5.63357 11.606ZM4.84668 3.04373L4.71872 2.56038L4.84668 3.04373ZM3.04361 4.8468L2.56026 4.71884L2.56026 4.71884L3.04361 4.8468ZM4.84668 20.9565L4.97464 20.4732H4.97464L4.84668 20.9565ZM3.04361 19.1534L2.56026 19.2814H2.56026L3.04361 19.1534ZM10.7278 11.4696C10.4517 11.4681 10.2266 11.6907 10.225 11.9668C10.2235 12.2429 10.4461 12.468 10.7222 12.4696L10.725 11.9696L10.7278 11.4696ZM16.2517 12.5002C16.5278 12.5017 16.7529 12.2791 16.7544 12.003C16.756 11.7269 16.5334 11.5018 16.2572 11.5002L16.2545 12.0002L16.2517 12.5002ZM15.1007 16.538L14.8771 16.0908L10.3439 18.3574L10.5675 18.8046L10.7911 19.2518L15.3243 16.9852L15.1007 16.538ZM10.5675 5.19562L10.3439 5.64283L14.8771 7.90943L15.1007 7.46221L15.3243 7.015L10.7911 4.7484L10.5675 5.19562ZM5.19549 13.4327L5.64271 13.6563C5.88683 13.168 6.05469 12.8417 6.12405 12.4914L5.63357 12.3943L5.14309 12.2972C5.1061 12.484 5.01735 12.6709 4.74828 13.209L5.19549 13.4327ZM5.19549 10.5676L4.74828 10.7912C5.01736 11.3294 5.1061 11.5162 5.14309 11.7031L5.63357 11.606L6.12405 11.5088C6.05469 11.1586 5.88683 10.8322 5.64271 10.344L5.19549 10.5676ZM5.63357 12.3943L6.12405 12.4914C6.18827 12.167 6.18827 11.8332 6.12405 11.5088L5.63357 11.606L5.14309 11.7031C5.18192 11.8992 5.18192 12.1011 5.14309 12.2972L5.63357 12.3943ZM10.5675 5.19562L10.7911 4.7484C9.20119 3.95346 7.981 3.34292 7.0429 2.96468C6.13197 2.5974 5.35847 2.39102 4.71872 2.56038L4.84668 3.04373L4.97464 3.52708C5.26137 3.45117 5.75017 3.52168 6.66896 3.89213C7.56058 4.25163 8.73755 4.83967 10.3439 5.64283L10.5675 5.19562ZM5.19549 10.5676L5.64271 10.344C4.83955 8.73767 4.25151 7.5607 3.89201 6.66908C3.52156 5.75029 3.45105 5.26149 3.52696 4.97476L3.04361 4.8468L2.56026 4.71884C2.3909 5.35859 2.59728 6.13209 2.96456 7.04302C3.3428 7.98112 3.95333 9.20131 4.74828 10.7912L5.19549 10.5676ZM4.84668 3.04373L4.71872 2.56038C3.66363 2.83971 2.83959 3.66375 2.56026 4.71884L3.04361 4.8468L3.52696 4.97476C3.7143 4.26711 4.26699 3.71442 4.97464 3.52708L4.84668 3.04373ZM10.5675 18.8046L10.3439 18.3574C8.73755 19.1606 7.56058 19.7486 6.66896 20.1081C5.75017 20.4786 5.26137 20.5491 4.97464 20.4732L4.84668 20.9565L4.71872 21.4399C5.35847 21.6092 6.13197 21.4028 7.0429 21.0356C7.981 20.6573 9.20119 20.0468 10.7911 19.2518L10.5675 18.8046ZM5.19549 13.4327L4.74828 13.209C3.95333 14.7989 3.3428 16.0191 2.96456 16.9572C2.59728 17.8682 2.39089 18.6416 2.56026 19.2814L3.04361 19.1534L3.52696 19.0255C3.45105 18.7388 3.52156 18.25 3.89201 17.3312C4.25151 16.4395 4.83955 15.2626 5.64271 13.6563L5.19549 13.4327ZM4.84668 20.9565L4.97464 20.4732C4.26699 20.2858 3.7143 19.7331 3.52696 19.0255L3.04361 19.1534L2.56026 19.2814C2.83958 20.3365 3.66363 21.1605 4.71872 21.4399L4.84668 20.9565ZM15.1007 16.538L15.3243 16.9852C17.2891 16.0028 18.8146 15.2415 19.842 14.5245C20.8663 13.8095 21.5409 13.0397 21.5409 12.0001H21.0409H20.5409C20.5409 12.5284 20.2254 13.0374 19.2697 13.7045C18.317 14.3694 16.8723 15.0932 14.8771 16.0908L15.1007 16.538ZM15.1007 7.46221L14.8771 7.90943C16.8724 8.90707 18.317 9.63085 19.2697 10.2958C20.2254 10.9628 20.5409 11.4719 20.5409 12.0001H21.0409H21.5409C21.5409 10.9606 20.8663 10.1907 19.842 9.47575C18.8146 8.7587 17.2891 7.99743 15.3243 7.015L15.1007 7.46221ZM10.725 11.9696L10.7222 12.4696L16.2517 12.5002L16.2545 12.0002L16.2572 11.5002L10.7278 11.4696L10.725 11.9696Z" fill="#F2FFF3"/>
</svg>
