<svg width="24" height="24" viewBox="0 0 24 24" fill="none" xmlns="http://www.w3.org/2000/svg">
<path d="M6 7.70031C6 4.55211 8.68629 2 12 2C15.3137 2 18 4.55211 18 7.70031C18 10.8238 16.085 14.4687 13.0972 15.7721C12.4007 16.076 11.5993 16.076 10.9028 15.7721C7.91499 14.4687 6 10.8238 6 7.70031Z" fill="#96BFFF"/>
<path d="M14 8C14 9.10457 13.1046 10 12 10C10.8954 10 10 9.10457 10 8C10 6.89543 10.8954 6 12 6C13.1046 6 14 6.89543 14 8Z" fill="#96BFFF"/>
<path d="M5.43488 20.8116L5.59299 20.3373H5.59299L5.43488 20.8116ZM5.05132 20.6838L4.8932 21.1581H4.8932L5.05132 20.6838ZM18.9487 8.31623L18.7906 8.79057L18.9487 8.31623ZM12.3806 20.3097L12.157 19.8625L12.3806 20.3097ZM9.33284 21.5501L9.40448 22.0449H9.40448L9.33284 21.5501ZM8.60688 21.6016L8.60783 21.1016L8.60688 21.6016ZM17.8721 19.4787L17.7899 19.9719H17.7899L17.8721 19.4787ZM15.3648 19.2167L15.3232 18.7184H15.3231L15.3648 19.2167ZM14.715 19.3144L14.8217 19.8029L14.715 19.3144ZM3.28314 19.7959L2.87752 20.0883H2.87752L3.28314 19.7959ZM20.6603 19.18L21.047 19.4969L20.6603 19.18ZM20.247 19.5301L20.496 19.9637L20.496 19.9637L20.247 19.5301ZM20.7169 9.20407L20.3112 9.49643L20.7169 9.20407ZM3.48841 9.97358L3.15122 9.60439H3.15122L3.48841 9.97358ZM3.76917 9.77122L3.52555 9.33458H3.52555L3.76917 9.77122ZM13.0972 15.7721L12.8973 15.3138L13.0972 15.7721ZM10.9028 15.7721L11.1027 15.3138L10.9028 15.7721ZM21 11.1623H20.5V16.829H21H21.5V11.1623H21ZM3 17.8377H3.5V12.908H3H2.5V17.8377H3ZM5.43488 20.8116L5.59299 20.3373L5.20943 20.2094L5.05132 20.6838L4.8932 21.1581L5.27677 21.286L5.43488 20.8116ZM18 8L17.8419 8.47434L18.7906 8.79057L18.9487 8.31623L19.1068 7.84189L18.1581 7.52566L18 8ZM12.3806 20.3097L12.157 19.8625C10.6276 20.6272 9.96089 20.9539 9.26119 21.0552L9.33284 21.5501L9.40448 22.0449C10.3012 21.9151 11.1342 21.4919 12.6042 20.7569L12.3806 20.3097ZM5.43488 20.8116L5.27677 21.286C6.82269 21.8013 7.69999 22.0999 8.60593 22.1016L8.60688 21.6016L8.60783 21.1016C7.90071 21.1003 7.20104 20.8733 5.59299 20.3373L5.43488 20.8116ZM9.33284 21.5501L9.26119 21.0552C9.04481 21.0865 8.82645 21.1021 8.60783 21.1016L8.60688 21.6016L8.60593 22.1016C8.87314 22.1022 9.14003 22.0832 9.40448 22.0449L9.33284 21.5501ZM17.8721 19.4787L17.9543 18.9855C16.7222 18.7801 16.0224 18.6599 15.3232 18.7184L15.3648 19.2167L15.4065 19.7149C15.9526 19.6693 16.5092 19.7584 17.7899 19.9719L17.8721 19.4787ZM12.3806 20.3097L12.6042 20.7569C13.7759 20.1711 14.2865 19.9198 14.8217 19.8029L14.715 19.3144L14.6083 18.8259C13.9227 18.9756 13.284 19.299 12.157 19.8625L12.3806 20.3097ZM15.3648 19.2167L15.3231 18.7184C15.0828 18.7385 14.844 18.7744 14.6083 18.8259L14.715 19.3144L14.8217 19.8029C15.0145 19.7608 15.2099 19.7314 15.4065 19.7149L15.3648 19.2167ZM3 17.8377H2.5C2.5 18.348 2.49924 18.7727 2.53862 19.1176C2.57945 19.4752 2.66772 19.7972 2.87752 20.0883L3.28314 19.7959L3.68876 19.5036C3.61541 19.4018 3.56212 19.2665 3.53216 19.0041C3.50076 18.729 3.5 18.371 3.5 17.8377H3ZM5.05132 20.6838L5.20943 20.2094C4.70349 20.0408 4.36411 19.9269 4.11304 19.8101C3.87363 19.6987 3.7621 19.6053 3.68876 19.5036L3.28314 19.7959L2.87752 20.0883C3.08731 20.3794 3.36485 20.5649 3.69124 20.7168C4.00598 20.8632 4.40911 20.9968 4.8932 21.1581L5.05132 20.6838ZM21 16.829H20.5C20.5 17.4863 20.4992 17.9369 20.4607 18.2768C20.4231 18.6085 20.3557 18.7628 20.2735 18.8631L20.6603 19.18L21.047 19.4969C21.3046 19.1825 21.407 18.8068 21.4544 18.3894C21.5008 17.9801 21.5 17.4626 21.5 16.829H21ZM17.8721 19.4787L17.7899 19.9719C18.4149 20.076 18.9253 20.1619 19.3366 20.1834C19.7561 20.2053 20.1436 20.166 20.496 19.9637L20.247 19.5301L19.998 19.0965C19.8855 19.1611 19.7223 19.2022 19.3889 19.1848C19.0473 19.1669 18.6027 19.0936 17.9543 18.9855L17.8721 19.4787ZM20.6603 19.18L20.2735 18.8631C20.1966 18.957 20.1032 19.0361 19.998 19.0965L20.247 19.5301L20.496 19.9637C20.7065 19.8428 20.8932 19.6846 21.047 19.4969L20.6603 19.18ZM21 11.1623H21.5C21.5 10.652 21.5008 10.2273 21.4614 9.88243C21.4205 9.52477 21.3323 9.20279 21.1225 8.91172L20.7169 9.20407L20.3112 9.49643C20.3846 9.59819 20.4379 9.73352 20.4678 9.99586C20.4992 10.271 20.5 10.629 20.5 11.1623H21ZM18.9487 8.31623L18.7906 8.79057C19.2965 8.95922 19.6359 9.07314 19.887 9.18994C20.1264 9.30131 20.2379 9.39467 20.3112 9.49643L20.7169 9.20407L21.1225 8.91172C20.9127 8.62065 20.6351 8.43509 20.3088 8.28325C19.994 8.13683 19.5909 8.00325 19.1068 7.84189L18.9487 8.31623ZM3 12.908H3.5C3.5 12.0645 3.501 11.4811 3.55689 11.0503C3.61178 10.6273 3.70933 10.449 3.82561 10.3428L3.48841 9.97358L3.15122 9.60439C2.77908 9.94428 2.63242 10.4037 2.56521 10.9216C2.499 11.4319 2.5 12.0926 2.5 12.908H3ZM6.70746 10.2358L6.86557 9.76148C6.09201 9.50362 5.46552 9.29374 4.96053 9.1952C4.44788 9.09517 3.96568 9.08903 3.52555 9.33458L3.76917 9.77122L4.01278 10.2079C4.1503 10.1311 4.35036 10.095 4.76901 10.1767C5.19531 10.2599 5.74914 10.4434 6.54934 10.7102L6.70746 10.2358ZM3.48841 9.97358L3.82561 10.3428C3.88258 10.2907 3.94539 10.2455 4.01278 10.2079L3.76917 9.77122L3.52555 9.33458C3.39078 9.40978 3.26517 9.50031 3.15122 9.60439L3.48841 9.97358ZM13.0972 15.7721L12.8973 15.3138C12.3282 15.5621 11.6718 15.5621 11.1027 15.3138L10.9028 15.7721L10.7029 16.2304C11.5269 16.5899 12.4731 16.5899 13.2971 16.2304L13.0972 15.7721ZM6 7.70031H5.5C5.5 9.35828 6.00629 11.1364 6.89881 12.6702C7.79119 14.2038 9.08981 15.5267 10.7029 16.2304L10.9028 15.7721L11.1027 15.3138C9.72798 14.7141 8.5752 13.5628 7.76313 12.1673C6.95121 10.772 6.5 9.16585 6.5 7.70031H6ZM18 7.70031H17.5C17.5 9.16585 17.0488 10.772 16.2369 12.1673C15.4248 13.5628 14.272 14.7141 12.8973 15.3138L13.0972 15.7721L13.2971 16.2304C14.9102 15.5267 16.2088 14.2038 17.1012 12.6702C17.9937 11.1364 18.5 9.35828 18.5 7.70031H18ZM12 2V2.5C15.062 2.5 17.5 4.85209 17.5 7.70031H18H18.5C18.5 4.25214 15.5654 1.5 12 1.5V2ZM12 2V1.5C8.4346 1.5 5.5 4.25214 5.5 7.70031H6H6.5C6.5 4.85209 8.93798 2.5 12 2.5V2ZM14 8H13.5C13.5 8.82843 12.8284 9.5 12 9.5V10V10.5C13.3807 10.5 14.5 9.38071 14.5 8H14ZM12 10V9.5C11.1716 9.5 10.5 8.82843 10.5 8H10H9.5C9.5 9.38071 10.6193 10.5 12 10.5V10ZM10 8H10.5C10.5 7.17157 11.1716 6.5 12 6.5V6V5.5C10.6193 5.5 9.5 6.61929 9.5 8H10ZM12 6V6.5C12.8284 6.5 13.5 7.17157 13.5 8H14H14.5C14.5 6.61929 13.3807 5.5 12 5.5V6Z" fill="#626060"/>
</svg>
