<svg width="24" height="24" viewBox="0 0 24 24" fill="none" xmlns="http://www.w3.org/2000/svg">
<path d="M14.3143 2L10.6394 19.0655M9.68569 2L13.3606 19.0655M5 19.1429C5 20.7208 6.25871 22 7.81142 22C9.36412 22 10.1543 21.0476 10.6228 19.1429C10.9972 17.5379 9.36412 16.2857 7.81142 16.2857C6.25871 16.2857 5 17.5649 5 19.1429ZM19 19.1429C19 20.7208 17.7413 22 16.1886 22C14.6359 22 13.8457 21.0476 13.3772 19.1429C13.0028 17.5379 14.6359 16.2857 16.1886 16.2857C17.7413 16.2857 19 17.5649 19 19.1429Z" stroke="#2372EC" stroke-linecap="round" stroke-linejoin="round"/>
</svg>
