<svg width="32" height="32" viewBox="0 0 32 32" fill="none" xmlns="http://www.w3.org/2000/svg">
<rect width="32" height="32" rx="16" fill="#F9F9F9"/>
<path d="M12.6838 21.4426C12.6838 21.4426 13.8239 20.8816 15.8401 20.8816C17.8561 20.8816 19.0879 21.4426 19.0879 21.4426C19.0879 21.4426 21.2979 26.3161 15.8401 26.3794C10.5949 26.4404 12.6838 21.4426 12.6838 21.4426Z" fill="#7F1B09"/>
<path d="M27.9068 26.9827C25.7373 24.1257 15.8048 22.7019 15.8048 22.7019C15.8048 22.7019 5.89262 24.3285 4.09351 26.9617C7.05233 30.058 11.2957 31.9987 16.0104 31.9987C20.7143 31.9987 24.9488 30.0666 27.9068 26.9827Z" fill="#5C30FC"/>
<path d="M20.2318 23.5711C19.1506 25.0429 17.1461 27.5646 16.0099 27.7041C14.4 27.9016 12.2744 23.4272 12.2744 23.4272C9.2384 24.1461 5.1814 25.3706 4.09302 26.9635C7.05184 30.0598 11.2952 32.0005 16.0099 32.0005C20.7138 32.0005 24.949 30.0611 27.907 26.9772C26.7146 25.4069 23.1765 24.277 20.2318 23.5711Z" fill="#E5611F"/>
<path d="M15.4475 31.9898V27.8142H16.2335V31.9979C16.1588 31.9989 16.084 31.9993 16.009 31.9993C15.8211 31.9993 15.6339 31.9959 15.4475 31.9898Z" fill="#902B12"/>
<path d="M8.06416 29.9962C7.65297 28.4003 6.88176 26.9094 5.8186 25.7408L6.22656 25.3967C6.31792 25.3525 6.41124 25.3088 6.50594 25.2654C7.80044 26.7115 8.67592 28.5417 9.04782 30.4887C8.71348 30.3351 8.38536 30.1708 8.06416 29.9962Z" fill="#902B12"/>
<path d="M22.876 30.5318C23.2437 28.5657 24.1245 26.7166 25.4318 25.2588C25.5162 25.2977 25.5995 25.3371 25.6815 25.3769L26.1131 25.741C25.038 26.9229 24.2615 28.4342 23.854 30.0504C23.5345 30.2212 23.2084 30.3818 22.876 30.5319V30.5318Z" fill="#902B12"/>
<path d="M18.1858 24.7957L15.9246 25.3558L13.6633 24.7957V18.335H18.1858V24.7957Z" fill="#EED28A"/>
<path d="M13.6633 20.932C13.6633 20.932 17.786 20.0567 18.1857 20.7182V20.969C17.4233 23.0889 13.6633 22.9244 13.6633 22.9244V20.9322V20.932Z" fill="#902B12"/>
<path d="M22.6486 9.20625C21.5092 5.96718 18.5141 4.83813 16.0306 4.83813C13.4142 4.83813 10.7752 6.10029 9.63575 9.33935C8.4423 12.732 9.40787 17.0791 10.6932 18.5241C11.5921 19.5349 13.2335 21.7012 16.0555 21.7012C19.0307 21.7012 20.5203 19.5144 21.401 18.5241C22.6863 17.0791 23.8419 12.5989 22.6486 9.20625Z" fill="#EED28A"/>
<path d="M6.98975 12.8693C6.2281 15.1074 9.80698 18.1101 11.1056 15.342C12.2809 12.8371 8.07825 9.67056 6.98975 12.8693Z" fill="#EED28A"/>
<path d="M25.0833 12.8693C25.8449 15.1074 22.266 18.1101 20.9674 15.342C19.7922 12.8371 23.9947 9.67056 25.0833 12.8693Z" fill="#EED28A"/>
<path d="M15.902 7.73455C17.641 8.12986 23.1541 5.37829 22.4036 11.048C22.1811 12.7301 22.7199 14.7125 22.7676 15.7918C22.7676 15.7918 23.1538 12.1816 23.2654 11.4571C23.6349 9.05915 22.9795 4.83667 15.9063 4.83667C8.49724 4.83667 8.81971 10.192 8.92997 11.1719C9.06995 12.4167 9.49265 15.7918 9.49265 15.7918C9.49265 15.7918 10.1006 12.4827 9.8869 11.1686C9.40302 8.19342 11.8257 6.80793 15.9019 7.73466L15.902 7.73455Z" fill="#902B12"/>
<path d="M21.4905 6.09276C21.3424 4.3755 20.029 1.55915 15.9024 2.37895C11.7759 3.19876 10.2301 5.437 9.575 4.04962C8.92003 2.66235 7.78314 6.55296 10.7793 7.90928C14.6894 9.67922 21.7119 8.66109 21.4905 6.09287V6.09276Z" fill="#7F1B09"/>
<path d="M9.18101 3.86327C9.19414 4.30773 9.41868 4.89582 9.84922 5.05665C10.2798 5.21749 10.7604 5.19475 11.2162 5.12254C12.4738 4.92355 13.6373 4.37528 14.8377 3.96321C16.0382 3.55115 17.3601 3.27363 18.5788 3.63256C20.0605 4.06903 21.1597 5.50155 21.1575 6.99331C20.6981 6.05504 19.714 5.41226 18.6881 5.09492C17.6623 4.77758 16.5391 4.81773 15.5015 5.09769C14.6613 5.32441 13.8725 5.70176 13.0378 5.94667C12.2031 6.19158 11.2787 6.29629 10.4724 5.9754C9.66592 5.65451 8.80899 4.98311 9.18112 3.86316" stroke="#902B12" stroke-width="0.372093" stroke-miterlimit="10" stroke-linejoin="round"/>
<path d="M20.9235 7.39083C20.0768 6.70379 18.9665 6.3341 17.8662 6.37281C16.8016 6.4103 15.7893 6.8105 14.744 7.0106C13.6151 7.22678 12.4394 7.20681 11.3187 6.9527C10.5755 6.7841 9.824 6.49127 9.33389 5.92015C8.84379 5.34902 8.70208 4.44326 9.18078 3.86304" stroke="#902B12" stroke-width="0.372093" stroke-miterlimit="10"/>
<path d="M20.3071 7.81683C19.2697 7.38536 18.0971 7.36839 16.9729 7.47864C15.8488 7.58878 14.7366 7.81872 13.6072 7.85654C12.4779 7.89437 11.2977 7.72111 10.3701 7.09985" stroke="#902B12" stroke-width="0.372093" stroke-miterlimit="10"/>
<path d="M21.4447 6.5369C21.3822 5.76146 21.0656 5.00676 20.5511 4.40713C20.0366 3.8075 19.3265 3.36571 18.5474 3.1604" stroke="#902B12" stroke-width="0.372093" stroke-miterlimit="10"/>
<path d="M15.652 3.12012C13.8084 3.21994 12.2533 4.60499 10.4133 4.75307" stroke="#902B12" stroke-width="0.372093" stroke-miterlimit="10"/>
<path d="M20.2846 23.2314C20.19 21.7692 19.0868 21.4403 19.0868 21.4403C19.0868 21.4403 19.4932 23.3345 17.4537 24.3592C16.3768 24.9003 15.9777 25.9891 15.8406 26.8966C15.7464 25.9892 15.3925 24.9003 14.3157 24.3592C12.2761 23.3344 12.9071 21.3499 12.9071 21.3499C12.9071 21.3499 11.4849 21.691 11.4849 23.2314C11.4849 25.1206 13.7176 28.3009 15.8019 28.3742C15.8019 28.3742 15.8026 28.3703 15.8037 28.3638C15.8045 28.3703 15.805 28.3742 15.805 28.3742C17.8893 28.3009 20.4066 25.1169 20.2846 23.2314Z" fill="white"/>
<path d="M15.4213 28.3277C15.4331 28.1428 15.4472 26.7466 13.3413 25.4341C11.9707 24.58 11.6206 23.4377 11.5713 22.6178C11.688 22.2309 11.9083 21.9552 12.1367 21.762C12.0555 22.082 11.7136 23.8397 13.6161 25.0254C15.947 26.4778 15.9432 28.0993 15.9254 28.3667C15.8852 28.3703 15.845 28.3732 15.8051 28.3746C15.8051 28.3746 15.8047 28.3708 15.8039 28.3643C15.8028 28.3708 15.802 28.3746 15.802 28.3746C15.6755 28.3702 15.5484 28.3541 15.4214 28.3277H15.4213Z" fill="#E23128"/>
<path d="M15.7549 28.3715C15.7545 28.2317 15.8025 26.5384 18.231 25.025C20.0528 23.8895 19.8428 22.2945 19.7551 21.8923C19.9738 22.1294 20.1804 22.4801 20.2584 22.9887C20.1296 23.7452 19.702 24.6883 18.506 25.4337C16.5088 26.6782 16.2878 28.0167 16.2637 28.3106C16.1094 28.3468 15.9562 28.3689 15.8052 28.3742C15.8052 28.3742 15.8048 28.3704 15.804 28.3639C15.8029 28.3704 15.8021 28.3742 15.8021 28.3742C15.7863 28.3737 15.7707 28.3724 15.7549 28.3715Z" fill="#E23128"/>
<path d="M19.4006 25.7745C19.8843 25.043 20.2126 24.2657 20.277 23.5986" stroke="#902B12" stroke-width="0.372093" stroke-miterlimit="10"/>
<path d="M14.6252 28.032C15.012 28.2366 15.4095 28.3604 15.8018 28.3741C15.8018 28.3741 15.8025 28.3702 15.8036 28.3638C15.8044 28.3702 15.8049 28.3741 15.8049 28.3741C16.7654 28.3404 17.8179 27.6459 18.6617 26.7224" stroke="#902B12" stroke-width="0.372093" stroke-miterlimit="10"/>
<path d="M11.5122 23.6116C11.6748 24.8028 12.5482 26.3385 13.6564 27.3396" stroke="#902B12" stroke-width="0.372093" stroke-miterlimit="10"/>
<path d="M17.0808 24.587C16.2811 25.1704 15.9605 26.1032 15.8406 26.8973C15.7463 25.9898 15.3925 24.9009 14.3156 24.3599C13.6783 24.0397 13.3017 23.6257 13.0852 23.2078" stroke="#902B12" stroke-width="0.372093" stroke-miterlimit="10"/>
<path d="M19.087 21.4397C19.087 21.4397 19.4403 23.0863 17.8352 24.1396" stroke="#902B12" stroke-width="0.372093" stroke-miterlimit="10"/>
<path d="M15.1208 29.7621C15.1208 30.0496 14.8787 30.2827 14.5802 30.2827C14.2816 30.2827 14.0396 30.0496 14.0396 29.7621C14.0396 29.4747 14.2816 29.2417 14.5802 29.2417C14.8787 29.2417 15.1208 29.4747 15.1208 29.7621Z" stroke="#902B12" stroke-width="0.372093" stroke-miterlimit="10"/>
<path d="M17.6332 29.7621C17.6332 30.0496 17.3912 30.2827 17.0926 30.2827C16.7941 30.2827 16.552 30.0496 16.552 29.7621C16.552 29.4747 16.7941 29.2417 17.0926 29.2417C17.3912 29.2417 17.6332 29.4747 17.6332 29.7621Z" stroke="#902B12" stroke-width="0.372093" stroke-miterlimit="10"/>
<path d="M15.8709 26.7209L15.8025 28.3753" stroke="#902B12" stroke-width="0.372093" stroke-miterlimit="10"/>
</svg>
