<svg width="32" height="33" viewBox="0 0 32 33" fill="none" xmlns="http://www.w3.org/2000/svg">
<rect width="32" height="32" rx="16" fill="#F9F9F9"/>
<path d="M25.7311 26.6955C24.1632 24.656 20.4719 24.4468 20.4719 24.4468H11.5193C11.5193 24.4468 7.82809 24.656 6.26019 26.6955C5.96714 27.0766 5.678 27.6187 5.40137 28.248C8.23679 30.6468 11.9482 32.1009 16.0112 32.1009C20.0634 32.1009 23.766 30.6547 26.5985 28.2674C26.3194 27.6298 26.0271 27.0806 25.7312 26.6955H25.7311Z" fill="#5C30FC"/>
<path d="M16.011 25.0057L12.6177 24.4479V23.1006C12.6177 23.1006 13.1699 22.6609 15.6488 22.6609C18.1279 22.6609 18.698 23.075 18.698 23.075V24.4479L16.011 25.0057Z" fill="#5C30FC"/>
<path d="M17.6337 25.5309H13.6333V19.7893H17.6337V25.5309Z" fill="#C9902C"/>
<path d="M13.6333 21.9874C13.6333 21.9874 17.9438 21.0677 17.6337 21.9874C16.9886 23.9004 13.6333 23.7526 13.6333 23.7526V21.9874Z" fill="#902B12"/>
<path d="M21.7305 12.3978C20.6854 9.57686 17.9037 7.97485 15.6257 7.97485C13.2257 7.97485 10.5963 9.57686 9.55121 12.3978C8.45649 15.3525 9.55121 18.6355 10.73 19.894C11.5547 20.7742 13.329 22.6609 15.6485 22.6609C18.0555 22.6609 19.7438 20.7565 20.5517 19.894C21.7305 18.6355 22.8252 15.3525 21.7305 12.3978Z" fill="#C9902C"/>
<path d="M7.2351 14.7283C6.60427 16.7422 9.56865 19.4438 10.6443 16.9531C11.6178 14.6994 8.13672 11.8503 7.2351 14.7283Z" fill="#C9902C"/>
<path d="M24.3997 14.472C25.0307 16.4858 22.0663 19.1874 20.9905 16.6968C20.017 14.443 23.4981 11.5939 24.3997 14.472Z" fill="#C9902C"/>
<path d="M12.6177 24.4462V23.0989C12.6177 23.0989 13.5763 24.065 15.5408 24.065C17.5051 24.065 18.6981 23.0732 18.6981 23.0732V24.4462C18.6981 24.4462 18.5444 26.6091 15.6504 26.6091C12.7565 26.6091 12.6178 24.4462 12.6178 24.4462H12.6177Z" fill="#6243FF"/>
<path d="M11.9319 24.4456C11.9319 24.4456 14.7114 29.9313 15.9879 29.9313C17.2645 29.9313 19.4276 24.4456 19.4276 24.4456" stroke="white" stroke-width="0.615385" stroke-miterlimit="10"/>
<path d="M16.2738 30.5352C16.5795 30.4559 16.7937 30.1321 16.74 29.8304C16.6475 29.3113 15.9207 28.8943 15.6 29.4635C15.3276 29.947 15.5911 30.7121 16.2738 30.5352Z" fill="#FFCE10"/>
<path d="M17.3113 29.4582C17.532 29.4011 17.6866 29.1672 17.6479 28.9495C17.5811 28.5747 17.0564 28.2737 16.825 28.6846C16.6283 29.0335 16.8185 29.5859 17.3114 29.4582H17.3113Z" fill="#FFCE10"/>
<path d="M17.8935 28.3015C18.0845 28.252 18.2185 28.0495 18.1849 27.8609C18.1271 27.5364 17.6726 27.2757 17.4722 27.6315C17.3019 27.9338 17.4666 28.4122 17.8935 28.3015Z" fill="#FFCE10"/>
<path d="M15.0168 29.6669C15.2374 29.6097 15.3921 29.3759 15.3533 29.1582C15.2865 28.7835 14.7617 28.4825 14.5303 28.8933C14.3336 29.2422 14.5238 29.7946 15.0168 29.6669Z" fill="#FFCE10"/>
<path d="M14.2427 28.4718C14.4307 28.4231 14.5625 28.2239 14.5294 28.0383C14.4725 27.719 14.0254 27.4626 13.8283 27.8126C13.6608 28.11 13.8228 28.5806 14.2428 28.4718H14.2427Z" fill="#FFCE10"/>
<path d="M16.2805 26.5718C16.0862 26.5962 15.8766 26.6094 15.6501 26.6094C12.7562 26.6094 12.6174 24.4465 12.6174 24.4465" stroke="#902B12" stroke-width="0.615385" stroke-miterlimit="10"/>
<path d="M18.6978 24.4465C18.6978 24.4465 18.6246 25.4763 17.6284 26.1148" stroke="#902B12" stroke-width="0.615385" stroke-miterlimit="10"/>
<path d="M12.6177 23.0986C12.6177 23.0986 15.3347 25.3388 18.698 23.073" stroke="#902B12" stroke-width="0.615385" stroke-miterlimit="10"/>
<path d="M8.7579 17.2688C7.84022 17.4547 7.1223 18.3118 7.11003 19.2186C7.09775 20.1254 7.78171 20.9946 8.6847 21.2388C9.58769 21.4829 10.6299 21.0905 11.1374 20.328" stroke="#E23128" stroke-width="0.615385" stroke-miterlimit="10"/>
<path d="M22.4993 17.2688C23.417 17.4547 24.1349 18.3118 24.1471 19.2186C24.1594 20.1254 23.4755 20.9946 22.5725 21.2388C21.6695 21.4829 20.6274 21.0905 20.1199 20.328" stroke="#E23128" stroke-width="0.615385" stroke-miterlimit="10"/>
<path d="M15.4185 7.77736C15.4185 7.77736 12.125 5.87793 11.6456 3.84976C11.1663 1.82148 20.0919 1.17402 19.3849 4.22898C19.055 5.6553 15.4185 7.77736 15.4185 7.77736Z" fill="#902B12"/>
<path d="M15.4085 7.77725C15.4085 7.77725 9.54027 3.32105 14.7676 2.94993C22.4154 2.40702 15.4085 7.77725 15.4085 7.77725Z" stroke="#7F1B09" stroke-width="0.615385" stroke-miterlimit="10" stroke-linejoin="round"/>
<path d="M15.4296 6.95393C15.4296 6.95393 11.5472 4.00562 15.0057 3.76013C20.0655 3.40089 15.4296 6.95393 15.4296 6.95393Z" stroke="#7F1B09" stroke-width="0.615385" stroke-miterlimit="10" stroke-linejoin="round"/>
<path d="M19.7597 7.48517C19.1595 8.43961 15.6504 12.1629 9.55162 12.3959C7.75768 10.5872 9.89974 8.11998 12.7356 6.93427C13.6079 6.56958 14.3744 6.95724 15.4288 6.95413C16.8038 6.95003 18.493 6.69777 19.7597 7.48517Z" fill="#902B12"/>
<path d="M15.6507 8.92805C14.1785 9.10917 12.9207 9.52468 11.6432 10.2553C9.8176 11.2991 9.62358 13.8881 9.56713 15.3225C8.75294 14.3419 8.36903 11.2978 8.85793 10.1323C9.34683 8.96689 10.3619 8.0563 11.5203 7.48486C12.6786 6.91331 14.3578 7.0234 15.6508 6.88989V8.92805H15.6507Z" fill="#902B12"/>
<path d="M18.2494 9.08928C21.9082 9.94461 21.839 13.6452 21.8956 15.0797C22.7098 14.099 22.9109 11.2973 22.4221 10.1318C21.9332 8.96643 20.9181 8.05583 19.7597 7.48439C18.6015 6.91285 17.0635 7.01717 15.7705 6.88354L18.2493 9.08928H18.2494Z" fill="#902B12"/>
<path d="M9.13379 14.182C8.03632 12.7224 7.94177 10.6227 8.90385 9.07627C9.86594 7.52998 11.8284 6.62749 13.6757 6.88208" stroke="#902B12" stroke-width="0.615385" stroke-miterlimit="10"/>
<path d="M13.8408 6.51911C13.1531 6.19593 12.4248 5.96077 11.9298 5.24328C11.7529 4.9868 11.5858 4.68771 11.5633 4.33957C11.5251 3.75059 11.921 3.25296 12.3406 3.07339C12.7603 2.89371 13.2126 2.93367 13.6488 2.85132" stroke="#902B12" stroke-width="0.615385" stroke-miterlimit="10"/>
<path d="M17.3046 6.51948C18.2493 6.12173 19.7391 4.94645 19.1678 3.66096C18.6336 2.45904 16.8788 2.49134 16.4294 2.55915" stroke="#902B12" stroke-width="0.615385" stroke-miterlimit="10"/>
<path d="M22.2848 13.7362C23.4299 12.1328 23.33 9.79914 22.0517 8.29292C20.7734 6.78669 18.4264 6.23712 16.5774 7.01109" stroke="#902B12" stroke-width="0.615385" stroke-miterlimit="10"/>
<path d="M22.4611 13.8756C22.1772 14.2164 22.0115 14.69 21.9159 15.1563C21.8703 15.3915 21.8422 15.6325 21.8445 15.8635C21.8476 16.0768 21.9103 16.324 21.9674 16.5633C22.0267 16.805 22.0956 17.0625 22.1094 17.3363C22.1255 17.6093 22.084 17.8849 21.9989 18.1405C21.8284 18.6502 21.5347 19.0758 21.3526 19.5233C21.2623 19.7456 21.1994 19.9737 21.2126 20.1963C21.2184 20.3072 21.2433 20.4163 21.2835 20.5208C21.3257 20.6256 21.3859 20.7305 21.4497 20.8402C21.5131 20.9502 21.5804 21.066 21.6299 21.197C21.6805 21.3273 21.705 21.4754 21.6947 21.617C21.6755 21.9045 21.5406 22.1534 21.39 22.3682C21.2374 22.5863 21.0538 22.7706 20.8969 22.9618C20.739 23.1529 20.5968 23.3545 20.5328 23.5772C20.5016 23.6896 20.4842 23.8017 20.5064 23.9073C20.5275 24.0151 20.578 24.1203 20.6486 24.2096C20.786 24.3891 21.0294 24.5042 21.2246 24.401L21.2993 24.5372C21.1659 24.6097 20.9948 24.6165 20.8555 24.5647C20.7144 24.5148 20.599 24.4233 20.5088 24.3164C20.4193 24.2083 20.3537 24.0815 20.3227 23.943C20.3072 23.8743 20.302 23.8004 20.3083 23.7301C20.314 23.6618 20.3243 23.5937 20.3428 23.5281C20.492 22.9916 20.9327 22.6422 21.1953 22.2426C21.3298 22.0422 21.4349 21.823 21.4425 21.6043C21.4568 21.3854 21.3493 21.186 21.2147 20.9711C21.1487 20.8635 21.0787 20.7502 21.0233 20.6219C20.9692 20.4924 20.9343 20.3543 20.9235 20.2145C20.9006 19.9331 20.972 19.6627 21.0644 19.4173C21.2535 18.9262 21.5318 18.4967 21.6684 18.0426C21.737 17.8186 21.7637 17.5877 21.744 17.3594C21.7264 17.1305 21.6595 16.8996 21.5916 16.6551C21.558 16.533 21.5239 16.4084 21.4959 16.2805C21.4816 16.2158 21.4685 16.1548 21.4574 16.0851C21.4457 16.0127 21.4412 15.9438 21.4374 15.8751C21.4292 15.6037 21.4554 15.3428 21.4997 15.0835C21.5461 14.8249 21.6128 14.5694 21.708 14.319C21.804 14.0693 21.9268 13.8223 22.11 13.5969L22.4613 13.8756H22.4611Z" fill="#902B12"/>
<path d="M9.2991 13.7114C9.39984 13.8191 9.48716 13.9382 9.55439 14.0659C9.61888 14.1943 9.66844 14.3277 9.70034 14.4628C9.76276 14.7329 9.76976 15.0036 9.74566 15.2647C9.72547 15.5235 9.66317 15.7875 9.60499 16.0213C9.54831 16.2584 9.50001 16.4937 9.4758 16.7279C9.4509 16.9617 9.4517 17.1947 9.49198 17.4182C9.51171 17.53 9.54384 17.6384 9.58354 17.7439C9.60603 17.7972 9.62691 17.8442 9.65433 17.9013L9.73694 18.0716C9.95185 18.5274 10.1446 19.0141 10.1902 19.5377C10.2116 19.7983 10.1931 20.0645 10.1285 20.3198C10.0958 20.4466 10.0568 20.5726 9.99614 20.697C9.93624 20.8177 9.86648 20.9257 9.80361 21.0301C9.67418 21.2388 9.58663 21.4371 9.61498 21.6544C9.63838 21.8704 9.74693 22.0838 9.88381 22.2797C10.1522 22.6687 10.5802 23.0202 10.7177 23.5523C10.7339 23.6178 10.743 23.6845 10.7477 23.7523C10.7512 23.8236 10.7433 23.8942 10.7268 23.9619C10.6933 24.0972 10.627 24.2212 10.5368 24.326C10.4464 24.43 10.332 24.5196 10.1921 24.5668C10.0544 24.6166 9.8861 24.6083 9.75484 24.537L9.82954 24.4008C10.0214 24.5021 10.2611 24.3928 10.3988 24.2176C10.47 24.1309 10.5212 24.0278 10.5444 23.9221C10.5559 23.8691 10.5603 23.8155 10.5565 23.7634C10.5511 23.7079 10.5423 23.6519 10.5273 23.5974C10.4677 23.3778 10.3332 23.1768 10.1791 22.9883C10.0261 22.7987 9.84663 22.6189 9.69231 22.4079C9.54005 22.1994 9.40374 21.9603 9.3653 21.6821C9.3458 21.5445 9.35876 21.3982 9.40076 21.2645C9.44229 21.1309 9.50597 21.0123 9.56885 20.9017C9.63196 20.7913 9.69506 20.6873 9.74302 20.5837C9.78915 20.4836 9.82173 20.3703 9.84778 20.2569C9.89895 20.0304 9.90962 19.797 9.88473 19.5652C9.83286 19.0999 9.64527 18.6496 9.42612 18.2139L9.34178 18.0504C9.3139 17.996 9.28212 17.9302 9.25527 17.8696C9.20387 17.7441 9.16256 17.6148 9.13583 17.4833C9.08167 17.2204 9.07547 16.9537 9.09636 16.6957C9.11667 16.4369 9.16245 16.1851 9.21465 15.9391C9.26984 15.6911 9.31574 15.4697 9.32905 15.2343C9.36198 14.7747 9.27351 14.3061 8.97095 14.0156L9.29876 13.7114H9.2991Z" fill="#902B12"/>
<path d="M21.8591 14.1821C21.8591 14.1821 22.6388 9.27365 18.8752 8.43774" stroke="#7F1B09" stroke-width="0.615385" stroke-miterlimit="10" stroke-linejoin="round"/>
<path d="M18.25 9.08986L18.8756 8.43774" stroke="#7F1B09" stroke-width="0.615385" stroke-miterlimit="10" stroke-linejoin="round"/>
<path d="M18.8753 8.43813C18.4483 8.09964 17.6495 7.76381 16.9438 7.6818C15.8449 7.55406 14.7191 7.54385 13.6437 7.79633C12.5681 8.04881 11.5419 8.57952 10.833 9.40155C10.124 10.2236 9.76457 11.3527 10.0082 12.3969C10.0082 12.3969 10.4065 9.77966 13.9938 8.67651C16.1575 8.01119 18.2497 9.09014 18.2497 9.09014" stroke="#7F1B09" stroke-width="0.615385" stroke-miterlimit="10" stroke-linejoin="round"/>
<path d="M10.1301 12.2799C11.2833 10.196 14.7571 8.84197 18.2494 9.09001" stroke="#7F1B09" stroke-width="0.615385" stroke-miterlimit="10" stroke-linejoin="round"/>
<path d="M13.678 6.61742C13.678 6.61742 15.3709 7.28274 17.4413 6.54883" stroke="#FFCE10" stroke-width="0.615385" stroke-miterlimit="10"/>
</svg>
