<svg width="48" height="48" viewBox="0 0 48 48" fill="none" xmlns="http://www.w3.org/2000/svg">
<g clip-path="url(#clip0_4971_11442)">
<path fill-rule="evenodd" clip-rule="evenodd" d="M0.5625 28.9937C0.772665 29.6774 4.32318 33.0115 5.04015 33.6785C6.21605 34.7726 7.50344 35.8254 8.8132 36.7493C9.27384 37.0742 9.70389 37.3953 10.2004 37.7058C13.8756 40.0041 18.1302 42.2812 24.06 42.2812C28.9724 42.2812 33.8319 40.3696 37.8003 37.7065C39.3449 36.6699 42.2857 34.4388 43.5721 33.1659C43.7817 32.9586 43.9231 32.8112 44.1328 32.6015L46.3835 30.2585C46.6212 29.9894 47.3438 29.2939 47.4375 28.9992C46.5377 29.435 46.3034 29.2336 45.4546 28.8883C44.8459 28.6407 44.2593 28.4205 43.6233 28.1888C42.3368 27.7202 41.1178 27.3459 39.7927 26.9575C37.111 26.1714 34.2013 25.557 31.3125 25.1587L31.1218 25.7176C30.9953 29.3789 27.8296 32.2279 24.1061 32.3644L23.438 32.3476C21.465 32.1025 19.931 31.2811 18.9335 30.2852C18.0244 29.3775 16.9565 27.6503 16.8766 25.7242L16.7984 25.4083C16.7898 25.3835 16.7738 25.3476 16.766 25.3267L16.6875 25.1547C12.6554 25.7082 8.07289 26.8205 4.30643 28.2111C2.38423 28.9208 1.71314 29.5348 0.5625 28.9937Z" fill="#FDFAF6"/>
<path fill-rule="evenodd" clip-rule="evenodd" d="M0.562419 26.6961C2.57137 25.9355 3.29481 25.5502 5.65365 24.7837C7.47936 24.1904 9.35544 23.7188 11.2697 23.2786C14.4893 22.5384 20.6408 21.5795 24.0241 21.8655C25.6628 21.6649 29.0124 22.0435 30.7278 22.2427C32.7713 22.4802 34.8451 22.8391 36.8082 23.2846C40.0866 24.0285 44.8869 25.3395 47.5312 26.763C47.3626 26.4342 47.2427 26.4166 47.0083 26.1163C45.729 24.4777 42.1813 21.1689 40.5268 19.9418C40.2795 19.7583 40.1364 19.6236 39.8983 19.4451L36.4634 17.1613C35.9823 16.873 35.4723 16.5612 34.9693 16.3117C31.4754 14.5789 28.4558 13.4061 24.0327 13.4061C18.0244 13.4061 13.4394 15.7446 8.86848 18.8998C6.46832 20.5565 4.69698 22.256 2.69519 24.2577C2.27595 24.6769 0.654343 26.3926 0.562378 26.6961L0.562419 26.6961Z" fill="#FFC487"/>
<path fill-rule="evenodd" clip-rule="evenodd" d="M32.2499 1.21877C32.2499 3.06031 33.5376 2.81248 34.9686 2.81248C36.3124 2.81248 37.6562 2.81248 38.9999 2.81248L32.852 10.0708C32.6835 10.2837 32.561 10.4049 32.4327 10.5889C31.8069 11.486 32.3088 12.8437 33.8437 12.8437H41.9999C43.5348 12.8437 44.0622 10.8771 42.7498 10.125C42.1436 9.77766 37.6419 9.93743 36.7499 9.93743L42.8306 2.70566C43.1205 2.34911 43.4999 2.02367 43.4999 1.40619C43.4999 0.641636 42.8979 -4.57764e-05 42.0936 -4.57764e-05H33.4686C32.8937 -4.57764e-05 32.2499 0.643832 32.2499 1.21873V1.21877Z" fill="#FF5040"/>
<path fill-rule="evenodd" clip-rule="evenodd" d="M0.562488 26.6961C0.257795 26.9478 0.0708957 27.2453 0 27.5539V28.1255C0.0712211 28.4369 0.259178 28.7382 0.562488 28.9937C1.71309 29.5348 2.38422 28.9208 4.30641 28.2111C8.07292 26.8205 12.6553 25.7082 16.6875 25.1547L16.766 25.3267C16.7738 25.3476 16.7898 25.3835 16.7984 25.4083L16.8766 25.7242L16.8646 25.1287C19.2928 24.8797 21.4798 24.6508 23.9793 24.6431C26.4974 24.6557 28.687 24.8785 31.1347 25.129L31.1218 25.7176L31.3125 25.1587C34.2013 25.557 37.1109 26.1714 39.7927 26.9575C41.1178 27.3459 42.3368 27.7202 43.6233 28.1888C44.2593 28.4205 44.8459 28.6407 45.4545 28.8883C46.3034 29.2336 46.5377 29.435 47.4375 28.9992C47.7407 28.7322 47.9283 28.4379 48 28.1346V27.5669C47.9361 27.293 47.78 27.0207 47.5313 26.763C44.887 25.3395 40.0867 24.0286 36.8083 23.2847C34.8451 22.8392 32.7714 22.4803 30.7279 22.2428C29.0125 22.0435 25.6629 21.665 24.0242 21.8656C20.6409 21.5795 14.4894 22.5384 11.2698 23.2787C9.3555 23.7189 7.47943 24.1905 5.65376 24.7838C3.29492 25.5502 2.57148 25.9355 0.562529 26.6962L0.562488 26.6961Z" fill="#FCBA74"/>
<path fill-rule="evenodd" clip-rule="evenodd" d="M19.4062 1.21877C19.4062 2.35713 19.8994 2.82505 21.0912 2.81496C22.0913 2.80646 23.0934 2.81248 24.0937 2.81248C24.0325 3.04164 23.1437 4.0574 22.8969 4.33436C22.4481 4.83782 22.0831 5.28712 21.6343 5.79058L20.3975 7.27252C19.9614 7.82984 18.5815 8.98919 19.8043 10.1019C20.1057 10.3761 20.4543 10.5 20.9999 10.5H27C27.5179 10.5 27.8474 10.3921 28.1452 10.1453C28.8226 9.58422 28.8498 8.64382 28.2436 8.03761C27.5142 7.30819 25.3391 7.59377 23.9062 7.59377L27.6326 3.16391C27.7963 2.98791 27.7916 2.9635 27.9243 2.79942C28.1882 2.47321 28.6875 2.03779 28.6875 1.40628C28.6875 0.667304 28.0725 3.8147e-05 27.2812 3.8147e-05H20.625C20.0501 3.8147e-05 19.4062 0.643916 19.4062 1.21881V1.21877Z" fill="#FF5040"/>
<path fill-rule="evenodd" clip-rule="evenodd" d="M24.0372 45.1874C23.0452 45.1874 21.722 45.0571 20.8773 44.935C16.4005 44.2876 12.2756 42.4969 8.5498 40.0125L6.47406 38.619C5.49311 38.2066 4.47043 39.0154 4.49659 39.9321C4.52465 40.9164 5.40464 41.311 6.03941 41.7729C7.88376 43.1151 10.5998 44.6018 12.6881 45.5304C15.8397 46.9318 19.5234 48 24.0372 48C30.1431 48 35.1653 45.9653 39.803 43.1781C40.5423 42.7339 41.2373 42.2869 41.9058 41.8121C42.6406 41.2903 43.4977 40.8656 43.4977 39.9375C43.4977 39.0784 42.6377 38.2282 41.5926 38.5915C41.3262 38.684 40.7977 39.0817 40.5672 39.2549C40.2022 39.529 39.8944 39.7162 39.5061 39.9751C35.0106 42.9724 29.5344 45.1874 24.0372 45.1874H24.0372Z" fill="#FCBA74"/>
<path fill-rule="evenodd" clip-rule="evenodd" d="M16.8765 25.7242C16.9565 27.6502 18.0243 29.3775 18.9335 30.2852C19.931 31.2811 21.4649 32.1025 23.4379 32.3476L24.106 32.3643C27.8295 32.2279 30.9953 29.3789 31.1217 25.7176L31.1347 25.129C28.6869 24.8785 26.4974 24.6557 23.9792 24.6431C21.4798 24.6508 19.2927 24.8796 16.8645 25.1287L16.8765 25.7242Z" fill="#6A5E6D"/>
</g>
<defs>
<clipPath id="clip0_4971_11442">
<rect width="48" height="48" fill="white"/>
</clipPath>
</defs>
</svg>
