<svg width="24" height="24" viewBox="0 0 24 24" fill="none" xmlns="http://www.w3.org/2000/svg">
<path d="M4 10C4 6.22876 4 4.34315 5.17157 3.17157C6.34315 2 8.22876 2 12 2C15.7712 2 17.6569 2 18.8284 3.17157C20 4.34315 20 6.22876 20 10V14C20 17.7712 20 19.6569 18.8284 20.8284C17.6569 22 15.7712 22 12 22C8.22876 22 6.34315 22 5.17157 20.8284C4 19.6569 4 17.7712 4 14V10Z" fill="#F8FAFF"/>
<path d="M15 19.5C15.2761 19.5 15.5 19.2761 15.5 19C15.5 18.7239 15.2761 18.5 15 18.5V19V19.5ZM9 18.5C8.72386 18.5 8.5 18.7239 8.5 19C8.5 19.2761 8.72386 19.5 9 19.5V19V18.5ZM20 10H19.5V14H20H20.5V10H20ZM4 14H4.5V10H4H3.5V14H4ZM12 22V21.5C10.1002 21.5 8.72573 21.4989 7.67754 21.358C6.64373 21.219 6.00253 20.9523 5.52513 20.4749L5.17157 20.8284L4.81802 21.182C5.51219 21.8762 6.39959 22.1952 7.54429 22.3491C8.67461 22.5011 10.1285 22.5 12 22.5V22ZM4 14H3.5C3.5 15.8715 3.49894 17.3254 3.65091 18.4557C3.80481 19.6004 4.12385 20.4878 4.81802 21.182L5.17157 20.8284L5.52513 20.4749C5.04772 19.9975 4.78098 19.3563 4.64199 18.3225C4.50106 17.2743 4.5 15.8998 4.5 14H4ZM20 14H19.5C19.5 15.8998 19.4989 17.2743 19.358 18.3225C19.219 19.3563 18.9523 19.9975 18.4749 20.4749L18.8284 20.8284L19.182 21.182C19.8762 20.4878 20.1952 19.6004 20.3491 18.4557C20.5011 17.3254 20.5 15.8715 20.5 14H20ZM12 22V22.5C13.8715 22.5 15.3254 22.5011 16.4557 22.3491C17.6004 22.1952 18.4878 21.8762 19.182 21.182L18.8284 20.8284L18.4749 20.4749C17.9975 20.9523 17.3563 21.219 16.3225 21.358C15.2743 21.4989 13.8998 21.5 12 21.5V22ZM12 2V2.5C13.8998 2.5 15.2743 2.50106 16.3225 2.64199C17.3563 2.78098 17.9975 3.04772 18.4749 3.52513L18.8284 3.17157L19.182 2.81802C18.4878 2.12385 17.6004 1.80481 16.4557 1.65091C15.3254 1.49894 13.8715 1.5 12 1.5V2ZM20 10H20.5C20.5 8.12852 20.5011 6.67461 20.3491 5.54429C20.1952 4.39959 19.8762 3.51219 19.182 2.81802L18.8284 3.17157L18.4749 3.52513C18.9523 4.00253 19.219 4.64373 19.358 5.67754C19.4989 6.72573 19.5 8.10025 19.5 10H20ZM12 2V1.5C10.1285 1.5 8.67461 1.49894 7.54429 1.65091C6.39959 1.80481 5.51219 2.12385 4.81802 2.81802L5.17157 3.17157L5.52513 3.52513C6.00253 3.04772 6.64373 2.78098 7.67754 2.64199C8.72573 2.50106 10.1002 2.5 12 2.5V2ZM4 10H4.5C4.5 8.10025 4.50106 6.72573 4.64199 5.67754C4.78098 4.64373 5.04772 4.00253 5.52513 3.52513L5.17157 3.17157L4.81802 2.81802C4.12385 3.51219 3.80481 4.39959 3.65091 5.54429C3.49894 6.6746 3.5 8.12852 3.5 10H4ZM15 19V18.5H9V19V19.5H15V19Z" fill="#2372EC"/>
</svg>
