<svg width="16" height="16" viewBox="0 0 16 16" fill="none" xmlns="http://www.w3.org/2000/svg">
<path d="M2.66675 10.1665C2.39061 10.1665 2.16675 10.3904 2.16675 10.6665C2.16675 10.9426 2.39061 11.1665 2.66675 11.1665V10.6665V10.1665ZM8.66675 11.1665C8.94289 11.1665 9.16675 10.9426 9.16675 10.6665C9.16675 10.3904 8.94289 10.1665 8.66675 10.1665V10.6665V11.1665ZM4.00008 6.83317C3.72394 6.83317 3.50008 7.05703 3.50008 7.33317C3.50008 7.60931 3.72394 7.83317 4.00008 7.83317V7.33317V6.83317ZM8.66675 7.83317C8.94289 7.83317 9.16675 7.60931 9.16675 7.33317C9.16675 7.05703 8.94289 6.83317 8.66675 6.83317V7.33317V7.83317ZM5.33341 3.49984C5.05727 3.49984 4.83341 3.72369 4.83341 3.99984C4.83341 4.27598 5.05727 4.49984 5.33341 4.49984V3.99984V3.49984ZM8.66675 4.49984C8.94289 4.49984 9.16675 4.27598 9.16675 3.99984C9.16675 3.72369 8.94289 3.49984 8.66675 3.49984V3.99984V4.49984ZM11.8334 2.6665C11.8334 2.39036 11.6096 2.1665 11.3334 2.1665C11.0573 2.1665 10.8334 2.39036 10.8334 2.6665H11.3334H11.8334ZM11.3334 13.3332H10.8334C10.8334 13.5484 10.9711 13.7395 11.1753 13.8075C11.3795 13.8756 11.6043 13.8053 11.7334 13.6332L11.3334 13.3332ZM13.7334 10.9665C13.8991 10.7456 13.8543 10.4322 13.6334 10.2665C13.4125 10.1008 13.0991 10.1456 12.9334 10.3665L13.3334 10.6665L13.7334 10.9665ZM2.66675 10.6665V11.1665H8.66675V10.6665V10.1665H2.66675V10.6665ZM4.00008 7.33317V7.83317H8.66675V7.33317V6.83317H4.00008V7.33317ZM5.33341 3.99984V4.49984H8.66675V3.99984V3.49984H5.33341V3.99984ZM11.3334 2.6665H10.8334V13.3332H11.3334H11.8334V2.6665H11.3334ZM11.3334 13.3332L11.7334 13.6332L13.7334 10.9665L13.3334 10.6665L12.9334 10.3665L10.9334 13.0332L11.3334 13.3332Z" fill="#424242"/>
</svg>
