<svg width="32" height="32" viewBox="0 0 32 32" fill="none" xmlns="http://www.w3.org/2000/svg">
<path d="M13.0436 4.6662C14.9383 3.77793 17.0616 3.77793 18.9563 4.6662L27.8779 8.84885C29.8185 9.75866 29.8185 12.9081 27.8779 13.8179L18.9564 18.0005C17.0617 18.8887 14.9384 18.8887 13.0438 18.0005L4.12215 13.8178C2.18153 12.908 2.18153 9.7586 4.12216 8.84879L13.0436 4.6662Z" fill="#96BFFF"/>
<path d="M2.66669 11.3333V18.6667M25.3334 15.3333V22.1672C25.3334 23.5113 24.662 24.7696 23.4862 25.4208C21.5284 26.505 18.3947 28 16 28C13.6053 28 10.4716 26.505 8.5138 25.4208C7.33802 24.7696 6.66669 23.5113 6.66669 22.1672V15.3333M4.12215 13.8178L13.0438 18.0005C14.9384 18.8887 17.0617 18.8887 18.9564 18.0005L27.8779 13.8179C29.8185 12.9081 29.8185 9.75866 27.8779 8.84885L18.9563 4.6662C17.0616 3.77793 14.9383 3.77793 13.0436 4.6662L4.12216 8.84879C2.18153 9.7586 2.18153 12.908 4.12215 13.8178Z" stroke="#0D47A1" stroke-linecap="round"/>
</svg>
