<svg width="48" height="48" viewBox="0 0 48 48" fill="none" xmlns="http://www.w3.org/2000/svg">
<g clip-path="url(#clip0_4971_15124)">
<path fill-rule="evenodd" clip-rule="evenodd" d="M36.1034 47.9999C36.7191 47.9518 36.5794 47.7209 36.5632 46.7861L36.4723 44.2495C36.4501 43.8371 36.3879 43.8579 36.3751 43.4093C36.2964 40.6632 35.7708 35.3535 36.0712 33.1619L36.3612 22.6875C36.5272 22.8916 36.5838 23.2283 36.6401 23.4569C36.7227 23.7919 36.7733 23.927 36.8671 24.2609L37.7953 27.5514C37.9629 28.1258 38.0716 28.7454 38.3468 29.1562C38.9217 29.1562 42.7002 28.0449 43.5968 27.7005C44.0532 27.6048 44.3283 27.4936 44.7269 27.3801C45.6964 27.104 45.1118 26.0143 44.6838 24.3192L41.368 10.6663C40.9768 9.00862 39.9674 8.48644 38.3666 8.0426C36.9285 7.64391 35.4843 7.13727 33.9801 6.71043L29.6816 5.38395C28.8311 5.07299 29.0655 4.27776 29.0655 3.18748C29.0655 2.21874 29.0655 1.24999 29.0655 0.281208C28.8591 0.102322 28.7205 0.0278875 28.5238 -1.52588e-05H27.5289C27.402 0.00153037 27.2612 0.00189644 27.1034 -1.52588e-05H19.2218C19.0969 0.186437 19.0511 0.259732 18.9406 0.468759C18.9406 1.34375 18.9406 2.21874 18.9406 3.09377C18.9406 5.77914 19.0931 5.08308 16.4669 5.96381C15.2751 6.36343 8.7587 8.26684 8.25003 8.52817C6.765 9.2911 6.71485 10.4647 6.34048 11.9624L3.71612 22.7442C3.56196 23.3574 2.59273 26.7218 2.81559 27.0937C3.00688 27.4129 7.31582 28.5778 7.83844 28.7271C8.43685 28.898 8.95866 29.1562 9.65936 29.1562C9.93525 28.7441 10.0251 28.1914 10.1892 27.6235C10.3624 27.0243 10.4808 26.5442 10.6573 25.9354C10.7555 25.597 11.4512 22.942 11.6281 22.6874C11.6281 24.8337 11.8204 26.9109 11.8155 29.0625C11.813 30.1547 11.9149 31.0656 11.9081 32.2511C11.9044 32.9082 12.0055 33.1435 12.0064 33.7467C12.0096 36.0647 11.3173 47.689 11.5344 47.9062C11.5775 47.9492 12.3522 47.9794 13.5919 47.9999H34.3738H36.1034V47.9999Z" fill="#FFC487"/>
<path fill-rule="evenodd" clip-rule="evenodd" d="M17.2025 29.5013C17.4625 29.3179 24.8431 29.3936 25.0647 29.501C25.5323 29.7276 25.5184 30.5894 24.6627 30.6487L18.8581 30.5375C18.6824 30.9856 17.4513 30.843 16.7994 32.356C16.0536 34.0872 16.9077 36.4455 19.9707 36.4428L23.6201 36.4744C23.8857 36.5617 23.6634 36.4327 23.8547 36.604C24.5836 36.3959 25.0346 36.4333 25.7894 36.4397C26.4759 36.4455 27.1313 36.8478 26.5874 37.4597C26.2334 37.8581 23.4048 37.6836 22.6777 37.6556C22.4597 38.4143 22.5562 40.1617 22.5562 41.0624C22.5562 41.6252 22.5525 42.1887 22.5534 42.7512C22.5543 43.4094 22.6117 43.8901 23.0437 44.0778C23.7916 43.4842 23.5149 41.799 23.5187 40.684C23.5233 39.3654 24.1748 39.2395 25.5095 39.3289C25.9229 39.3566 25.8796 39.3873 25.9855 39.4811C26.8248 39.1826 28.2487 39.7047 28.9884 39.2721L27.3881 39.2697C28.0702 38.9079 28.1739 39.0104 28.7022 38.4482C29.0219 38.108 29.3299 37.6563 29.4631 37.0404C29.7712 35.6151 28.9728 34.5671 28.2652 34.0799C27.0934 33.273 24.226 33.5408 22.3157 33.5413C21.7071 33.5414 20.728 33.7016 20.5138 33.2024C20.1694 32.3995 21.0484 32.3126 21.6583 32.3173C22.9908 32.3275 27.3261 32.4014 28.0904 32.2954C30.0558 32.0228 29.7727 29.3576 28.4316 28.3823C27.8094 27.9298 27.7658 28.0319 27.0492 27.7568C26.4903 27.7403 25.2269 27.8479 24.9248 27.6319C24.1609 27.8613 20.9528 27.8343 20.3068 27.6054C19.8559 26.2074 21.0355 26.5101 23.0663 26.5225C23.829 26.5271 24.3336 26.6421 24.3631 25.7867C24.4415 23.5141 24.3579 20.0807 24.3655 17.6248C24.3707 15.9759 24.303 16.6272 24.0025 16.0299C23.1769 16.3362 23.3983 17.0747 23.3985 18.0937L23.4007 23.4419C23.4026 24.4477 23.1699 24.8448 22.1329 24.8559C20.4176 24.8745 18.6234 24.5637 17.5414 25.6026C16.1093 26.9776 16.438 28.9165 17.2025 29.5013V29.5013Z" fill="#FF6859"/>
<path fill-rule="evenodd" clip-rule="evenodd" d="M28.9884 39.2721C30.2654 39.2718 31.3726 37.9235 31.4588 36.6324C31.5558 35.178 30.4224 33.8035 29.2305 33.6742L28.9526 33.5706C29.0184 33.4749 28.924 33.5191 29.1336 33.4477C30.5982 33.3761 31.9111 31.4729 31.3133 29.72C31.057 28.9685 30.5056 28.3985 29.8694 28.07C28.9857 27.6138 28.099 27.7721 27.0492 27.7568C27.7658 28.0319 27.8094 27.9298 28.4317 28.3823C29.7728 29.3576 30.0558 32.0228 28.0905 32.2954C27.3262 32.4014 22.9908 32.3275 21.6583 32.3173C21.0484 32.3126 20.1693 32.3995 20.5139 33.2024C20.728 33.7016 21.7072 33.5414 22.3157 33.5413C24.226 33.5408 27.0934 33.273 28.2652 34.0799C28.9728 34.5671 29.7713 35.6151 29.4631 37.0404C29.3299 37.6563 29.0219 38.108 28.7022 38.4482C28.1739 39.0104 28.0702 38.9079 27.3881 39.2697L28.9884 39.2721Z" fill="#FF5040"/>
<path fill-rule="evenodd" clip-rule="evenodd" d="M24.9248 27.6319C25.4786 27.5933 25.8168 27.1943 26.0172 26.8553C26.3477 26.2961 26.3125 25.9277 26.3106 25.2198L26.3106 17.5301C26.3189 15.5816 25.8256 16.0811 24.0024 16.0299C24.303 16.6273 24.3707 15.9759 24.3655 17.6248C24.3579 20.0807 24.4414 23.5141 24.3631 25.7867C24.3336 26.6421 23.829 26.5271 23.0663 26.5225C21.0355 26.5101 19.8558 26.2074 20.3068 27.6054C20.9528 27.8342 24.1609 27.8613 24.9248 27.6319Z" fill="#FF5040"/>
<path fill-rule="evenodd" clip-rule="evenodd" d="M5.81565 39.9374C5.34134 40.048 4.80033 40.2529 4.34311 40.4337C3.47093 40.7785 3.09692 40.6414 3.09692 41.5312C3.09692 41.7961 3.48789 42.0937 3.75317 42.0937C4.17093 42.0937 5.40854 41.6287 5.85189 41.4737C6.40291 41.2811 7.40944 41.0158 7.40944 40.2187C7.40944 39.8657 7.34774 40.0414 7.31564 39.6562C7.62745 39.5066 8.38103 39.3086 8.73348 39.199C9.2572 39.0361 9.75319 39.0213 9.75319 38.3437C9.75319 37.1038 8.14768 37.8421 7.42115 38.0742C6.95681 38.2226 5.13744 38.524 5.81569 39.9375L5.81565 39.9374Z" fill="#FF6859"/>
<path fill-rule="evenodd" clip-rule="evenodd" d="M27.1487 9.45645C26.1638 9.61919 25.9172 9.98656 25.474 10.5653C25.225 10.8904 24.3333 12.047 25.4404 12.2531C26.1612 12.3873 26.5098 11.3915 26.8904 11.0427C27.3622 10.6104 30.8719 10.8819 32.0724 10.8251C33.2723 10.7682 33.1461 9.59731 32.3881 9.44279C32.0035 9.36441 27.5704 9.38678 27.1487 9.45645Z" fill="#FFBA70"/>
<path fill-rule="evenodd" clip-rule="evenodd" d="M5.34701 35.0624C5.89672 35.0624 6.186 34.6758 6.37827 34.3125C6.77842 34.5243 8.13333 35.4375 8.53451 35.4375C9.27889 35.4375 9.64594 34.5297 8.81528 34.0316C7.01259 32.9506 5.93183 32.0091 5.1595 33.4687C4.94596 33.3257 2.97812 32.25 2.81571 32.25C2.34096 32.25 1.96476 32.6506 2.01121 33.0685C2.06718 33.5725 2.5521 33.7096 2.94192 33.905C3.42778 34.1485 4.85192 35.0624 5.34701 35.0624V35.0624Z" fill="#FF6859"/>
<path fill-rule="evenodd" clip-rule="evenodd" d="M38.2532 38.3437C38.2532 39.3063 39.4961 39.083 40.6907 39.6562C40.6682 39.9267 40.3595 40.4468 41.0372 40.9972C41.3318 41.2365 43.9224 42.0937 44.1595 42.0937C44.8358 42.0937 44.9094 41.6319 44.9094 41.25C44.9094 40.6468 42.6954 40.0551 42.1907 39.9375C42.8354 38.5938 41.2303 38.2597 40.6581 38.0951C39.846 37.8615 38.2532 37.0926 38.2532 38.3437H38.2532Z" fill="#FF6859"/>
<path fill-rule="evenodd" clip-rule="evenodd" d="M15.611 9.45645C14.7306 9.72962 14.8291 10.8031 16.029 10.8269C16.9255 10.8447 17.8528 10.8221 18.7531 10.8221C20.8773 10.8221 20.7712 10.4999 21.7296 11.8368C21.9446 12.1367 22.1627 12.3768 22.6393 12.2333C23.8776 11.8606 22.2202 9.62057 20.8571 9.44477C20.4018 9.38604 15.8458 9.3836 15.611 9.45645Z" fill="#FFBA70"/>
<path fill-rule="evenodd" clip-rule="evenodd" d="M42.8469 33.4687C42.3337 32.499 41.7116 32.554 40.8598 33.0754L39.3137 33.9669C38.2725 34.522 38.7595 35.4375 39.4718 35.4375C39.873 35.4375 41.2279 34.5242 41.6281 34.3125C42.3197 35.6196 43.1795 34.8943 43.7837 34.5931C44.2678 34.3518 45.812 33.6628 45.9639 33.204C46.0976 32.8003 45.7435 32.25 45.2844 32.25C44.9765 32.25 43.1642 33.2562 42.8468 33.4687H42.8469Z" fill="#FF6859"/>
<path fill-rule="evenodd" clip-rule="evenodd" d="M23.0437 44.0778C23.4049 44.4185 25.3967 44.8168 25.4668 43.0303C25.5314 41.3817 25.1498 39.8882 25.9856 39.4811C25.8797 39.3873 25.9229 39.3566 25.5095 39.3289C24.1749 39.2395 23.5233 39.3654 23.5188 40.684C23.515 41.799 23.7916 43.4843 23.0437 44.0778V44.0778Z" fill="#FF5040"/>
<path fill-rule="evenodd" clip-rule="evenodd" d="M18.8581 30.5376L24.6627 30.6488C25.5185 30.5894 25.5323 29.7277 25.0648 29.5011C24.8431 29.3936 17.4626 29.3179 17.2025 29.5014C17.3872 29.9036 18.145 30.5363 18.8581 30.5376V30.5376Z" fill="#FF5040"/>
<path fill-rule="evenodd" clip-rule="evenodd" d="M23.8548 36.604C23.2085 36.6734 22.9345 37.115 22.6777 37.6556C23.4049 37.6836 26.2335 37.8581 26.5875 37.4597C27.1314 36.8478 26.476 36.4454 25.7894 36.4397C25.0347 36.4333 24.5837 36.3959 23.8548 36.604Z" fill="#FF5040"/>
<path fill-rule="evenodd" clip-rule="evenodd" d="M29.2305 33.6742C29.1608 33.5666 29.1883 33.574 29.1336 33.4478C28.924 33.5192 29.0184 33.475 28.9526 33.5706L29.2305 33.6742L29.2305 33.6742Z" fill="#F06A6A"/>
</g>
<defs>
<clipPath id="clip0_4971_15124">
<rect width="48" height="48" fill="white"/>
</clipPath>
</defs>
</svg>
