<svg width="24" height="24" viewBox="0 0 24 24" fill="none" xmlns="http://www.w3.org/2000/svg">
<path opacity="0.5" d="M17.9665 6.55812L16.1369 4.72848C14.5913 3.18295 13.8186 2.41018 12.816 2.12264C11.8134 1.83509 10.7485 2.08083 8.61875 2.57231L7.39057 2.85574C5.5988 3.26922 4.70292 3.47597 4.08944 4.08944C3.47597 4.70292 3.26922 5.5988 2.85574 7.39057L2.57231 8.61875C2.08083 10.7485 1.83509 11.8134 2.12264 12.816C2.41018 13.8186 3.18295 14.5914 4.72848 16.1369L6.55812 17.9665C9.2471 20.6555 10.5916 22 12.2623 22C13.933 22 15.2775 20.6555 17.9665 17.9665C20.6555 15.2775 22 13.933 22 12.2623C22 10.5916 20.6555 9.2471 17.9665 6.55812Z" fill="#2372EC"/>
<path d="M11.1469 14.3286C10.4739 13.6557 10.4796 12.6901 10.882 11.9249C10.6809 11.6327 10.7103 11.2297 10.9701 10.9699C11.2289 10.711 11.63 10.6809 11.9219 10.8797C12.2617 10.699 12.6351 10.6035 13.0073 10.607C13.4215 10.6109 13.7541 10.9499 13.7502 11.3641C13.7462 11.7783 13.4073 12.1109 12.9931 12.107C12.8162 12.1053 12.5837 12.1847 12.3843 12.3841C11.9968 12.7716 12.0987 13.1591 12.2075 13.268C12.3164 13.3768 12.7039 13.4787 13.0914 13.0912C13.8754 12.3072 15.2291 12.0469 16.0966 12.9144C16.7696 13.5874 16.7639 14.553 16.3614 15.3182C16.5625 15.6104 16.5332 16.0134 16.2734 16.2732C16.0145 16.5321 15.6133 16.5621 15.3214 16.3633C14.8645 16.6061 14.3448 16.6971 13.8492 16.5952C13.4435 16.5119 13.1822 16.1154 13.2655 15.7096C13.3489 15.3039 13.7454 15.0426 14.1512 15.1259C14.3283 15.1624 14.6139 15.1042 14.8592 14.859C15.2467 14.4714 15.1448 14.0839 15.0359 13.9751C14.9271 13.8662 14.5396 13.7643 14.1521 14.1519C13.368 14.9359 12.0143 15.1961 11.1469 14.3286Z" fill="#2372EC"/>
<path d="M10.0211 10.2931C10.8022 9.51207 10.8022 8.24574 10.0211 7.46469C9.2401 6.68364 7.97377 6.68364 7.19272 7.46469C6.41167 8.24574 6.41167 9.51207 7.19272 10.2931C7.97377 11.0742 9.2401 11.0742 10.0211 10.2931Z" fill="#2372EC"/>
</svg>
