<svg width="32" height="33" viewBox="0 0 32 33" fill="none" xmlns="http://www.w3.org/2000/svg">
<rect width="32" height="32" rx="16" fill="#F9F9F9"/>
<path d="M11.8093 22.2568C11.8093 22.2568 15.1723 20.0426 19.9678 22.2568L15.8885 24.7171L11.8093 22.2568Z" fill="#5C30FC"/>
<path d="M18.3196 24.812L15.9341 25.4182L13.5486 24.812V17.8201H18.3196V24.812Z" fill="#C9902C"/>
<path d="M23.4687 8.70749C22.1755 5.20212 18.7333 3.21143 15.9145 3.21143C12.9448 3.21143 9.69104 5.20212 8.39784 8.70749C7.04329 12.3792 8.39784 16.4588 9.85662 18.0226C10.8769 19.1164 12.7399 21.4608 15.9429 21.4608C19.3196 21.4608 21.0104 19.0943 22.01 18.0226C23.4688 16.4588 24.8234 12.3792 23.4688 8.70749H23.4687Z" fill="#C9902C"/>
<path d="M6.15665 11.7318C5.37982 14.2634 9.02969 17.6597 10.3542 14.5287C11.5528 11.6953 7.26675 8.11378 6.15665 11.7318Z" fill="#C9902C"/>
<path d="M25.7818 11.6935C26.5817 14.301 22.8227 17.7988 21.4587 14.5741C20.2243 11.6559 24.6385 7.96718 25.7818 11.6935Z" fill="#C9902C"/>
<path d="M16.0222 5.47652C16.0222 5.47652 22.0112 1.51693 23.7489 12.0408L23.907 10.1629C23.907 10.1629 24.6614 2.01605 15.9139 2.13284C8.37162 2.23347 8.04712 7.75239 7.96766 8.92488C7.83959 10.8133 8.47807 12.0408 8.47807 12.0408C8.47807 12.0408 8.16935 1.56759 16.0222 5.47652Z" fill="#902B12"/>
<path d="M28.21 26.7507C25.1871 23.6025 16.0217 23.2136 16.0217 23.2136C16.0217 23.2136 6.57405 23.571 3.79028 26.7029C6.79689 30.0159 11.1624 32.101 16.0217 32.101C20.8576 32.101 25.2049 30.0361 28.21 26.7507Z" fill="#6243FF"/>
<path d="M6.92323 24.8191C6.41691 26.0001 5.99718 27.2312 5.68799 28.4859" stroke="#5C30FC" stroke-width="0.615385" stroke-miterlimit="10"/>
<path d="M9.62104 24.0483C9.14709 26.1697 8.91911 28.3438 8.93511 30.5162" stroke="#5C30FC" stroke-width="0.615385" stroke-miterlimit="10"/>
<path d="M22.315 24.0757C21.2577 26.396 20.6743 28.9234 20.5837 31.4669" stroke="#5C30FC" stroke-width="0.615385" stroke-miterlimit="10"/>
<path d="M24.4297 24.6587C24.1159 26.4158 24.0338 28.2016 24.13 29.9887" stroke="#5C30FC" stroke-width="0.615385" stroke-miterlimit="10"/>
<path d="M11.8088 22.2566C11.8088 22.2566 14.3623 24.1018 19.9673 22.2566V23.6263C19.9673 23.6263 19.2511 26.0086 15.888 26.0086C12.525 26.0086 11.8088 23.6631 11.8088 23.6631V22.2567V22.2566Z" fill="#6243FF"/>
<path d="M19.9668 23.6267C19.9668 23.6267 19.2507 26.009 15.8875 26.009C12.5245 26.009 11.8083 23.6635 11.8083 23.6635" stroke="#902B12" stroke-width="0.615385" stroke-miterlimit="10"/>
<path d="M18.5183 22.6713C18.9765 22.5607 19.4593 22.4237 19.9672 22.2566" stroke="#902B12" stroke-width="0.615385" stroke-miterlimit="10"/>
<path d="M11.8083 22.2566C11.8083 22.2566 13.538 23.5065 17.275 22.9202" stroke="#902B12" stroke-width="0.615385" stroke-miterlimit="10"/>
<path d="M8.67137 13.3106C8.67137 13.2399 8.67137 13.1987 8.67137 13.1987C8.67137 13.1987 8.66976 13.2395 8.67137 13.3106Z" fill="#902B12"/>
<path d="M23.1561 13.5394C22.6381 13.5337 22.9605 15.9325 20.7452 16.1826C19.0191 16.3775 17.5439 15.8613 16.7158 16.333C16.5164 16.4465 16.0162 16.7751 15.9051 16.7873C15.7941 16.7996 15.3976 16.4765 15.2515 16.4025C14.3436 15.9415 12.9158 16.3898 11.082 16.1827C8.86683 15.9327 9.37186 13.3105 8.67192 13.3105C8.25324 13.3105 8.67192 15.1793 8.67192 15.717C8.67192 18.8331 13.4604 22.257 15.9136 22.257C18.3668 22.257 23.2791 19.3407 23.2791 15.717C23.2791 15.1793 23.5748 13.5442 23.1561 13.5394ZM15.9136 19.1682C13.99 21.068 13.0289 17.3528 13.477 16.9734C13.6662 16.8133 14.1296 16.8942 14.6022 17.041L15.9136 17.5668L17.1943 17.0507C17.6772 16.8979 18.1568 16.8099 18.3501 16.9735C18.7982 17.3528 17.8639 21.0944 15.9135 19.1683L15.9136 19.1682ZM9.89443 9.82725C10.2348 9.05878 10.9586 8.467 11.7866 8.2804C12.6146 8.09379 13.5268 8.31675 14.171 8.86341L9.89443 9.82725ZM21.7446 9.82725C21.4042 9.05878 20.6805 8.467 19.8524 8.2804C19.0244 8.09379 18.1123 8.31675 17.4681 8.86341L21.7446 9.82725Z" fill="#7F1B09"/>
<path d="M23.1548 13.1987C23.1548 13.1987 23.1548 13.2398 23.1548 13.3106C23.1564 13.2395 23.1548 13.1987 23.1548 13.1987Z" fill="#902B12"/>
</svg>
