<svg width="24" height="24" viewBox="0 0 24 24" fill="none" xmlns="http://www.w3.org/2000/svg">
<path d="M20.5001 6.75C20.9143 6.75 21.2501 6.41421 21.2501 6C21.2501 5.58579 20.9143 5.25 20.5001 5.25V6V6.75ZM3.5 5.25C3.08579 5.25 2.75 5.58579 2.75 6C2.75 6.41421 3.08579 6.75 3.5 6.75V6V5.25ZM18.3732 15.3991L17.6249 15.3492L18.3732 15.3991ZM19.5815 8.54989C19.6091 8.13659 19.2964 7.77921 18.8831 7.75166C18.4698 7.72411 18.1124 8.03681 18.0848 8.45011L18.8332 8.5L19.5815 8.54989ZM5.91484 8.45011C5.88729 8.03681 5.52991 7.72411 5.11661 7.75166C4.70332 7.77921 4.39061 8.13659 4.41817 8.54989L5.1665 8.5L5.91484 8.45011ZM5.62644 15.3991L4.87811 15.449L5.62644 15.3991ZM6.75694 20.1907L7.26933 19.6431V19.6431L6.75694 20.1907ZM15.4286 4.28571L16.1401 4.04854V4.04854L15.4286 4.28571ZM15.5257 4.57697L14.8141 4.81415V4.81415L15.5257 4.57697ZM8.47434 4.57697L7.76283 4.3398L7.76283 4.33981L8.47434 4.57697ZM8.57143 4.28571L7.85992 4.04854L7.85992 4.04854L8.57143 4.28571ZM8.43922 4.68032L9.14449 4.93544L9.14449 4.93544L8.43922 4.68032ZM6.5 5.25C6.08579 5.25 5.75 5.58579 5.75 6C5.75 6.41421 6.08579 6.75 6.5 6.75V6V5.25ZM6.60915 5.99936L6.62815 6.74912L6.62815 6.74912L6.60915 5.99936ZM15.5608 4.68032L16.2661 4.4252L16.2661 4.42518L15.5608 4.68032ZM17.5 6.75C17.9142 6.75 18.25 6.41421 18.25 6C18.25 5.58579 17.9142 5.25 17.5 5.25V6V6.75ZM17.3909 5.99936L17.3719 6.74912L17.3719 6.74912L17.3909 5.99936ZM14.1554 3.01877L14.2737 2.27815L14.1554 3.01877ZM15.2493 3.8072L15.9145 3.4608L15.9145 3.4608L15.2493 3.8072ZM9.84461 3.01877L9.72634 2.27815L9.84461 3.01877ZM8.75071 3.8072L8.0855 3.4608L8.0855 3.4608L8.75071 3.8072ZM20.5001 6V5.25H3.5V6V6.75H20.5001V6ZM11.6132 21V21.75H12.3865V21V20.25H11.6132V21ZM18.3732 15.3991L19.1216 15.449L19.5815 8.54989L18.8332 8.5L18.0848 8.45011L17.6249 15.3492L18.3732 15.3991ZM5.1665 8.5L4.41817 8.54989L4.87811 15.449L5.62644 15.3991L6.37478 15.3492L5.91484 8.45011L5.1665 8.5ZM12.3865 21V21.75C13.6965 21.75 14.7521 21.7515 15.5853 21.6425C16.44 21.5307 17.1635 21.2919 17.7551 20.7384L17.2427 20.1907L16.7303 19.6431C16.4569 19.8988 16.0828 20.0647 15.3908 20.1552C14.6774 20.2485 13.7374 20.25 12.3865 20.25V21ZM18.3732 15.3991L17.6249 15.3492C17.535 16.6971 17.471 17.6349 17.3304 18.3405C17.1941 19.025 17.0038 19.3873 16.7303 19.6431L17.2427 20.1907L17.7551 20.7384C18.3467 20.185 18.6331 19.4789 18.8015 18.6336C18.9657 17.8094 19.0344 16.7561 19.1216 15.449L18.3732 15.3991ZM11.6132 21V20.25C10.2623 20.25 9.32231 20.2485 8.6089 20.1552C7.9169 20.0647 7.54275 19.8988 7.26933 19.6431L6.75694 20.1907L6.24456 20.7384C6.83615 21.2919 7.5597 21.5307 8.41435 21.6425C9.2476 21.7515 10.3032 21.75 11.6132 21.75V21ZM5.62644 15.3991L4.87811 15.449C4.96524 16.7561 5.03396 17.8094 5.19814 18.6336C5.36654 19.4789 5.65296 20.185 6.24456 20.7384L6.75694 20.1907L7.26933 19.6431C6.99592 19.3873 6.80559 19.025 6.66924 18.3405C6.52867 17.6349 6.46464 16.6971 6.37478 15.3492L5.62644 15.3991ZM10.3553 3V3.75H13.6447V3V2.25H10.3553V3ZM15.4286 4.28571L14.7171 4.52289L14.8141 4.81415L15.5257 4.57697L16.2372 4.3398L16.1401 4.04854L15.4286 4.28571ZM8.47434 4.57697L9.18585 4.81415L9.28294 4.52289L8.57143 4.28571L7.85992 4.04854L7.76283 4.3398L8.47434 4.57697ZM8.47434 4.57697L7.76283 4.33981C7.74384 4.39677 7.73854 4.41247 7.73394 4.4252L8.43922 4.68032L9.14449 4.93544C9.15713 4.90051 9.1695 4.8632 9.18585 4.81414L8.47434 4.57697ZM6.5 6V6.75C6.55171 6.75 6.59102 6.75006 6.62815 6.74912L6.60915 5.99936L6.59015 5.2496C6.57662 5.24994 6.56005 5.25 6.5 5.25V6ZM8.43922 4.68032L7.73394 4.4252C7.55882 4.90932 7.1048 5.23656 6.59015 5.2496L6.60915 5.99936L6.62815 6.74912C7.76038 6.72042 8.75923 6.0005 9.14449 4.93544L8.43922 4.68032ZM15.5257 4.57697L14.8141 4.81415C14.8304 4.86286 14.8429 4.90059 14.8555 4.93546L15.5608 4.68032L16.2661 4.42518C16.2615 4.41254 16.2561 4.39649 16.2372 4.3398L15.5257 4.57697ZM17.5 6V5.25C17.44 5.25 17.4234 5.24994 17.4098 5.2496L17.3909 5.99936L17.3719 6.74912C17.409 6.75006 17.4483 6.75 17.5 6.75V6ZM15.5608 4.68032L14.8555 4.93544C15.2408 6.0005 16.2396 6.72042 17.3719 6.74912L17.3909 5.99936L17.4099 5.2496C16.8952 5.23656 16.4412 4.90932 16.2661 4.4252L15.5608 4.68032ZM13.6447 3V3.75C13.9331 3.75 13.9926 3.75227 14.0371 3.75938L14.1554 3.01877L14.2737 2.27815C14.0831 2.24773 13.8806 2.25 13.6447 2.25V3ZM15.4286 4.28571L16.1401 4.04854C16.0655 3.82478 16.0036 3.63192 15.9145 3.4608L15.2493 3.8072L14.5841 4.1536C14.6049 4.19359 14.6259 4.24937 14.7171 4.52289L15.4286 4.28571ZM14.1554 3.01877L14.0371 3.75938C14.2716 3.79682 14.4744 3.94304 14.5841 4.1536L15.2493 3.8072L15.9145 3.4608C15.5856 2.82911 14.977 2.39046 14.2737 2.27815L14.1554 3.01877ZM10.3553 3V2.25C10.1194 2.25 9.91686 2.24773 9.72634 2.27815L9.84461 3.01877L9.96287 3.75938C10.0074 3.75227 10.0669 3.75 10.3553 3.75V3ZM8.57143 4.28571L9.28294 4.52289C9.37411 4.24938 9.3951 4.19359 9.41593 4.1536L8.75071 3.8072L8.0855 3.4608C7.9964 3.63192 7.9345 3.8248 7.85992 4.04854L8.57143 4.28571ZM9.84461 3.01877L9.72634 2.27815C9.02305 2.39046 8.41445 2.82911 8.0855 3.4608L8.75071 3.8072L9.41593 4.1536C9.52557 3.94304 9.72844 3.79682 9.96287 3.75938L9.84461 3.01877Z" fill="#D92D20"/>
</svg>
