<svg width="32" height="33" viewBox="0 0 32 33" fill="none" xmlns="http://www.w3.org/2000/svg">
<rect width="32" height="32" rx="16" fill="#F9F9F9"/>
<path d="M28.025 27.5339L28.0015 27.4924C26.3694 24.6619 16.4691 23.2515 16.4691 23.2515C16.4691 23.2515 7.00358 24.7949 5.42668 27.2889C5.36841 27.381 5.31163 27.4768 5.2561 27.5755C8.15827 30.3691 12.1775 32.0987 16.6192 32.0987C21.0828 32.0987 25.1194 30.3516 28.0248 27.5338L28.025 27.5339Z" fill="#FFCE10"/>
<path d="M8.45007 25.2933L8.39819 29.9317C10.8013 31.3091 13.6128 32.1011 16.6179 32.1011C19.8351 32.1011 22.8306 31.1933 25.3405 29.6314L24.9948 25.4007C24.1119 25.0322 23.1261 24.7107 22.146 24.4359C21.1036 26.5302 18.6463 30.986 16.6179 30.9607C14.6803 30.9365 12.165 26.5516 11.0593 24.4272C10.1687 24.6803 9.26931 24.9699 8.45019 25.2933H8.45007Z" fill="#E23128"/>
<path d="M7.84814 29.5988L7.89375 25.5221C8.24687 25.368 8.62086 25.2208 9.00739 25.0806L8.9497 30.2311C8.57297 30.0341 8.2056 29.8231 7.84814 29.5988ZM11.5946 24.277C13.0809 27.1325 15.2985 30.4114 16.6258 30.4279C16.6293 30.4281 16.6331 30.4281 16.6366 30.4281C18.0218 30.4281 20.1969 27.1374 21.6128 24.288C21.9682 24.382 22.3269 24.4824 22.6837 24.5888C22.3178 25.3282 21.7656 26.3831 21.1068 27.447C19.4229 30.1662 17.9602 31.4887 16.6362 31.4887C16.6278 31.4887 16.6196 31.4886 16.6113 31.4886C15.3288 31.4725 13.8611 30.1319 12.1244 27.3902C11.4648 26.349 10.9033 25.3187 10.5218 24.5818C10.8798 24.4742 11.2393 24.3727 11.5945 24.2769L11.5946 24.277ZM25.572 25.6534L25.869 29.2859C25.526 29.5184 25.1732 29.7386 24.811 29.9452L24.4208 25.1705C24.8228 25.3226 25.2095 25.4837 25.572 25.6536V25.6534Z" fill="#5C30FC"/>
<path d="M21.3792 6.56589C21.3792 6.56589 21.5217 3.16867 20.6501 3.01701C19.7786 2.86535 18.5198 3.97245 18.5198 3.97245C18.5198 3.97245 17.3047 2.04335 16.0418 2.135C14.7789 2.22676 15.2566 4.12749 15.2566 4.12749C15.2566 4.12749 11.9478 2.96955 11.1554 3.82581C10.363 4.68207 11.1554 5.59191 11.1554 5.59191C11.1554 5.59191 8.5406 5.46971 8.30276 6.36492C8.06502 7.26002 8.85747 7.56334 8.85747 7.56334C8.85747 7.56334 5.68793 7.86665 5.68793 9.00397C5.68793 10.1413 6.87648 10.2171 6.87648 10.2171C6.87648 10.2171 4.57851 11.4303 4.57851 12.1885C4.57851 12.9468 5.92554 13.4017 5.92554 13.4017C5.92554 13.4017 3.94455 15.5248 4.57851 16.4346C5.21246 17.3444 6.87648 17.6478 6.87648 17.6478C6.87648 17.6478 6.23123 19.485 6.71799 19.9172C7.15297 20.3034 9.49142 19.9172 9.49142 19.9172C9.49142 19.9172 9.22245 21.4715 10.0148 22.0022C10.8072 22.533 12.1693 20.9713 12.1693 20.9713C12.1693 20.9713 12.0495 22.5595 12.8308 22.7948C13.6862 23.0525 16.2764 21.0357 16.2764 21.0357C16.2764 21.0357 20.8228 23.2586 21.7737 22.9553C22.7245 22.652 22.5661 20.7564 22.5661 20.7564C22.5661 20.7564 25.181 20.8975 25.6564 19.917C26.1319 18.9366 24.7849 18.2488 24.7849 18.2488C24.7849 18.2488 27.796 16.9652 27.5583 16.1312C27.3206 15.2972 25.8943 14.8422 25.8943 14.8422C25.8943 14.8422 27.6643 13.8564 27.5716 12.795C27.4791 11.7334 25.815 11.3543 25.815 11.3543C25.815 11.3543 27.0828 9.00375 26.7659 8.3214C26.4489 7.63895 24.8641 7.7906 24.8641 7.7906C24.8641 7.7906 25.2603 5.81917 24.7849 5.44003C24.3094 5.06089 21.3794 6.56567 21.3794 6.56567L21.3792 6.56589Z" fill="#7F1B09"/>
<path d="M21.3216 6.83056C21.8252 6.27074 22.0688 5.50416 21.9762 4.77086C21.9601 4.64408 21.9255 4.50442 21.8141 4.43427C21.661 4.33793 21.4553 4.42467 21.3113 4.53301C21.0324 4.74282 20.822 5.0349 20.7164 5.35916C20.9679 5.48157 21.2892 5.4052 21.5018 5.22769C21.7143 5.05006 21.8331 4.79006 21.9016 4.5281C21.9966 4.16521 21.9919 3.74079 21.7287 3.46432C21.4062 3.12566 20.7985 3.15937 20.4253 3.44654C20.0521 3.73359 19.8806 4.20198 19.8269 4.65728" stroke="#7F1B09" stroke-width="0.615385" stroke-miterlimit="10"/>
<path d="M7.03918 17.1441C6.95869 17.6076 6.58892 18.0267 6.1106 18.133C5.6324 18.2394 5.08043 17.992 4.90301 17.5539C4.7256 17.1158 4.99503 16.5488 5.46958 16.4285C5.67983 16.3751 5.98153 16.4922 5.93478 16.6955C5.9048 16.8256 5.74802 16.8868 5.61005 16.9057C4.84304 17.0111 4.06462 16.3451 4.08868 15.604C4.11262 14.8628 4.93266 14.2442 5.69135 14.3949C5.69853 14.4756 5.70572 14.5563 5.7129 14.6371" stroke="#7F1B09" stroke-width="0.615385" stroke-miterlimit="10"/>
<path d="M6.53629 13.3163C5.98261 13.5378 5.31935 13.5163 4.80318 13.2235C4.28701 12.9306 3.94358 12.3615 3.97767 11.7883C4.01176 11.2149 4.44379 10.6724 5.02369 10.5247C5.33109 10.4464 5.67657 10.4799 5.93985 10.651C6.20312 10.822 6.36674 11.1391 6.30962 11.4386C5.9931 11.6106 5.54785 11.3758 5.47043 11.0356C5.39289 10.6953 5.63165 10.336 5.96345 10.1928C6.29525 10.0497 6.69022 10.0941 7.02144 10.2384C7.35267 10.3828 7.63088 10.6175 7.8929 10.8593" stroke="#7F1B09" stroke-width="0.615385" stroke-miterlimit="10"/>
<path d="M7.10127 8.76527C6.75408 8.95587 6.26106 8.77792 6.09151 8.43086C5.92196 8.0839 6.06415 7.63842 6.3801 7.40308C6.69605 7.16785 7.14802 7.13512 7.52007 7.27641C7.83693 7.39686 8.12484 7.74458 7.95996 8.03011C7.80763 8.29382 7.34425 8.25716 7.17676 8.00196C7.00915 7.74687 7.10629 7.39086 7.32909 7.17789C7.55188 6.96491 7.8692 6.86966 8.17979 6.81991C8.50384 6.76798 8.84373 6.75848 9.1541 6.8617C9.46446 6.96491 9.7413 7.19578 9.82762 7.4992" stroke="#7F1B09" stroke-width="0.615385" stroke-miterlimit="10"/>
<path d="M20.4765 21.4949C20.2207 21.7473 20.2719 22.1906 20.5173 22.4522C20.7626 22.714 21.1467 22.8192 21.5139 22.8307C22.3154 22.8562 23.1183 22.4684 23.5728 21.8362C23.7327 21.614 23.8532 21.3552 23.8519 21.0855C23.8507 20.8156 23.7076 20.5361 23.4536 20.4188C23.0733 20.2433 22.5719 20.5323 22.4985 20.9302C22.4251 21.3281 22.7294 21.7368 23.1305 21.8631C23.5317 21.9893 23.9891 21.8644 24.314 21.6062C24.719 21.2845 24.9376 20.7435 24.8123 20.2543C24.6871 19.7651 24.1961 19.3701 23.6699 19.3829" stroke="#7F1B09" stroke-width="0.615385" stroke-miterlimit="10"/>
<path d="M25.0166 17.7597C24.7081 18.2407 25.0956 18.9454 25.6724 19.0637C26.2492 19.182 26.8558 18.7917 27.0665 18.2646C27.2149 17.8932 27.1756 17.426 26.8686 17.1581C26.5616 16.8901 25.9732 16.9536 25.8234 17.3246C25.7024 17.6239 25.928 17.9883 26.2504 18.0766C26.5729 18.1649 26.9353 18.0063 27.125 17.7416C27.3147 17.4769 27.3475 17.129 27.2698 16.8169C27.1944 16.5143 27.0101 16.2262 26.727 16.0733C26.4439 15.9206 26.0576 15.9299 25.8168 16.1389" stroke="#7F1B09" stroke-width="0.615385" stroke-miterlimit="10"/>
<path d="M26.3339 12.4089C27.093 12.497 27.8631 11.8943 27.9234 11.1648C27.9531 10.8066 27.8078 10.416 27.4856 10.2316C27.1634 10.0472 26.6685 10.1562 26.5362 10.4924C26.4757 10.6458 26.5178 10.8535 26.6762 10.9157C26.8621 10.9887 27.0588 10.8186 27.1355 10.6407C27.3263 10.1979 27.0822 9.629 26.6211 9.44243C26.16 9.25575 25.5633 9.48433 25.3643 9.92381" stroke="#7F1B09" stroke-width="0.615385" stroke-miterlimit="10"/>
<path d="M25.6601 8.63831C25.927 8.28251 26.2041 7.89966 26.2249 7.46215C26.2457 7.02474 25.885 6.54282 25.4303 6.59301C25.1032 6.62913 24.8674 6.91291 24.7308 7.19975C24.6232 7.4256 24.5773 7.74124 24.7925 7.87959C24.9311 7.96873 25.1279 7.93436 25.2583 7.83431C25.3886 7.73426 25.4637 7.5826 25.5156 7.43073C25.6625 7.00118 25.6222 6.4599 25.2446 6.18845C24.8457 5.90172 24.2638 6.04487 23.8477 6.30836C23.4318 6.57185 23.087 6.94215 22.6313 7.13669" stroke="#7F1B09" stroke-width="0.615385" stroke-miterlimit="10"/>
<path d="M7.74315 19.3779C7.33313 19.4203 6.96325 19.73 6.88355 20.1172C6.80396 20.5043 7.03531 20.9347 7.41796 21.0815C7.80073 21.2284 8.29056 21.059 8.47106 20.7042C8.54882 20.5513 8.56512 20.3534 8.4527 20.2218C8.34016 20.0901 8.12409 20.0674 7.96629 20.1457C7.80848 20.224 7.70746 20.384 7.67029 20.5503C7.58375 20.9366 7.83015 21.3526 8.20117 21.5258C8.57219 21.6989 9.03363 21.6454 9.38368 21.4358C9.87716 21.1403 10.1489 20.54 10.0366 19.9934" stroke="#7F1B09" stroke-width="0.615385" stroke-miterlimit="10"/>
<path d="M16.5124 23.0491L12.6526 24.007C12.6526 24.007 13.139 27.4144 16.4237 27.4144C19.7084 27.4144 20.4534 24.0018 20.4534 24.0018L16.5124 23.0491Z" fill="#C9902C"/>
<path d="M18.6637 25.1769L16.5396 25.6999L14.4155 25.1769V19.145H18.6637V25.1769Z" fill="#C9902C"/>
<path d="M14.4141 22.0455C14.4141 22.0455 18.2869 21.2282 18.6621 21.8458V22.0797C17.9461 24.0552 14.4141 23.5703 14.4141 23.5703V22.0454V22.0455Z" fill="#902B12"/>
<path d="M18.7703 26.6566C20.0934 25.6512 20.4533 24.002 20.4533 24.002" stroke="#902B12" stroke-width="0.615385" stroke-miterlimit="10"/>
<path d="M14.2878 26.7756C14.8175 27.1539 15.5129 27.4157 16.4232 27.4157C16.8338 27.4157 17.2047 27.3623 17.5395 27.269" stroke="#902B12" stroke-width="0.615385" stroke-miterlimit="10"/>
<path d="M12.6526 24.0073C12.6526 24.0073 12.7844 24.93 13.3735 25.8151" stroke="#902B12" stroke-width="0.615385" stroke-miterlimit="10"/>
<path d="M23.2456 11.282C22.0941 8.25796 19.0292 6.54053 16.5194 6.54053C13.8753 6.54053 10.9781 8.25796 9.82663 11.282C8.62052 14.4496 9.82663 17.9691 11.1254 19.3182C12.034 20.2619 13.6927 22.7145 16.5446 22.7145C19.5512 22.7145 21.0566 20.2428 21.9468 19.3182C23.2456 17.9691 24.4517 14.4496 23.2456 11.282Z" fill="#C9902C"/>
<path d="M6.97509 14.0983C6.31605 16.1796 9.41273 18.9716 10.5365 16.3976C11.5535 14.0683 7.91701 11.124 6.97509 14.0983Z" fill="#C9902C"/>
<path d="M25.986 14.0983C26.6451 16.1796 23.5484 18.9716 22.4246 16.3976C21.4077 14.0683 25.0441 11.124 25.986 14.0983Z" fill="#C9902C"/>
<path d="M17.0538 8.31807C17.0538 8.31807 23.4392 5.92767 23.2105 15.4331L24.1665 12.3408C24.1665 12.3408 25.411 5.49289 16.5215 5.60963C8.21304 5.71863 9.00708 11.3909 9.11072 12.3998C9.2423 13.6814 10.1084 15.5956 10.1084 15.5956C10.1084 15.5956 9.33215 6.43338 17.0537 8.31807H17.0538Z" fill="#7F1B09"/>
<path d="M10.1096 15.5946C10.1096 15.5946 8.85347 14.2059 8.75131 13.7168C8.62908 13.1321 9.25973 12.8827 9.25973 12.8827C9.25973 12.8827 8.19215 12.7174 8.42943 11.991C8.66671 11.2647 9.83074 11.281 9.83074 11.281C9.83074 11.281 10.1778 13.6214 10.1096 15.5947V15.5946Z" fill="#7F1B09"/>
<path d="M8.59429 18.2488C8.59429 18.2488 7.82989 18.9391 8.08473 19.3564C8.33956 19.7736 9.35868 19.3564 9.35868 19.3564C9.35868 19.3564 9.54978 20.459 9.99571 20.6954C10.4415 20.9318 10.9512 20.3114 10.9512 20.3114C10.9512 20.3114 11.3327 21.5473 11.7485 21.3922C12.1643 21.2373 12.1706 20.9713 12.1706 20.9713" stroke="#902B12" stroke-width="0.615385" stroke-miterlimit="10"/>
<path d="M16.097 7.20436C16.097 7.20436 15.5434 6.3889 16.1602 6.12072C16.7771 5.85265 17.6801 6.89581 17.6801 6.89581C17.6801 6.89581 17.6666 5.85254 18.2944 5.85254C18.9223 5.85254 19.6024 6.95396 19.6024 6.95396C19.6024 6.95396 19.9759 6.5027 20.4919 6.52834C21.0077 6.55409 21.172 7.90514 21.172 7.90514" stroke="#902B12" stroke-width="0.615385" stroke-miterlimit="10"/>
<path d="M11.2011 9.53181C11.2011 9.53181 10.4261 8.46574 10.9105 8.23389C11.3948 8.00215 12.1701 8.23389 12.1701 8.23389C12.1701 8.23389 11.492 7.21418 12.1701 6.98244C12.8481 6.7507 13.2372 7.40054 13.2372 7.40054C13.2372 7.40054 13.2356 6.37974 13.6231 6.28711C14.0107 6.19437 14.7172 6.93247 14.7172 6.93247" stroke="#902B12" stroke-width="0.615385" stroke-miterlimit="10"/>
<path d="M11.9847 6.27914C11.9847 6.27914 11.6243 5.02704 12.1618 4.96267C12.6992 4.89819 13.3497 5.36352 13.3497 5.36352C13.3497 5.36352 13.0647 4.18606 13.7847 4.18322C14.5047 4.18049 14.6457 4.91717 14.6457 4.91717C14.6457 4.91717 14.999 3.9541 15.3967 3.98999C15.7944 4.02589 16.2041 4.94674 16.2041 4.94674" stroke="#902B12" stroke-width="0.615385" stroke-miterlimit="10"/>
<path d="M22.0583 7.89714C22.0583 7.89714 23.2928 7.35751 23.4447 7.85492C23.5967 8.35233 23.2202 9.0409 23.2202 9.0409C23.2202 9.0409 24.3897 8.58429 24.5072 9.26402C24.6246 9.94375 23.8869 10.1943 23.8869 10.1943C23.8869 10.1943 24.9368 10.3747 24.963 10.7561C24.9892 11.1376 24.1043 11.6712 24.1043 11.6712" stroke="#902B12" stroke-width="0.615385" stroke-miterlimit="10"/>
<path d="M8.28507 11.2729C8.28507 11.2729 7.14156 10.5734 7.49582 10.1814C7.85008 9.78936 8.65883 9.71844 8.65883 9.71844C8.65883 9.71844 7.62352 9.02605 8.15645 8.5629C8.6895 8.09974 9.30966 8.55679 9.30966 8.55679C9.30966 8.55679 8.8985 7.61499 9.21913 7.38696C9.53975 7.15893 10.4883 7.58073 10.4883 7.58073" stroke="#902B12" stroke-width="0.615385" stroke-miterlimit="10"/>
<path d="M23.1774 15.5946C23.1774 15.5946 24.5047 14.2059 24.607 13.7168C24.7293 13.1321 24.0986 12.8827 24.0986 12.8827C24.0986 12.8827 25.1662 12.7174 24.9289 11.991C24.6916 11.2647 23.5276 11.281 23.5276 11.281C23.5276 11.281 23.1093 13.6214 23.1774 15.5947V15.5946Z" fill="#7F1B09"/>
</svg>
