<svg width="32" height="32" viewBox="0 0 32 32" fill="none" xmlns="http://www.w3.org/2000/svg">
<path d="M18.6667 7.99984C18.6667 10.9454 16.2789 13.3332 13.3334 13.3332C10.3878 13.3332 8.00002 10.9454 8.00002 7.99984C8.00002 5.05432 10.3878 2.6665 13.3334 2.6665C16.2789 2.6665 18.6667 5.05432 18.6667 7.99984Z" fill="#96BFFF"/>
<path d="M24 23.3332C24 26.6469 24 29.3332 13.3334 29.3332C2.66669 29.3332 2.66669 26.6469 2.66669 23.3332C2.66669 20.0195 7.44232 17.3332 13.3334 17.3332C19.2244 17.3332 24 20.0195 24 23.3332Z" fill="#96BFFF"/>
<path d="M25.3334 2.6665C25.3334 2.6665 28 4.2665 28 7.99984C28 11.7332 25.3334 13.3332 25.3334 13.3332M22.6667 5.33317C22.6667 5.33317 24 6.13317 24 7.99984C24 9.8665 22.6667 10.6665 22.6667 10.6665M18.6667 7.99984C18.6667 10.9454 16.2789 13.3332 13.3334 13.3332C10.3878 13.3332 8.00002 10.9454 8.00002 7.99984C8.00002 5.05432 10.3878 2.6665 13.3334 2.6665C16.2789 2.6665 18.6667 5.05432 18.6667 7.99984ZM24 23.3332C24 26.6469 24 29.3332 13.3334 29.3332C2.66669 29.3332 2.66669 26.6469 2.66669 23.3332C2.66669 20.0195 7.44232 17.3332 13.3334 17.3332C19.2244 17.3332 24 20.0195 24 23.3332Z" stroke="#0D47A1" stroke-linecap="round"/>
</svg>
