<svg width="24" height="24" viewBox="0 0 24 24" fill="none" xmlns="http://www.w3.org/2000/svg">
<path d="M9.78182 3.89076C10.3457 3.41023 10.6276 3.16997 10.9224 3.02907C11.6042 2.7032 12.3968 2.7032 13.0786 3.02907C13.3734 3.16997 13.6553 3.41023 14.2192 3.89076C14.4436 4.08201 14.5558 4.17764 14.6757 4.25796C14.9504 4.44209 15.2589 4.56988 15.5833 4.63393C15.7249 4.66188 15.8718 4.6736 16.1658 4.69706C16.9043 4.75599 17.2735 4.78546 17.5816 4.89427C18.2941 5.14594 18.8546 5.7064 19.1062 6.41893C19.2151 6.72699 19.2445 7.09625 19.3035 7.83475C19.3269 8.12868 19.3386 8.27564 19.3666 8.41718C19.4306 8.74163 19.5584 9.05014 19.7426 9.32485C19.8229 9.44469 19.9185 9.55691 20.1098 9.78133C20.5903 10.3452 20.8305 10.6271 20.9714 10.9219C21.2973 11.6037 21.2973 12.3963 20.9714 13.0781C20.8305 13.3729 20.5903 13.6548 20.1098 14.2187C19.9185 14.4431 19.8229 14.5553 19.7426 14.6752C19.5584 14.9499 19.4306 15.2584 19.3666 15.5828C19.3386 15.7244 19.3269 15.8713 19.3035 16.1653C19.2445 16.9038 19.2151 17.273 19.1062 17.5811C18.8546 18.2936 18.2941 18.8541 17.5816 19.1058C17.2735 19.2146 16.9043 19.244 16.1658 19.303C15.8718 19.3264 15.7249 19.3382 15.5833 19.3661C15.2589 19.4301 14.9504 19.5579 14.6757 19.7421C14.5558 19.8224 14.4436 19.918 14.2192 20.1093C13.6553 20.5898 13.3734 20.8301 13.0786 20.971C12.3968 21.2968 11.6042 21.2968 10.9224 20.971C10.6276 20.8301 10.3457 20.5898 9.78182 20.1093C9.55739 19.918 9.44518 19.8224 9.32534 19.7421C9.05063 19.5579 8.74211 19.4301 8.41767 19.3661C8.27613 19.3382 8.12917 19.3264 7.83524 19.303C7.09673 19.244 6.72748 19.2146 6.41942 19.1058C5.70689 18.8541 5.14643 18.2936 4.89476 17.5811C4.78595 17.273 4.75648 16.9038 4.69755 16.1653C4.67409 15.8713 4.66236 15.7244 4.63442 15.5828C4.57037 15.2584 4.44257 14.9499 4.25845 14.6752C4.17813 14.5553 4.0825 14.4431 3.89125 14.2187C3.41072 13.6548 3.17045 13.3729 3.02956 13.0781C2.70369 12.3963 2.70369 11.6037 3.02956 10.9219C3.17045 10.6271 3.41072 10.3452 3.89125 9.78133C4.0825 9.55691 4.17813 9.4447 4.25845 9.32485C4.44257 9.05014 4.57037 8.74163 4.63442 8.41718C4.66236 8.27564 4.67409 8.12868 4.69755 7.83475C4.75648 7.09625 4.78595 6.72699 4.89476 6.41893C5.14643 5.7064 5.70689 5.14594 6.41942 4.89427C6.72748 4.78546 7.09674 4.75599 7.83524 4.69706C8.12917 4.6736 8.27613 4.66188 8.41767 4.63393C8.74211 4.56988 9.05063 4.44209 9.32534 4.25796C9.44518 4.17764 9.55739 4.08201 9.78182 3.89076Z" fill="#2372EC"/>
<path d="M7.83524 4.69706L7.79546 4.19864L7.83524 4.69706ZM8.41767 4.63393L8.51451 5.12446L8.41767 4.63393ZM9.78182 3.89076L10.1061 4.27132V4.27132L9.78182 3.89076ZM9.32534 4.25796L9.04696 3.84262L9.32534 4.25796ZM4.69755 7.83475L4.19913 7.79498L4.69755 7.83475ZM4.89476 6.41893L4.4233 6.25241L4.89476 6.41893ZM6.41942 4.89427L6.25289 4.42282L6.41942 4.89427ZM3.89125 9.78133L4.27181 10.1056L3.89125 9.78133ZM4.25845 9.32485L3.84311 9.04647L4.25845 9.32485ZM4.63442 8.41718L5.12495 8.51402L4.63442 8.41718ZM3.89125 14.2187L4.27181 13.8944H4.27181L3.89125 14.2187ZM3.02956 13.0781L3.48068 12.8625L3.02956 13.0781ZM3.02956 10.9219L3.48068 11.1375L3.02956 10.9219ZM4.69755 16.1653L4.19913 16.205L4.69755 16.1653ZM4.63442 15.5828L5.12495 15.486L4.63442 15.5828ZM4.25845 14.6752L3.84311 14.9535L4.25845 14.6752ZM7.83524 19.303L7.87501 18.8046L7.83524 19.303ZM6.41942 19.1058L6.25289 19.5772L6.41942 19.1058ZM4.89476 17.5811L4.4233 17.7476L4.89476 17.5811ZM9.78182 20.1093L10.1061 19.7287L9.78182 20.1093ZM9.32534 19.7421L9.04696 20.1574L9.32534 19.7421ZM8.41767 19.3661L8.32082 19.8566L8.41767 19.3661ZM14.2192 20.1093L13.8949 19.7287L14.2192 20.1093ZM13.0786 20.971L12.863 20.5198L13.0786 20.971ZM10.9224 20.971L11.138 20.5198L10.9224 20.971ZM16.1658 19.303L16.126 18.8046L16.1658 19.303ZM15.5833 19.3661L15.6802 19.8566L15.5833 19.3661ZM14.6757 19.7421L14.954 20.1574L14.6757 19.7421ZM19.3035 16.1653L18.805 16.1255L19.3035 16.1653ZM19.1062 17.5811L19.5777 17.7476L19.1062 17.5811ZM17.5816 19.1058L17.7481 19.5772L17.5816 19.1058ZM20.1098 14.2187L19.7292 13.8944L20.1098 14.2187ZM19.7426 14.6752L20.1579 14.9536L19.7426 14.6752ZM19.3666 15.5828L19.8571 15.6797L19.3666 15.5828ZM20.1098 9.78133L19.7292 10.1056L20.1098 9.78133ZM20.9714 10.9219L20.5203 11.1375L20.9714 10.9219ZM20.9714 13.0781L20.5203 12.8625L20.9714 13.0781ZM19.3035 7.83475L19.8019 7.79498L19.3035 7.83475ZM19.3666 8.41718L19.8571 8.32033L19.3666 8.41718ZM19.7426 9.32485L20.1579 9.04647L19.7426 9.32485ZM16.1658 4.69706L16.126 5.19547L16.1658 4.69706ZM17.5816 4.89427L17.7481 4.42282L17.5816 4.89427ZM19.1062 6.41893L19.5777 6.25241L19.1062 6.41893ZM14.2192 3.89076L13.8949 4.27132L14.2192 3.89076ZM14.6757 4.25796L14.954 3.84262L14.6757 4.25796ZM15.5833 4.63393L15.4865 5.12446L15.5833 4.63393ZM13.0786 3.02907L12.863 3.48019L13.0786 3.02907ZM10.9224 3.02907L11.138 3.48019L10.9224 3.02907ZM8.85404 12.1464C8.65878 11.9512 8.3422 11.9512 8.14693 12.1464C7.95167 12.3417 7.95167 12.6583 8.14693 12.8536L8.50049 12.5L8.85404 12.1464ZM10.5005 14.5L10.1469 14.8536C10.3422 15.0488 10.6588 15.0488 10.854 14.8536L10.5005 14.5ZM15.854 9.85355C16.0493 9.65829 16.0493 9.34171 15.854 9.14645C15.6588 8.95118 15.3422 8.95118 15.1469 9.14645L15.5005 9.5L15.854 9.85355ZM7.83524 4.69706L7.87501 5.19547C8.15773 5.17291 8.33814 5.15928 8.51451 5.12446L8.41767 4.63393L8.32082 4.1434C8.21411 4.16447 8.1006 4.17429 7.79546 4.19864L7.83524 4.69706ZM9.78182 3.89076L9.45751 3.5102C9.22453 3.70875 9.13731 3.78207 9.04696 3.84262L9.32534 4.25796L9.60372 4.6733C9.75305 4.57321 9.89026 4.45528 10.1061 4.27132L9.78182 3.89076ZM8.41767 4.63393L8.51451 5.12446C8.90385 5.0476 9.27407 4.89425 9.60372 4.6733L9.32534 4.25796L9.04696 3.84262C8.82719 3.98992 8.58038 4.09216 8.32082 4.1434L8.41767 4.63393ZM4.69755 7.83475L5.19596 7.87452C5.25731 7.10574 5.28454 6.8167 5.36621 6.58545L4.89476 6.41893L4.4233 6.25241C4.28736 6.63729 4.25565 7.08675 4.19913 7.79498L4.69755 7.83475ZM7.83524 4.69706L7.79546 4.19864C7.08724 4.25516 6.63778 4.28687 6.25289 4.42282L6.41942 4.89427L6.58594 5.36573C6.81718 5.28405 7.10623 5.25682 7.87501 5.19547L7.83524 4.69706ZM4.89476 6.41893L5.36621 6.58545C5.56755 6.01543 6.01592 5.56706 6.58594 5.36573L6.41942 4.89427L6.25289 4.42282C5.39786 4.72482 4.72531 5.39737 4.4233 6.25241L4.89476 6.41893ZM3.89125 9.78133L4.27181 10.1056C4.45576 9.88977 4.5737 9.75257 4.67379 9.60323L4.25845 9.32485L3.84311 9.04647C3.78255 9.13683 3.70923 9.22404 3.51069 9.45702L3.89125 9.78133ZM4.69755 7.83475L4.19913 7.79498C4.17478 8.10011 4.16496 8.21363 4.14389 8.32033L4.63442 8.41718L5.12495 8.51402C5.15977 8.33765 5.1734 8.15724 5.19596 7.87452L4.69755 7.83475ZM4.25845 9.32485L4.67379 9.60323C4.89474 9.27358 5.04809 8.90336 5.12495 8.51402L4.63442 8.41718L4.14389 8.32033C4.09265 8.57989 3.99041 8.8267 3.84311 9.04647L4.25845 9.32485ZM3.89125 14.2187L4.27181 13.8944C3.77158 13.3074 3.58644 13.0838 3.48068 12.8625L3.02956 13.0781L2.57844 13.2937C2.75447 13.662 3.04986 14.0022 3.51069 14.543L3.89125 14.2187ZM3.89125 9.78133L3.51069 9.45702C3.04986 9.99778 2.75447 10.338 2.57844 10.7063L3.02956 10.9219L3.48068 11.1375C3.58644 10.9163 3.77158 10.6926 4.27181 10.1056L3.89125 9.78133ZM3.02956 13.0781L3.48068 12.8625C3.21998 12.3171 3.21998 11.683 3.48068 11.1375L3.02956 10.9219L2.57844 10.7063C2.18739 11.5244 2.18739 12.4756 2.57844 13.2937L3.02956 13.0781ZM4.69755 16.1653L5.19596 16.1255C5.1734 15.8428 5.15977 15.6624 5.12495 15.486L4.63442 15.5828L4.14389 15.6797C4.16496 15.7864 4.17478 15.8999 4.19913 16.205L4.69755 16.1653ZM3.89125 14.2187L3.51069 14.543C3.70924 14.776 3.78255 14.8632 3.84311 14.9535L4.25845 14.6752L4.67379 14.3968C4.5737 14.2475 4.45576 14.1103 4.27181 13.8944L3.89125 14.2187ZM4.63442 15.5828L5.12495 15.486C5.04809 15.0967 4.89474 14.7264 4.67379 14.3968L4.25845 14.6752L3.84311 14.9535C3.99041 15.1733 4.09265 15.4201 4.14389 15.6797L4.63442 15.5828ZM7.83524 19.303L7.87501 18.8046C7.10623 18.7432 6.81718 18.716 6.58594 18.6343L6.41942 19.1058L6.25289 19.5772C6.63778 19.7132 7.08724 19.7449 7.79546 19.8014L7.83524 19.303ZM4.69755 16.1653L4.19913 16.205C4.25565 16.9133 4.28736 17.3627 4.4233 17.7476L4.89476 17.5811L5.36621 17.4146C5.28454 17.1833 5.25731 16.8943 5.19596 16.1255L4.69755 16.1653ZM6.41942 19.1058L6.58594 18.6343C6.01592 18.433 5.56755 17.9846 5.36621 17.4146L4.89476 17.5811L4.4233 17.7476C4.72531 18.6027 5.39786 19.2752 6.25289 19.5772L6.41942 19.1058ZM9.78182 20.1093L10.1061 19.7287C9.89026 19.5447 9.75305 19.4268 9.60372 19.3267L9.32534 19.7421L9.04696 20.1574C9.13731 20.218 9.22453 20.2913 9.45751 20.4898L9.78182 20.1093ZM7.83524 19.303L7.79546 19.8014C8.1006 19.8257 8.21411 19.8356 8.32082 19.8566L8.41767 19.3661L8.51451 18.8756C8.33814 18.8407 8.15773 18.8271 7.87501 18.8046L7.83524 19.303ZM9.32534 19.7421L9.60372 19.3267C9.27407 19.1058 8.90385 18.9524 8.51451 18.8756L8.41767 19.3661L8.32082 19.8566C8.58038 19.9079 8.82719 20.0101 9.04696 20.1574L9.32534 19.7421ZM14.2192 20.1093L13.8949 19.7287C13.3079 20.2289 13.0842 20.4141 12.863 20.5198L13.0786 20.971L13.2942 21.4221C13.6625 21.246 14.0027 20.9507 14.5435 20.4898L14.2192 20.1093ZM9.78182 20.1093L9.45751 20.4898C9.99827 20.9507 10.3385 21.246 10.7068 21.4221L10.9224 20.971L11.138 20.5198C10.9168 20.4141 10.6931 20.2289 10.1061 19.7287L9.78182 20.1093ZM13.0786 20.971L12.863 20.5198C12.3175 20.7805 11.6835 20.7805 11.138 20.5198L10.9224 20.971L10.7068 21.4221C11.5249 21.8131 12.4761 21.8131 13.2942 21.4221L13.0786 20.971ZM16.1658 19.303L16.126 18.8046C15.8433 18.8271 15.6629 18.8407 15.4865 18.8756L15.5833 19.3661L15.6802 19.8566C15.7869 19.8356 15.9004 19.8257 16.2055 19.8014L16.1658 19.303ZM14.2192 20.1093L14.5435 20.4898C14.7765 20.2913 14.8637 20.218 14.954 20.1574L14.6757 19.7421L14.3973 19.3267C14.2479 19.4268 14.1107 19.5447 13.8949 19.7287L14.2192 20.1093ZM15.5833 19.3661L15.4865 18.8756C15.0972 18.9524 14.7269 19.1058 14.3973 19.3267L14.6757 19.7421L14.954 20.1574C15.1738 20.0101 15.4206 19.9079 15.6802 19.8566L15.5833 19.3661ZM19.3035 16.1653L18.805 16.1255C18.7437 16.8943 18.7165 17.1833 18.6348 17.4146L19.1062 17.5811L19.5777 17.7476C19.7136 17.3627 19.7454 16.9133 19.8019 16.205L19.3035 16.1653ZM16.1658 19.303L16.2055 19.8014C16.9138 19.7449 17.3632 19.7132 17.7481 19.5772L17.5816 19.1058L17.4151 18.6343C17.1838 18.716 16.8948 18.7432 16.126 18.8046L16.1658 19.303ZM19.1062 17.5811L18.6348 17.4146C18.4334 17.9846 17.9851 18.433 17.4151 18.6343L17.5816 19.1058L17.7481 19.5772C18.6031 19.2752 19.2757 18.6027 19.5777 17.7476L19.1062 17.5811ZM20.1098 14.2187L19.7292 13.8944C19.5452 14.1103 19.4273 14.2475 19.3272 14.3968L19.7426 14.6752L20.1579 14.9536C20.2184 14.8632 20.2918 14.776 20.4903 14.543L20.1098 14.2187ZM19.3035 16.1653L19.8019 16.205C19.8262 15.8999 19.836 15.7864 19.8571 15.6797L19.3666 15.5828L18.876 15.486C18.8412 15.6624 18.8276 15.8428 18.805 16.1255L19.3035 16.1653ZM19.7426 14.6752L19.3272 14.3968C19.1063 14.7264 18.9529 15.0967 18.876 15.486L19.3666 15.5828L19.8571 15.6797C19.9084 15.4201 20.0106 15.1733 20.1579 14.9536L19.7426 14.6752ZM20.1098 9.78133L19.7292 10.1056C20.2294 10.6926 20.4146 10.9163 20.5203 11.1375L20.9714 10.9219L21.4226 10.7063C21.2465 10.338 20.9511 9.99778 20.4903 9.45702L20.1098 9.78133ZM20.1098 14.2187L20.4903 14.543C20.9511 14.0022 21.2465 13.662 21.4226 13.2937L20.9714 13.0781L20.5203 12.8625C20.4146 13.0838 20.2294 13.3074 19.7292 13.8944L20.1098 14.2187ZM20.9714 10.9219L20.5203 11.1375C20.781 11.683 20.781 12.3171 20.5203 12.8625L20.9714 13.0781L21.4226 13.2937C21.8136 12.4756 21.8136 11.5244 21.4226 10.7063L20.9714 10.9219ZM19.3035 7.83475L18.805 7.87452C18.8276 8.15725 18.8412 8.33766 18.876 8.51402L19.3666 8.41718L19.8571 8.32033C19.836 8.21363 19.8262 8.10011 19.8019 7.79498L19.3035 7.83475ZM20.1098 9.78133L20.4903 9.45702C20.2918 9.22404 20.2184 9.13683 20.1579 9.04647L19.7426 9.32485L19.3272 9.60323C19.4273 9.75256 19.5452 9.88977 19.7292 10.1056L20.1098 9.78133ZM19.3666 8.41718L18.876 8.51402C18.9529 8.90336 19.1063 9.27358 19.3272 9.60323L19.7426 9.32485L20.1579 9.04647C20.0106 8.8267 19.9084 8.57989 19.8571 8.32033L19.3666 8.41718ZM16.1658 4.69706L16.126 5.19547C16.8948 5.25682 17.1838 5.28405 17.4151 5.36573L17.5816 4.89427L17.7481 4.42282C17.3632 4.28687 16.9138 4.25516 16.2055 4.19864L16.1658 4.69706ZM19.3035 7.83475L19.8019 7.79498C19.7454 7.08675 19.7136 6.63729 19.5777 6.25241L19.1062 6.41893L18.6348 6.58545C18.7165 6.8167 18.7437 7.10574 18.805 7.87452L19.3035 7.83475ZM17.5816 4.89427L17.4151 5.36573C17.9851 5.56706 18.4334 6.01543 18.6348 6.58545L19.1062 6.41893L19.5777 6.25241C19.2757 5.39737 18.6031 4.72482 17.7481 4.42282L17.5816 4.89427ZM14.2192 3.89076L13.8949 4.27132C14.1107 4.45528 14.2479 4.57321 14.3973 4.6733L14.6757 4.25796L14.954 3.84262C14.8637 3.78207 14.7765 3.70875 14.5435 3.5102L14.2192 3.89076ZM16.1658 4.69706L16.2055 4.19864C15.9004 4.17429 15.7869 4.16447 15.6802 4.1434L15.5833 4.63393L15.4865 5.12446C15.6629 5.15928 15.8433 5.17291 16.126 5.19547L16.1658 4.69706ZM14.6757 4.25796L14.3973 4.6733C14.7269 4.89425 15.0972 5.0476 15.4865 5.12446L15.5833 4.63393L15.6802 4.1434C15.4206 4.09216 15.1738 3.98992 14.954 3.84262L14.6757 4.25796ZM14.2192 3.89076L14.5435 3.5102C14.0027 3.04937 13.6625 2.75398 13.2942 2.57795L13.0786 3.02907L12.863 3.48019C13.0842 3.58595 13.3079 3.77109 13.8949 4.27132L14.2192 3.89076ZM9.78182 3.89076L10.1061 4.27132C10.6931 3.77109 10.9168 3.58595 11.138 3.48019L10.9224 3.02907L10.7068 2.57795C10.3385 2.75398 9.99827 3.04937 9.45751 3.5102L9.78182 3.89076ZM13.0786 3.02907L13.2942 2.57795C12.4761 2.18691 11.5249 2.18691 10.7068 2.57795L10.9224 3.02907L11.138 3.48019C11.6835 3.21949 12.3175 3.21949 12.863 3.48019L13.0786 3.02907ZM8.50049 12.5L8.14693 12.8536L10.1469 14.8536L10.5005 14.5L10.854 14.1464L8.85404 12.1464L8.50049 12.5ZM10.5005 14.5L10.854 14.8536L15.854 9.85355L15.5005 9.5L15.1469 9.14645L10.1469 14.1464L10.5005 14.5Z" fill="white"/>
</svg>
