<svg width="24" height="24" viewBox="0 0 24 24" fill="none" xmlns="http://www.w3.org/2000/svg">
<path d="M9.5 17.75C9.08579 17.75 8.75 18.0858 8.75 18.5C8.75 18.9142 9.08579 19.25 9.5 19.25V18.5V17.75ZM14.5 19.25C14.9142 19.25 15.25 18.9142 15.25 18.5C15.25 18.0858 14.9142 17.75 14.5 17.75V18.5V19.25ZM11.25 22.0001C11.25 22.4143 11.5858 22.75 12.0001 22.75C12.4143 22.75 12.75 22.4142 12.75 21.9999L12 22L11.25 22.0001ZM11.9997 16H11.2497V18.5H11.9997H12.7497V16H11.9997ZM11.9997 18.5V17.75H9.5V18.5V19.25H11.9997V18.5ZM14.5 18.5V17.75H11.9997V18.5V19.25H14.5V18.5ZM11.9997 18.5L11.2497 18.5001L11.25 22.0001L12 22L12.75 21.9999L12.7497 18.4999L11.9997 18.5ZM19 9H18.25C18.25 12.4517 15.4516 15.25 11.9997 15.25V16V16.75C16.2799 16.75 19.75 13.2802 19.75 9H19ZM11.9997 16V15.25C8.548 15.25 5.75 12.4518 5.75 9H5H4.25C4.25 13.2802 7.7195 16.75 11.9997 16.75V16ZM5 9H5.75C5.75 5.54822 8.54822 2.75 12 2.75V2V1.25C7.71979 1.25 4.25 4.71979 4.25 9H5ZM12 2V2.75C15.4518 2.75 18.25 5.54822 18.25 9H19H19.75C19.75 4.71979 16.2802 1.25 12 1.25V2Z" fill="#626060"/>
</svg>
